%TF.GenerationSoftware,KiCad,Pcbnew,6.0.11+dfsg-1~bpo11+1*%
%TF.CreationDate,2025-04-08T22:30:38+02:00*%
%TF.ProjectId,v4d2_pico,76346432-5f70-4696-936f-2e6b69636164,rev?*%
%TF.SameCoordinates,Original*%
%TF.FileFunction,Drillmap*%
%TF.FilePolarity,Positive*%
%FSLAX45Y45*%
G04 Gerber Fmt 4.5, Leading zero omitted, Abs format (unit mm)*
G04 Created by KiCad (PCBNEW 6.0.11+dfsg-1~bpo11+1) date 2025-04-08 22:30:38*
%MOMM*%
%LPD*%
G01*
G04 APERTURE LIST*
%ADD10C,0.150000*%
%ADD11C,0.200000*%
%ADD12C,0.040000*%
%ADD13C,0.060000*%
%ADD14C,0.075000*%
%ADD15C,0.080000*%
%ADD16C,0.085000*%
%ADD17C,0.100000*%
%ADD18C,0.102000*%
%ADD19C,0.120000*%
G04 APERTURE END LIST*
D10*
X16954500Y-2260600D02*
X17360900Y-1828800D01*
X16954500Y-4724400D02*
X16954500Y-2260600D01*
X17424400Y-5715000D02*
X16954500Y-4724400D01*
X18681700Y-5715000D02*
X17424400Y-5715000D01*
X20040600Y-3695700D02*
X18681700Y-5715000D01*
X20040600Y-2197100D02*
X20040600Y-3695700D01*
X19723100Y-1828800D02*
X20040600Y-2197100D01*
X17360900Y-1828800D02*
X19723100Y-1828800D01*
X17005300Y-6197600D02*
X19456400Y-6197600D01*
X19456400Y-6197600D02*
X19456400Y-10452100D01*
X19456400Y-10452100D02*
X17005300Y-10452100D01*
X17005300Y-10452100D02*
X17005300Y-6197600D01*
X25628600Y-1828800D02*
X25628600Y-9956800D01*
X20205700Y-1828800D02*
X25628600Y-1828800D01*
X20205700Y-9537700D02*
X20205700Y-1828800D01*
X21145500Y-11252200D02*
X20205700Y-9537700D01*
X23685500Y-11252200D02*
X21145500Y-11252200D01*
X25628600Y-9956800D02*
X23685500Y-11252200D01*
D11*
D12*
X20835670Y-4219350D02*
X20875670Y-4259350D01*
X20875670Y-4219350D02*
X20835670Y-4259350D01*
X21026420Y-9965700D02*
X21066420Y-10005700D01*
X21066420Y-9965700D02*
X21026420Y-10005700D01*
X21074480Y-10179380D02*
X21114480Y-10219380D01*
X21114480Y-10179380D02*
X21074480Y-10219380D01*
X21145470Y-5062440D02*
X21185470Y-5102440D01*
X21185470Y-5062440D02*
X21145470Y-5102440D01*
X21188630Y-8081650D02*
X21228630Y-8121650D01*
X21228630Y-8081650D02*
X21188630Y-8121650D01*
X21201000Y-6446090D02*
X21241000Y-6486090D01*
X21241000Y-6446090D02*
X21201000Y-6486090D01*
X21203240Y-5761310D02*
X21243240Y-5801310D01*
X21243240Y-5761310D02*
X21203240Y-5801310D01*
X21289970Y-6724390D02*
X21329970Y-6764390D01*
X21329970Y-6724390D02*
X21289970Y-6764390D01*
X21430250Y-8946790D02*
X21470250Y-8986790D01*
X21470250Y-8946790D02*
X21430250Y-8986790D01*
X21443350Y-5436300D02*
X21483350Y-5476300D01*
X21483350Y-5436300D02*
X21443350Y-5476300D01*
X21545550Y-9661870D02*
X21585550Y-9701870D01*
X21585550Y-9661870D02*
X21545550Y-9701870D01*
X21574900Y-6228480D02*
X21614900Y-6268480D01*
X21614900Y-6228480D02*
X21574900Y-6268480D01*
X21651040Y-3935710D02*
X21691040Y-3975710D01*
X21691040Y-3935710D02*
X21651040Y-3975710D01*
X21653770Y-11063760D02*
X21693770Y-11103760D01*
X21693770Y-11063760D02*
X21653770Y-11103760D01*
X21695570Y-9099770D02*
X21735570Y-9139770D01*
X21735570Y-9099770D02*
X21695570Y-9139770D01*
X21740590Y-5241720D02*
X21780590Y-5281720D01*
X21780590Y-5241720D02*
X21740590Y-5281720D01*
X21776210Y-6479560D02*
X21816210Y-6519560D01*
X21816210Y-6479560D02*
X21776210Y-6519560D01*
X21787500Y-3246760D02*
X21827500Y-3286760D01*
X21827500Y-3246760D02*
X21787500Y-3286760D01*
X21901920Y-3621340D02*
X21941920Y-3661340D01*
X21941920Y-3621340D02*
X21901920Y-3661340D01*
X21968840Y-9877560D02*
X22008840Y-9917560D01*
X22008840Y-9877560D02*
X21968840Y-9917560D01*
X22135800Y-7027330D02*
X22175800Y-7067330D01*
X22175800Y-7027330D02*
X22135800Y-7067330D01*
X22234930Y-4514720D02*
X22274930Y-4554720D01*
X22274930Y-4514720D02*
X22234930Y-4554720D01*
X22278650Y-7990130D02*
X22318650Y-8030130D01*
X22318650Y-7990130D02*
X22278650Y-8030130D01*
X22299340Y-5766540D02*
X22339340Y-5806540D01*
X22339340Y-5766540D02*
X22299340Y-5806540D01*
X22359950Y-9068090D02*
X22399950Y-9108090D01*
X22399950Y-9068090D02*
X22359950Y-9108090D01*
X22364160Y-8089510D02*
X22404160Y-8129510D01*
X22404160Y-8089510D02*
X22364160Y-8129510D01*
X22366840Y-7271530D02*
X22406840Y-7311530D01*
X22406840Y-7271530D02*
X22366840Y-7311530D01*
X22426800Y-5262370D02*
X22466800Y-5302370D01*
X22466800Y-5262370D02*
X22426800Y-5302370D01*
X22539850Y-5152090D02*
X22579850Y-5192090D01*
X22579850Y-5152090D02*
X22539850Y-5192090D01*
X22666270Y-7071670D02*
X22706270Y-7111670D01*
X22706270Y-7071670D02*
X22666270Y-7111670D01*
X22725580Y-5774260D02*
X22765580Y-5814260D01*
X22765580Y-5774260D02*
X22725580Y-5814260D01*
X22870340Y-6632610D02*
X22910340Y-6672610D01*
X22910340Y-6632610D02*
X22870340Y-6672610D01*
X22996910Y-6462040D02*
X23036910Y-6502040D01*
X23036910Y-6462040D02*
X22996910Y-6502040D01*
X23193970Y-4109830D02*
X23233970Y-4149830D01*
X23233970Y-4109830D02*
X23193970Y-4149830D01*
X23386100Y-10569940D02*
X23426100Y-10609940D01*
X23426100Y-10569940D02*
X23386100Y-10609940D01*
X23411860Y-4330480D02*
X23451860Y-4370480D01*
X23451860Y-4330480D02*
X23411860Y-4370480D01*
X23659720Y-4071490D02*
X23699720Y-4111490D01*
X23699720Y-4071490D02*
X23659720Y-4111490D01*
X23738280Y-5780860D02*
X23778280Y-5820860D01*
X23778280Y-5780860D02*
X23738280Y-5820860D01*
X23799000Y-4045770D02*
X23839000Y-4085770D01*
X23839000Y-4045770D02*
X23799000Y-4085770D01*
X23831850Y-7223870D02*
X23871850Y-7263870D01*
X23871850Y-7223870D02*
X23831850Y-7263870D01*
X23950270Y-7469370D02*
X23990270Y-7509370D01*
X23990270Y-7469370D02*
X23950270Y-7509370D01*
X23972450Y-4365700D02*
X24012450Y-4405700D01*
X24012450Y-4365700D02*
X23972450Y-4405700D01*
X24002130Y-4594620D02*
X24042130Y-4634620D01*
X24042130Y-4594620D02*
X24002130Y-4634620D01*
X24008360Y-4228230D02*
X24048360Y-4268230D01*
X24048360Y-4228230D02*
X24008360Y-4268230D01*
X24022720Y-3570210D02*
X24062720Y-3610210D01*
X24062720Y-3570210D02*
X24022720Y-3610210D01*
X24060010Y-5161860D02*
X24100010Y-5201860D01*
X24100010Y-5161860D02*
X24060010Y-5201860D01*
X24132540Y-4919170D02*
X24172540Y-4959170D01*
X24172540Y-4919170D02*
X24132540Y-4959170D01*
X24189580Y-6151300D02*
X24229580Y-6191300D01*
X24229580Y-6151300D02*
X24189580Y-6191300D01*
X24201590Y-10543220D02*
X24241590Y-10583220D01*
X24241590Y-10543220D02*
X24201590Y-10583220D01*
X24223970Y-9987930D02*
X24263970Y-10027930D01*
X24263970Y-9987930D02*
X24223970Y-10027930D01*
X24252140Y-5150360D02*
X24292140Y-5190360D01*
X24292140Y-5150360D02*
X24252140Y-5190360D01*
X24336890Y-7787640D02*
X24376890Y-7827640D01*
X24376890Y-7787640D02*
X24336890Y-7827640D01*
X24360030Y-10519210D02*
X24400030Y-10559210D01*
X24400030Y-10519210D02*
X24360030Y-10559210D01*
X24455570Y-7831200D02*
X24495570Y-7871200D01*
X24495570Y-7831200D02*
X24455570Y-7871200D01*
X24461840Y-6379700D02*
X24501840Y-6419700D01*
X24501840Y-6379700D02*
X24461840Y-6419700D01*
X24521860Y-5260860D02*
X24561860Y-5300860D01*
X24561860Y-5260860D02*
X24521860Y-5300860D01*
X24528080Y-6831760D02*
X24568080Y-6871760D01*
X24568080Y-6831760D02*
X24528080Y-6871760D01*
X24536010Y-7102830D02*
X24576010Y-7142830D01*
X24576010Y-7102830D02*
X24536010Y-7142830D01*
X24548470Y-5833620D02*
X24588470Y-5873620D01*
X24588470Y-5833620D02*
X24548470Y-5873620D01*
X24961180Y-6964100D02*
X25001180Y-7004100D01*
X25001180Y-6964100D02*
X24961180Y-7004100D01*
X24971110Y-5328740D02*
X25011110Y-5368740D01*
X25011110Y-5328740D02*
X24971110Y-5368740D01*
X25148240Y-5346610D02*
X25188240Y-5386610D01*
X25188240Y-5346610D02*
X25148240Y-5386610D01*
X25189060Y-7298620D02*
X25229060Y-7338620D01*
X25229060Y-7298620D02*
X25189060Y-7338620D01*
X25213650Y-6279200D02*
X25253650Y-6319200D01*
X25253650Y-6279200D02*
X25213650Y-6319200D01*
X25336510Y-5806760D02*
X25376510Y-5846760D01*
X25376510Y-5806760D02*
X25336510Y-5846760D01*
X25456200Y-5910900D02*
X25496200Y-5950900D01*
X25496200Y-5910900D02*
X25456200Y-5950900D01*
D13*
X22521700Y-6746300D02*
G75*
G03*
X22521700Y-6746300I-30000J0D01*
G01*
X22521700Y-6946300D02*
G75*
G03*
X22521700Y-6946300I-30000J0D01*
G01*
D14*
X17411700Y-4915500D02*
X17411700Y-4990500D01*
X17374200Y-4953000D02*
X17449200Y-4953000D01*
X17611700Y-4915500D02*
X17611700Y-4990500D01*
X17574200Y-4953000D02*
X17649200Y-4953000D01*
X17811700Y-4915500D02*
X17811700Y-4990500D01*
X17774200Y-4953000D02*
X17849200Y-4953000D01*
X17824500Y-10046300D02*
X17824500Y-10121300D01*
X17787000Y-10083800D02*
X17862000Y-10083800D01*
X18011700Y-4915500D02*
X18011700Y-4990500D01*
X17974200Y-4953000D02*
X18049200Y-4953000D01*
X18024500Y-10046300D02*
X18024500Y-10121300D01*
X17987000Y-10083800D02*
X18062000Y-10083800D01*
X18224500Y-10046300D02*
X18224500Y-10121300D01*
X18187000Y-10083800D02*
X18262000Y-10083800D01*
X18424500Y-10046300D02*
X18424500Y-10121300D01*
X18387000Y-10083800D02*
X18462000Y-10083800D01*
X18624500Y-10046300D02*
X18624500Y-10121300D01*
X18587000Y-10083800D02*
X18662000Y-10083800D01*
X20364500Y-7616900D02*
X20364500Y-7691900D01*
X20327000Y-7654400D02*
X20402000Y-7654400D01*
X20561300Y-6134700D02*
X20561300Y-6209700D01*
X20523800Y-6172200D02*
X20598800Y-6172200D01*
X20564500Y-7616900D02*
X20564500Y-7691900D01*
X20527000Y-7654400D02*
X20602000Y-7654400D01*
X20761300Y-6134700D02*
X20761300Y-6209700D01*
X20723800Y-6172200D02*
X20798800Y-6172200D01*
X20764500Y-7616900D02*
X20764500Y-7691900D01*
X20727000Y-7654400D02*
X20802000Y-7654400D01*
X20961300Y-6134700D02*
X20961300Y-6209700D01*
X20923800Y-6172200D02*
X20998800Y-6172200D01*
X20964500Y-7616900D02*
X20964500Y-7691900D01*
X20927000Y-7654400D02*
X21002000Y-7654400D01*
X21807500Y-9365700D02*
X21807500Y-9440700D01*
X21770000Y-9403200D02*
X21845000Y-9403200D01*
X21807500Y-9619700D02*
X21807500Y-9694700D01*
X21770000Y-9657200D02*
X21845000Y-9657200D01*
X21888500Y-6240500D02*
X21888500Y-6315500D01*
X21851000Y-6278000D02*
X21926000Y-6278000D01*
X21934500Y-9492700D02*
X21934500Y-9567700D01*
X21897000Y-9530200D02*
X21972000Y-9530200D01*
X22088500Y-6240500D02*
X22088500Y-6315500D01*
X22051000Y-6278000D02*
X22126000Y-6278000D01*
X22288500Y-6240500D02*
X22288500Y-6315500D01*
X22251000Y-6278000D02*
X22326000Y-6278000D01*
X22488500Y-6240500D02*
X22488500Y-6315500D01*
X22451000Y-6278000D02*
X22526000Y-6278000D01*
X22491700Y-7937600D02*
X22491700Y-8012600D01*
X22454200Y-7975100D02*
X22529200Y-7975100D01*
X22491700Y-8699600D02*
X22491700Y-8774600D01*
X22454200Y-8737100D02*
X22529200Y-8737100D01*
X22593300Y-7353900D02*
X22593300Y-7428900D01*
X22555800Y-7391400D02*
X22630800Y-7391400D01*
X22688500Y-6240500D02*
X22688500Y-6315500D01*
X22651000Y-6278000D02*
X22726000Y-6278000D01*
X22793300Y-7353900D02*
X22793300Y-7428900D01*
X22755800Y-7391400D02*
X22830800Y-7391400D01*
X22993300Y-7353900D02*
X22993300Y-7428900D01*
X22955800Y-7391400D02*
X23030800Y-7391400D01*
X23193300Y-7353900D02*
X23193300Y-7428900D01*
X23155800Y-7391400D02*
X23230800Y-7391400D01*
X23393300Y-7353900D02*
X23393300Y-7428900D01*
X23355800Y-7391400D02*
X23430800Y-7391400D01*
X23593300Y-7353900D02*
X23593300Y-7428900D01*
X23555800Y-7391400D02*
X23630800Y-7391400D01*
X23793300Y-7353900D02*
X23793300Y-7428900D01*
X23755800Y-7391400D02*
X23830800Y-7391400D01*
X24066500Y-10147900D02*
X24066500Y-10222900D01*
X24029000Y-10185400D02*
X24104000Y-10185400D01*
X24266500Y-10147900D02*
X24266500Y-10222900D01*
X24229000Y-10185400D02*
X24304000Y-10185400D01*
X24466500Y-10147900D02*
X24466500Y-10222900D01*
X24429000Y-10185400D02*
X24504000Y-10185400D01*
D15*
X17619785Y-4153084D02*
X17619785Y-4096515D01*
X17563216Y-4096515D01*
X17563216Y-4153084D01*
X17619785Y-4153084D01*
X17643185Y-4457885D02*
X17643185Y-4401316D01*
X17586616Y-4401316D01*
X17586616Y-4457885D01*
X17643185Y-4457885D01*
X17869785Y-4153084D02*
X17869785Y-4096515D01*
X17813216Y-4096515D01*
X17813216Y-4153084D01*
X17869785Y-4153084D01*
X17893185Y-4457885D02*
X17893185Y-4401316D01*
X17836616Y-4401316D01*
X17836616Y-4457885D01*
X17893185Y-4457885D01*
X21376985Y-8803985D02*
X21376985Y-8747416D01*
X21320416Y-8747416D01*
X21320416Y-8803985D01*
X21376985Y-8803985D01*
X21377985Y-7344484D02*
X21377985Y-7287915D01*
X21321416Y-7287915D01*
X21321416Y-7344484D01*
X21377985Y-7344484D01*
X21377985Y-7598484D02*
X21377985Y-7541915D01*
X21321416Y-7541915D01*
X21321416Y-7598484D01*
X21377985Y-7598484D01*
X21377985Y-7852484D02*
X21377985Y-7795915D01*
X21321416Y-7795915D01*
X21321416Y-7852484D01*
X21377985Y-7852484D01*
X21377985Y-8106484D02*
X21377985Y-8049915D01*
X21321416Y-8049915D01*
X21321416Y-8106484D01*
X21377985Y-8106484D01*
X21389685Y-8435685D02*
X21389685Y-8379115D01*
X21333116Y-8379115D01*
X21333116Y-8435685D01*
X21389685Y-8435685D01*
X21503985Y-6073484D02*
X21503985Y-6016915D01*
X21447416Y-6016915D01*
X21447416Y-6073484D01*
X21503985Y-6073484D01*
X21503985Y-6835484D02*
X21503985Y-6778915D01*
X21447416Y-6778915D01*
X21447416Y-6835484D01*
X21503985Y-6835484D01*
X21825785Y-6860884D02*
X21825785Y-6804315D01*
X21769216Y-6804315D01*
X21769216Y-6860884D01*
X21825785Y-6860884D01*
X22075785Y-6860884D02*
X22075785Y-6804315D01*
X22019216Y-6804315D01*
X22019216Y-6860884D01*
X22075785Y-6860884D01*
X22138985Y-8803985D02*
X22138985Y-8747416D01*
X22082416Y-8747416D01*
X22082416Y-8803985D01*
X22138985Y-8803985D01*
X22139685Y-8435685D02*
X22139685Y-8379115D01*
X22083116Y-8379115D01*
X22083116Y-8435685D01*
X22139685Y-8435685D01*
X22139985Y-7344484D02*
X22139985Y-7287915D01*
X22083416Y-7287915D01*
X22083416Y-7344484D01*
X22139985Y-7344484D01*
X22139985Y-7598484D02*
X22139985Y-7541915D01*
X22083416Y-7541915D01*
X22083416Y-7598484D01*
X22139985Y-7598484D01*
X22139985Y-7852484D02*
X22139985Y-7795915D01*
X22083416Y-7795915D01*
X22083416Y-7852484D01*
X22139985Y-7852484D01*
X22139985Y-8106484D02*
X22139985Y-8049915D01*
X22083416Y-8049915D01*
X22083416Y-8106484D01*
X22139985Y-8106484D01*
X22366585Y-2721685D02*
X22366585Y-2665116D01*
X22310016Y-2665116D01*
X22310016Y-2721685D01*
X22366585Y-2721685D01*
X22366585Y-3483684D02*
X22366585Y-3427115D01*
X22310016Y-3427115D01*
X22310016Y-3483684D01*
X22366585Y-3483684D01*
X22551384Y-9096085D02*
X22551384Y-9039516D01*
X22494815Y-9039516D01*
X22494815Y-9096085D01*
X22551384Y-9096085D01*
X22620584Y-2721685D02*
X22620584Y-2665116D01*
X22564015Y-2665116D01*
X22564015Y-2721685D01*
X22620584Y-2721685D01*
X22620584Y-3483684D02*
X22620584Y-3427115D01*
X22564015Y-3427115D01*
X22564015Y-3483684D01*
X22620584Y-3483684D01*
X22800384Y-8004884D02*
X22800384Y-7948315D01*
X22743815Y-7948315D01*
X22743815Y-8004884D01*
X22800384Y-8004884D01*
X22800384Y-8258884D02*
X22800384Y-8202315D01*
X22743815Y-8202315D01*
X22743815Y-8258884D01*
X22800384Y-8258884D01*
X22800384Y-8512885D02*
X22800384Y-8456316D01*
X22743815Y-8456316D01*
X22743815Y-8512885D01*
X22800384Y-8512885D01*
X22800384Y-8766885D02*
X22800384Y-8710316D01*
X22743815Y-8710316D01*
X22743815Y-8766885D01*
X22800384Y-8766885D01*
X22874584Y-2721685D02*
X22874584Y-2665116D01*
X22818015Y-2665116D01*
X22818015Y-2721685D01*
X22874584Y-2721685D01*
X22874584Y-3483684D02*
X22874584Y-3427115D01*
X22818015Y-3427115D01*
X22818015Y-3483684D01*
X22874584Y-3483684D01*
X23128584Y-2721685D02*
X23128584Y-2665116D01*
X23072015Y-2665116D01*
X23072015Y-2721685D01*
X23128584Y-2721685D01*
X23128584Y-3483684D02*
X23128584Y-3427115D01*
X23072015Y-3427115D01*
X23072015Y-3483684D01*
X23128584Y-3483684D01*
X23129584Y-6073484D02*
X23129584Y-6016915D01*
X23073015Y-6016915D01*
X23073015Y-6073484D01*
X23129584Y-6073484D01*
X23129584Y-6835484D02*
X23129584Y-6778915D01*
X23073015Y-6778915D01*
X23073015Y-6835484D01*
X23129584Y-6835484D01*
X23301384Y-9096085D02*
X23301384Y-9039516D01*
X23244815Y-9039516D01*
X23244815Y-9096085D01*
X23301384Y-9096085D01*
X23434384Y-6073484D02*
X23434384Y-6016915D01*
X23377815Y-6016915D01*
X23377815Y-6073484D01*
X23434384Y-6073484D01*
X23434384Y-6835484D02*
X23434384Y-6778915D01*
X23377815Y-6778915D01*
X23377815Y-6835484D01*
X23434384Y-6835484D01*
X23562384Y-8004884D02*
X23562384Y-7948315D01*
X23505815Y-7948315D01*
X23505815Y-8004884D01*
X23562384Y-8004884D01*
X23562384Y-8258884D02*
X23562384Y-8202315D01*
X23505815Y-8202315D01*
X23505815Y-8258884D01*
X23562384Y-8258884D01*
X23562384Y-8512885D02*
X23562384Y-8456316D01*
X23505815Y-8456316D01*
X23505815Y-8512885D01*
X23562384Y-8512885D01*
X23562384Y-8766885D02*
X23562384Y-8710316D01*
X23505815Y-8710316D01*
X23505815Y-8766885D01*
X23562384Y-8766885D01*
X23891584Y-7953084D02*
X23891584Y-7896515D01*
X23835015Y-7896515D01*
X23835015Y-7953084D01*
X23891584Y-7953084D01*
X23891584Y-8715085D02*
X23891584Y-8658516D01*
X23835015Y-8658516D01*
X23835015Y-8715085D01*
X23891584Y-8715085D01*
X24247184Y-7953084D02*
X24247184Y-7896515D01*
X24190615Y-7896515D01*
X24190615Y-7953084D01*
X24247184Y-7953084D01*
X24247184Y-8715085D02*
X24247184Y-8658516D01*
X24190615Y-8658516D01*
X24190615Y-8715085D01*
X24247184Y-8715085D01*
X24247184Y-9266955D02*
X24247184Y-9210386D01*
X24190615Y-9210386D01*
X24190615Y-9266955D01*
X24247184Y-9266955D01*
X24247184Y-9616955D02*
X24247184Y-9560386D01*
X24190615Y-9560386D01*
X24190615Y-9616955D01*
X24247184Y-9616955D01*
X24657584Y-6048084D02*
X24657584Y-5991515D01*
X24601015Y-5991515D01*
X24601015Y-6048084D01*
X24657584Y-6048084D01*
X24907584Y-6048084D02*
X24907584Y-5991515D01*
X24851015Y-5991515D01*
X24851015Y-6048084D01*
X24907584Y-6048084D01*
D16*
X17929500Y-9061100D02*
X17972000Y-9018600D01*
X17929500Y-8976100D01*
X17887000Y-9018600D01*
X17929500Y-9061100D01*
X17929500Y-9276100D02*
X17972000Y-9233600D01*
X17929500Y-9191100D01*
X17887000Y-9233600D01*
X17929500Y-9276100D01*
X17929500Y-9491100D02*
X17972000Y-9448600D01*
X17929500Y-9406100D01*
X17887000Y-9448600D01*
X17929500Y-9491100D01*
X18519500Y-9061100D02*
X18562000Y-9018600D01*
X18519500Y-8976100D01*
X18477000Y-9018600D01*
X18519500Y-9061100D01*
X18519500Y-9276100D02*
X18562000Y-9233600D01*
X18519500Y-9191100D01*
X18477000Y-9233600D01*
X18519500Y-9276100D01*
X18519500Y-9491100D02*
X18562000Y-9448600D01*
X18519500Y-9406100D01*
X18477000Y-9448600D01*
X18519500Y-9491100D01*
D17*
X17314500Y-7294600D02*
X17414500Y-7394600D01*
X17414500Y-7294600D02*
X17314500Y-7394600D01*
X17414500Y-7344600D02*
G75*
G03*
X17414500Y-7344600I-50000J0D01*
G01*
X17314500Y-7494600D02*
X17414500Y-7594600D01*
X17414500Y-7494600D02*
X17314500Y-7594600D01*
X17414500Y-7544600D02*
G75*
G03*
X17414500Y-7544600I-50000J0D01*
G01*
X17314500Y-7694600D02*
X17414500Y-7794600D01*
X17414500Y-7694600D02*
X17314500Y-7794600D01*
X17414500Y-7744600D02*
G75*
G03*
X17414500Y-7744600I-50000J0D01*
G01*
X17811900Y-3631600D02*
X17911900Y-3731600D01*
X17911900Y-3631600D02*
X17811900Y-3731600D01*
X17911900Y-3681600D02*
G75*
G03*
X17911900Y-3681600I-50000J0D01*
G01*
X17974500Y-8354600D02*
X18074500Y-8454600D01*
X18074500Y-8354600D02*
X17974500Y-8454600D01*
X18074500Y-8404600D02*
G75*
G03*
X18074500Y-8404600I-50000J0D01*
G01*
X18065900Y-3631600D02*
X18165900Y-3731600D01*
X18165900Y-3631600D02*
X18065900Y-3731600D01*
X18165900Y-3681600D02*
G75*
G03*
X18165900Y-3681600I-50000J0D01*
G01*
X18072900Y-4039400D02*
X18172900Y-4139400D01*
X18172900Y-4039400D02*
X18072900Y-4139400D01*
X18172900Y-4089400D02*
G75*
G03*
X18172900Y-4089400I-50000J0D01*
G01*
X18174500Y-8354600D02*
X18274500Y-8454600D01*
X18274500Y-8354600D02*
X18174500Y-8454600D01*
X18274500Y-8404600D02*
G75*
G03*
X18274500Y-8404600I-50000J0D01*
G01*
X18319900Y-3631600D02*
X18419900Y-3731600D01*
X18419900Y-3631600D02*
X18319900Y-3731600D01*
X18419900Y-3681600D02*
G75*
G03*
X18419900Y-3681600I-50000J0D01*
G01*
X18322900Y-4539400D02*
X18422900Y-4639400D01*
X18422900Y-4539400D02*
X18322900Y-4639400D01*
X18422900Y-4589400D02*
G75*
G03*
X18422900Y-4589400I-50000J0D01*
G01*
X18374500Y-8354600D02*
X18474500Y-8454600D01*
X18474500Y-8354600D02*
X18374500Y-8454600D01*
X18474500Y-8404600D02*
G75*
G03*
X18474500Y-8404600I-50000J0D01*
G01*
X18572900Y-4039400D02*
X18672900Y-4139400D01*
X18672900Y-4039400D02*
X18572900Y-4139400D01*
X18672900Y-4089400D02*
G75*
G03*
X18672900Y-4089400I-50000J0D01*
G01*
X18573900Y-3631600D02*
X18673900Y-3731600D01*
X18673900Y-3631600D02*
X18573900Y-3731600D01*
X18673900Y-3681600D02*
G75*
G03*
X18673900Y-3681600I-50000J0D01*
G01*
X18827900Y-3631600D02*
X18927900Y-3731600D01*
X18927900Y-3631600D02*
X18827900Y-3731600D01*
X18927900Y-3681600D02*
G75*
G03*
X18927900Y-3681600I-50000J0D01*
G01*
X18987300Y-4145000D02*
X19087300Y-4245000D01*
X19087300Y-4145000D02*
X18987300Y-4245000D01*
X19087300Y-4195000D02*
G75*
G03*
X19087300Y-4195000I-50000J0D01*
G01*
X18987300Y-4395000D02*
X19087300Y-4495000D01*
X19087300Y-4395000D02*
X18987300Y-4495000D01*
X19087300Y-4445000D02*
G75*
G03*
X19087300Y-4445000I-50000J0D01*
G01*
X19081900Y-3631600D02*
X19181900Y-3731600D01*
X19181900Y-3631600D02*
X19081900Y-3731600D01*
X19181900Y-3681600D02*
G75*
G03*
X19181900Y-3681600I-50000J0D01*
G01*
X20562100Y-9221000D02*
X20662100Y-9321000D01*
X20662100Y-9221000D02*
X20562100Y-9321000D01*
X20662100Y-9271000D02*
G75*
G03*
X20662100Y-9271000I-50000J0D01*
G01*
X20812100Y-9221000D02*
X20912100Y-9321000D01*
X20912100Y-9221000D02*
X20812100Y-9321000D01*
X20912100Y-9271000D02*
G75*
G03*
X20912100Y-9271000I-50000J0D01*
G01*
X25036500Y-9627400D02*
X25136500Y-9727400D01*
X25136500Y-9627400D02*
X25036500Y-9727400D01*
X25136500Y-9677400D02*
G75*
G03*
X25136500Y-9677400I-50000J0D01*
G01*
X25059900Y-7595400D02*
X25159900Y-7695400D01*
X25159900Y-7595400D02*
X25059900Y-7695400D01*
X25159900Y-7645400D02*
G75*
G03*
X25159900Y-7645400I-50000J0D01*
G01*
X25286500Y-9627400D02*
X25386500Y-9727400D01*
X25386500Y-9627400D02*
X25286500Y-9727400D01*
X25386500Y-9677400D02*
G75*
G03*
X25386500Y-9677400I-50000J0D01*
G01*
X25309900Y-7595400D02*
X25409900Y-7695400D01*
X25409900Y-7595400D02*
X25309900Y-7695400D01*
X25409900Y-7645400D02*
G75*
G03*
X25409900Y-7645400I-50000J0D01*
G01*
D18*
X20486500Y-3759000D02*
X20588500Y-3861000D01*
X20588500Y-3759000D02*
X20486500Y-3861000D01*
X20537500Y-3759000D02*
X20537500Y-3861000D01*
X20486500Y-3810000D02*
X20588500Y-3810000D01*
X20486500Y-5537000D02*
X20588500Y-5639000D01*
X20588500Y-5537000D02*
X20486500Y-5639000D01*
X20537500Y-5537000D02*
X20537500Y-5639000D01*
X20486500Y-5588000D02*
X20588500Y-5588000D01*
X20509500Y-4394000D02*
X20611500Y-4496000D01*
X20611500Y-4394000D02*
X20509500Y-4496000D01*
X20560500Y-4394000D02*
X20560500Y-4496000D01*
X20509500Y-4445000D02*
X20611500Y-4445000D01*
X20509500Y-4648000D02*
X20611500Y-4750000D01*
X20611500Y-4648000D02*
X20509500Y-4750000D01*
X20560500Y-4648000D02*
X20560500Y-4750000D01*
X20509500Y-4699000D02*
X20611500Y-4699000D01*
X20509500Y-4902000D02*
X20611500Y-5004000D01*
X20611500Y-4902000D02*
X20509500Y-5004000D01*
X20560500Y-4902000D02*
X20560500Y-5004000D01*
X20509500Y-4953000D02*
X20611500Y-4953000D01*
X20740500Y-3759000D02*
X20842500Y-3861000D01*
X20842500Y-3759000D02*
X20740500Y-3861000D01*
X20791500Y-3759000D02*
X20791500Y-3861000D01*
X20740500Y-3810000D02*
X20842500Y-3810000D01*
X20740500Y-5537000D02*
X20842500Y-5639000D01*
X20842500Y-5537000D02*
X20740500Y-5639000D01*
X20791500Y-5537000D02*
X20791500Y-5639000D01*
X20740500Y-5588000D02*
X20842500Y-5588000D01*
X20994500Y-3759000D02*
X21096500Y-3861000D01*
X21096500Y-3759000D02*
X20994500Y-3861000D01*
X21045500Y-3759000D02*
X21045500Y-3861000D01*
X20994500Y-3810000D02*
X21096500Y-3810000D01*
X20994500Y-5537000D02*
X21096500Y-5639000D01*
X21096500Y-5537000D02*
X20994500Y-5639000D01*
X21045500Y-5537000D02*
X21045500Y-5639000D01*
X20994500Y-5588000D02*
X21096500Y-5588000D01*
X21248500Y-3759000D02*
X21350500Y-3861000D01*
X21350500Y-3759000D02*
X21248500Y-3861000D01*
X21299500Y-3759000D02*
X21299500Y-3861000D01*
X21248500Y-3810000D02*
X21350500Y-3810000D01*
X21248500Y-5537000D02*
X21350500Y-5639000D01*
X21350500Y-5537000D02*
X21248500Y-5639000D01*
X21299500Y-5537000D02*
X21299500Y-5639000D01*
X21248500Y-5588000D02*
X21350500Y-5588000D01*
X21502500Y-3759000D02*
X21604500Y-3861000D01*
X21604500Y-3759000D02*
X21502500Y-3861000D01*
X21553500Y-3759000D02*
X21553500Y-3861000D01*
X21502500Y-3810000D02*
X21604500Y-3810000D01*
X21502500Y-5537000D02*
X21604500Y-5639000D01*
X21604500Y-5537000D02*
X21502500Y-5639000D01*
X21553500Y-5537000D02*
X21553500Y-5639000D01*
X21502500Y-5588000D02*
X21604500Y-5588000D01*
X21756500Y-3759000D02*
X21858500Y-3861000D01*
X21858500Y-3759000D02*
X21756500Y-3861000D01*
X21807500Y-3759000D02*
X21807500Y-3861000D01*
X21756500Y-3810000D02*
X21858500Y-3810000D01*
X21756500Y-5537000D02*
X21858500Y-5639000D01*
X21858500Y-5537000D02*
X21756500Y-5639000D01*
X21807500Y-5537000D02*
X21807500Y-5639000D01*
X21756500Y-5588000D02*
X21858500Y-5588000D01*
X22010500Y-3759000D02*
X22112500Y-3861000D01*
X22112500Y-3759000D02*
X22010500Y-3861000D01*
X22061500Y-3759000D02*
X22061500Y-3861000D01*
X22010500Y-3810000D02*
X22112500Y-3810000D01*
X22010500Y-5537000D02*
X22112500Y-5639000D01*
X22112500Y-5537000D02*
X22010500Y-5639000D01*
X22061500Y-5537000D02*
X22061500Y-5639000D01*
X22010500Y-5588000D02*
X22112500Y-5588000D01*
X22264500Y-3759000D02*
X22366500Y-3861000D01*
X22366500Y-3759000D02*
X22264500Y-3861000D01*
X22315500Y-3759000D02*
X22315500Y-3861000D01*
X22264500Y-3810000D02*
X22366500Y-3810000D01*
X22264500Y-5537000D02*
X22366500Y-5639000D01*
X22366500Y-5537000D02*
X22264500Y-5639000D01*
X22315500Y-5537000D02*
X22315500Y-5639000D01*
X22264500Y-5588000D02*
X22366500Y-5588000D01*
X22518500Y-3759000D02*
X22620500Y-3861000D01*
X22620500Y-3759000D02*
X22518500Y-3861000D01*
X22569500Y-3759000D02*
X22569500Y-3861000D01*
X22518500Y-3810000D02*
X22620500Y-3810000D01*
X22518500Y-5537000D02*
X22620500Y-5639000D01*
X22620500Y-5537000D02*
X22518500Y-5639000D01*
X22569500Y-5537000D02*
X22569500Y-5639000D01*
X22518500Y-5588000D02*
X22620500Y-5588000D01*
X22772500Y-3759000D02*
X22874500Y-3861000D01*
X22874500Y-3759000D02*
X22772500Y-3861000D01*
X22823500Y-3759000D02*
X22823500Y-3861000D01*
X22772500Y-3810000D02*
X22874500Y-3810000D01*
X22772500Y-5537000D02*
X22874500Y-5639000D01*
X22874500Y-5537000D02*
X22772500Y-5639000D01*
X22823500Y-5537000D02*
X22823500Y-5639000D01*
X22772500Y-5588000D02*
X22874500Y-5588000D01*
X23026500Y-3759000D02*
X23128500Y-3861000D01*
X23128500Y-3759000D02*
X23026500Y-3861000D01*
X23077500Y-3759000D02*
X23077500Y-3861000D01*
X23026500Y-3810000D02*
X23128500Y-3810000D01*
X23026500Y-5537000D02*
X23128500Y-5639000D01*
X23128500Y-5537000D02*
X23026500Y-5639000D01*
X23077500Y-5537000D02*
X23077500Y-5639000D01*
X23026500Y-5588000D02*
X23128500Y-5588000D01*
X23280500Y-3759000D02*
X23382500Y-3861000D01*
X23382500Y-3759000D02*
X23280500Y-3861000D01*
X23331500Y-3759000D02*
X23331500Y-3861000D01*
X23280500Y-3810000D02*
X23382500Y-3810000D01*
X23280500Y-5537000D02*
X23382500Y-5639000D01*
X23382500Y-5537000D02*
X23280500Y-5639000D01*
X23331500Y-5537000D02*
X23331500Y-5639000D01*
X23280500Y-5588000D02*
X23382500Y-5588000D01*
X23534500Y-3759000D02*
X23636500Y-3861000D01*
X23636500Y-3759000D02*
X23534500Y-3861000D01*
X23585500Y-3759000D02*
X23585500Y-3861000D01*
X23534500Y-3810000D02*
X23636500Y-3810000D01*
X23534500Y-5537000D02*
X23636500Y-5639000D01*
X23636500Y-5537000D02*
X23534500Y-5639000D01*
X23585500Y-5537000D02*
X23585500Y-5639000D01*
X23534500Y-5588000D02*
X23636500Y-5588000D01*
X23788500Y-3759000D02*
X23890500Y-3861000D01*
X23890500Y-3759000D02*
X23788500Y-3861000D01*
X23839500Y-3759000D02*
X23839500Y-3861000D01*
X23788500Y-3810000D02*
X23890500Y-3810000D01*
X23788500Y-5537000D02*
X23890500Y-5639000D01*
X23890500Y-5537000D02*
X23788500Y-5639000D01*
X23839500Y-5537000D02*
X23839500Y-5639000D01*
X23788500Y-5588000D02*
X23890500Y-5588000D01*
X24042500Y-3759000D02*
X24144500Y-3861000D01*
X24144500Y-3759000D02*
X24042500Y-3861000D01*
X24093500Y-3759000D02*
X24093500Y-3861000D01*
X24042500Y-3810000D02*
X24144500Y-3810000D01*
X24042500Y-5537000D02*
X24144500Y-5639000D01*
X24144500Y-5537000D02*
X24042500Y-5639000D01*
X24093500Y-5537000D02*
X24093500Y-5639000D01*
X24042500Y-5588000D02*
X24144500Y-5588000D01*
X24296500Y-3759000D02*
X24398500Y-3861000D01*
X24398500Y-3759000D02*
X24296500Y-3861000D01*
X24347500Y-3759000D02*
X24347500Y-3861000D01*
X24296500Y-3810000D02*
X24398500Y-3810000D01*
X24296500Y-5537000D02*
X24398500Y-5639000D01*
X24398500Y-5537000D02*
X24296500Y-5639000D01*
X24347500Y-5537000D02*
X24347500Y-5639000D01*
X24296500Y-5588000D02*
X24398500Y-5588000D01*
X24550500Y-3759000D02*
X24652500Y-3861000D01*
X24652500Y-3759000D02*
X24550500Y-3861000D01*
X24601500Y-3759000D02*
X24601500Y-3861000D01*
X24550500Y-3810000D02*
X24652500Y-3810000D01*
X24550500Y-5537000D02*
X24652500Y-5639000D01*
X24652500Y-5537000D02*
X24550500Y-5639000D01*
X24601500Y-5537000D02*
X24601500Y-5639000D01*
X24550500Y-5588000D02*
X24652500Y-5588000D01*
X24804500Y-3759000D02*
X24906500Y-3861000D01*
X24906500Y-3759000D02*
X24804500Y-3861000D01*
X24855500Y-3759000D02*
X24855500Y-3861000D01*
X24804500Y-3810000D02*
X24906500Y-3810000D01*
X24804500Y-5537000D02*
X24906500Y-5639000D01*
X24906500Y-5537000D02*
X24804500Y-5639000D01*
X24855500Y-5537000D02*
X24855500Y-5639000D01*
X24804500Y-5588000D02*
X24906500Y-5588000D01*
X25058500Y-3759000D02*
X25160500Y-3861000D01*
X25160500Y-3759000D02*
X25058500Y-3861000D01*
X25109500Y-3759000D02*
X25109500Y-3861000D01*
X25058500Y-3810000D02*
X25160500Y-3810000D01*
X25058500Y-5537000D02*
X25160500Y-5639000D01*
X25160500Y-5537000D02*
X25058500Y-5639000D01*
X25109500Y-5537000D02*
X25109500Y-5639000D01*
X25058500Y-5588000D02*
X25160500Y-5588000D01*
X25312500Y-3759000D02*
X25414500Y-3861000D01*
X25414500Y-3759000D02*
X25312500Y-3861000D01*
X25363500Y-3759000D02*
X25363500Y-3861000D01*
X25312500Y-3810000D02*
X25414500Y-3810000D01*
X25312500Y-5537000D02*
X25414500Y-5639000D01*
X25414500Y-5537000D02*
X25312500Y-5639000D01*
X25363500Y-5537000D02*
X25363500Y-5639000D01*
X25312500Y-5588000D02*
X25414500Y-5588000D01*
D19*
X17199300Y-4334200D02*
X17319300Y-4454200D01*
X17319300Y-4334200D02*
X17199300Y-4454200D01*
X17301727Y-4436627D02*
X17301727Y-4351773D01*
X17216873Y-4351773D01*
X17216873Y-4436627D01*
X17301727Y-4436627D01*
X17529500Y-8919600D02*
X17649500Y-9039600D01*
X17649500Y-8919600D02*
X17529500Y-9039600D01*
X17631927Y-9022027D02*
X17631927Y-8937173D01*
X17547073Y-8937173D01*
X17547073Y-9022027D01*
X17631927Y-9022027D01*
X17529500Y-9427600D02*
X17649500Y-9547600D01*
X17649500Y-9427600D02*
X17529500Y-9547600D01*
X17631927Y-9530027D02*
X17631927Y-9445173D01*
X17547073Y-9445173D01*
X17547073Y-9530027D01*
X17631927Y-9530027D01*
X18799500Y-8919600D02*
X18919500Y-9039600D01*
X18919500Y-8919600D02*
X18799500Y-9039600D01*
X18901927Y-9022027D02*
X18901927Y-8937173D01*
X18817073Y-8937173D01*
X18817073Y-9022027D01*
X18901927Y-9022027D01*
X18799500Y-9427600D02*
X18919500Y-9547600D01*
X18919500Y-9427600D02*
X18799500Y-9547600D01*
X18901927Y-9530027D02*
X18901927Y-9445173D01*
X18817073Y-9445173D01*
X18817073Y-9530027D01*
X18901927Y-9530027D01*
X19637700Y-3572200D02*
X19757700Y-3692200D01*
X19757700Y-3572200D02*
X19637700Y-3692200D01*
X19740127Y-3674627D02*
X19740127Y-3589773D01*
X19655273Y-3589773D01*
X19655273Y-3674627D01*
X19740127Y-3674627D01*
X20552100Y-3267400D02*
X20672100Y-3387400D01*
X20672100Y-3267400D02*
X20552100Y-3387400D01*
X20654527Y-3369827D02*
X20654527Y-3284973D01*
X20569673Y-3284973D01*
X20569673Y-3369827D01*
X20654527Y-3369827D01*
X20907700Y-3267400D02*
X21027700Y-3387400D01*
X21027700Y-3267400D02*
X20907700Y-3387400D01*
X21010127Y-3369827D02*
X21010127Y-3284973D01*
X20925273Y-3284973D01*
X20925273Y-3369827D01*
X21010127Y-3369827D01*
X21110900Y-10430200D02*
X21230900Y-10550200D01*
X21230900Y-10430200D02*
X21110900Y-10550200D01*
X21213327Y-10532627D02*
X21213327Y-10447773D01*
X21128473Y-10447773D01*
X21128473Y-10532627D01*
X21213327Y-10532627D01*
X21263300Y-3267400D02*
X21383300Y-3387400D01*
X21383300Y-3267400D02*
X21263300Y-3387400D01*
X21365727Y-3369827D02*
X21365727Y-3284973D01*
X21280873Y-3284973D01*
X21280873Y-3369827D01*
X21365727Y-3369827D01*
X21364900Y-10023800D02*
X21484900Y-10143800D01*
X21484900Y-10023800D02*
X21364900Y-10143800D01*
X21467327Y-10126227D02*
X21467327Y-10041373D01*
X21382473Y-10041373D01*
X21382473Y-10126227D01*
X21467327Y-10126227D01*
X21364900Y-10836600D02*
X21484900Y-10956600D01*
X21484900Y-10836600D02*
X21364900Y-10956600D01*
X21467327Y-10939027D02*
X21467327Y-10854173D01*
X21382473Y-10854173D01*
X21382473Y-10939027D01*
X21467327Y-10939027D01*
X21517300Y-10430200D02*
X21637300Y-10550200D01*
X21637300Y-10430200D02*
X21517300Y-10550200D01*
X21619727Y-10532627D02*
X21619727Y-10447773D01*
X21534873Y-10447773D01*
X21534873Y-10532627D01*
X21619727Y-10532627D01*
X21771300Y-10023800D02*
X21891300Y-10143800D01*
X21891300Y-10023800D02*
X21771300Y-10143800D01*
X21873727Y-10126227D02*
X21873727Y-10041373D01*
X21788873Y-10041373D01*
X21788873Y-10126227D01*
X21873727Y-10126227D01*
X21771300Y-10836600D02*
X21891300Y-10956600D01*
X21891300Y-10836600D02*
X21771300Y-10956600D01*
X21873727Y-10939027D02*
X21873727Y-10854173D01*
X21788873Y-10854173D01*
X21788873Y-10939027D01*
X21873727Y-10939027D01*
X21923700Y-10430200D02*
X22043700Y-10550200D01*
X22043700Y-10430200D02*
X21923700Y-10550200D01*
X22026127Y-10532627D02*
X22026127Y-10447773D01*
X21941273Y-10447773D01*
X21941273Y-10532627D01*
X22026127Y-10532627D01*
X22177700Y-10023800D02*
X22297700Y-10143800D01*
X22297700Y-10023800D02*
X22177700Y-10143800D01*
X22280127Y-10126227D02*
X22280127Y-10041373D01*
X22195273Y-10041373D01*
X22195273Y-10126227D01*
X22280127Y-10126227D01*
X22177700Y-10836600D02*
X22297700Y-10956600D01*
X22297700Y-10836600D02*
X22177700Y-10956600D01*
X22280127Y-10939027D02*
X22280127Y-10854173D01*
X22195273Y-10854173D01*
X22195273Y-10939027D01*
X22280127Y-10939027D01*
X22294100Y-9617400D02*
X22414100Y-9737400D01*
X22414100Y-9617400D02*
X22294100Y-9737400D01*
X22396527Y-9719827D02*
X22396527Y-9634973D01*
X22311673Y-9634973D01*
X22311673Y-9719827D01*
X22396527Y-9719827D01*
X22330100Y-10430200D02*
X22450100Y-10550200D01*
X22450100Y-10430200D02*
X22330100Y-10550200D01*
X22432527Y-10532627D02*
X22432527Y-10447773D01*
X22347673Y-10447773D01*
X22347673Y-10532627D01*
X22432527Y-10532627D01*
X22584100Y-10023800D02*
X22704100Y-10143800D01*
X22704100Y-10023800D02*
X22584100Y-10143800D01*
X22686527Y-10126227D02*
X22686527Y-10041373D01*
X22601673Y-10041373D01*
X22601673Y-10126227D01*
X22686527Y-10126227D01*
X22584100Y-10836600D02*
X22704100Y-10956600D01*
X22704100Y-10836600D02*
X22584100Y-10956600D01*
X22686527Y-10939027D02*
X22686527Y-10854173D01*
X22601673Y-10854173D01*
X22601673Y-10939027D01*
X22686527Y-10939027D01*
X22700500Y-9617400D02*
X22820500Y-9737400D01*
X22820500Y-9617400D02*
X22700500Y-9737400D01*
X22802927Y-9719827D02*
X22802927Y-9634973D01*
X22718073Y-9634973D01*
X22718073Y-9719827D01*
X22802927Y-9719827D01*
X22736500Y-10430200D02*
X22856500Y-10550200D01*
X22856500Y-10430200D02*
X22736500Y-10550200D01*
X22838927Y-10532627D02*
X22838927Y-10447773D01*
X22754073Y-10447773D01*
X22754073Y-10532627D01*
X22838927Y-10532627D01*
X22990500Y-10023800D02*
X23110500Y-10143800D01*
X23110500Y-10023800D02*
X22990500Y-10143800D01*
X23092927Y-10126227D02*
X23092927Y-10041373D01*
X23008073Y-10041373D01*
X23008073Y-10126227D01*
X23092927Y-10126227D01*
X22990500Y-10836600D02*
X23110500Y-10956600D01*
X23110500Y-10836600D02*
X22990500Y-10956600D01*
X23092927Y-10939027D02*
X23092927Y-10854173D01*
X23008073Y-10854173D01*
X23008073Y-10939027D01*
X23092927Y-10939027D01*
X23106900Y-9617400D02*
X23226900Y-9737400D01*
X23226900Y-9617400D02*
X23106900Y-9737400D01*
X23209327Y-9719827D02*
X23209327Y-9634973D01*
X23124473Y-9634973D01*
X23124473Y-9719827D01*
X23209327Y-9719827D01*
X23142900Y-10430200D02*
X23262900Y-10550200D01*
X23262900Y-10430200D02*
X23142900Y-10550200D01*
X23245327Y-10532627D02*
X23245327Y-10447773D01*
X23160473Y-10447773D01*
X23160473Y-10532627D01*
X23245327Y-10532627D01*
X23396900Y-10023800D02*
X23516900Y-10143800D01*
X23516900Y-10023800D02*
X23396900Y-10143800D01*
X23499327Y-10126227D02*
X23499327Y-10041373D01*
X23414473Y-10041373D01*
X23414473Y-10126227D01*
X23499327Y-10126227D01*
X23396900Y-10836600D02*
X23516900Y-10956600D01*
X23516900Y-10836600D02*
X23396900Y-10956600D01*
X23499327Y-10939027D02*
X23499327Y-10854173D01*
X23414473Y-10854173D01*
X23414473Y-10939027D01*
X23499327Y-10939027D01*
X23513300Y-9617400D02*
X23633300Y-9737400D01*
X23633300Y-9617400D02*
X23513300Y-9737400D01*
X23615727Y-9719827D02*
X23615727Y-9634973D01*
X23530873Y-9634973D01*
X23530873Y-9719827D01*
X23615727Y-9719827D01*
X23549300Y-10430200D02*
X23669300Y-10550200D01*
X23669300Y-10430200D02*
X23549300Y-10550200D01*
X23651727Y-10532627D02*
X23651727Y-10447773D01*
X23566873Y-10447773D01*
X23566873Y-10532627D01*
X23651727Y-10532627D01*
X24057300Y-3216600D02*
X24177300Y-3336600D01*
X24177300Y-3216600D02*
X24057300Y-3336600D01*
X24159727Y-3319027D02*
X24159727Y-3234173D01*
X24074873Y-3234173D01*
X24074873Y-3319027D01*
X24159727Y-3319027D01*
X24412900Y-2861000D02*
X24532900Y-2981000D01*
X24532900Y-2861000D02*
X24412900Y-2981000D01*
X24515327Y-2963427D02*
X24515327Y-2878573D01*
X24430473Y-2878573D01*
X24430473Y-2963427D01*
X24515327Y-2963427D01*
X24412900Y-3216600D02*
X24532900Y-3336600D01*
X24532900Y-3216600D02*
X24412900Y-3336600D01*
X24515327Y-3319027D02*
X24515327Y-3234173D01*
X24430473Y-3234173D01*
X24430473Y-3319027D01*
X24515327Y-3319027D01*
X24768500Y-2861000D02*
X24888500Y-2981000D01*
X24888500Y-2861000D02*
X24768500Y-2981000D01*
X24870927Y-2963427D02*
X24870927Y-2878573D01*
X24786073Y-2878573D01*
X24786073Y-2963427D01*
X24870927Y-2963427D01*
X24768500Y-3216600D02*
X24888500Y-3336600D01*
X24888500Y-3216600D02*
X24768500Y-3336600D01*
X24870927Y-3319027D02*
X24870927Y-3234173D01*
X24786073Y-3234173D01*
X24786073Y-3319027D01*
X24870927Y-3319027D01*
X25124100Y-3216600D02*
X25244100Y-3336600D01*
X25244100Y-3216600D02*
X25124100Y-3336600D01*
X25226527Y-3319027D02*
X25226527Y-3234173D01*
X25141673Y-3234173D01*
X25141673Y-3319027D01*
X25226527Y-3319027D01*
D11*
X17204619Y-11570176D02*
X17204619Y-11370176D01*
X17252238Y-11370176D01*
X17280810Y-11379700D01*
X17299857Y-11398748D01*
X17309381Y-11417795D01*
X17318905Y-11455890D01*
X17318905Y-11484462D01*
X17309381Y-11522557D01*
X17299857Y-11541605D01*
X17280810Y-11560652D01*
X17252238Y-11570176D01*
X17204619Y-11570176D01*
X17404619Y-11570176D02*
X17404619Y-11436843D01*
X17404619Y-11474938D02*
X17414143Y-11455890D01*
X17423667Y-11446367D01*
X17442714Y-11436843D01*
X17461762Y-11436843D01*
X17528429Y-11570176D02*
X17528429Y-11436843D01*
X17528429Y-11370176D02*
X17518905Y-11379700D01*
X17528429Y-11389224D01*
X17537952Y-11379700D01*
X17528429Y-11370176D01*
X17528429Y-11389224D01*
X17652238Y-11570176D02*
X17633190Y-11560652D01*
X17623667Y-11541605D01*
X17623667Y-11370176D01*
X17757000Y-11570176D02*
X17737952Y-11560652D01*
X17728429Y-11541605D01*
X17728429Y-11370176D01*
X17985571Y-11570176D02*
X17985571Y-11370176D01*
X18052238Y-11513033D01*
X18118905Y-11370176D01*
X18118905Y-11570176D01*
X18299857Y-11570176D02*
X18299857Y-11465414D01*
X18290333Y-11446367D01*
X18271286Y-11436843D01*
X18233190Y-11436843D01*
X18214143Y-11446367D01*
X18299857Y-11560652D02*
X18280810Y-11570176D01*
X18233190Y-11570176D01*
X18214143Y-11560652D01*
X18204619Y-11541605D01*
X18204619Y-11522557D01*
X18214143Y-11503509D01*
X18233190Y-11493986D01*
X18280810Y-11493986D01*
X18299857Y-11484462D01*
X18395095Y-11436843D02*
X18395095Y-11636843D01*
X18395095Y-11446367D02*
X18414143Y-11436843D01*
X18452238Y-11436843D01*
X18471286Y-11446367D01*
X18480810Y-11455890D01*
X18490333Y-11474938D01*
X18490333Y-11532081D01*
X18480810Y-11551128D01*
X18471286Y-11560652D01*
X18452238Y-11570176D01*
X18414143Y-11570176D01*
X18395095Y-11560652D01*
X18576048Y-11551128D02*
X18585571Y-11560652D01*
X18576048Y-11570176D01*
X18566524Y-11560652D01*
X18576048Y-11551128D01*
X18576048Y-11570176D01*
X18576048Y-11446367D02*
X18585571Y-11455890D01*
X18576048Y-11465414D01*
X18566524Y-11455890D01*
X18576048Y-11446367D01*
X18576048Y-11465414D01*
D12*
X16907000Y-11879700D02*
X16947000Y-11919700D01*
X16947000Y-11879700D02*
X16907000Y-11919700D01*
D11*
X17242714Y-11790176D02*
X17261762Y-11790176D01*
X17280810Y-11799700D01*
X17290333Y-11809224D01*
X17299857Y-11828271D01*
X17309381Y-11866367D01*
X17309381Y-11913986D01*
X17299857Y-11952081D01*
X17290333Y-11971128D01*
X17280810Y-11980652D01*
X17261762Y-11990176D01*
X17242714Y-11990176D01*
X17223667Y-11980652D01*
X17214143Y-11971128D01*
X17204619Y-11952081D01*
X17195095Y-11913986D01*
X17195095Y-11866367D01*
X17204619Y-11828271D01*
X17214143Y-11809224D01*
X17223667Y-11799700D01*
X17242714Y-11790176D01*
X17395095Y-11971128D02*
X17404619Y-11980652D01*
X17395095Y-11990176D01*
X17385571Y-11980652D01*
X17395095Y-11971128D01*
X17395095Y-11990176D01*
X17576048Y-11856843D02*
X17576048Y-11990176D01*
X17528429Y-11780652D02*
X17480810Y-11923509D01*
X17604619Y-11923509D01*
X17718905Y-11790176D02*
X17737952Y-11790176D01*
X17757000Y-11799700D01*
X17766524Y-11809224D01*
X17776048Y-11828271D01*
X17785571Y-11866367D01*
X17785571Y-11913986D01*
X17776048Y-11952081D01*
X17766524Y-11971128D01*
X17757000Y-11980652D01*
X17737952Y-11990176D01*
X17718905Y-11990176D01*
X17699857Y-11980652D01*
X17690333Y-11971128D01*
X17680810Y-11952081D01*
X17671286Y-11913986D01*
X17671286Y-11866367D01*
X17680810Y-11828271D01*
X17690333Y-11809224D01*
X17699857Y-11799700D01*
X17718905Y-11790176D01*
X17909381Y-11790176D02*
X17928429Y-11790176D01*
X17947476Y-11799700D01*
X17957000Y-11809224D01*
X17966524Y-11828271D01*
X17976048Y-11866367D01*
X17976048Y-11913986D01*
X17966524Y-11952081D01*
X17957000Y-11971128D01*
X17947476Y-11980652D01*
X17928429Y-11990176D01*
X17909381Y-11990176D01*
X17890333Y-11980652D01*
X17880810Y-11971128D01*
X17871286Y-11952081D01*
X17861762Y-11913986D01*
X17861762Y-11866367D01*
X17871286Y-11828271D01*
X17880810Y-11809224D01*
X17890333Y-11799700D01*
X17909381Y-11790176D01*
X18061762Y-11990176D02*
X18061762Y-11856843D01*
X18061762Y-11875890D02*
X18071286Y-11866367D01*
X18090333Y-11856843D01*
X18118905Y-11856843D01*
X18137952Y-11866367D01*
X18147476Y-11885414D01*
X18147476Y-11990176D01*
X18147476Y-11885414D02*
X18157000Y-11866367D01*
X18176048Y-11856843D01*
X18204619Y-11856843D01*
X18223667Y-11866367D01*
X18233190Y-11885414D01*
X18233190Y-11990176D01*
X18328429Y-11990176D02*
X18328429Y-11856843D01*
X18328429Y-11875890D02*
X18337952Y-11866367D01*
X18357000Y-11856843D01*
X18385571Y-11856843D01*
X18404619Y-11866367D01*
X18414143Y-11885414D01*
X18414143Y-11990176D01*
X18414143Y-11885414D02*
X18423667Y-11866367D01*
X18442714Y-11856843D01*
X18471286Y-11856843D01*
X18490333Y-11866367D01*
X18499857Y-11885414D01*
X18499857Y-11990176D01*
X18890333Y-11780652D02*
X18718905Y-12037795D01*
X19147476Y-11790176D02*
X19166524Y-11790176D01*
X19185571Y-11799700D01*
X19195095Y-11809224D01*
X19204619Y-11828271D01*
X19214143Y-11866367D01*
X19214143Y-11913986D01*
X19204619Y-11952081D01*
X19195095Y-11971128D01*
X19185571Y-11980652D01*
X19166524Y-11990176D01*
X19147476Y-11990176D01*
X19128429Y-11980652D01*
X19118905Y-11971128D01*
X19109381Y-11952081D01*
X19099857Y-11913986D01*
X19099857Y-11866367D01*
X19109381Y-11828271D01*
X19118905Y-11809224D01*
X19128429Y-11799700D01*
X19147476Y-11790176D01*
X19299857Y-11971128D02*
X19309381Y-11980652D01*
X19299857Y-11990176D01*
X19290333Y-11980652D01*
X19299857Y-11971128D01*
X19299857Y-11990176D01*
X19433190Y-11790176D02*
X19452238Y-11790176D01*
X19471286Y-11799700D01*
X19480810Y-11809224D01*
X19490333Y-11828271D01*
X19499857Y-11866367D01*
X19499857Y-11913986D01*
X19490333Y-11952081D01*
X19480810Y-11971128D01*
X19471286Y-11980652D01*
X19452238Y-11990176D01*
X19433190Y-11990176D01*
X19414143Y-11980652D01*
X19404619Y-11971128D01*
X19395095Y-11952081D01*
X19385571Y-11913986D01*
X19385571Y-11866367D01*
X19395095Y-11828271D01*
X19404619Y-11809224D01*
X19414143Y-11799700D01*
X19433190Y-11790176D01*
X19690333Y-11990176D02*
X19576048Y-11990176D01*
X19633190Y-11990176D02*
X19633190Y-11790176D01*
X19614143Y-11818748D01*
X19595095Y-11837795D01*
X19576048Y-11847319D01*
X19871286Y-11790176D02*
X19776048Y-11790176D01*
X19766524Y-11885414D01*
X19776048Y-11875890D01*
X19795095Y-11866367D01*
X19842714Y-11866367D01*
X19861762Y-11875890D01*
X19871286Y-11885414D01*
X19880810Y-11904462D01*
X19880810Y-11952081D01*
X19871286Y-11971128D01*
X19861762Y-11980652D01*
X19842714Y-11990176D01*
X19795095Y-11990176D01*
X19776048Y-11980652D01*
X19766524Y-11971128D01*
X19947476Y-11790176D02*
X20080810Y-11790176D01*
X19995095Y-11990176D01*
X20147476Y-11790176D02*
X20147476Y-11828271D01*
X20223667Y-11790176D02*
X20223667Y-11828271D01*
X20518905Y-12066367D02*
X20509381Y-12056843D01*
X20490333Y-12028271D01*
X20480810Y-12009224D01*
X20471286Y-11980652D01*
X20461762Y-11933033D01*
X20461762Y-11894938D01*
X20471286Y-11847319D01*
X20480810Y-11818748D01*
X20490333Y-11799700D01*
X20509381Y-11771128D01*
X20518905Y-11761605D01*
X20680810Y-11790176D02*
X20642714Y-11790176D01*
X20623667Y-11799700D01*
X20614143Y-11809224D01*
X20595095Y-11837795D01*
X20585571Y-11875890D01*
X20585571Y-11952081D01*
X20595095Y-11971128D01*
X20604619Y-11980652D01*
X20623667Y-11990176D01*
X20661762Y-11990176D01*
X20680810Y-11980652D01*
X20690333Y-11971128D01*
X20699857Y-11952081D01*
X20699857Y-11904462D01*
X20690333Y-11885414D01*
X20680810Y-11875890D01*
X20661762Y-11866367D01*
X20623667Y-11866367D01*
X20604619Y-11875890D01*
X20595095Y-11885414D01*
X20585571Y-11904462D01*
X20871286Y-11790176D02*
X20833190Y-11790176D01*
X20814143Y-11799700D01*
X20804619Y-11809224D01*
X20785571Y-11837795D01*
X20776048Y-11875890D01*
X20776048Y-11952081D01*
X20785571Y-11971128D01*
X20795095Y-11980652D01*
X20814143Y-11990176D01*
X20852238Y-11990176D01*
X20871286Y-11980652D01*
X20880810Y-11971128D01*
X20890333Y-11952081D01*
X20890333Y-11904462D01*
X20880810Y-11885414D01*
X20871286Y-11875890D01*
X20852238Y-11866367D01*
X20814143Y-11866367D01*
X20795095Y-11875890D01*
X20785571Y-11885414D01*
X20776048Y-11904462D01*
X21128429Y-11990176D02*
X21128429Y-11790176D01*
X21214143Y-11990176D02*
X21214143Y-11885414D01*
X21204619Y-11866367D01*
X21185571Y-11856843D01*
X21157000Y-11856843D01*
X21137952Y-11866367D01*
X21128429Y-11875890D01*
X21337952Y-11990176D02*
X21318905Y-11980652D01*
X21309381Y-11971128D01*
X21299857Y-11952081D01*
X21299857Y-11894938D01*
X21309381Y-11875890D01*
X21318905Y-11866367D01*
X21337952Y-11856843D01*
X21366524Y-11856843D01*
X21385571Y-11866367D01*
X21395095Y-11875890D01*
X21404619Y-11894938D01*
X21404619Y-11952081D01*
X21395095Y-11971128D01*
X21385571Y-11980652D01*
X21366524Y-11990176D01*
X21337952Y-11990176D01*
X21518905Y-11990176D02*
X21499857Y-11980652D01*
X21490333Y-11961605D01*
X21490333Y-11790176D01*
X21671286Y-11980652D02*
X21652238Y-11990176D01*
X21614143Y-11990176D01*
X21595095Y-11980652D01*
X21585571Y-11961605D01*
X21585571Y-11885414D01*
X21595095Y-11866367D01*
X21614143Y-11856843D01*
X21652238Y-11856843D01*
X21671286Y-11866367D01*
X21680810Y-11885414D01*
X21680810Y-11904462D01*
X21585571Y-11923509D01*
X21757000Y-11980652D02*
X21776048Y-11990176D01*
X21814143Y-11990176D01*
X21833190Y-11980652D01*
X21842714Y-11961605D01*
X21842714Y-11952081D01*
X21833190Y-11933033D01*
X21814143Y-11923509D01*
X21785571Y-11923509D01*
X21766524Y-11913986D01*
X21757000Y-11894938D01*
X21757000Y-11885414D01*
X21766524Y-11866367D01*
X21785571Y-11856843D01*
X21814143Y-11856843D01*
X21833190Y-11866367D01*
X21909381Y-12066367D02*
X21918905Y-12056843D01*
X21937952Y-12028271D01*
X21947476Y-12009224D01*
X21957000Y-11980652D01*
X21966524Y-11933033D01*
X21966524Y-11894938D01*
X21957000Y-11847319D01*
X21947476Y-11818748D01*
X21937952Y-11799700D01*
X21918905Y-11771128D01*
X21909381Y-11761605D01*
D13*
X16947000Y-12163700D02*
G75*
G03*
X16947000Y-12163700I-30000J0D01*
G01*
D11*
X17242714Y-12054176D02*
X17261762Y-12054176D01*
X17280810Y-12063700D01*
X17290333Y-12073224D01*
X17299857Y-12092271D01*
X17309381Y-12130367D01*
X17309381Y-12177986D01*
X17299857Y-12216081D01*
X17290333Y-12235128D01*
X17280810Y-12244652D01*
X17261762Y-12254176D01*
X17242714Y-12254176D01*
X17223667Y-12244652D01*
X17214143Y-12235128D01*
X17204619Y-12216081D01*
X17195095Y-12177986D01*
X17195095Y-12130367D01*
X17204619Y-12092271D01*
X17214143Y-12073224D01*
X17223667Y-12063700D01*
X17242714Y-12054176D01*
X17395095Y-12235128D02*
X17404619Y-12244652D01*
X17395095Y-12254176D01*
X17385571Y-12244652D01*
X17395095Y-12235128D01*
X17395095Y-12254176D01*
X17576048Y-12054176D02*
X17537952Y-12054176D01*
X17518905Y-12063700D01*
X17509381Y-12073224D01*
X17490333Y-12101795D01*
X17480810Y-12139890D01*
X17480810Y-12216081D01*
X17490333Y-12235128D01*
X17499857Y-12244652D01*
X17518905Y-12254176D01*
X17557000Y-12254176D01*
X17576048Y-12244652D01*
X17585571Y-12235128D01*
X17595095Y-12216081D01*
X17595095Y-12168462D01*
X17585571Y-12149414D01*
X17576048Y-12139890D01*
X17557000Y-12130367D01*
X17518905Y-12130367D01*
X17499857Y-12139890D01*
X17490333Y-12149414D01*
X17480810Y-12168462D01*
X17718905Y-12054176D02*
X17737952Y-12054176D01*
X17757000Y-12063700D01*
X17766524Y-12073224D01*
X17776048Y-12092271D01*
X17785571Y-12130367D01*
X17785571Y-12177986D01*
X17776048Y-12216081D01*
X17766524Y-12235128D01*
X17757000Y-12244652D01*
X17737952Y-12254176D01*
X17718905Y-12254176D01*
X17699857Y-12244652D01*
X17690333Y-12235128D01*
X17680810Y-12216081D01*
X17671286Y-12177986D01*
X17671286Y-12130367D01*
X17680810Y-12092271D01*
X17690333Y-12073224D01*
X17699857Y-12063700D01*
X17718905Y-12054176D01*
X17909381Y-12054176D02*
X17928429Y-12054176D01*
X17947476Y-12063700D01*
X17957000Y-12073224D01*
X17966524Y-12092271D01*
X17976048Y-12130367D01*
X17976048Y-12177986D01*
X17966524Y-12216081D01*
X17957000Y-12235128D01*
X17947476Y-12244652D01*
X17928429Y-12254176D01*
X17909381Y-12254176D01*
X17890333Y-12244652D01*
X17880810Y-12235128D01*
X17871286Y-12216081D01*
X17861762Y-12177986D01*
X17861762Y-12130367D01*
X17871286Y-12092271D01*
X17880810Y-12073224D01*
X17890333Y-12063700D01*
X17909381Y-12054176D01*
X18061762Y-12254176D02*
X18061762Y-12120843D01*
X18061762Y-12139890D02*
X18071286Y-12130367D01*
X18090333Y-12120843D01*
X18118905Y-12120843D01*
X18137952Y-12130367D01*
X18147476Y-12149414D01*
X18147476Y-12254176D01*
X18147476Y-12149414D02*
X18157000Y-12130367D01*
X18176048Y-12120843D01*
X18204619Y-12120843D01*
X18223667Y-12130367D01*
X18233190Y-12149414D01*
X18233190Y-12254176D01*
X18328429Y-12254176D02*
X18328429Y-12120843D01*
X18328429Y-12139890D02*
X18337952Y-12130367D01*
X18357000Y-12120843D01*
X18385571Y-12120843D01*
X18404619Y-12130367D01*
X18414143Y-12149414D01*
X18414143Y-12254176D01*
X18414143Y-12149414D02*
X18423667Y-12130367D01*
X18442714Y-12120843D01*
X18471286Y-12120843D01*
X18490333Y-12130367D01*
X18499857Y-12149414D01*
X18499857Y-12254176D01*
X18890333Y-12044652D02*
X18718905Y-12301795D01*
X19147476Y-12054176D02*
X19166524Y-12054176D01*
X19185571Y-12063700D01*
X19195095Y-12073224D01*
X19204619Y-12092271D01*
X19214143Y-12130367D01*
X19214143Y-12177986D01*
X19204619Y-12216081D01*
X19195095Y-12235128D01*
X19185571Y-12244652D01*
X19166524Y-12254176D01*
X19147476Y-12254176D01*
X19128429Y-12244652D01*
X19118905Y-12235128D01*
X19109381Y-12216081D01*
X19099857Y-12177986D01*
X19099857Y-12130367D01*
X19109381Y-12092271D01*
X19118905Y-12073224D01*
X19128429Y-12063700D01*
X19147476Y-12054176D01*
X19299857Y-12235128D02*
X19309381Y-12244652D01*
X19299857Y-12254176D01*
X19290333Y-12244652D01*
X19299857Y-12235128D01*
X19299857Y-12254176D01*
X19433190Y-12054176D02*
X19452238Y-12054176D01*
X19471286Y-12063700D01*
X19480810Y-12073224D01*
X19490333Y-12092271D01*
X19499857Y-12130367D01*
X19499857Y-12177986D01*
X19490333Y-12216081D01*
X19480810Y-12235128D01*
X19471286Y-12244652D01*
X19452238Y-12254176D01*
X19433190Y-12254176D01*
X19414143Y-12244652D01*
X19404619Y-12235128D01*
X19395095Y-12216081D01*
X19385571Y-12177986D01*
X19385571Y-12130367D01*
X19395095Y-12092271D01*
X19404619Y-12073224D01*
X19414143Y-12063700D01*
X19433190Y-12054176D01*
X19576048Y-12073224D02*
X19585571Y-12063700D01*
X19604619Y-12054176D01*
X19652238Y-12054176D01*
X19671286Y-12063700D01*
X19680810Y-12073224D01*
X19690333Y-12092271D01*
X19690333Y-12111319D01*
X19680810Y-12139890D01*
X19566524Y-12254176D01*
X19690333Y-12254176D01*
X19757000Y-12054176D02*
X19880810Y-12054176D01*
X19814143Y-12130367D01*
X19842714Y-12130367D01*
X19861762Y-12139890D01*
X19871286Y-12149414D01*
X19880810Y-12168462D01*
X19880810Y-12216081D01*
X19871286Y-12235128D01*
X19861762Y-12244652D01*
X19842714Y-12254176D01*
X19785571Y-12254176D01*
X19766524Y-12244652D01*
X19757000Y-12235128D01*
X20052238Y-12054176D02*
X20014143Y-12054176D01*
X19995095Y-12063700D01*
X19985571Y-12073224D01*
X19966524Y-12101795D01*
X19957000Y-12139890D01*
X19957000Y-12216081D01*
X19966524Y-12235128D01*
X19976048Y-12244652D01*
X19995095Y-12254176D01*
X20033190Y-12254176D01*
X20052238Y-12244652D01*
X20061762Y-12235128D01*
X20071286Y-12216081D01*
X20071286Y-12168462D01*
X20061762Y-12149414D01*
X20052238Y-12139890D01*
X20033190Y-12130367D01*
X19995095Y-12130367D01*
X19976048Y-12139890D01*
X19966524Y-12149414D01*
X19957000Y-12168462D01*
X20147476Y-12054176D02*
X20147476Y-12092271D01*
X20223667Y-12054176D02*
X20223667Y-12092271D01*
X20518905Y-12330367D02*
X20509381Y-12320843D01*
X20490333Y-12292271D01*
X20480810Y-12273224D01*
X20471286Y-12244652D01*
X20461762Y-12197033D01*
X20461762Y-12158938D01*
X20471286Y-12111319D01*
X20480810Y-12082748D01*
X20490333Y-12063700D01*
X20509381Y-12035128D01*
X20518905Y-12025605D01*
X20585571Y-12073224D02*
X20595095Y-12063700D01*
X20614143Y-12054176D01*
X20661762Y-12054176D01*
X20680810Y-12063700D01*
X20690333Y-12073224D01*
X20699857Y-12092271D01*
X20699857Y-12111319D01*
X20690333Y-12139890D01*
X20576048Y-12254176D01*
X20699857Y-12254176D01*
X20937952Y-12254176D02*
X20937952Y-12054176D01*
X21023667Y-12254176D02*
X21023667Y-12149414D01*
X21014143Y-12130367D01*
X20995095Y-12120843D01*
X20966524Y-12120843D01*
X20947476Y-12130367D01*
X20937952Y-12139890D01*
X21147476Y-12254176D02*
X21128429Y-12244652D01*
X21118905Y-12235128D01*
X21109381Y-12216081D01*
X21109381Y-12158938D01*
X21118905Y-12139890D01*
X21128429Y-12130367D01*
X21147476Y-12120843D01*
X21176048Y-12120843D01*
X21195095Y-12130367D01*
X21204619Y-12139890D01*
X21214143Y-12158938D01*
X21214143Y-12216081D01*
X21204619Y-12235128D01*
X21195095Y-12244652D01*
X21176048Y-12254176D01*
X21147476Y-12254176D01*
X21328429Y-12254176D02*
X21309381Y-12244652D01*
X21299857Y-12225605D01*
X21299857Y-12054176D01*
X21480810Y-12244652D02*
X21461762Y-12254176D01*
X21423667Y-12254176D01*
X21404619Y-12244652D01*
X21395095Y-12225605D01*
X21395095Y-12149414D01*
X21404619Y-12130367D01*
X21423667Y-12120843D01*
X21461762Y-12120843D01*
X21480810Y-12130367D01*
X21490333Y-12149414D01*
X21490333Y-12168462D01*
X21395095Y-12187509D01*
X21566524Y-12244652D02*
X21585571Y-12254176D01*
X21623667Y-12254176D01*
X21642714Y-12244652D01*
X21652238Y-12225605D01*
X21652238Y-12216081D01*
X21642714Y-12197033D01*
X21623667Y-12187509D01*
X21595095Y-12187509D01*
X21576048Y-12177986D01*
X21566524Y-12158938D01*
X21566524Y-12149414D01*
X21576048Y-12130367D01*
X21595095Y-12120843D01*
X21623667Y-12120843D01*
X21642714Y-12130367D01*
X21718905Y-12330367D02*
X21728429Y-12320843D01*
X21747476Y-12292271D01*
X21757000Y-12273224D01*
X21766524Y-12244652D01*
X21776048Y-12197033D01*
X21776048Y-12158938D01*
X21766524Y-12111319D01*
X21757000Y-12082748D01*
X21747476Y-12063700D01*
X21728429Y-12035128D01*
X21718905Y-12025605D01*
D14*
X16909500Y-12390200D02*
X16909500Y-12465200D01*
X16872000Y-12427700D02*
X16947000Y-12427700D01*
D11*
X17242714Y-12318176D02*
X17261762Y-12318176D01*
X17280810Y-12327700D01*
X17290333Y-12337224D01*
X17299857Y-12356271D01*
X17309381Y-12394367D01*
X17309381Y-12441986D01*
X17299857Y-12480081D01*
X17290333Y-12499128D01*
X17280810Y-12508652D01*
X17261762Y-12518176D01*
X17242714Y-12518176D01*
X17223667Y-12508652D01*
X17214143Y-12499128D01*
X17204619Y-12480081D01*
X17195095Y-12441986D01*
X17195095Y-12394367D01*
X17204619Y-12356271D01*
X17214143Y-12337224D01*
X17223667Y-12327700D01*
X17242714Y-12318176D01*
X17395095Y-12499128D02*
X17404619Y-12508652D01*
X17395095Y-12518176D01*
X17385571Y-12508652D01*
X17395095Y-12499128D01*
X17395095Y-12518176D01*
X17471286Y-12318176D02*
X17604619Y-12318176D01*
X17518905Y-12518176D01*
X17776048Y-12318176D02*
X17680810Y-12318176D01*
X17671286Y-12413414D01*
X17680810Y-12403890D01*
X17699857Y-12394367D01*
X17747476Y-12394367D01*
X17766524Y-12403890D01*
X17776048Y-12413414D01*
X17785571Y-12432462D01*
X17785571Y-12480081D01*
X17776048Y-12499128D01*
X17766524Y-12508652D01*
X17747476Y-12518176D01*
X17699857Y-12518176D01*
X17680810Y-12508652D01*
X17671286Y-12499128D01*
X17909381Y-12318176D02*
X17928429Y-12318176D01*
X17947476Y-12327700D01*
X17957000Y-12337224D01*
X17966524Y-12356271D01*
X17976048Y-12394367D01*
X17976048Y-12441986D01*
X17966524Y-12480081D01*
X17957000Y-12499128D01*
X17947476Y-12508652D01*
X17928429Y-12518176D01*
X17909381Y-12518176D01*
X17890333Y-12508652D01*
X17880810Y-12499128D01*
X17871286Y-12480081D01*
X17861762Y-12441986D01*
X17861762Y-12394367D01*
X17871286Y-12356271D01*
X17880810Y-12337224D01*
X17890333Y-12327700D01*
X17909381Y-12318176D01*
X18061762Y-12518176D02*
X18061762Y-12384843D01*
X18061762Y-12403890D02*
X18071286Y-12394367D01*
X18090333Y-12384843D01*
X18118905Y-12384843D01*
X18137952Y-12394367D01*
X18147476Y-12413414D01*
X18147476Y-12518176D01*
X18147476Y-12413414D02*
X18157000Y-12394367D01*
X18176048Y-12384843D01*
X18204619Y-12384843D01*
X18223667Y-12394367D01*
X18233190Y-12413414D01*
X18233190Y-12518176D01*
X18328429Y-12518176D02*
X18328429Y-12384843D01*
X18328429Y-12403890D02*
X18337952Y-12394367D01*
X18357000Y-12384843D01*
X18385571Y-12384843D01*
X18404619Y-12394367D01*
X18414143Y-12413414D01*
X18414143Y-12518176D01*
X18414143Y-12413414D02*
X18423667Y-12394367D01*
X18442714Y-12384843D01*
X18471286Y-12384843D01*
X18490333Y-12394367D01*
X18499857Y-12413414D01*
X18499857Y-12518176D01*
X18890333Y-12308652D02*
X18718905Y-12565795D01*
X19147476Y-12318176D02*
X19166524Y-12318176D01*
X19185571Y-12327700D01*
X19195095Y-12337224D01*
X19204619Y-12356271D01*
X19214143Y-12394367D01*
X19214143Y-12441986D01*
X19204619Y-12480081D01*
X19195095Y-12499128D01*
X19185571Y-12508652D01*
X19166524Y-12518176D01*
X19147476Y-12518176D01*
X19128429Y-12508652D01*
X19118905Y-12499128D01*
X19109381Y-12480081D01*
X19099857Y-12441986D01*
X19099857Y-12394367D01*
X19109381Y-12356271D01*
X19118905Y-12337224D01*
X19128429Y-12327700D01*
X19147476Y-12318176D01*
X19299857Y-12499128D02*
X19309381Y-12508652D01*
X19299857Y-12518176D01*
X19290333Y-12508652D01*
X19299857Y-12499128D01*
X19299857Y-12518176D01*
X19433190Y-12318176D02*
X19452238Y-12318176D01*
X19471286Y-12327700D01*
X19480810Y-12337224D01*
X19490333Y-12356271D01*
X19499857Y-12394367D01*
X19499857Y-12441986D01*
X19490333Y-12480081D01*
X19480810Y-12499128D01*
X19471286Y-12508652D01*
X19452238Y-12518176D01*
X19433190Y-12518176D01*
X19414143Y-12508652D01*
X19404619Y-12499128D01*
X19395095Y-12480081D01*
X19385571Y-12441986D01*
X19385571Y-12394367D01*
X19395095Y-12356271D01*
X19404619Y-12337224D01*
X19414143Y-12327700D01*
X19433190Y-12318176D01*
X19576048Y-12337224D02*
X19585571Y-12327700D01*
X19604619Y-12318176D01*
X19652238Y-12318176D01*
X19671286Y-12327700D01*
X19680810Y-12337224D01*
X19690333Y-12356271D01*
X19690333Y-12375319D01*
X19680810Y-12403890D01*
X19566524Y-12518176D01*
X19690333Y-12518176D01*
X19785571Y-12518176D02*
X19823667Y-12518176D01*
X19842714Y-12508652D01*
X19852238Y-12499128D01*
X19871286Y-12470557D01*
X19880810Y-12432462D01*
X19880810Y-12356271D01*
X19871286Y-12337224D01*
X19861762Y-12327700D01*
X19842714Y-12318176D01*
X19804619Y-12318176D01*
X19785571Y-12327700D01*
X19776048Y-12337224D01*
X19766524Y-12356271D01*
X19766524Y-12403890D01*
X19776048Y-12422938D01*
X19785571Y-12432462D01*
X19804619Y-12441986D01*
X19842714Y-12441986D01*
X19861762Y-12432462D01*
X19871286Y-12422938D01*
X19880810Y-12403890D01*
X20061762Y-12318176D02*
X19966524Y-12318176D01*
X19957000Y-12413414D01*
X19966524Y-12403890D01*
X19985571Y-12394367D01*
X20033190Y-12394367D01*
X20052238Y-12403890D01*
X20061762Y-12413414D01*
X20071286Y-12432462D01*
X20071286Y-12480081D01*
X20061762Y-12499128D01*
X20052238Y-12508652D01*
X20033190Y-12518176D01*
X19985571Y-12518176D01*
X19966524Y-12508652D01*
X19957000Y-12499128D01*
X20147476Y-12318176D02*
X20147476Y-12356271D01*
X20223667Y-12318176D02*
X20223667Y-12356271D01*
X20518905Y-12594367D02*
X20509381Y-12584843D01*
X20490333Y-12556271D01*
X20480810Y-12537224D01*
X20471286Y-12508652D01*
X20461762Y-12461033D01*
X20461762Y-12422938D01*
X20471286Y-12375319D01*
X20480810Y-12346748D01*
X20490333Y-12327700D01*
X20509381Y-12299128D01*
X20518905Y-12289605D01*
X20576048Y-12318176D02*
X20699857Y-12318176D01*
X20633190Y-12394367D01*
X20661762Y-12394367D01*
X20680810Y-12403890D01*
X20690333Y-12413414D01*
X20699857Y-12432462D01*
X20699857Y-12480081D01*
X20690333Y-12499128D01*
X20680810Y-12508652D01*
X20661762Y-12518176D01*
X20604619Y-12518176D01*
X20585571Y-12508652D01*
X20576048Y-12499128D01*
X20871286Y-12318176D02*
X20833190Y-12318176D01*
X20814143Y-12327700D01*
X20804619Y-12337224D01*
X20785571Y-12365795D01*
X20776048Y-12403890D01*
X20776048Y-12480081D01*
X20785571Y-12499128D01*
X20795095Y-12508652D01*
X20814143Y-12518176D01*
X20852238Y-12518176D01*
X20871286Y-12508652D01*
X20880810Y-12499128D01*
X20890333Y-12480081D01*
X20890333Y-12432462D01*
X20880810Y-12413414D01*
X20871286Y-12403890D01*
X20852238Y-12394367D01*
X20814143Y-12394367D01*
X20795095Y-12403890D01*
X20785571Y-12413414D01*
X20776048Y-12432462D01*
X21128429Y-12518176D02*
X21128429Y-12318176D01*
X21214143Y-12518176D02*
X21214143Y-12413414D01*
X21204619Y-12394367D01*
X21185571Y-12384843D01*
X21157000Y-12384843D01*
X21137952Y-12394367D01*
X21128429Y-12403890D01*
X21337952Y-12518176D02*
X21318905Y-12508652D01*
X21309381Y-12499128D01*
X21299857Y-12480081D01*
X21299857Y-12422938D01*
X21309381Y-12403890D01*
X21318905Y-12394367D01*
X21337952Y-12384843D01*
X21366524Y-12384843D01*
X21385571Y-12394367D01*
X21395095Y-12403890D01*
X21404619Y-12422938D01*
X21404619Y-12480081D01*
X21395095Y-12499128D01*
X21385571Y-12508652D01*
X21366524Y-12518176D01*
X21337952Y-12518176D01*
X21518905Y-12518176D02*
X21499857Y-12508652D01*
X21490333Y-12489605D01*
X21490333Y-12318176D01*
X21671286Y-12508652D02*
X21652238Y-12518176D01*
X21614143Y-12518176D01*
X21595095Y-12508652D01*
X21585571Y-12489605D01*
X21585571Y-12413414D01*
X21595095Y-12394367D01*
X21614143Y-12384843D01*
X21652238Y-12384843D01*
X21671286Y-12394367D01*
X21680810Y-12413414D01*
X21680810Y-12432462D01*
X21585571Y-12451509D01*
X21757000Y-12508652D02*
X21776048Y-12518176D01*
X21814143Y-12518176D01*
X21833190Y-12508652D01*
X21842714Y-12489605D01*
X21842714Y-12480081D01*
X21833190Y-12461033D01*
X21814143Y-12451509D01*
X21785571Y-12451509D01*
X21766524Y-12441986D01*
X21757000Y-12422938D01*
X21757000Y-12413414D01*
X21766524Y-12394367D01*
X21785571Y-12384843D01*
X21814143Y-12384843D01*
X21833190Y-12394367D01*
X21909381Y-12594367D02*
X21918905Y-12584843D01*
X21937952Y-12556271D01*
X21947476Y-12537224D01*
X21957000Y-12508652D01*
X21966524Y-12461033D01*
X21966524Y-12422938D01*
X21957000Y-12375319D01*
X21947476Y-12346748D01*
X21937952Y-12327700D01*
X21918905Y-12299128D01*
X21909381Y-12289605D01*
D15*
X16935285Y-12719984D02*
X16935285Y-12663415D01*
X16878716Y-12663415D01*
X16878716Y-12719984D01*
X16935285Y-12719984D01*
D11*
X17242714Y-12582176D02*
X17261762Y-12582176D01*
X17280810Y-12591700D01*
X17290333Y-12601224D01*
X17299857Y-12620271D01*
X17309381Y-12658367D01*
X17309381Y-12705986D01*
X17299857Y-12744081D01*
X17290333Y-12763128D01*
X17280810Y-12772652D01*
X17261762Y-12782176D01*
X17242714Y-12782176D01*
X17223667Y-12772652D01*
X17214143Y-12763128D01*
X17204619Y-12744081D01*
X17195095Y-12705986D01*
X17195095Y-12658367D01*
X17204619Y-12620271D01*
X17214143Y-12601224D01*
X17223667Y-12591700D01*
X17242714Y-12582176D01*
X17395095Y-12763128D02*
X17404619Y-12772652D01*
X17395095Y-12782176D01*
X17385571Y-12772652D01*
X17395095Y-12763128D01*
X17395095Y-12782176D01*
X17518905Y-12667890D02*
X17499857Y-12658367D01*
X17490333Y-12648843D01*
X17480810Y-12629795D01*
X17480810Y-12620271D01*
X17490333Y-12601224D01*
X17499857Y-12591700D01*
X17518905Y-12582176D01*
X17557000Y-12582176D01*
X17576048Y-12591700D01*
X17585571Y-12601224D01*
X17595095Y-12620271D01*
X17595095Y-12629795D01*
X17585571Y-12648843D01*
X17576048Y-12658367D01*
X17557000Y-12667890D01*
X17518905Y-12667890D01*
X17499857Y-12677414D01*
X17490333Y-12686938D01*
X17480810Y-12705986D01*
X17480810Y-12744081D01*
X17490333Y-12763128D01*
X17499857Y-12772652D01*
X17518905Y-12782176D01*
X17557000Y-12782176D01*
X17576048Y-12772652D01*
X17585571Y-12763128D01*
X17595095Y-12744081D01*
X17595095Y-12705986D01*
X17585571Y-12686938D01*
X17576048Y-12677414D01*
X17557000Y-12667890D01*
X17718905Y-12582176D02*
X17737952Y-12582176D01*
X17757000Y-12591700D01*
X17766524Y-12601224D01*
X17776048Y-12620271D01*
X17785571Y-12658367D01*
X17785571Y-12705986D01*
X17776048Y-12744081D01*
X17766524Y-12763128D01*
X17757000Y-12772652D01*
X17737952Y-12782176D01*
X17718905Y-12782176D01*
X17699857Y-12772652D01*
X17690333Y-12763128D01*
X17680810Y-12744081D01*
X17671286Y-12705986D01*
X17671286Y-12658367D01*
X17680810Y-12620271D01*
X17690333Y-12601224D01*
X17699857Y-12591700D01*
X17718905Y-12582176D01*
X17909381Y-12582176D02*
X17928429Y-12582176D01*
X17947476Y-12591700D01*
X17957000Y-12601224D01*
X17966524Y-12620271D01*
X17976048Y-12658367D01*
X17976048Y-12705986D01*
X17966524Y-12744081D01*
X17957000Y-12763128D01*
X17947476Y-12772652D01*
X17928429Y-12782176D01*
X17909381Y-12782176D01*
X17890333Y-12772652D01*
X17880810Y-12763128D01*
X17871286Y-12744081D01*
X17861762Y-12705986D01*
X17861762Y-12658367D01*
X17871286Y-12620271D01*
X17880810Y-12601224D01*
X17890333Y-12591700D01*
X17909381Y-12582176D01*
X18061762Y-12782176D02*
X18061762Y-12648843D01*
X18061762Y-12667890D02*
X18071286Y-12658367D01*
X18090333Y-12648843D01*
X18118905Y-12648843D01*
X18137952Y-12658367D01*
X18147476Y-12677414D01*
X18147476Y-12782176D01*
X18147476Y-12677414D02*
X18157000Y-12658367D01*
X18176048Y-12648843D01*
X18204619Y-12648843D01*
X18223667Y-12658367D01*
X18233190Y-12677414D01*
X18233190Y-12782176D01*
X18328429Y-12782176D02*
X18328429Y-12648843D01*
X18328429Y-12667890D02*
X18337952Y-12658367D01*
X18357000Y-12648843D01*
X18385571Y-12648843D01*
X18404619Y-12658367D01*
X18414143Y-12677414D01*
X18414143Y-12782176D01*
X18414143Y-12677414D02*
X18423667Y-12658367D01*
X18442714Y-12648843D01*
X18471286Y-12648843D01*
X18490333Y-12658367D01*
X18499857Y-12677414D01*
X18499857Y-12782176D01*
X18890333Y-12572652D02*
X18718905Y-12829795D01*
X19147476Y-12582176D02*
X19166524Y-12582176D01*
X19185571Y-12591700D01*
X19195095Y-12601224D01*
X19204619Y-12620271D01*
X19214143Y-12658367D01*
X19214143Y-12705986D01*
X19204619Y-12744081D01*
X19195095Y-12763128D01*
X19185571Y-12772652D01*
X19166524Y-12782176D01*
X19147476Y-12782176D01*
X19128429Y-12772652D01*
X19118905Y-12763128D01*
X19109381Y-12744081D01*
X19099857Y-12705986D01*
X19099857Y-12658367D01*
X19109381Y-12620271D01*
X19118905Y-12601224D01*
X19128429Y-12591700D01*
X19147476Y-12582176D01*
X19299857Y-12763128D02*
X19309381Y-12772652D01*
X19299857Y-12782176D01*
X19290333Y-12772652D01*
X19299857Y-12763128D01*
X19299857Y-12782176D01*
X19433190Y-12582176D02*
X19452238Y-12582176D01*
X19471286Y-12591700D01*
X19480810Y-12601224D01*
X19490333Y-12620271D01*
X19499857Y-12658367D01*
X19499857Y-12705986D01*
X19490333Y-12744081D01*
X19480810Y-12763128D01*
X19471286Y-12772652D01*
X19452238Y-12782176D01*
X19433190Y-12782176D01*
X19414143Y-12772652D01*
X19404619Y-12763128D01*
X19395095Y-12744081D01*
X19385571Y-12705986D01*
X19385571Y-12658367D01*
X19395095Y-12620271D01*
X19404619Y-12601224D01*
X19414143Y-12591700D01*
X19433190Y-12582176D01*
X19566524Y-12582176D02*
X19690333Y-12582176D01*
X19623667Y-12658367D01*
X19652238Y-12658367D01*
X19671286Y-12667890D01*
X19680810Y-12677414D01*
X19690333Y-12696462D01*
X19690333Y-12744081D01*
X19680810Y-12763128D01*
X19671286Y-12772652D01*
X19652238Y-12782176D01*
X19595095Y-12782176D01*
X19576048Y-12772652D01*
X19566524Y-12763128D01*
X19880810Y-12782176D02*
X19766524Y-12782176D01*
X19823667Y-12782176D02*
X19823667Y-12582176D01*
X19804619Y-12610748D01*
X19785571Y-12629795D01*
X19766524Y-12639319D01*
X20061762Y-12582176D02*
X19966524Y-12582176D01*
X19957000Y-12677414D01*
X19966524Y-12667890D01*
X19985571Y-12658367D01*
X20033190Y-12658367D01*
X20052238Y-12667890D01*
X20061762Y-12677414D01*
X20071286Y-12696462D01*
X20071286Y-12744081D01*
X20061762Y-12763128D01*
X20052238Y-12772652D01*
X20033190Y-12782176D01*
X19985571Y-12782176D01*
X19966524Y-12772652D01*
X19957000Y-12763128D01*
X20147476Y-12582176D02*
X20147476Y-12620271D01*
X20223667Y-12582176D02*
X20223667Y-12620271D01*
X20518905Y-12858367D02*
X20509381Y-12848843D01*
X20490333Y-12820271D01*
X20480810Y-12801224D01*
X20471286Y-12772652D01*
X20461762Y-12725033D01*
X20461762Y-12686938D01*
X20471286Y-12639319D01*
X20480810Y-12610748D01*
X20490333Y-12591700D01*
X20509381Y-12563128D01*
X20518905Y-12553605D01*
X20690333Y-12582176D02*
X20595095Y-12582176D01*
X20585571Y-12677414D01*
X20595095Y-12667890D01*
X20614143Y-12658367D01*
X20661762Y-12658367D01*
X20680810Y-12667890D01*
X20690333Y-12677414D01*
X20699857Y-12696462D01*
X20699857Y-12744081D01*
X20690333Y-12763128D01*
X20680810Y-12772652D01*
X20661762Y-12782176D01*
X20614143Y-12782176D01*
X20595095Y-12772652D01*
X20585571Y-12763128D01*
X20823667Y-12582176D02*
X20842714Y-12582176D01*
X20861762Y-12591700D01*
X20871286Y-12601224D01*
X20880810Y-12620271D01*
X20890333Y-12658367D01*
X20890333Y-12705986D01*
X20880810Y-12744081D01*
X20871286Y-12763128D01*
X20861762Y-12772652D01*
X20842714Y-12782176D01*
X20823667Y-12782176D01*
X20804619Y-12772652D01*
X20795095Y-12763128D01*
X20785571Y-12744081D01*
X20776048Y-12705986D01*
X20776048Y-12658367D01*
X20785571Y-12620271D01*
X20795095Y-12601224D01*
X20804619Y-12591700D01*
X20823667Y-12582176D01*
X21128429Y-12782176D02*
X21128429Y-12582176D01*
X21214143Y-12782176D02*
X21214143Y-12677414D01*
X21204619Y-12658367D01*
X21185571Y-12648843D01*
X21157000Y-12648843D01*
X21137952Y-12658367D01*
X21128429Y-12667890D01*
X21337952Y-12782176D02*
X21318905Y-12772652D01*
X21309381Y-12763128D01*
X21299857Y-12744081D01*
X21299857Y-12686938D01*
X21309381Y-12667890D01*
X21318905Y-12658367D01*
X21337952Y-12648843D01*
X21366524Y-12648843D01*
X21385571Y-12658367D01*
X21395095Y-12667890D01*
X21404619Y-12686938D01*
X21404619Y-12744081D01*
X21395095Y-12763128D01*
X21385571Y-12772652D01*
X21366524Y-12782176D01*
X21337952Y-12782176D01*
X21518905Y-12782176D02*
X21499857Y-12772652D01*
X21490333Y-12753605D01*
X21490333Y-12582176D01*
X21671286Y-12772652D02*
X21652238Y-12782176D01*
X21614143Y-12782176D01*
X21595095Y-12772652D01*
X21585571Y-12753605D01*
X21585571Y-12677414D01*
X21595095Y-12658367D01*
X21614143Y-12648843D01*
X21652238Y-12648843D01*
X21671286Y-12658367D01*
X21680810Y-12677414D01*
X21680810Y-12696462D01*
X21585571Y-12715509D01*
X21757000Y-12772652D02*
X21776048Y-12782176D01*
X21814143Y-12782176D01*
X21833190Y-12772652D01*
X21842714Y-12753605D01*
X21842714Y-12744081D01*
X21833190Y-12725033D01*
X21814143Y-12715509D01*
X21785571Y-12715509D01*
X21766524Y-12705986D01*
X21757000Y-12686938D01*
X21757000Y-12677414D01*
X21766524Y-12658367D01*
X21785571Y-12648843D01*
X21814143Y-12648843D01*
X21833190Y-12658367D01*
X21909381Y-12858367D02*
X21918905Y-12848843D01*
X21937952Y-12820271D01*
X21947476Y-12801224D01*
X21957000Y-12772652D01*
X21966524Y-12725033D01*
X21966524Y-12686938D01*
X21957000Y-12639319D01*
X21947476Y-12610748D01*
X21937952Y-12591700D01*
X21918905Y-12563128D01*
X21909381Y-12553605D01*
D16*
X16904500Y-12998200D02*
X16947000Y-12955700D01*
X16904500Y-12913200D01*
X16862000Y-12955700D01*
X16904500Y-12998200D01*
D11*
X17242714Y-12846176D02*
X17261762Y-12846176D01*
X17280810Y-12855700D01*
X17290333Y-12865224D01*
X17299857Y-12884271D01*
X17309381Y-12922367D01*
X17309381Y-12969986D01*
X17299857Y-13008081D01*
X17290333Y-13027128D01*
X17280810Y-13036652D01*
X17261762Y-13046176D01*
X17242714Y-13046176D01*
X17223667Y-13036652D01*
X17214143Y-13027128D01*
X17204619Y-13008081D01*
X17195095Y-12969986D01*
X17195095Y-12922367D01*
X17204619Y-12884271D01*
X17214143Y-12865224D01*
X17223667Y-12855700D01*
X17242714Y-12846176D01*
X17395095Y-13027128D02*
X17404619Y-13036652D01*
X17395095Y-13046176D01*
X17385571Y-13036652D01*
X17395095Y-13027128D01*
X17395095Y-13046176D01*
X17518905Y-12931890D02*
X17499857Y-12922367D01*
X17490333Y-12912843D01*
X17480810Y-12893795D01*
X17480810Y-12884271D01*
X17490333Y-12865224D01*
X17499857Y-12855700D01*
X17518905Y-12846176D01*
X17557000Y-12846176D01*
X17576048Y-12855700D01*
X17585571Y-12865224D01*
X17595095Y-12884271D01*
X17595095Y-12893795D01*
X17585571Y-12912843D01*
X17576048Y-12922367D01*
X17557000Y-12931890D01*
X17518905Y-12931890D01*
X17499857Y-12941414D01*
X17490333Y-12950938D01*
X17480810Y-12969986D01*
X17480810Y-13008081D01*
X17490333Y-13027128D01*
X17499857Y-13036652D01*
X17518905Y-13046176D01*
X17557000Y-13046176D01*
X17576048Y-13036652D01*
X17585571Y-13027128D01*
X17595095Y-13008081D01*
X17595095Y-12969986D01*
X17585571Y-12950938D01*
X17576048Y-12941414D01*
X17557000Y-12931890D01*
X17776048Y-12846176D02*
X17680810Y-12846176D01*
X17671286Y-12941414D01*
X17680810Y-12931890D01*
X17699857Y-12922367D01*
X17747476Y-12922367D01*
X17766524Y-12931890D01*
X17776048Y-12941414D01*
X17785571Y-12960462D01*
X17785571Y-13008081D01*
X17776048Y-13027128D01*
X17766524Y-13036652D01*
X17747476Y-13046176D01*
X17699857Y-13046176D01*
X17680810Y-13036652D01*
X17671286Y-13027128D01*
X17909381Y-12846176D02*
X17928429Y-12846176D01*
X17947476Y-12855700D01*
X17957000Y-12865224D01*
X17966524Y-12884271D01*
X17976048Y-12922367D01*
X17976048Y-12969986D01*
X17966524Y-13008081D01*
X17957000Y-13027128D01*
X17947476Y-13036652D01*
X17928429Y-13046176D01*
X17909381Y-13046176D01*
X17890333Y-13036652D01*
X17880810Y-13027128D01*
X17871286Y-13008081D01*
X17861762Y-12969986D01*
X17861762Y-12922367D01*
X17871286Y-12884271D01*
X17880810Y-12865224D01*
X17890333Y-12855700D01*
X17909381Y-12846176D01*
X18061762Y-13046176D02*
X18061762Y-12912843D01*
X18061762Y-12931890D02*
X18071286Y-12922367D01*
X18090333Y-12912843D01*
X18118905Y-12912843D01*
X18137952Y-12922367D01*
X18147476Y-12941414D01*
X18147476Y-13046176D01*
X18147476Y-12941414D02*
X18157000Y-12922367D01*
X18176048Y-12912843D01*
X18204619Y-12912843D01*
X18223667Y-12922367D01*
X18233190Y-12941414D01*
X18233190Y-13046176D01*
X18328429Y-13046176D02*
X18328429Y-12912843D01*
X18328429Y-12931890D02*
X18337952Y-12922367D01*
X18357000Y-12912843D01*
X18385571Y-12912843D01*
X18404619Y-12922367D01*
X18414143Y-12941414D01*
X18414143Y-13046176D01*
X18414143Y-12941414D02*
X18423667Y-12922367D01*
X18442714Y-12912843D01*
X18471286Y-12912843D01*
X18490333Y-12922367D01*
X18499857Y-12941414D01*
X18499857Y-13046176D01*
X18890333Y-12836652D02*
X18718905Y-13093795D01*
X19147476Y-12846176D02*
X19166524Y-12846176D01*
X19185571Y-12855700D01*
X19195095Y-12865224D01*
X19204619Y-12884271D01*
X19214143Y-12922367D01*
X19214143Y-12969986D01*
X19204619Y-13008081D01*
X19195095Y-13027128D01*
X19185571Y-13036652D01*
X19166524Y-13046176D01*
X19147476Y-13046176D01*
X19128429Y-13036652D01*
X19118905Y-13027128D01*
X19109381Y-13008081D01*
X19099857Y-12969986D01*
X19099857Y-12922367D01*
X19109381Y-12884271D01*
X19118905Y-12865224D01*
X19128429Y-12855700D01*
X19147476Y-12846176D01*
X19299857Y-13027128D02*
X19309381Y-13036652D01*
X19299857Y-13046176D01*
X19290333Y-13036652D01*
X19299857Y-13027128D01*
X19299857Y-13046176D01*
X19433190Y-12846176D02*
X19452238Y-12846176D01*
X19471286Y-12855700D01*
X19480810Y-12865224D01*
X19490333Y-12884271D01*
X19499857Y-12922367D01*
X19499857Y-12969986D01*
X19490333Y-13008081D01*
X19480810Y-13027128D01*
X19471286Y-13036652D01*
X19452238Y-13046176D01*
X19433190Y-13046176D01*
X19414143Y-13036652D01*
X19404619Y-13027128D01*
X19395095Y-13008081D01*
X19385571Y-12969986D01*
X19385571Y-12922367D01*
X19395095Y-12884271D01*
X19404619Y-12865224D01*
X19414143Y-12855700D01*
X19433190Y-12846176D01*
X19566524Y-12846176D02*
X19690333Y-12846176D01*
X19623667Y-12922367D01*
X19652238Y-12922367D01*
X19671286Y-12931890D01*
X19680810Y-12941414D01*
X19690333Y-12960462D01*
X19690333Y-13008081D01*
X19680810Y-13027128D01*
X19671286Y-13036652D01*
X19652238Y-13046176D01*
X19595095Y-13046176D01*
X19576048Y-13036652D01*
X19566524Y-13027128D01*
X19757000Y-12846176D02*
X19880810Y-12846176D01*
X19814143Y-12922367D01*
X19842714Y-12922367D01*
X19861762Y-12931890D01*
X19871286Y-12941414D01*
X19880810Y-12960462D01*
X19880810Y-13008081D01*
X19871286Y-13027128D01*
X19861762Y-13036652D01*
X19842714Y-13046176D01*
X19785571Y-13046176D01*
X19766524Y-13036652D01*
X19757000Y-13027128D01*
X20061762Y-12846176D02*
X19966524Y-12846176D01*
X19957000Y-12941414D01*
X19966524Y-12931890D01*
X19985571Y-12922367D01*
X20033190Y-12922367D01*
X20052238Y-12931890D01*
X20061762Y-12941414D01*
X20071286Y-12960462D01*
X20071286Y-13008081D01*
X20061762Y-13027128D01*
X20052238Y-13036652D01*
X20033190Y-13046176D01*
X19985571Y-13046176D01*
X19966524Y-13036652D01*
X19957000Y-13027128D01*
X20147476Y-12846176D02*
X20147476Y-12884271D01*
X20223667Y-12846176D02*
X20223667Y-12884271D01*
X20518905Y-13122367D02*
X20509381Y-13112843D01*
X20490333Y-13084271D01*
X20480810Y-13065224D01*
X20471286Y-13036652D01*
X20461762Y-12989033D01*
X20461762Y-12950938D01*
X20471286Y-12903319D01*
X20480810Y-12874748D01*
X20490333Y-12855700D01*
X20509381Y-12827128D01*
X20518905Y-12817605D01*
X20680810Y-12846176D02*
X20642714Y-12846176D01*
X20623667Y-12855700D01*
X20614143Y-12865224D01*
X20595095Y-12893795D01*
X20585571Y-12931890D01*
X20585571Y-13008081D01*
X20595095Y-13027128D01*
X20604619Y-13036652D01*
X20623667Y-13046176D01*
X20661762Y-13046176D01*
X20680810Y-13036652D01*
X20690333Y-13027128D01*
X20699857Y-13008081D01*
X20699857Y-12960462D01*
X20690333Y-12941414D01*
X20680810Y-12931890D01*
X20661762Y-12922367D01*
X20623667Y-12922367D01*
X20604619Y-12931890D01*
X20595095Y-12941414D01*
X20585571Y-12960462D01*
X20937952Y-13046176D02*
X20937952Y-12846176D01*
X21023667Y-13046176D02*
X21023667Y-12941414D01*
X21014143Y-12922367D01*
X20995095Y-12912843D01*
X20966524Y-12912843D01*
X20947476Y-12922367D01*
X20937952Y-12931890D01*
X21147476Y-13046176D02*
X21128429Y-13036652D01*
X21118905Y-13027128D01*
X21109381Y-13008081D01*
X21109381Y-12950938D01*
X21118905Y-12931890D01*
X21128429Y-12922367D01*
X21147476Y-12912843D01*
X21176048Y-12912843D01*
X21195095Y-12922367D01*
X21204619Y-12931890D01*
X21214143Y-12950938D01*
X21214143Y-13008081D01*
X21204619Y-13027128D01*
X21195095Y-13036652D01*
X21176048Y-13046176D01*
X21147476Y-13046176D01*
X21328429Y-13046176D02*
X21309381Y-13036652D01*
X21299857Y-13017605D01*
X21299857Y-12846176D01*
X21480810Y-13036652D02*
X21461762Y-13046176D01*
X21423667Y-13046176D01*
X21404619Y-13036652D01*
X21395095Y-13017605D01*
X21395095Y-12941414D01*
X21404619Y-12922367D01*
X21423667Y-12912843D01*
X21461762Y-12912843D01*
X21480810Y-12922367D01*
X21490333Y-12941414D01*
X21490333Y-12960462D01*
X21395095Y-12979509D01*
X21566524Y-13036652D02*
X21585571Y-13046176D01*
X21623667Y-13046176D01*
X21642714Y-13036652D01*
X21652238Y-13017605D01*
X21652238Y-13008081D01*
X21642714Y-12989033D01*
X21623667Y-12979509D01*
X21595095Y-12979509D01*
X21576048Y-12969986D01*
X21566524Y-12950938D01*
X21566524Y-12941414D01*
X21576048Y-12922367D01*
X21595095Y-12912843D01*
X21623667Y-12912843D01*
X21642714Y-12922367D01*
X21718905Y-13122367D02*
X21728429Y-13112843D01*
X21747476Y-13084271D01*
X21757000Y-13065224D01*
X21766524Y-13036652D01*
X21776048Y-12989033D01*
X21776048Y-12950938D01*
X21766524Y-12903319D01*
X21757000Y-12874748D01*
X21747476Y-12855700D01*
X21728429Y-12827128D01*
X21718905Y-12817605D01*
D17*
X16847000Y-13169700D02*
X16947000Y-13269700D01*
X16947000Y-13169700D02*
X16847000Y-13269700D01*
X16947000Y-13219700D02*
G75*
G03*
X16947000Y-13219700I-50000J0D01*
G01*
D11*
X17309381Y-13310176D02*
X17195095Y-13310176D01*
X17252238Y-13310176D02*
X17252238Y-13110176D01*
X17233190Y-13138748D01*
X17214143Y-13157795D01*
X17195095Y-13167319D01*
X17395095Y-13291128D02*
X17404619Y-13300652D01*
X17395095Y-13310176D01*
X17385571Y-13300652D01*
X17395095Y-13291128D01*
X17395095Y-13310176D01*
X17528429Y-13110176D02*
X17547476Y-13110176D01*
X17566524Y-13119700D01*
X17576048Y-13129224D01*
X17585571Y-13148271D01*
X17595095Y-13186367D01*
X17595095Y-13233986D01*
X17585571Y-13272081D01*
X17576048Y-13291128D01*
X17566524Y-13300652D01*
X17547476Y-13310176D01*
X17528429Y-13310176D01*
X17509381Y-13300652D01*
X17499857Y-13291128D01*
X17490333Y-13272081D01*
X17480810Y-13233986D01*
X17480810Y-13186367D01*
X17490333Y-13148271D01*
X17499857Y-13129224D01*
X17509381Y-13119700D01*
X17528429Y-13110176D01*
X17718905Y-13110176D02*
X17737952Y-13110176D01*
X17757000Y-13119700D01*
X17766524Y-13129224D01*
X17776048Y-13148271D01*
X17785571Y-13186367D01*
X17785571Y-13233986D01*
X17776048Y-13272081D01*
X17766524Y-13291128D01*
X17757000Y-13300652D01*
X17737952Y-13310176D01*
X17718905Y-13310176D01*
X17699857Y-13300652D01*
X17690333Y-13291128D01*
X17680810Y-13272081D01*
X17671286Y-13233986D01*
X17671286Y-13186367D01*
X17680810Y-13148271D01*
X17690333Y-13129224D01*
X17699857Y-13119700D01*
X17718905Y-13110176D01*
X17909381Y-13110176D02*
X17928429Y-13110176D01*
X17947476Y-13119700D01*
X17957000Y-13129224D01*
X17966524Y-13148271D01*
X17976048Y-13186367D01*
X17976048Y-13233986D01*
X17966524Y-13272081D01*
X17957000Y-13291128D01*
X17947476Y-13300652D01*
X17928429Y-13310176D01*
X17909381Y-13310176D01*
X17890333Y-13300652D01*
X17880810Y-13291128D01*
X17871286Y-13272081D01*
X17861762Y-13233986D01*
X17861762Y-13186367D01*
X17871286Y-13148271D01*
X17880810Y-13129224D01*
X17890333Y-13119700D01*
X17909381Y-13110176D01*
X18061762Y-13310176D02*
X18061762Y-13176843D01*
X18061762Y-13195890D02*
X18071286Y-13186367D01*
X18090333Y-13176843D01*
X18118905Y-13176843D01*
X18137952Y-13186367D01*
X18147476Y-13205414D01*
X18147476Y-13310176D01*
X18147476Y-13205414D02*
X18157000Y-13186367D01*
X18176048Y-13176843D01*
X18204619Y-13176843D01*
X18223667Y-13186367D01*
X18233190Y-13205414D01*
X18233190Y-13310176D01*
X18328429Y-13310176D02*
X18328429Y-13176843D01*
X18328429Y-13195890D02*
X18337952Y-13186367D01*
X18357000Y-13176843D01*
X18385571Y-13176843D01*
X18404619Y-13186367D01*
X18414143Y-13205414D01*
X18414143Y-13310176D01*
X18414143Y-13205414D02*
X18423667Y-13186367D01*
X18442714Y-13176843D01*
X18471286Y-13176843D01*
X18490333Y-13186367D01*
X18499857Y-13205414D01*
X18499857Y-13310176D01*
X18890333Y-13100652D02*
X18718905Y-13357795D01*
X19147476Y-13110176D02*
X19166524Y-13110176D01*
X19185571Y-13119700D01*
X19195095Y-13129224D01*
X19204619Y-13148271D01*
X19214143Y-13186367D01*
X19214143Y-13233986D01*
X19204619Y-13272081D01*
X19195095Y-13291128D01*
X19185571Y-13300652D01*
X19166524Y-13310176D01*
X19147476Y-13310176D01*
X19128429Y-13300652D01*
X19118905Y-13291128D01*
X19109381Y-13272081D01*
X19099857Y-13233986D01*
X19099857Y-13186367D01*
X19109381Y-13148271D01*
X19118905Y-13129224D01*
X19128429Y-13119700D01*
X19147476Y-13110176D01*
X19299857Y-13291128D02*
X19309381Y-13300652D01*
X19299857Y-13310176D01*
X19290333Y-13300652D01*
X19299857Y-13291128D01*
X19299857Y-13310176D01*
X19433190Y-13110176D02*
X19452238Y-13110176D01*
X19471286Y-13119700D01*
X19480810Y-13129224D01*
X19490333Y-13148271D01*
X19499857Y-13186367D01*
X19499857Y-13233986D01*
X19490333Y-13272081D01*
X19480810Y-13291128D01*
X19471286Y-13300652D01*
X19452238Y-13310176D01*
X19433190Y-13310176D01*
X19414143Y-13300652D01*
X19404619Y-13291128D01*
X19395095Y-13272081D01*
X19385571Y-13233986D01*
X19385571Y-13186367D01*
X19395095Y-13148271D01*
X19404619Y-13129224D01*
X19414143Y-13119700D01*
X19433190Y-13110176D01*
X19566524Y-13110176D02*
X19690333Y-13110176D01*
X19623667Y-13186367D01*
X19652238Y-13186367D01*
X19671286Y-13195890D01*
X19680810Y-13205414D01*
X19690333Y-13224462D01*
X19690333Y-13272081D01*
X19680810Y-13291128D01*
X19671286Y-13300652D01*
X19652238Y-13310176D01*
X19595095Y-13310176D01*
X19576048Y-13300652D01*
X19566524Y-13291128D01*
X19785571Y-13310176D02*
X19823667Y-13310176D01*
X19842714Y-13300652D01*
X19852238Y-13291128D01*
X19871286Y-13262557D01*
X19880810Y-13224462D01*
X19880810Y-13148271D01*
X19871286Y-13129224D01*
X19861762Y-13119700D01*
X19842714Y-13110176D01*
X19804619Y-13110176D01*
X19785571Y-13119700D01*
X19776048Y-13129224D01*
X19766524Y-13148271D01*
X19766524Y-13195890D01*
X19776048Y-13214938D01*
X19785571Y-13224462D01*
X19804619Y-13233986D01*
X19842714Y-13233986D01*
X19861762Y-13224462D01*
X19871286Y-13214938D01*
X19880810Y-13195890D01*
X20052238Y-13176843D02*
X20052238Y-13310176D01*
X20004619Y-13100652D02*
X19957000Y-13243509D01*
X20080810Y-13243509D01*
X20147476Y-13110176D02*
X20147476Y-13148271D01*
X20223667Y-13110176D02*
X20223667Y-13148271D01*
X20518905Y-13386367D02*
X20509381Y-13376843D01*
X20490333Y-13348271D01*
X20480810Y-13329224D01*
X20471286Y-13300652D01*
X20461762Y-13253033D01*
X20461762Y-13214938D01*
X20471286Y-13167319D01*
X20480810Y-13138748D01*
X20490333Y-13119700D01*
X20509381Y-13091128D01*
X20518905Y-13081605D01*
X20585571Y-13129224D02*
X20595095Y-13119700D01*
X20614143Y-13110176D01*
X20661762Y-13110176D01*
X20680810Y-13119700D01*
X20690333Y-13129224D01*
X20699857Y-13148271D01*
X20699857Y-13167319D01*
X20690333Y-13195890D01*
X20576048Y-13310176D01*
X20699857Y-13310176D01*
X20766524Y-13110176D02*
X20890333Y-13110176D01*
X20823667Y-13186367D01*
X20852238Y-13186367D01*
X20871286Y-13195890D01*
X20880810Y-13205414D01*
X20890333Y-13224462D01*
X20890333Y-13272081D01*
X20880810Y-13291128D01*
X20871286Y-13300652D01*
X20852238Y-13310176D01*
X20795095Y-13310176D01*
X20776048Y-13300652D01*
X20766524Y-13291128D01*
X21128429Y-13310176D02*
X21128429Y-13110176D01*
X21214143Y-13310176D02*
X21214143Y-13205414D01*
X21204619Y-13186367D01*
X21185571Y-13176843D01*
X21157000Y-13176843D01*
X21137952Y-13186367D01*
X21128429Y-13195890D01*
X21337952Y-13310176D02*
X21318905Y-13300652D01*
X21309381Y-13291128D01*
X21299857Y-13272081D01*
X21299857Y-13214938D01*
X21309381Y-13195890D01*
X21318905Y-13186367D01*
X21337952Y-13176843D01*
X21366524Y-13176843D01*
X21385571Y-13186367D01*
X21395095Y-13195890D01*
X21404619Y-13214938D01*
X21404619Y-13272081D01*
X21395095Y-13291128D01*
X21385571Y-13300652D01*
X21366524Y-13310176D01*
X21337952Y-13310176D01*
X21518905Y-13310176D02*
X21499857Y-13300652D01*
X21490333Y-13281605D01*
X21490333Y-13110176D01*
X21671286Y-13300652D02*
X21652238Y-13310176D01*
X21614143Y-13310176D01*
X21595095Y-13300652D01*
X21585571Y-13281605D01*
X21585571Y-13205414D01*
X21595095Y-13186367D01*
X21614143Y-13176843D01*
X21652238Y-13176843D01*
X21671286Y-13186367D01*
X21680810Y-13205414D01*
X21680810Y-13224462D01*
X21585571Y-13243509D01*
X21757000Y-13300652D02*
X21776048Y-13310176D01*
X21814143Y-13310176D01*
X21833190Y-13300652D01*
X21842714Y-13281605D01*
X21842714Y-13272081D01*
X21833190Y-13253033D01*
X21814143Y-13243509D01*
X21785571Y-13243509D01*
X21766524Y-13233986D01*
X21757000Y-13214938D01*
X21757000Y-13205414D01*
X21766524Y-13186367D01*
X21785571Y-13176843D01*
X21814143Y-13176843D01*
X21833190Y-13186367D01*
X21909381Y-13386367D02*
X21918905Y-13376843D01*
X21937952Y-13348271D01*
X21947476Y-13329224D01*
X21957000Y-13300652D01*
X21966524Y-13253033D01*
X21966524Y-13214938D01*
X21957000Y-13167319D01*
X21947476Y-13138748D01*
X21937952Y-13119700D01*
X21918905Y-13091128D01*
X21909381Y-13081605D01*
D18*
X16845000Y-13432700D02*
X16947000Y-13534700D01*
X16947000Y-13432700D02*
X16845000Y-13534700D01*
X16896000Y-13432700D02*
X16896000Y-13534700D01*
X16845000Y-13483700D02*
X16947000Y-13483700D01*
D11*
X17309381Y-13574176D02*
X17195095Y-13574176D01*
X17252238Y-13574176D02*
X17252238Y-13374176D01*
X17233190Y-13402748D01*
X17214143Y-13421795D01*
X17195095Y-13431319D01*
X17395095Y-13555128D02*
X17404619Y-13564652D01*
X17395095Y-13574176D01*
X17385571Y-13564652D01*
X17395095Y-13555128D01*
X17395095Y-13574176D01*
X17528429Y-13374176D02*
X17547476Y-13374176D01*
X17566524Y-13383700D01*
X17576048Y-13393224D01*
X17585571Y-13412271D01*
X17595095Y-13450367D01*
X17595095Y-13497986D01*
X17585571Y-13536081D01*
X17576048Y-13555128D01*
X17566524Y-13564652D01*
X17547476Y-13574176D01*
X17528429Y-13574176D01*
X17509381Y-13564652D01*
X17499857Y-13555128D01*
X17490333Y-13536081D01*
X17480810Y-13497986D01*
X17480810Y-13450367D01*
X17490333Y-13412271D01*
X17499857Y-13393224D01*
X17509381Y-13383700D01*
X17528429Y-13374176D01*
X17671286Y-13393224D02*
X17680810Y-13383700D01*
X17699857Y-13374176D01*
X17747476Y-13374176D01*
X17766524Y-13383700D01*
X17776048Y-13393224D01*
X17785571Y-13412271D01*
X17785571Y-13431319D01*
X17776048Y-13459890D01*
X17661762Y-13574176D01*
X17785571Y-13574176D01*
X17909381Y-13374176D02*
X17928429Y-13374176D01*
X17947476Y-13383700D01*
X17957000Y-13393224D01*
X17966524Y-13412271D01*
X17976048Y-13450367D01*
X17976048Y-13497986D01*
X17966524Y-13536081D01*
X17957000Y-13555128D01*
X17947476Y-13564652D01*
X17928429Y-13574176D01*
X17909381Y-13574176D01*
X17890333Y-13564652D01*
X17880810Y-13555128D01*
X17871286Y-13536081D01*
X17861762Y-13497986D01*
X17861762Y-13450367D01*
X17871286Y-13412271D01*
X17880810Y-13393224D01*
X17890333Y-13383700D01*
X17909381Y-13374176D01*
X18061762Y-13574176D02*
X18061762Y-13440843D01*
X18061762Y-13459890D02*
X18071286Y-13450367D01*
X18090333Y-13440843D01*
X18118905Y-13440843D01*
X18137952Y-13450367D01*
X18147476Y-13469414D01*
X18147476Y-13574176D01*
X18147476Y-13469414D02*
X18157000Y-13450367D01*
X18176048Y-13440843D01*
X18204619Y-13440843D01*
X18223667Y-13450367D01*
X18233190Y-13469414D01*
X18233190Y-13574176D01*
X18328429Y-13574176D02*
X18328429Y-13440843D01*
X18328429Y-13459890D02*
X18337952Y-13450367D01*
X18357000Y-13440843D01*
X18385571Y-13440843D01*
X18404619Y-13450367D01*
X18414143Y-13469414D01*
X18414143Y-13574176D01*
X18414143Y-13469414D02*
X18423667Y-13450367D01*
X18442714Y-13440843D01*
X18471286Y-13440843D01*
X18490333Y-13450367D01*
X18499857Y-13469414D01*
X18499857Y-13574176D01*
X18890333Y-13364652D02*
X18718905Y-13621795D01*
X19147476Y-13374176D02*
X19166524Y-13374176D01*
X19185571Y-13383700D01*
X19195095Y-13393224D01*
X19204619Y-13412271D01*
X19214143Y-13450367D01*
X19214143Y-13497986D01*
X19204619Y-13536081D01*
X19195095Y-13555128D01*
X19185571Y-13564652D01*
X19166524Y-13574176D01*
X19147476Y-13574176D01*
X19128429Y-13564652D01*
X19118905Y-13555128D01*
X19109381Y-13536081D01*
X19099857Y-13497986D01*
X19099857Y-13450367D01*
X19109381Y-13412271D01*
X19118905Y-13393224D01*
X19128429Y-13383700D01*
X19147476Y-13374176D01*
X19299857Y-13555128D02*
X19309381Y-13564652D01*
X19299857Y-13574176D01*
X19290333Y-13564652D01*
X19299857Y-13555128D01*
X19299857Y-13574176D01*
X19433190Y-13374176D02*
X19452238Y-13374176D01*
X19471286Y-13383700D01*
X19480810Y-13393224D01*
X19490333Y-13412271D01*
X19499857Y-13450367D01*
X19499857Y-13497986D01*
X19490333Y-13536081D01*
X19480810Y-13555128D01*
X19471286Y-13564652D01*
X19452238Y-13574176D01*
X19433190Y-13574176D01*
X19414143Y-13564652D01*
X19404619Y-13555128D01*
X19395095Y-13536081D01*
X19385571Y-13497986D01*
X19385571Y-13450367D01*
X19395095Y-13412271D01*
X19404619Y-13393224D01*
X19414143Y-13383700D01*
X19433190Y-13374176D01*
X19671286Y-13440843D02*
X19671286Y-13574176D01*
X19623667Y-13364652D02*
X19576048Y-13507509D01*
X19699857Y-13507509D01*
X19814143Y-13374176D02*
X19833190Y-13374176D01*
X19852238Y-13383700D01*
X19861762Y-13393224D01*
X19871286Y-13412271D01*
X19880810Y-13450367D01*
X19880810Y-13497986D01*
X19871286Y-13536081D01*
X19861762Y-13555128D01*
X19852238Y-13564652D01*
X19833190Y-13574176D01*
X19814143Y-13574176D01*
X19795095Y-13564652D01*
X19785571Y-13555128D01*
X19776048Y-13536081D01*
X19766524Y-13497986D01*
X19766524Y-13450367D01*
X19776048Y-13412271D01*
X19785571Y-13393224D01*
X19795095Y-13383700D01*
X19814143Y-13374176D01*
X19957000Y-13393224D02*
X19966524Y-13383700D01*
X19985571Y-13374176D01*
X20033190Y-13374176D01*
X20052238Y-13383700D01*
X20061762Y-13393224D01*
X20071286Y-13412271D01*
X20071286Y-13431319D01*
X20061762Y-13459890D01*
X19947476Y-13574176D01*
X20071286Y-13574176D01*
X20147476Y-13374176D02*
X20147476Y-13412271D01*
X20223667Y-13374176D02*
X20223667Y-13412271D01*
X20518905Y-13650367D02*
X20509381Y-13640843D01*
X20490333Y-13612271D01*
X20480810Y-13593224D01*
X20471286Y-13564652D01*
X20461762Y-13517033D01*
X20461762Y-13478938D01*
X20471286Y-13431319D01*
X20480810Y-13402748D01*
X20490333Y-13383700D01*
X20509381Y-13355128D01*
X20518905Y-13345605D01*
X20680810Y-13440843D02*
X20680810Y-13574176D01*
X20633190Y-13364652D02*
X20585571Y-13507509D01*
X20709381Y-13507509D01*
X20766524Y-13374176D02*
X20890333Y-13374176D01*
X20823667Y-13450367D01*
X20852238Y-13450367D01*
X20871286Y-13459890D01*
X20880810Y-13469414D01*
X20890333Y-13488462D01*
X20890333Y-13536081D01*
X20880810Y-13555128D01*
X20871286Y-13564652D01*
X20852238Y-13574176D01*
X20795095Y-13574176D01*
X20776048Y-13564652D01*
X20766524Y-13555128D01*
X21128429Y-13574176D02*
X21128429Y-13374176D01*
X21214143Y-13574176D02*
X21214143Y-13469414D01*
X21204619Y-13450367D01*
X21185571Y-13440843D01*
X21157000Y-13440843D01*
X21137952Y-13450367D01*
X21128429Y-13459890D01*
X21337952Y-13574176D02*
X21318905Y-13564652D01*
X21309381Y-13555128D01*
X21299857Y-13536081D01*
X21299857Y-13478938D01*
X21309381Y-13459890D01*
X21318905Y-13450367D01*
X21337952Y-13440843D01*
X21366524Y-13440843D01*
X21385571Y-13450367D01*
X21395095Y-13459890D01*
X21404619Y-13478938D01*
X21404619Y-13536081D01*
X21395095Y-13555128D01*
X21385571Y-13564652D01*
X21366524Y-13574176D01*
X21337952Y-13574176D01*
X21518905Y-13574176D02*
X21499857Y-13564652D01*
X21490333Y-13545605D01*
X21490333Y-13374176D01*
X21671286Y-13564652D02*
X21652238Y-13574176D01*
X21614143Y-13574176D01*
X21595095Y-13564652D01*
X21585571Y-13545605D01*
X21585571Y-13469414D01*
X21595095Y-13450367D01*
X21614143Y-13440843D01*
X21652238Y-13440843D01*
X21671286Y-13450367D01*
X21680810Y-13469414D01*
X21680810Y-13488462D01*
X21585571Y-13507509D01*
X21757000Y-13564652D02*
X21776048Y-13574176D01*
X21814143Y-13574176D01*
X21833190Y-13564652D01*
X21842714Y-13545605D01*
X21842714Y-13536081D01*
X21833190Y-13517033D01*
X21814143Y-13507509D01*
X21785571Y-13507509D01*
X21766524Y-13497986D01*
X21757000Y-13478938D01*
X21757000Y-13469414D01*
X21766524Y-13450367D01*
X21785571Y-13440843D01*
X21814143Y-13440843D01*
X21833190Y-13450367D01*
X21909381Y-13650367D02*
X21918905Y-13640843D01*
X21937952Y-13612271D01*
X21947476Y-13593224D01*
X21957000Y-13564652D01*
X21966524Y-13517033D01*
X21966524Y-13478938D01*
X21957000Y-13431319D01*
X21947476Y-13402748D01*
X21937952Y-13383700D01*
X21918905Y-13355128D01*
X21909381Y-13345605D01*
D19*
X16827000Y-13687700D02*
X16947000Y-13807700D01*
X16947000Y-13687700D02*
X16827000Y-13807700D01*
X16929427Y-13790127D02*
X16929427Y-13705273D01*
X16844573Y-13705273D01*
X16844573Y-13790127D01*
X16929427Y-13790127D01*
D11*
X17309381Y-13838176D02*
X17195095Y-13838176D01*
X17252238Y-13838176D02*
X17252238Y-13638176D01*
X17233190Y-13666748D01*
X17214143Y-13685795D01*
X17195095Y-13695319D01*
X17395095Y-13819128D02*
X17404619Y-13828652D01*
X17395095Y-13838176D01*
X17385571Y-13828652D01*
X17395095Y-13819128D01*
X17395095Y-13838176D01*
X17480810Y-13657224D02*
X17490333Y-13647700D01*
X17509381Y-13638176D01*
X17557000Y-13638176D01*
X17576048Y-13647700D01*
X17585571Y-13657224D01*
X17595095Y-13676271D01*
X17595095Y-13695319D01*
X17585571Y-13723890D01*
X17471286Y-13838176D01*
X17595095Y-13838176D01*
X17718905Y-13638176D02*
X17737952Y-13638176D01*
X17757000Y-13647700D01*
X17766524Y-13657224D01*
X17776048Y-13676271D01*
X17785571Y-13714367D01*
X17785571Y-13761986D01*
X17776048Y-13800081D01*
X17766524Y-13819128D01*
X17757000Y-13828652D01*
X17737952Y-13838176D01*
X17718905Y-13838176D01*
X17699857Y-13828652D01*
X17690333Y-13819128D01*
X17680810Y-13800081D01*
X17671286Y-13761986D01*
X17671286Y-13714367D01*
X17680810Y-13676271D01*
X17690333Y-13657224D01*
X17699857Y-13647700D01*
X17718905Y-13638176D01*
X17909381Y-13638176D02*
X17928429Y-13638176D01*
X17947476Y-13647700D01*
X17957000Y-13657224D01*
X17966524Y-13676271D01*
X17976048Y-13714367D01*
X17976048Y-13761986D01*
X17966524Y-13800081D01*
X17957000Y-13819128D01*
X17947476Y-13828652D01*
X17928429Y-13838176D01*
X17909381Y-13838176D01*
X17890333Y-13828652D01*
X17880810Y-13819128D01*
X17871286Y-13800081D01*
X17861762Y-13761986D01*
X17861762Y-13714367D01*
X17871286Y-13676271D01*
X17880810Y-13657224D01*
X17890333Y-13647700D01*
X17909381Y-13638176D01*
X18061762Y-13838176D02*
X18061762Y-13704843D01*
X18061762Y-13723890D02*
X18071286Y-13714367D01*
X18090333Y-13704843D01*
X18118905Y-13704843D01*
X18137952Y-13714367D01*
X18147476Y-13733414D01*
X18147476Y-13838176D01*
X18147476Y-13733414D02*
X18157000Y-13714367D01*
X18176048Y-13704843D01*
X18204619Y-13704843D01*
X18223667Y-13714367D01*
X18233190Y-13733414D01*
X18233190Y-13838176D01*
X18328429Y-13838176D02*
X18328429Y-13704843D01*
X18328429Y-13723890D02*
X18337952Y-13714367D01*
X18357000Y-13704843D01*
X18385571Y-13704843D01*
X18404619Y-13714367D01*
X18414143Y-13733414D01*
X18414143Y-13838176D01*
X18414143Y-13733414D02*
X18423667Y-13714367D01*
X18442714Y-13704843D01*
X18471286Y-13704843D01*
X18490333Y-13714367D01*
X18499857Y-13733414D01*
X18499857Y-13838176D01*
X18890333Y-13628652D02*
X18718905Y-13885795D01*
X19147476Y-13638176D02*
X19166524Y-13638176D01*
X19185571Y-13647700D01*
X19195095Y-13657224D01*
X19204619Y-13676271D01*
X19214143Y-13714367D01*
X19214143Y-13761986D01*
X19204619Y-13800081D01*
X19195095Y-13819128D01*
X19185571Y-13828652D01*
X19166524Y-13838176D01*
X19147476Y-13838176D01*
X19128429Y-13828652D01*
X19118905Y-13819128D01*
X19109381Y-13800081D01*
X19099857Y-13761986D01*
X19099857Y-13714367D01*
X19109381Y-13676271D01*
X19118905Y-13657224D01*
X19128429Y-13647700D01*
X19147476Y-13638176D01*
X19299857Y-13819128D02*
X19309381Y-13828652D01*
X19299857Y-13838176D01*
X19290333Y-13828652D01*
X19299857Y-13819128D01*
X19299857Y-13838176D01*
X19433190Y-13638176D02*
X19452238Y-13638176D01*
X19471286Y-13647700D01*
X19480810Y-13657224D01*
X19490333Y-13676271D01*
X19499857Y-13714367D01*
X19499857Y-13761986D01*
X19490333Y-13800081D01*
X19480810Y-13819128D01*
X19471286Y-13828652D01*
X19452238Y-13838176D01*
X19433190Y-13838176D01*
X19414143Y-13828652D01*
X19404619Y-13819128D01*
X19395095Y-13800081D01*
X19385571Y-13761986D01*
X19385571Y-13714367D01*
X19395095Y-13676271D01*
X19404619Y-13657224D01*
X19414143Y-13647700D01*
X19433190Y-13638176D01*
X19671286Y-13704843D02*
X19671286Y-13838176D01*
X19623667Y-13628652D02*
X19576048Y-13771509D01*
X19699857Y-13771509D01*
X19757000Y-13638176D02*
X19890333Y-13638176D01*
X19804619Y-13838176D01*
X19957000Y-13657224D02*
X19966524Y-13647700D01*
X19985571Y-13638176D01*
X20033190Y-13638176D01*
X20052238Y-13647700D01*
X20061762Y-13657224D01*
X20071286Y-13676271D01*
X20071286Y-13695319D01*
X20061762Y-13723890D01*
X19947476Y-13838176D01*
X20071286Y-13838176D01*
X20147476Y-13638176D02*
X20147476Y-13676271D01*
X20223667Y-13638176D02*
X20223667Y-13676271D01*
X20518905Y-13914367D02*
X20509381Y-13904843D01*
X20490333Y-13876271D01*
X20480810Y-13857224D01*
X20471286Y-13828652D01*
X20461762Y-13781033D01*
X20461762Y-13742938D01*
X20471286Y-13695319D01*
X20480810Y-13666748D01*
X20490333Y-13647700D01*
X20509381Y-13619128D01*
X20518905Y-13609605D01*
X20576048Y-13638176D02*
X20699857Y-13638176D01*
X20633190Y-13714367D01*
X20661762Y-13714367D01*
X20680810Y-13723890D01*
X20690333Y-13733414D01*
X20699857Y-13752462D01*
X20699857Y-13800081D01*
X20690333Y-13819128D01*
X20680810Y-13828652D01*
X20661762Y-13838176D01*
X20604619Y-13838176D01*
X20585571Y-13828652D01*
X20576048Y-13819128D01*
X20814143Y-13723890D02*
X20795095Y-13714367D01*
X20785571Y-13704843D01*
X20776048Y-13685795D01*
X20776048Y-13676271D01*
X20785571Y-13657224D01*
X20795095Y-13647700D01*
X20814143Y-13638176D01*
X20852238Y-13638176D01*
X20871286Y-13647700D01*
X20880810Y-13657224D01*
X20890333Y-13676271D01*
X20890333Y-13685795D01*
X20880810Y-13704843D01*
X20871286Y-13714367D01*
X20852238Y-13723890D01*
X20814143Y-13723890D01*
X20795095Y-13733414D01*
X20785571Y-13742938D01*
X20776048Y-13761986D01*
X20776048Y-13800081D01*
X20785571Y-13819128D01*
X20795095Y-13828652D01*
X20814143Y-13838176D01*
X20852238Y-13838176D01*
X20871286Y-13828652D01*
X20880810Y-13819128D01*
X20890333Y-13800081D01*
X20890333Y-13761986D01*
X20880810Y-13742938D01*
X20871286Y-13733414D01*
X20852238Y-13723890D01*
X21128429Y-13838176D02*
X21128429Y-13638176D01*
X21214143Y-13838176D02*
X21214143Y-13733414D01*
X21204619Y-13714367D01*
X21185571Y-13704843D01*
X21157000Y-13704843D01*
X21137952Y-13714367D01*
X21128429Y-13723890D01*
X21337952Y-13838176D02*
X21318905Y-13828652D01*
X21309381Y-13819128D01*
X21299857Y-13800081D01*
X21299857Y-13742938D01*
X21309381Y-13723890D01*
X21318905Y-13714367D01*
X21337952Y-13704843D01*
X21366524Y-13704843D01*
X21385571Y-13714367D01*
X21395095Y-13723890D01*
X21404619Y-13742938D01*
X21404619Y-13800081D01*
X21395095Y-13819128D01*
X21385571Y-13828652D01*
X21366524Y-13838176D01*
X21337952Y-13838176D01*
X21518905Y-13838176D02*
X21499857Y-13828652D01*
X21490333Y-13809605D01*
X21490333Y-13638176D01*
X21671286Y-13828652D02*
X21652238Y-13838176D01*
X21614143Y-13838176D01*
X21595095Y-13828652D01*
X21585571Y-13809605D01*
X21585571Y-13733414D01*
X21595095Y-13714367D01*
X21614143Y-13704843D01*
X21652238Y-13704843D01*
X21671286Y-13714367D01*
X21680810Y-13733414D01*
X21680810Y-13752462D01*
X21585571Y-13771509D01*
X21757000Y-13828652D02*
X21776048Y-13838176D01*
X21814143Y-13838176D01*
X21833190Y-13828652D01*
X21842714Y-13809605D01*
X21842714Y-13800081D01*
X21833190Y-13781033D01*
X21814143Y-13771509D01*
X21785571Y-13771509D01*
X21766524Y-13761986D01*
X21757000Y-13742938D01*
X21757000Y-13733414D01*
X21766524Y-13714367D01*
X21785571Y-13704843D01*
X21814143Y-13704843D01*
X21833190Y-13714367D01*
X21909381Y-13914367D02*
X21918905Y-13904843D01*
X21937952Y-13876271D01*
X21947476Y-13857224D01*
X21957000Y-13828652D01*
X21966524Y-13781033D01*
X21966524Y-13742938D01*
X21957000Y-13695319D01*
X21947476Y-13666748D01*
X21937952Y-13647700D01*
X21918905Y-13619128D01*
X21909381Y-13609605D01*
M02*
