%TF.GenerationSoftware,KiCad,Pcbnew,6.0.11+dfsg-1~bpo11+1*%
%TF.CreationDate,2025-04-08T22:30:38+02:00*%
%TF.ProjectId,v4d2_pico,76346432-5f70-4696-936f-2e6b69636164,rev?*%
%TF.SameCoordinates,Original*%
%TF.FileFunction,Drillmap*%
%TF.FilePolarity,Positive*%
%FSLAX45Y45*%
G04 Gerber Fmt 4.5, Leading zero omitted, Abs format (unit mm)*
G04 Created by KiCad (PCBNEW 6.0.11+dfsg-1~bpo11+1) date 2025-04-08 22:30:38*
%MOMM*%
%LPD*%
G01*
G04 APERTURE LIST*
%ADD10C,0.150000*%
%ADD11C,0.200000*%
%ADD12C,0.320000*%
%ADD13C,0.430000*%
G04 APERTURE END LIST*
D10*
X16954500Y-2260600D02*
X17360900Y-1828800D01*
X16954500Y-4724400D02*
X16954500Y-2260600D01*
X17424400Y-5715000D02*
X16954500Y-4724400D01*
X18681700Y-5715000D02*
X17424400Y-5715000D01*
X20040600Y-3695700D02*
X18681700Y-5715000D01*
X20040600Y-2197100D02*
X20040600Y-3695700D01*
X19723100Y-1828800D02*
X20040600Y-2197100D01*
X17360900Y-1828800D02*
X19723100Y-1828800D01*
X17005300Y-6197600D02*
X19456400Y-6197600D01*
X19456400Y-6197600D02*
X19456400Y-10452100D01*
X19456400Y-10452100D02*
X17005300Y-10452100D01*
X17005300Y-10452100D02*
X17005300Y-6197600D01*
X25628600Y-1828800D02*
X25628600Y-9956800D01*
X20205700Y-1828800D02*
X25628600Y-1828800D01*
X20205700Y-9537700D02*
X20205700Y-1828800D01*
X21145500Y-11252200D02*
X20205700Y-9537700D01*
X23685500Y-11252200D02*
X21145500Y-11252200D01*
X25628600Y-9956800D02*
X23685500Y-11252200D01*
D11*
D10*
X17549500Y-6869600D02*
X17699500Y-7019600D01*
X17699500Y-6869600D02*
X17549500Y-7019600D01*
X18749500Y-8069600D02*
X18899500Y-8219600D01*
X18899500Y-8069600D02*
X18749500Y-8219600D01*
D12*
X17394300Y-6426200D02*
G75*
G03*
X17394300Y-6426200I-160000J0D01*
G01*
X17394300Y-10187800D02*
G75*
G03*
X17394300Y-10187800I-160000J0D01*
G01*
X18656900Y-5463800D02*
G75*
G03*
X18656900Y-5463800I-160000J0D01*
G01*
X19394300Y-6426200D02*
G75*
G03*
X19394300Y-6426200I-160000J0D01*
G01*
X19394300Y-10187800D02*
G75*
G03*
X19394300Y-10187800I-160000J0D01*
G01*
X20873700Y-8661400D02*
G75*
G03*
X20873700Y-8661400I-160000J0D01*
G01*
X21213400Y-2139950D02*
G75*
G03*
X21213400Y-2139950I-160000J0D01*
G01*
X25107200Y-2139950D02*
G75*
G03*
X25107200Y-2139950I-160000J0D01*
G01*
X25471100Y-9017000D02*
G75*
G03*
X25471100Y-9017000I-160000J0D01*
G01*
D13*
X17346900Y-2248800D02*
X17346900Y-2678800D01*
X17131900Y-2463800D02*
X17561900Y-2463800D01*
X19646900Y-2248800D02*
X19646900Y-2678800D01*
X19431900Y-2463800D02*
X19861900Y-2463800D01*
D11*
X17204619Y-11570176D02*
X17204619Y-11370176D01*
X17252238Y-11370176D01*
X17280810Y-11379700D01*
X17299857Y-11398748D01*
X17309381Y-11417795D01*
X17318905Y-11455890D01*
X17318905Y-11484462D01*
X17309381Y-11522557D01*
X17299857Y-11541605D01*
X17280810Y-11560652D01*
X17252238Y-11570176D01*
X17204619Y-11570176D01*
X17404619Y-11570176D02*
X17404619Y-11436843D01*
X17404619Y-11474938D02*
X17414143Y-11455890D01*
X17423667Y-11446367D01*
X17442714Y-11436843D01*
X17461762Y-11436843D01*
X17528429Y-11570176D02*
X17528429Y-11436843D01*
X17528429Y-11370176D02*
X17518905Y-11379700D01*
X17528429Y-11389224D01*
X17537952Y-11379700D01*
X17528429Y-11370176D01*
X17528429Y-11389224D01*
X17652238Y-11570176D02*
X17633190Y-11560652D01*
X17623667Y-11541605D01*
X17623667Y-11370176D01*
X17757000Y-11570176D02*
X17737952Y-11560652D01*
X17728429Y-11541605D01*
X17728429Y-11370176D01*
X17985571Y-11570176D02*
X17985571Y-11370176D01*
X18052238Y-11513033D01*
X18118905Y-11370176D01*
X18118905Y-11570176D01*
X18299857Y-11570176D02*
X18299857Y-11465414D01*
X18290333Y-11446367D01*
X18271286Y-11436843D01*
X18233190Y-11436843D01*
X18214143Y-11446367D01*
X18299857Y-11560652D02*
X18280810Y-11570176D01*
X18233190Y-11570176D01*
X18214143Y-11560652D01*
X18204619Y-11541605D01*
X18204619Y-11522557D01*
X18214143Y-11503509D01*
X18233190Y-11493986D01*
X18280810Y-11493986D01*
X18299857Y-11484462D01*
X18395095Y-11436843D02*
X18395095Y-11636843D01*
X18395095Y-11446367D02*
X18414143Y-11436843D01*
X18452238Y-11436843D01*
X18471286Y-11446367D01*
X18480810Y-11455890D01*
X18490333Y-11474938D01*
X18490333Y-11532081D01*
X18480810Y-11551128D01*
X18471286Y-11560652D01*
X18452238Y-11570176D01*
X18414143Y-11570176D01*
X18395095Y-11560652D01*
X18576048Y-11551128D02*
X18585571Y-11560652D01*
X18576048Y-11570176D01*
X18566524Y-11560652D01*
X18576048Y-11551128D01*
X18576048Y-11570176D01*
X18576048Y-11446367D02*
X18585571Y-11455890D01*
X18576048Y-11465414D01*
X18566524Y-11455890D01*
X18576048Y-11446367D01*
X18576048Y-11465414D01*
D10*
X16797000Y-11824700D02*
X16947000Y-11974700D01*
X16947000Y-11824700D02*
X16797000Y-11974700D01*
D11*
X17309381Y-11990176D02*
X17195095Y-11990176D01*
X17252238Y-11990176D02*
X17252238Y-11790176D01*
X17233190Y-11818748D01*
X17214143Y-11837795D01*
X17195095Y-11847319D01*
X17395095Y-11971128D02*
X17404619Y-11980652D01*
X17395095Y-11990176D01*
X17385571Y-11980652D01*
X17395095Y-11971128D01*
X17395095Y-11990176D01*
X17585571Y-11790176D02*
X17490333Y-11790176D01*
X17480810Y-11885414D01*
X17490333Y-11875890D01*
X17509381Y-11866367D01*
X17557000Y-11866367D01*
X17576048Y-11875890D01*
X17585571Y-11885414D01*
X17595095Y-11904462D01*
X17595095Y-11952081D01*
X17585571Y-11971128D01*
X17576048Y-11980652D01*
X17557000Y-11990176D01*
X17509381Y-11990176D01*
X17490333Y-11980652D01*
X17480810Y-11971128D01*
X17718905Y-11790176D02*
X17737952Y-11790176D01*
X17757000Y-11799700D01*
X17766524Y-11809224D01*
X17776048Y-11828271D01*
X17785571Y-11866367D01*
X17785571Y-11913986D01*
X17776048Y-11952081D01*
X17766524Y-11971128D01*
X17757000Y-11980652D01*
X17737952Y-11990176D01*
X17718905Y-11990176D01*
X17699857Y-11980652D01*
X17690333Y-11971128D01*
X17680810Y-11952081D01*
X17671286Y-11913986D01*
X17671286Y-11866367D01*
X17680810Y-11828271D01*
X17690333Y-11809224D01*
X17699857Y-11799700D01*
X17718905Y-11790176D01*
X17909381Y-11790176D02*
X17928429Y-11790176D01*
X17947476Y-11799700D01*
X17957000Y-11809224D01*
X17966524Y-11828271D01*
X17976048Y-11866367D01*
X17976048Y-11913986D01*
X17966524Y-11952081D01*
X17957000Y-11971128D01*
X17947476Y-11980652D01*
X17928429Y-11990176D01*
X17909381Y-11990176D01*
X17890333Y-11980652D01*
X17880810Y-11971128D01*
X17871286Y-11952081D01*
X17861762Y-11913986D01*
X17861762Y-11866367D01*
X17871286Y-11828271D01*
X17880810Y-11809224D01*
X17890333Y-11799700D01*
X17909381Y-11790176D01*
X18061762Y-11990176D02*
X18061762Y-11856843D01*
X18061762Y-11875890D02*
X18071286Y-11866367D01*
X18090333Y-11856843D01*
X18118905Y-11856843D01*
X18137952Y-11866367D01*
X18147476Y-11885414D01*
X18147476Y-11990176D01*
X18147476Y-11885414D02*
X18157000Y-11866367D01*
X18176048Y-11856843D01*
X18204619Y-11856843D01*
X18223667Y-11866367D01*
X18233190Y-11885414D01*
X18233190Y-11990176D01*
X18328429Y-11990176D02*
X18328429Y-11856843D01*
X18328429Y-11875890D02*
X18337952Y-11866367D01*
X18357000Y-11856843D01*
X18385571Y-11856843D01*
X18404619Y-11866367D01*
X18414143Y-11885414D01*
X18414143Y-11990176D01*
X18414143Y-11885414D02*
X18423667Y-11866367D01*
X18442714Y-11856843D01*
X18471286Y-11856843D01*
X18490333Y-11866367D01*
X18499857Y-11885414D01*
X18499857Y-11990176D01*
X18890333Y-11780652D02*
X18718905Y-12037795D01*
X19147476Y-11790176D02*
X19166524Y-11790176D01*
X19185571Y-11799700D01*
X19195095Y-11809224D01*
X19204619Y-11828271D01*
X19214143Y-11866367D01*
X19214143Y-11913986D01*
X19204619Y-11952081D01*
X19195095Y-11971128D01*
X19185571Y-11980652D01*
X19166524Y-11990176D01*
X19147476Y-11990176D01*
X19128429Y-11980652D01*
X19118905Y-11971128D01*
X19109381Y-11952081D01*
X19099857Y-11913986D01*
X19099857Y-11866367D01*
X19109381Y-11828271D01*
X19118905Y-11809224D01*
X19128429Y-11799700D01*
X19147476Y-11790176D01*
X19299857Y-11971128D02*
X19309381Y-11980652D01*
X19299857Y-11990176D01*
X19290333Y-11980652D01*
X19299857Y-11971128D01*
X19299857Y-11990176D01*
X19433190Y-11790176D02*
X19452238Y-11790176D01*
X19471286Y-11799700D01*
X19480810Y-11809224D01*
X19490333Y-11828271D01*
X19499857Y-11866367D01*
X19499857Y-11913986D01*
X19490333Y-11952081D01*
X19480810Y-11971128D01*
X19471286Y-11980652D01*
X19452238Y-11990176D01*
X19433190Y-11990176D01*
X19414143Y-11980652D01*
X19404619Y-11971128D01*
X19395095Y-11952081D01*
X19385571Y-11913986D01*
X19385571Y-11866367D01*
X19395095Y-11828271D01*
X19404619Y-11809224D01*
X19414143Y-11799700D01*
X19433190Y-11790176D01*
X19680810Y-11790176D02*
X19585571Y-11790176D01*
X19576048Y-11885414D01*
X19585571Y-11875890D01*
X19604619Y-11866367D01*
X19652238Y-11866367D01*
X19671286Y-11875890D01*
X19680810Y-11885414D01*
X19690333Y-11904462D01*
X19690333Y-11952081D01*
X19680810Y-11971128D01*
X19671286Y-11980652D01*
X19652238Y-11990176D01*
X19604619Y-11990176D01*
X19585571Y-11980652D01*
X19576048Y-11971128D01*
X19785571Y-11990176D02*
X19823667Y-11990176D01*
X19842714Y-11980652D01*
X19852238Y-11971128D01*
X19871286Y-11942557D01*
X19880810Y-11904462D01*
X19880810Y-11828271D01*
X19871286Y-11809224D01*
X19861762Y-11799700D01*
X19842714Y-11790176D01*
X19804619Y-11790176D01*
X19785571Y-11799700D01*
X19776048Y-11809224D01*
X19766524Y-11828271D01*
X19766524Y-11875890D01*
X19776048Y-11894938D01*
X19785571Y-11904462D01*
X19804619Y-11913986D01*
X19842714Y-11913986D01*
X19861762Y-11904462D01*
X19871286Y-11894938D01*
X19880810Y-11875890D01*
X20071286Y-11990176D02*
X19957000Y-11990176D01*
X20014143Y-11990176D02*
X20014143Y-11790176D01*
X19995095Y-11818748D01*
X19976048Y-11837795D01*
X19957000Y-11847319D01*
X20147476Y-11790176D02*
X20147476Y-11828271D01*
X20223667Y-11790176D02*
X20223667Y-11828271D01*
X20518905Y-12066367D02*
X20509381Y-12056843D01*
X20490333Y-12028271D01*
X20480810Y-12009224D01*
X20471286Y-11980652D01*
X20461762Y-11933033D01*
X20461762Y-11894938D01*
X20471286Y-11847319D01*
X20480810Y-11818748D01*
X20490333Y-11799700D01*
X20509381Y-11771128D01*
X20518905Y-11761605D01*
X20585571Y-11809224D02*
X20595095Y-11799700D01*
X20614143Y-11790176D01*
X20661762Y-11790176D01*
X20680810Y-11799700D01*
X20690333Y-11809224D01*
X20699857Y-11828271D01*
X20699857Y-11847319D01*
X20690333Y-11875890D01*
X20576048Y-11990176D01*
X20699857Y-11990176D01*
X20937952Y-11990176D02*
X20937952Y-11790176D01*
X21023667Y-11990176D02*
X21023667Y-11885414D01*
X21014143Y-11866367D01*
X20995095Y-11856843D01*
X20966524Y-11856843D01*
X20947476Y-11866367D01*
X20937952Y-11875890D01*
X21147476Y-11990176D02*
X21128429Y-11980652D01*
X21118905Y-11971128D01*
X21109381Y-11952081D01*
X21109381Y-11894938D01*
X21118905Y-11875890D01*
X21128429Y-11866367D01*
X21147476Y-11856843D01*
X21176048Y-11856843D01*
X21195095Y-11866367D01*
X21204619Y-11875890D01*
X21214143Y-11894938D01*
X21214143Y-11952081D01*
X21204619Y-11971128D01*
X21195095Y-11980652D01*
X21176048Y-11990176D01*
X21147476Y-11990176D01*
X21328429Y-11990176D02*
X21309381Y-11980652D01*
X21299857Y-11961605D01*
X21299857Y-11790176D01*
X21480810Y-11980652D02*
X21461762Y-11990176D01*
X21423667Y-11990176D01*
X21404619Y-11980652D01*
X21395095Y-11961605D01*
X21395095Y-11885414D01*
X21404619Y-11866367D01*
X21423667Y-11856843D01*
X21461762Y-11856843D01*
X21480810Y-11866367D01*
X21490333Y-11885414D01*
X21490333Y-11904462D01*
X21395095Y-11923509D01*
X21566524Y-11980652D02*
X21585571Y-11990176D01*
X21623667Y-11990176D01*
X21642714Y-11980652D01*
X21652238Y-11961605D01*
X21652238Y-11952081D01*
X21642714Y-11933033D01*
X21623667Y-11923509D01*
X21595095Y-11923509D01*
X21576048Y-11913986D01*
X21566524Y-11894938D01*
X21566524Y-11885414D01*
X21576048Y-11866367D01*
X21595095Y-11856843D01*
X21623667Y-11856843D01*
X21642714Y-11866367D01*
X21718905Y-12066367D02*
X21728429Y-12056843D01*
X21747476Y-12028271D01*
X21757000Y-12009224D01*
X21766524Y-11980652D01*
X21776048Y-11933033D01*
X21776048Y-11894938D01*
X21766524Y-11847319D01*
X21757000Y-11818748D01*
X21747476Y-11799700D01*
X21728429Y-11771128D01*
X21718905Y-11761605D01*
X22080810Y-12066367D02*
X22071286Y-12056843D01*
X22052238Y-12028271D01*
X22042714Y-12009224D01*
X22033190Y-11980652D01*
X22023667Y-11933033D01*
X22023667Y-11894938D01*
X22033190Y-11847319D01*
X22042714Y-11818748D01*
X22052238Y-11799700D01*
X22071286Y-11771128D01*
X22080810Y-11761605D01*
X22157000Y-11856843D02*
X22157000Y-11990176D01*
X22157000Y-11875890D02*
X22166524Y-11866367D01*
X22185571Y-11856843D01*
X22214143Y-11856843D01*
X22233190Y-11866367D01*
X22242714Y-11885414D01*
X22242714Y-11990176D01*
X22366524Y-11990176D02*
X22347476Y-11980652D01*
X22337952Y-11971128D01*
X22328429Y-11952081D01*
X22328429Y-11894938D01*
X22337952Y-11875890D01*
X22347476Y-11866367D01*
X22366524Y-11856843D01*
X22395095Y-11856843D01*
X22414143Y-11866367D01*
X22423667Y-11875890D01*
X22433190Y-11894938D01*
X22433190Y-11952081D01*
X22423667Y-11971128D01*
X22414143Y-11980652D01*
X22395095Y-11990176D01*
X22366524Y-11990176D01*
X22490333Y-11856843D02*
X22566524Y-11856843D01*
X22518905Y-11790176D02*
X22518905Y-11961605D01*
X22528428Y-11980652D01*
X22547476Y-11990176D01*
X22566524Y-11990176D01*
X22785571Y-11856843D02*
X22785571Y-12056843D01*
X22785571Y-11866367D02*
X22804619Y-11856843D01*
X22842714Y-11856843D01*
X22861762Y-11866367D01*
X22871286Y-11875890D01*
X22880809Y-11894938D01*
X22880809Y-11952081D01*
X22871286Y-11971128D01*
X22861762Y-11980652D01*
X22842714Y-11990176D01*
X22804619Y-11990176D01*
X22785571Y-11980652D01*
X22995095Y-11990176D02*
X22976048Y-11980652D01*
X22966524Y-11961605D01*
X22966524Y-11790176D01*
X23157000Y-11990176D02*
X23157000Y-11885414D01*
X23147476Y-11866367D01*
X23128428Y-11856843D01*
X23090333Y-11856843D01*
X23071286Y-11866367D01*
X23157000Y-11980652D02*
X23137952Y-11990176D01*
X23090333Y-11990176D01*
X23071286Y-11980652D01*
X23061762Y-11961605D01*
X23061762Y-11942557D01*
X23071286Y-11923509D01*
X23090333Y-11913986D01*
X23137952Y-11913986D01*
X23157000Y-11904462D01*
X23223667Y-11856843D02*
X23299857Y-11856843D01*
X23252238Y-11790176D02*
X23252238Y-11961605D01*
X23261762Y-11980652D01*
X23280809Y-11990176D01*
X23299857Y-11990176D01*
X23442714Y-11980652D02*
X23423667Y-11990176D01*
X23385571Y-11990176D01*
X23366524Y-11980652D01*
X23357000Y-11961605D01*
X23357000Y-11885414D01*
X23366524Y-11866367D01*
X23385571Y-11856843D01*
X23423667Y-11856843D01*
X23442714Y-11866367D01*
X23452238Y-11885414D01*
X23452238Y-11904462D01*
X23357000Y-11923509D01*
X23623667Y-11990176D02*
X23623667Y-11790176D01*
X23623667Y-11980652D02*
X23604619Y-11990176D01*
X23566524Y-11990176D01*
X23547476Y-11980652D01*
X23537952Y-11971128D01*
X23528428Y-11952081D01*
X23528428Y-11894938D01*
X23537952Y-11875890D01*
X23547476Y-11866367D01*
X23566524Y-11856843D01*
X23604619Y-11856843D01*
X23623667Y-11866367D01*
X23699857Y-12066367D02*
X23709381Y-12056843D01*
X23728428Y-12028271D01*
X23737952Y-12009224D01*
X23747476Y-11980652D01*
X23757000Y-11933033D01*
X23757000Y-11894938D01*
X23747476Y-11847319D01*
X23737952Y-11818748D01*
X23728428Y-11799700D01*
X23709381Y-11771128D01*
X23699857Y-11761605D01*
X16947000Y-12169700D02*
G75*
G03*
X16947000Y-12169700I-100000J0D01*
G01*
X17185571Y-12060176D02*
X17309381Y-12060176D01*
X17242714Y-12136367D01*
X17271286Y-12136367D01*
X17290333Y-12145890D01*
X17299857Y-12155414D01*
X17309381Y-12174462D01*
X17309381Y-12222081D01*
X17299857Y-12241128D01*
X17290333Y-12250652D01*
X17271286Y-12260176D01*
X17214143Y-12260176D01*
X17195095Y-12250652D01*
X17185571Y-12241128D01*
X17395095Y-12241128D02*
X17404619Y-12250652D01*
X17395095Y-12260176D01*
X17385571Y-12250652D01*
X17395095Y-12241128D01*
X17395095Y-12260176D01*
X17480810Y-12079224D02*
X17490333Y-12069700D01*
X17509381Y-12060176D01*
X17557000Y-12060176D01*
X17576048Y-12069700D01*
X17585571Y-12079224D01*
X17595095Y-12098271D01*
X17595095Y-12117319D01*
X17585571Y-12145890D01*
X17471286Y-12260176D01*
X17595095Y-12260176D01*
X17718905Y-12060176D02*
X17737952Y-12060176D01*
X17757000Y-12069700D01*
X17766524Y-12079224D01*
X17776048Y-12098271D01*
X17785571Y-12136367D01*
X17785571Y-12183986D01*
X17776048Y-12222081D01*
X17766524Y-12241128D01*
X17757000Y-12250652D01*
X17737952Y-12260176D01*
X17718905Y-12260176D01*
X17699857Y-12250652D01*
X17690333Y-12241128D01*
X17680810Y-12222081D01*
X17671286Y-12183986D01*
X17671286Y-12136367D01*
X17680810Y-12098271D01*
X17690333Y-12079224D01*
X17699857Y-12069700D01*
X17718905Y-12060176D01*
X17909381Y-12060176D02*
X17928429Y-12060176D01*
X17947476Y-12069700D01*
X17957000Y-12079224D01*
X17966524Y-12098271D01*
X17976048Y-12136367D01*
X17976048Y-12183986D01*
X17966524Y-12222081D01*
X17957000Y-12241128D01*
X17947476Y-12250652D01*
X17928429Y-12260176D01*
X17909381Y-12260176D01*
X17890333Y-12250652D01*
X17880810Y-12241128D01*
X17871286Y-12222081D01*
X17861762Y-12183986D01*
X17861762Y-12136367D01*
X17871286Y-12098271D01*
X17880810Y-12079224D01*
X17890333Y-12069700D01*
X17909381Y-12060176D01*
X18061762Y-12260176D02*
X18061762Y-12126843D01*
X18061762Y-12145890D02*
X18071286Y-12136367D01*
X18090333Y-12126843D01*
X18118905Y-12126843D01*
X18137952Y-12136367D01*
X18147476Y-12155414D01*
X18147476Y-12260176D01*
X18147476Y-12155414D02*
X18157000Y-12136367D01*
X18176048Y-12126843D01*
X18204619Y-12126843D01*
X18223667Y-12136367D01*
X18233190Y-12155414D01*
X18233190Y-12260176D01*
X18328429Y-12260176D02*
X18328429Y-12126843D01*
X18328429Y-12145890D02*
X18337952Y-12136367D01*
X18357000Y-12126843D01*
X18385571Y-12126843D01*
X18404619Y-12136367D01*
X18414143Y-12155414D01*
X18414143Y-12260176D01*
X18414143Y-12155414D02*
X18423667Y-12136367D01*
X18442714Y-12126843D01*
X18471286Y-12126843D01*
X18490333Y-12136367D01*
X18499857Y-12155414D01*
X18499857Y-12260176D01*
X18890333Y-12050652D02*
X18718905Y-12307795D01*
X19147476Y-12060176D02*
X19166524Y-12060176D01*
X19185571Y-12069700D01*
X19195095Y-12079224D01*
X19204619Y-12098271D01*
X19214143Y-12136367D01*
X19214143Y-12183986D01*
X19204619Y-12222081D01*
X19195095Y-12241128D01*
X19185571Y-12250652D01*
X19166524Y-12260176D01*
X19147476Y-12260176D01*
X19128429Y-12250652D01*
X19118905Y-12241128D01*
X19109381Y-12222081D01*
X19099857Y-12183986D01*
X19099857Y-12136367D01*
X19109381Y-12098271D01*
X19118905Y-12079224D01*
X19128429Y-12069700D01*
X19147476Y-12060176D01*
X19299857Y-12241128D02*
X19309381Y-12250652D01*
X19299857Y-12260176D01*
X19290333Y-12250652D01*
X19299857Y-12241128D01*
X19299857Y-12260176D01*
X19499857Y-12260176D02*
X19385571Y-12260176D01*
X19442714Y-12260176D02*
X19442714Y-12060176D01*
X19423667Y-12088748D01*
X19404619Y-12107795D01*
X19385571Y-12117319D01*
X19576048Y-12079224D02*
X19585571Y-12069700D01*
X19604619Y-12060176D01*
X19652238Y-12060176D01*
X19671286Y-12069700D01*
X19680810Y-12079224D01*
X19690333Y-12098271D01*
X19690333Y-12117319D01*
X19680810Y-12145890D01*
X19566524Y-12260176D01*
X19690333Y-12260176D01*
X19861762Y-12060176D02*
X19823667Y-12060176D01*
X19804619Y-12069700D01*
X19795095Y-12079224D01*
X19776048Y-12107795D01*
X19766524Y-12145890D01*
X19766524Y-12222081D01*
X19776048Y-12241128D01*
X19785571Y-12250652D01*
X19804619Y-12260176D01*
X19842714Y-12260176D01*
X19861762Y-12250652D01*
X19871286Y-12241128D01*
X19880810Y-12222081D01*
X19880810Y-12174462D01*
X19871286Y-12155414D01*
X19861762Y-12145890D01*
X19842714Y-12136367D01*
X19804619Y-12136367D01*
X19785571Y-12145890D01*
X19776048Y-12155414D01*
X19766524Y-12174462D01*
X20004619Y-12060176D02*
X20023667Y-12060176D01*
X20042714Y-12069700D01*
X20052238Y-12079224D01*
X20061762Y-12098271D01*
X20071286Y-12136367D01*
X20071286Y-12183986D01*
X20061762Y-12222081D01*
X20052238Y-12241128D01*
X20042714Y-12250652D01*
X20023667Y-12260176D01*
X20004619Y-12260176D01*
X19985571Y-12250652D01*
X19976048Y-12241128D01*
X19966524Y-12222081D01*
X19957000Y-12183986D01*
X19957000Y-12136367D01*
X19966524Y-12098271D01*
X19976048Y-12079224D01*
X19985571Y-12069700D01*
X20004619Y-12060176D01*
X20147476Y-12060176D02*
X20147476Y-12098271D01*
X20223667Y-12060176D02*
X20223667Y-12098271D01*
X20518905Y-12336367D02*
X20509381Y-12326843D01*
X20490333Y-12298271D01*
X20480810Y-12279224D01*
X20471286Y-12250652D01*
X20461762Y-12203033D01*
X20461762Y-12164938D01*
X20471286Y-12117319D01*
X20480810Y-12088748D01*
X20490333Y-12069700D01*
X20509381Y-12041128D01*
X20518905Y-12031605D01*
X20604619Y-12260176D02*
X20642714Y-12260176D01*
X20661762Y-12250652D01*
X20671286Y-12241128D01*
X20690333Y-12212557D01*
X20699857Y-12174462D01*
X20699857Y-12098271D01*
X20690333Y-12079224D01*
X20680810Y-12069700D01*
X20661762Y-12060176D01*
X20623667Y-12060176D01*
X20604619Y-12069700D01*
X20595095Y-12079224D01*
X20585571Y-12098271D01*
X20585571Y-12145890D01*
X20595095Y-12164938D01*
X20604619Y-12174462D01*
X20623667Y-12183986D01*
X20661762Y-12183986D01*
X20680810Y-12174462D01*
X20690333Y-12164938D01*
X20699857Y-12145890D01*
X20937952Y-12260176D02*
X20937952Y-12060176D01*
X21023667Y-12260176D02*
X21023667Y-12155414D01*
X21014143Y-12136367D01*
X20995095Y-12126843D01*
X20966524Y-12126843D01*
X20947476Y-12136367D01*
X20937952Y-12145890D01*
X21147476Y-12260176D02*
X21128429Y-12250652D01*
X21118905Y-12241128D01*
X21109381Y-12222081D01*
X21109381Y-12164938D01*
X21118905Y-12145890D01*
X21128429Y-12136367D01*
X21147476Y-12126843D01*
X21176048Y-12126843D01*
X21195095Y-12136367D01*
X21204619Y-12145890D01*
X21214143Y-12164938D01*
X21214143Y-12222081D01*
X21204619Y-12241128D01*
X21195095Y-12250652D01*
X21176048Y-12260176D01*
X21147476Y-12260176D01*
X21328429Y-12260176D02*
X21309381Y-12250652D01*
X21299857Y-12231605D01*
X21299857Y-12060176D01*
X21480810Y-12250652D02*
X21461762Y-12260176D01*
X21423667Y-12260176D01*
X21404619Y-12250652D01*
X21395095Y-12231605D01*
X21395095Y-12155414D01*
X21404619Y-12136367D01*
X21423667Y-12126843D01*
X21461762Y-12126843D01*
X21480810Y-12136367D01*
X21490333Y-12155414D01*
X21490333Y-12174462D01*
X21395095Y-12193509D01*
X21566524Y-12250652D02*
X21585571Y-12260176D01*
X21623667Y-12260176D01*
X21642714Y-12250652D01*
X21652238Y-12231605D01*
X21652238Y-12222081D01*
X21642714Y-12203033D01*
X21623667Y-12193509D01*
X21595095Y-12193509D01*
X21576048Y-12183986D01*
X21566524Y-12164938D01*
X21566524Y-12155414D01*
X21576048Y-12136367D01*
X21595095Y-12126843D01*
X21623667Y-12126843D01*
X21642714Y-12136367D01*
X21718905Y-12336367D02*
X21728429Y-12326843D01*
X21747476Y-12298271D01*
X21757000Y-12279224D01*
X21766524Y-12250652D01*
X21776048Y-12203033D01*
X21776048Y-12164938D01*
X21766524Y-12117319D01*
X21757000Y-12088748D01*
X21747476Y-12069700D01*
X21728429Y-12041128D01*
X21718905Y-12031605D01*
X22080810Y-12336367D02*
X22071286Y-12326843D01*
X22052238Y-12298271D01*
X22042714Y-12279224D01*
X22033190Y-12250652D01*
X22023667Y-12203033D01*
X22023667Y-12164938D01*
X22033190Y-12117319D01*
X22042714Y-12088748D01*
X22052238Y-12069700D01*
X22071286Y-12041128D01*
X22080810Y-12031605D01*
X22157000Y-12126843D02*
X22157000Y-12260176D01*
X22157000Y-12145890D02*
X22166524Y-12136367D01*
X22185571Y-12126843D01*
X22214143Y-12126843D01*
X22233190Y-12136367D01*
X22242714Y-12155414D01*
X22242714Y-12260176D01*
X22366524Y-12260176D02*
X22347476Y-12250652D01*
X22337952Y-12241128D01*
X22328429Y-12222081D01*
X22328429Y-12164938D01*
X22337952Y-12145890D01*
X22347476Y-12136367D01*
X22366524Y-12126843D01*
X22395095Y-12126843D01*
X22414143Y-12136367D01*
X22423667Y-12145890D01*
X22433190Y-12164938D01*
X22433190Y-12222081D01*
X22423667Y-12241128D01*
X22414143Y-12250652D01*
X22395095Y-12260176D01*
X22366524Y-12260176D01*
X22490333Y-12126843D02*
X22566524Y-12126843D01*
X22518905Y-12060176D02*
X22518905Y-12231605D01*
X22528428Y-12250652D01*
X22547476Y-12260176D01*
X22566524Y-12260176D01*
X22785571Y-12126843D02*
X22785571Y-12326843D01*
X22785571Y-12136367D02*
X22804619Y-12126843D01*
X22842714Y-12126843D01*
X22861762Y-12136367D01*
X22871286Y-12145890D01*
X22880809Y-12164938D01*
X22880809Y-12222081D01*
X22871286Y-12241128D01*
X22861762Y-12250652D01*
X22842714Y-12260176D01*
X22804619Y-12260176D01*
X22785571Y-12250652D01*
X22995095Y-12260176D02*
X22976048Y-12250652D01*
X22966524Y-12231605D01*
X22966524Y-12060176D01*
X23157000Y-12260176D02*
X23157000Y-12155414D01*
X23147476Y-12136367D01*
X23128428Y-12126843D01*
X23090333Y-12126843D01*
X23071286Y-12136367D01*
X23157000Y-12250652D02*
X23137952Y-12260176D01*
X23090333Y-12260176D01*
X23071286Y-12250652D01*
X23061762Y-12231605D01*
X23061762Y-12212557D01*
X23071286Y-12193509D01*
X23090333Y-12183986D01*
X23137952Y-12183986D01*
X23157000Y-12174462D01*
X23223667Y-12126843D02*
X23299857Y-12126843D01*
X23252238Y-12060176D02*
X23252238Y-12231605D01*
X23261762Y-12250652D01*
X23280809Y-12260176D01*
X23299857Y-12260176D01*
X23442714Y-12250652D02*
X23423667Y-12260176D01*
X23385571Y-12260176D01*
X23366524Y-12250652D01*
X23357000Y-12231605D01*
X23357000Y-12155414D01*
X23366524Y-12136367D01*
X23385571Y-12126843D01*
X23423667Y-12126843D01*
X23442714Y-12136367D01*
X23452238Y-12155414D01*
X23452238Y-12174462D01*
X23357000Y-12193509D01*
X23623667Y-12260176D02*
X23623667Y-12060176D01*
X23623667Y-12250652D02*
X23604619Y-12260176D01*
X23566524Y-12260176D01*
X23547476Y-12250652D01*
X23537952Y-12241128D01*
X23528428Y-12222081D01*
X23528428Y-12164938D01*
X23537952Y-12145890D01*
X23547476Y-12136367D01*
X23566524Y-12126843D01*
X23604619Y-12126843D01*
X23623667Y-12136367D01*
X23699857Y-12336367D02*
X23709381Y-12326843D01*
X23728428Y-12298271D01*
X23737952Y-12279224D01*
X23747476Y-12250652D01*
X23757000Y-12203033D01*
X23757000Y-12164938D01*
X23747476Y-12117319D01*
X23737952Y-12088748D01*
X23728428Y-12069700D01*
X23709381Y-12041128D01*
X23699857Y-12031605D01*
X16847000Y-12389700D02*
X16847000Y-12589700D01*
X16747000Y-12489700D02*
X16947000Y-12489700D01*
X17290333Y-12446843D02*
X17290333Y-12580176D01*
X17242714Y-12370652D02*
X17195095Y-12513509D01*
X17318905Y-12513509D01*
X17395095Y-12561128D02*
X17404619Y-12570652D01*
X17395095Y-12580176D01*
X17385571Y-12570652D01*
X17395095Y-12561128D01*
X17395095Y-12580176D01*
X17471286Y-12380176D02*
X17595095Y-12380176D01*
X17528429Y-12456367D01*
X17557000Y-12456367D01*
X17576048Y-12465890D01*
X17585571Y-12475414D01*
X17595095Y-12494462D01*
X17595095Y-12542081D01*
X17585571Y-12561128D01*
X17576048Y-12570652D01*
X17557000Y-12580176D01*
X17499857Y-12580176D01*
X17480810Y-12570652D01*
X17471286Y-12561128D01*
X17718905Y-12380176D02*
X17737952Y-12380176D01*
X17757000Y-12389700D01*
X17766524Y-12399224D01*
X17776048Y-12418271D01*
X17785571Y-12456367D01*
X17785571Y-12503986D01*
X17776048Y-12542081D01*
X17766524Y-12561128D01*
X17757000Y-12570652D01*
X17737952Y-12580176D01*
X17718905Y-12580176D01*
X17699857Y-12570652D01*
X17690333Y-12561128D01*
X17680810Y-12542081D01*
X17671286Y-12503986D01*
X17671286Y-12456367D01*
X17680810Y-12418271D01*
X17690333Y-12399224D01*
X17699857Y-12389700D01*
X17718905Y-12380176D01*
X17909381Y-12380176D02*
X17928429Y-12380176D01*
X17947476Y-12389700D01*
X17957000Y-12399224D01*
X17966524Y-12418271D01*
X17976048Y-12456367D01*
X17976048Y-12503986D01*
X17966524Y-12542081D01*
X17957000Y-12561128D01*
X17947476Y-12570652D01*
X17928429Y-12580176D01*
X17909381Y-12580176D01*
X17890333Y-12570652D01*
X17880810Y-12561128D01*
X17871286Y-12542081D01*
X17861762Y-12503986D01*
X17861762Y-12456367D01*
X17871286Y-12418271D01*
X17880810Y-12399224D01*
X17890333Y-12389700D01*
X17909381Y-12380176D01*
X18061762Y-12580176D02*
X18061762Y-12446843D01*
X18061762Y-12465890D02*
X18071286Y-12456367D01*
X18090333Y-12446843D01*
X18118905Y-12446843D01*
X18137952Y-12456367D01*
X18147476Y-12475414D01*
X18147476Y-12580176D01*
X18147476Y-12475414D02*
X18157000Y-12456367D01*
X18176048Y-12446843D01*
X18204619Y-12446843D01*
X18223667Y-12456367D01*
X18233190Y-12475414D01*
X18233190Y-12580176D01*
X18328429Y-12580176D02*
X18328429Y-12446843D01*
X18328429Y-12465890D02*
X18337952Y-12456367D01*
X18357000Y-12446843D01*
X18385571Y-12446843D01*
X18404619Y-12456367D01*
X18414143Y-12475414D01*
X18414143Y-12580176D01*
X18414143Y-12475414D02*
X18423667Y-12456367D01*
X18442714Y-12446843D01*
X18471286Y-12446843D01*
X18490333Y-12456367D01*
X18499857Y-12475414D01*
X18499857Y-12580176D01*
X18890333Y-12370652D02*
X18718905Y-12627795D01*
X19147476Y-12380176D02*
X19166524Y-12380176D01*
X19185571Y-12389700D01*
X19195095Y-12399224D01*
X19204619Y-12418271D01*
X19214143Y-12456367D01*
X19214143Y-12503986D01*
X19204619Y-12542081D01*
X19195095Y-12561128D01*
X19185571Y-12570652D01*
X19166524Y-12580176D01*
X19147476Y-12580176D01*
X19128429Y-12570652D01*
X19118905Y-12561128D01*
X19109381Y-12542081D01*
X19099857Y-12503986D01*
X19099857Y-12456367D01*
X19109381Y-12418271D01*
X19118905Y-12399224D01*
X19128429Y-12389700D01*
X19147476Y-12380176D01*
X19299857Y-12561128D02*
X19309381Y-12570652D01*
X19299857Y-12580176D01*
X19290333Y-12570652D01*
X19299857Y-12561128D01*
X19299857Y-12580176D01*
X19499857Y-12580176D02*
X19385571Y-12580176D01*
X19442714Y-12580176D02*
X19442714Y-12380176D01*
X19423667Y-12408748D01*
X19404619Y-12427795D01*
X19385571Y-12437319D01*
X19671286Y-12380176D02*
X19633190Y-12380176D01*
X19614143Y-12389700D01*
X19604619Y-12399224D01*
X19585571Y-12427795D01*
X19576048Y-12465890D01*
X19576048Y-12542081D01*
X19585571Y-12561128D01*
X19595095Y-12570652D01*
X19614143Y-12580176D01*
X19652238Y-12580176D01*
X19671286Y-12570652D01*
X19680810Y-12561128D01*
X19690333Y-12542081D01*
X19690333Y-12494462D01*
X19680810Y-12475414D01*
X19671286Y-12465890D01*
X19652238Y-12456367D01*
X19614143Y-12456367D01*
X19595095Y-12465890D01*
X19585571Y-12475414D01*
X19576048Y-12494462D01*
X19785571Y-12580176D02*
X19823667Y-12580176D01*
X19842714Y-12570652D01*
X19852238Y-12561128D01*
X19871286Y-12532557D01*
X19880810Y-12494462D01*
X19880810Y-12418271D01*
X19871286Y-12399224D01*
X19861762Y-12389700D01*
X19842714Y-12380176D01*
X19804619Y-12380176D01*
X19785571Y-12389700D01*
X19776048Y-12399224D01*
X19766524Y-12418271D01*
X19766524Y-12465890D01*
X19776048Y-12484938D01*
X19785571Y-12494462D01*
X19804619Y-12503986D01*
X19842714Y-12503986D01*
X19861762Y-12494462D01*
X19871286Y-12484938D01*
X19880810Y-12465890D01*
X19947476Y-12380176D02*
X20071286Y-12380176D01*
X20004619Y-12456367D01*
X20033190Y-12456367D01*
X20052238Y-12465890D01*
X20061762Y-12475414D01*
X20071286Y-12494462D01*
X20071286Y-12542081D01*
X20061762Y-12561128D01*
X20052238Y-12570652D01*
X20033190Y-12580176D01*
X19976048Y-12580176D01*
X19957000Y-12570652D01*
X19947476Y-12561128D01*
X20147476Y-12380176D02*
X20147476Y-12418271D01*
X20223667Y-12380176D02*
X20223667Y-12418271D01*
X20518905Y-12656367D02*
X20509381Y-12646843D01*
X20490333Y-12618271D01*
X20480810Y-12599224D01*
X20471286Y-12570652D01*
X20461762Y-12523033D01*
X20461762Y-12484938D01*
X20471286Y-12437319D01*
X20480810Y-12408748D01*
X20490333Y-12389700D01*
X20509381Y-12361128D01*
X20518905Y-12351605D01*
X20585571Y-12399224D02*
X20595095Y-12389700D01*
X20614143Y-12380176D01*
X20661762Y-12380176D01*
X20680810Y-12389700D01*
X20690333Y-12399224D01*
X20699857Y-12418271D01*
X20699857Y-12437319D01*
X20690333Y-12465890D01*
X20576048Y-12580176D01*
X20699857Y-12580176D01*
X20937952Y-12580176D02*
X20937952Y-12380176D01*
X21023667Y-12580176D02*
X21023667Y-12475414D01*
X21014143Y-12456367D01*
X20995095Y-12446843D01*
X20966524Y-12446843D01*
X20947476Y-12456367D01*
X20937952Y-12465890D01*
X21147476Y-12580176D02*
X21128429Y-12570652D01*
X21118905Y-12561128D01*
X21109381Y-12542081D01*
X21109381Y-12484938D01*
X21118905Y-12465890D01*
X21128429Y-12456367D01*
X21147476Y-12446843D01*
X21176048Y-12446843D01*
X21195095Y-12456367D01*
X21204619Y-12465890D01*
X21214143Y-12484938D01*
X21214143Y-12542081D01*
X21204619Y-12561128D01*
X21195095Y-12570652D01*
X21176048Y-12580176D01*
X21147476Y-12580176D01*
X21328429Y-12580176D02*
X21309381Y-12570652D01*
X21299857Y-12551605D01*
X21299857Y-12380176D01*
X21480810Y-12570652D02*
X21461762Y-12580176D01*
X21423667Y-12580176D01*
X21404619Y-12570652D01*
X21395095Y-12551605D01*
X21395095Y-12475414D01*
X21404619Y-12456367D01*
X21423667Y-12446843D01*
X21461762Y-12446843D01*
X21480810Y-12456367D01*
X21490333Y-12475414D01*
X21490333Y-12494462D01*
X21395095Y-12513509D01*
X21566524Y-12570652D02*
X21585571Y-12580176D01*
X21623667Y-12580176D01*
X21642714Y-12570652D01*
X21652238Y-12551605D01*
X21652238Y-12542081D01*
X21642714Y-12523033D01*
X21623667Y-12513509D01*
X21595095Y-12513509D01*
X21576048Y-12503986D01*
X21566524Y-12484938D01*
X21566524Y-12475414D01*
X21576048Y-12456367D01*
X21595095Y-12446843D01*
X21623667Y-12446843D01*
X21642714Y-12456367D01*
X21718905Y-12656367D02*
X21728429Y-12646843D01*
X21747476Y-12618271D01*
X21757000Y-12599224D01*
X21766524Y-12570652D01*
X21776048Y-12523033D01*
X21776048Y-12484938D01*
X21766524Y-12437319D01*
X21757000Y-12408748D01*
X21747476Y-12389700D01*
X21728429Y-12361128D01*
X21718905Y-12351605D01*
X22080810Y-12656367D02*
X22071286Y-12646843D01*
X22052238Y-12618271D01*
X22042714Y-12599224D01*
X22033190Y-12570652D01*
X22023667Y-12523033D01*
X22023667Y-12484938D01*
X22033190Y-12437319D01*
X22042714Y-12408748D01*
X22052238Y-12389700D01*
X22071286Y-12361128D01*
X22080810Y-12351605D01*
X22157000Y-12446843D02*
X22157000Y-12580176D01*
X22157000Y-12465890D02*
X22166524Y-12456367D01*
X22185571Y-12446843D01*
X22214143Y-12446843D01*
X22233190Y-12456367D01*
X22242714Y-12475414D01*
X22242714Y-12580176D01*
X22366524Y-12580176D02*
X22347476Y-12570652D01*
X22337952Y-12561128D01*
X22328429Y-12542081D01*
X22328429Y-12484938D01*
X22337952Y-12465890D01*
X22347476Y-12456367D01*
X22366524Y-12446843D01*
X22395095Y-12446843D01*
X22414143Y-12456367D01*
X22423667Y-12465890D01*
X22433190Y-12484938D01*
X22433190Y-12542081D01*
X22423667Y-12561128D01*
X22414143Y-12570652D01*
X22395095Y-12580176D01*
X22366524Y-12580176D01*
X22490333Y-12446843D02*
X22566524Y-12446843D01*
X22518905Y-12380176D02*
X22518905Y-12551605D01*
X22528428Y-12570652D01*
X22547476Y-12580176D01*
X22566524Y-12580176D01*
X22785571Y-12446843D02*
X22785571Y-12646843D01*
X22785571Y-12456367D02*
X22804619Y-12446843D01*
X22842714Y-12446843D01*
X22861762Y-12456367D01*
X22871286Y-12465890D01*
X22880809Y-12484938D01*
X22880809Y-12542081D01*
X22871286Y-12561128D01*
X22861762Y-12570652D01*
X22842714Y-12580176D01*
X22804619Y-12580176D01*
X22785571Y-12570652D01*
X22995095Y-12580176D02*
X22976048Y-12570652D01*
X22966524Y-12551605D01*
X22966524Y-12380176D01*
X23157000Y-12580176D02*
X23157000Y-12475414D01*
X23147476Y-12456367D01*
X23128428Y-12446843D01*
X23090333Y-12446843D01*
X23071286Y-12456367D01*
X23157000Y-12570652D02*
X23137952Y-12580176D01*
X23090333Y-12580176D01*
X23071286Y-12570652D01*
X23061762Y-12551605D01*
X23061762Y-12532557D01*
X23071286Y-12513509D01*
X23090333Y-12503986D01*
X23137952Y-12503986D01*
X23157000Y-12494462D01*
X23223667Y-12446843D02*
X23299857Y-12446843D01*
X23252238Y-12380176D02*
X23252238Y-12551605D01*
X23261762Y-12570652D01*
X23280809Y-12580176D01*
X23299857Y-12580176D01*
X23442714Y-12570652D02*
X23423667Y-12580176D01*
X23385571Y-12580176D01*
X23366524Y-12570652D01*
X23357000Y-12551605D01*
X23357000Y-12475414D01*
X23366524Y-12456367D01*
X23385571Y-12446843D01*
X23423667Y-12446843D01*
X23442714Y-12456367D01*
X23452238Y-12475414D01*
X23452238Y-12494462D01*
X23357000Y-12513509D01*
X23623667Y-12580176D02*
X23623667Y-12380176D01*
X23623667Y-12570652D02*
X23604619Y-12580176D01*
X23566524Y-12580176D01*
X23547476Y-12570652D01*
X23537952Y-12561128D01*
X23528428Y-12542081D01*
X23528428Y-12484938D01*
X23537952Y-12465890D01*
X23547476Y-12456367D01*
X23566524Y-12446843D01*
X23604619Y-12446843D01*
X23623667Y-12456367D01*
X23699857Y-12656367D02*
X23709381Y-12646843D01*
X23728428Y-12618271D01*
X23737952Y-12599224D01*
X23747476Y-12570652D01*
X23757000Y-12523033D01*
X23757000Y-12484938D01*
X23747476Y-12437319D01*
X23737952Y-12408748D01*
X23728428Y-12389700D01*
X23709381Y-12361128D01*
X23699857Y-12351605D01*
M02*
