%TF.GenerationSoftware,KiCad,Pcbnew,6.0.11+dfsg-1~bpo11+1*%
%TF.CreationDate,2025-04-06T19:31:18+02:00*%
%TF.ProjectId,v4d2_pico,76346432-5f70-4696-936f-2e6b69636164,rev?*%
%TF.SameCoordinates,Original*%
%TF.FileFunction,Drillmap*%
%TF.FilePolarity,Positive*%
%FSLAX45Y45*%
G04 Gerber Fmt 4.5, Leading zero omitted, Abs format (unit mm)*
G04 Created by KiCad (PCBNEW 6.0.11+dfsg-1~bpo11+1) date 2025-04-06 19:31:18*
%MOMM*%
%LPD*%
G01*
G04 APERTURE LIST*
%ADD10C,0.150000*%
%ADD11C,0.200000*%
%ADD12C,0.320000*%
%ADD13C,0.430000*%
G04 APERTURE END LIST*
D10*
X25590500Y-1828800D02*
X25590500Y-9956800D01*
X20205700Y-1828800D02*
X25590500Y-1828800D01*
X18681700Y-5715000D02*
X17437100Y-5715000D01*
X20205700Y-9537700D02*
X20205700Y-1828800D01*
X20002500Y-2133600D02*
X20002500Y-3708400D01*
X21145500Y-11252200D02*
X20205700Y-9537700D01*
X19456400Y-10452100D02*
X17005300Y-10452100D01*
X17005300Y-10452100D02*
X17005300Y-6197600D01*
X23685500Y-11252200D02*
X21145500Y-11252200D01*
X16979900Y-4724400D02*
X16979900Y-2133600D01*
X17005300Y-6197600D02*
X19469100Y-6197600D01*
X25590500Y-9956800D02*
X23685500Y-11252200D01*
X19469100Y-6197600D02*
X19456400Y-10452100D01*
X17437100Y-5715000D02*
X16979900Y-4724400D01*
X20002500Y-3708400D02*
X18681700Y-5715000D01*
X16979900Y-2133600D02*
X20002500Y-2133600D01*
D11*
D10*
X17549500Y-6869600D02*
X17699500Y-7019600D01*
X17699500Y-6869600D02*
X17549500Y-7019600D01*
X18749500Y-8069600D02*
X18899500Y-8219600D01*
X18899500Y-8069600D02*
X18749500Y-8219600D01*
D12*
X17394300Y-6426200D02*
G75*
G03*
X17394300Y-6426200I-160000J0D01*
G01*
X17394300Y-10187800D02*
G75*
G03*
X17394300Y-10187800I-160000J0D01*
G01*
X18656900Y-5463800D02*
G75*
G03*
X18656900Y-5463800I-160000J0D01*
G01*
X19394300Y-6426200D02*
G75*
G03*
X19394300Y-6426200I-160000J0D01*
G01*
X19394300Y-10187800D02*
G75*
G03*
X19394300Y-10187800I-160000J0D01*
G01*
X20873700Y-8661400D02*
G75*
G03*
X20873700Y-8661400I-160000J0D01*
G01*
X21213400Y-2139950D02*
G75*
G03*
X21213400Y-2139950I-160000J0D01*
G01*
X25107200Y-2139950D02*
G75*
G03*
X25107200Y-2139950I-160000J0D01*
G01*
X25471100Y-9017000D02*
G75*
G03*
X25471100Y-9017000I-160000J0D01*
G01*
D13*
X17346900Y-2248800D02*
X17346900Y-2678800D01*
X17131900Y-2463800D02*
X17561900Y-2463800D01*
X19646900Y-2248800D02*
X19646900Y-2678800D01*
X19431900Y-2463800D02*
X19861900Y-2463800D01*
D11*
X17230019Y-11570176D02*
X17230019Y-11370176D01*
X17277638Y-11370176D01*
X17306210Y-11379700D01*
X17325257Y-11398748D01*
X17334781Y-11417795D01*
X17344305Y-11455890D01*
X17344305Y-11484462D01*
X17334781Y-11522557D01*
X17325257Y-11541605D01*
X17306210Y-11560652D01*
X17277638Y-11570176D01*
X17230019Y-11570176D01*
X17430019Y-11570176D02*
X17430019Y-11436843D01*
X17430019Y-11474938D02*
X17439543Y-11455890D01*
X17449067Y-11446367D01*
X17468114Y-11436843D01*
X17487162Y-11436843D01*
X17553829Y-11570176D02*
X17553829Y-11436843D01*
X17553829Y-11370176D02*
X17544305Y-11379700D01*
X17553829Y-11389224D01*
X17563352Y-11379700D01*
X17553829Y-11370176D01*
X17553829Y-11389224D01*
X17677638Y-11570176D02*
X17658590Y-11560652D01*
X17649067Y-11541605D01*
X17649067Y-11370176D01*
X17782400Y-11570176D02*
X17763352Y-11560652D01*
X17753829Y-11541605D01*
X17753829Y-11370176D01*
X18010971Y-11570176D02*
X18010971Y-11370176D01*
X18077638Y-11513033D01*
X18144305Y-11370176D01*
X18144305Y-11570176D01*
X18325257Y-11570176D02*
X18325257Y-11465414D01*
X18315733Y-11446367D01*
X18296686Y-11436843D01*
X18258590Y-11436843D01*
X18239543Y-11446367D01*
X18325257Y-11560652D02*
X18306210Y-11570176D01*
X18258590Y-11570176D01*
X18239543Y-11560652D01*
X18230019Y-11541605D01*
X18230019Y-11522557D01*
X18239543Y-11503509D01*
X18258590Y-11493986D01*
X18306210Y-11493986D01*
X18325257Y-11484462D01*
X18420495Y-11436843D02*
X18420495Y-11636843D01*
X18420495Y-11446367D02*
X18439543Y-11436843D01*
X18477638Y-11436843D01*
X18496686Y-11446367D01*
X18506210Y-11455890D01*
X18515733Y-11474938D01*
X18515733Y-11532081D01*
X18506210Y-11551128D01*
X18496686Y-11560652D01*
X18477638Y-11570176D01*
X18439543Y-11570176D01*
X18420495Y-11560652D01*
X18601448Y-11551128D02*
X18610971Y-11560652D01*
X18601448Y-11570176D01*
X18591924Y-11560652D01*
X18601448Y-11551128D01*
X18601448Y-11570176D01*
X18601448Y-11446367D02*
X18610971Y-11455890D01*
X18601448Y-11465414D01*
X18591924Y-11455890D01*
X18601448Y-11446367D01*
X18601448Y-11465414D01*
D10*
X16822400Y-11824700D02*
X16972400Y-11974700D01*
X16972400Y-11824700D02*
X16822400Y-11974700D01*
D11*
X17334781Y-11990176D02*
X17220495Y-11990176D01*
X17277638Y-11990176D02*
X17277638Y-11790176D01*
X17258590Y-11818748D01*
X17239543Y-11837795D01*
X17220495Y-11847319D01*
X17420495Y-11971128D02*
X17430019Y-11980652D01*
X17420495Y-11990176D01*
X17410971Y-11980652D01*
X17420495Y-11971128D01*
X17420495Y-11990176D01*
X17610971Y-11790176D02*
X17515733Y-11790176D01*
X17506210Y-11885414D01*
X17515733Y-11875890D01*
X17534781Y-11866367D01*
X17582400Y-11866367D01*
X17601448Y-11875890D01*
X17610971Y-11885414D01*
X17620495Y-11904462D01*
X17620495Y-11952081D01*
X17610971Y-11971128D01*
X17601448Y-11980652D01*
X17582400Y-11990176D01*
X17534781Y-11990176D01*
X17515733Y-11980652D01*
X17506210Y-11971128D01*
X17744305Y-11790176D02*
X17763352Y-11790176D01*
X17782400Y-11799700D01*
X17791924Y-11809224D01*
X17801448Y-11828271D01*
X17810971Y-11866367D01*
X17810971Y-11913986D01*
X17801448Y-11952081D01*
X17791924Y-11971128D01*
X17782400Y-11980652D01*
X17763352Y-11990176D01*
X17744305Y-11990176D01*
X17725257Y-11980652D01*
X17715733Y-11971128D01*
X17706210Y-11952081D01*
X17696686Y-11913986D01*
X17696686Y-11866367D01*
X17706210Y-11828271D01*
X17715733Y-11809224D01*
X17725257Y-11799700D01*
X17744305Y-11790176D01*
X17934781Y-11790176D02*
X17953829Y-11790176D01*
X17972876Y-11799700D01*
X17982400Y-11809224D01*
X17991924Y-11828271D01*
X18001448Y-11866367D01*
X18001448Y-11913986D01*
X17991924Y-11952081D01*
X17982400Y-11971128D01*
X17972876Y-11980652D01*
X17953829Y-11990176D01*
X17934781Y-11990176D01*
X17915733Y-11980652D01*
X17906210Y-11971128D01*
X17896686Y-11952081D01*
X17887162Y-11913986D01*
X17887162Y-11866367D01*
X17896686Y-11828271D01*
X17906210Y-11809224D01*
X17915733Y-11799700D01*
X17934781Y-11790176D01*
X18087162Y-11990176D02*
X18087162Y-11856843D01*
X18087162Y-11875890D02*
X18096686Y-11866367D01*
X18115733Y-11856843D01*
X18144305Y-11856843D01*
X18163352Y-11866367D01*
X18172876Y-11885414D01*
X18172876Y-11990176D01*
X18172876Y-11885414D02*
X18182400Y-11866367D01*
X18201448Y-11856843D01*
X18230019Y-11856843D01*
X18249067Y-11866367D01*
X18258590Y-11885414D01*
X18258590Y-11990176D01*
X18353829Y-11990176D02*
X18353829Y-11856843D01*
X18353829Y-11875890D02*
X18363352Y-11866367D01*
X18382400Y-11856843D01*
X18410971Y-11856843D01*
X18430019Y-11866367D01*
X18439543Y-11885414D01*
X18439543Y-11990176D01*
X18439543Y-11885414D02*
X18449067Y-11866367D01*
X18468114Y-11856843D01*
X18496686Y-11856843D01*
X18515733Y-11866367D01*
X18525257Y-11885414D01*
X18525257Y-11990176D01*
X18915733Y-11780652D02*
X18744305Y-12037795D01*
X19172876Y-11790176D02*
X19191924Y-11790176D01*
X19210971Y-11799700D01*
X19220495Y-11809224D01*
X19230019Y-11828271D01*
X19239543Y-11866367D01*
X19239543Y-11913986D01*
X19230019Y-11952081D01*
X19220495Y-11971128D01*
X19210971Y-11980652D01*
X19191924Y-11990176D01*
X19172876Y-11990176D01*
X19153829Y-11980652D01*
X19144305Y-11971128D01*
X19134781Y-11952081D01*
X19125257Y-11913986D01*
X19125257Y-11866367D01*
X19134781Y-11828271D01*
X19144305Y-11809224D01*
X19153829Y-11799700D01*
X19172876Y-11790176D01*
X19325257Y-11971128D02*
X19334781Y-11980652D01*
X19325257Y-11990176D01*
X19315733Y-11980652D01*
X19325257Y-11971128D01*
X19325257Y-11990176D01*
X19458590Y-11790176D02*
X19477638Y-11790176D01*
X19496686Y-11799700D01*
X19506210Y-11809224D01*
X19515733Y-11828271D01*
X19525257Y-11866367D01*
X19525257Y-11913986D01*
X19515733Y-11952081D01*
X19506210Y-11971128D01*
X19496686Y-11980652D01*
X19477638Y-11990176D01*
X19458590Y-11990176D01*
X19439543Y-11980652D01*
X19430019Y-11971128D01*
X19420495Y-11952081D01*
X19410971Y-11913986D01*
X19410971Y-11866367D01*
X19420495Y-11828271D01*
X19430019Y-11809224D01*
X19439543Y-11799700D01*
X19458590Y-11790176D01*
X19706210Y-11790176D02*
X19610971Y-11790176D01*
X19601448Y-11885414D01*
X19610971Y-11875890D01*
X19630019Y-11866367D01*
X19677638Y-11866367D01*
X19696686Y-11875890D01*
X19706210Y-11885414D01*
X19715733Y-11904462D01*
X19715733Y-11952081D01*
X19706210Y-11971128D01*
X19696686Y-11980652D01*
X19677638Y-11990176D01*
X19630019Y-11990176D01*
X19610971Y-11980652D01*
X19601448Y-11971128D01*
X19810971Y-11990176D02*
X19849067Y-11990176D01*
X19868114Y-11980652D01*
X19877638Y-11971128D01*
X19896686Y-11942557D01*
X19906210Y-11904462D01*
X19906210Y-11828271D01*
X19896686Y-11809224D01*
X19887162Y-11799700D01*
X19868114Y-11790176D01*
X19830019Y-11790176D01*
X19810971Y-11799700D01*
X19801448Y-11809224D01*
X19791924Y-11828271D01*
X19791924Y-11875890D01*
X19801448Y-11894938D01*
X19810971Y-11904462D01*
X19830019Y-11913986D01*
X19868114Y-11913986D01*
X19887162Y-11904462D01*
X19896686Y-11894938D01*
X19906210Y-11875890D01*
X20096686Y-11990176D02*
X19982400Y-11990176D01*
X20039543Y-11990176D02*
X20039543Y-11790176D01*
X20020495Y-11818748D01*
X20001448Y-11837795D01*
X19982400Y-11847319D01*
X20172876Y-11790176D02*
X20172876Y-11828271D01*
X20249067Y-11790176D02*
X20249067Y-11828271D01*
X20544305Y-12066367D02*
X20534781Y-12056843D01*
X20515733Y-12028271D01*
X20506210Y-12009224D01*
X20496686Y-11980652D01*
X20487162Y-11933033D01*
X20487162Y-11894938D01*
X20496686Y-11847319D01*
X20506210Y-11818748D01*
X20515733Y-11799700D01*
X20534781Y-11771128D01*
X20544305Y-11761605D01*
X20610971Y-11809224D02*
X20620495Y-11799700D01*
X20639543Y-11790176D01*
X20687162Y-11790176D01*
X20706210Y-11799700D01*
X20715733Y-11809224D01*
X20725257Y-11828271D01*
X20725257Y-11847319D01*
X20715733Y-11875890D01*
X20601448Y-11990176D01*
X20725257Y-11990176D01*
X20963352Y-11990176D02*
X20963352Y-11790176D01*
X21049067Y-11990176D02*
X21049067Y-11885414D01*
X21039543Y-11866367D01*
X21020495Y-11856843D01*
X20991924Y-11856843D01*
X20972876Y-11866367D01*
X20963352Y-11875890D01*
X21172876Y-11990176D02*
X21153829Y-11980652D01*
X21144305Y-11971128D01*
X21134781Y-11952081D01*
X21134781Y-11894938D01*
X21144305Y-11875890D01*
X21153829Y-11866367D01*
X21172876Y-11856843D01*
X21201448Y-11856843D01*
X21220495Y-11866367D01*
X21230019Y-11875890D01*
X21239543Y-11894938D01*
X21239543Y-11952081D01*
X21230019Y-11971128D01*
X21220495Y-11980652D01*
X21201448Y-11990176D01*
X21172876Y-11990176D01*
X21353829Y-11990176D02*
X21334781Y-11980652D01*
X21325257Y-11961605D01*
X21325257Y-11790176D01*
X21506210Y-11980652D02*
X21487162Y-11990176D01*
X21449067Y-11990176D01*
X21430019Y-11980652D01*
X21420495Y-11961605D01*
X21420495Y-11885414D01*
X21430019Y-11866367D01*
X21449067Y-11856843D01*
X21487162Y-11856843D01*
X21506210Y-11866367D01*
X21515733Y-11885414D01*
X21515733Y-11904462D01*
X21420495Y-11923509D01*
X21591924Y-11980652D02*
X21610971Y-11990176D01*
X21649067Y-11990176D01*
X21668114Y-11980652D01*
X21677638Y-11961605D01*
X21677638Y-11952081D01*
X21668114Y-11933033D01*
X21649067Y-11923509D01*
X21620495Y-11923509D01*
X21601448Y-11913986D01*
X21591924Y-11894938D01*
X21591924Y-11885414D01*
X21601448Y-11866367D01*
X21620495Y-11856843D01*
X21649067Y-11856843D01*
X21668114Y-11866367D01*
X21744305Y-12066367D02*
X21753829Y-12056843D01*
X21772876Y-12028271D01*
X21782400Y-12009224D01*
X21791924Y-11980652D01*
X21801448Y-11933033D01*
X21801448Y-11894938D01*
X21791924Y-11847319D01*
X21782400Y-11818748D01*
X21772876Y-11799700D01*
X21753829Y-11771128D01*
X21744305Y-11761605D01*
X22106210Y-12066367D02*
X22096686Y-12056843D01*
X22077638Y-12028271D01*
X22068114Y-12009224D01*
X22058590Y-11980652D01*
X22049067Y-11933033D01*
X22049067Y-11894938D01*
X22058590Y-11847319D01*
X22068114Y-11818748D01*
X22077638Y-11799700D01*
X22096686Y-11771128D01*
X22106210Y-11761605D01*
X22182400Y-11856843D02*
X22182400Y-11990176D01*
X22182400Y-11875890D02*
X22191924Y-11866367D01*
X22210971Y-11856843D01*
X22239543Y-11856843D01*
X22258590Y-11866367D01*
X22268114Y-11885414D01*
X22268114Y-11990176D01*
X22391924Y-11990176D02*
X22372876Y-11980652D01*
X22363352Y-11971128D01*
X22353829Y-11952081D01*
X22353829Y-11894938D01*
X22363352Y-11875890D01*
X22372876Y-11866367D01*
X22391924Y-11856843D01*
X22420495Y-11856843D01*
X22439543Y-11866367D01*
X22449067Y-11875890D01*
X22458590Y-11894938D01*
X22458590Y-11952081D01*
X22449067Y-11971128D01*
X22439543Y-11980652D01*
X22420495Y-11990176D01*
X22391924Y-11990176D01*
X22515733Y-11856843D02*
X22591924Y-11856843D01*
X22544305Y-11790176D02*
X22544305Y-11961605D01*
X22553828Y-11980652D01*
X22572876Y-11990176D01*
X22591924Y-11990176D01*
X22810971Y-11856843D02*
X22810971Y-12056843D01*
X22810971Y-11866367D02*
X22830019Y-11856843D01*
X22868114Y-11856843D01*
X22887162Y-11866367D01*
X22896686Y-11875890D01*
X22906209Y-11894938D01*
X22906209Y-11952081D01*
X22896686Y-11971128D01*
X22887162Y-11980652D01*
X22868114Y-11990176D01*
X22830019Y-11990176D01*
X22810971Y-11980652D01*
X23020495Y-11990176D02*
X23001448Y-11980652D01*
X22991924Y-11961605D01*
X22991924Y-11790176D01*
X23182400Y-11990176D02*
X23182400Y-11885414D01*
X23172876Y-11866367D01*
X23153828Y-11856843D01*
X23115733Y-11856843D01*
X23096686Y-11866367D01*
X23182400Y-11980652D02*
X23163352Y-11990176D01*
X23115733Y-11990176D01*
X23096686Y-11980652D01*
X23087162Y-11961605D01*
X23087162Y-11942557D01*
X23096686Y-11923509D01*
X23115733Y-11913986D01*
X23163352Y-11913986D01*
X23182400Y-11904462D01*
X23249067Y-11856843D02*
X23325257Y-11856843D01*
X23277638Y-11790176D02*
X23277638Y-11961605D01*
X23287162Y-11980652D01*
X23306209Y-11990176D01*
X23325257Y-11990176D01*
X23468114Y-11980652D02*
X23449067Y-11990176D01*
X23410971Y-11990176D01*
X23391924Y-11980652D01*
X23382400Y-11961605D01*
X23382400Y-11885414D01*
X23391924Y-11866367D01*
X23410971Y-11856843D01*
X23449067Y-11856843D01*
X23468114Y-11866367D01*
X23477638Y-11885414D01*
X23477638Y-11904462D01*
X23382400Y-11923509D01*
X23649067Y-11990176D02*
X23649067Y-11790176D01*
X23649067Y-11980652D02*
X23630019Y-11990176D01*
X23591924Y-11990176D01*
X23572876Y-11980652D01*
X23563352Y-11971128D01*
X23553828Y-11952081D01*
X23553828Y-11894938D01*
X23563352Y-11875890D01*
X23572876Y-11866367D01*
X23591924Y-11856843D01*
X23630019Y-11856843D01*
X23649067Y-11866367D01*
X23725257Y-12066367D02*
X23734781Y-12056843D01*
X23753828Y-12028271D01*
X23763352Y-12009224D01*
X23772876Y-11980652D01*
X23782400Y-11933033D01*
X23782400Y-11894938D01*
X23772876Y-11847319D01*
X23763352Y-11818748D01*
X23753828Y-11799700D01*
X23734781Y-11771128D01*
X23725257Y-11761605D01*
X16972400Y-12169700D02*
G75*
G03*
X16972400Y-12169700I-100000J0D01*
G01*
X17210971Y-12060176D02*
X17334781Y-12060176D01*
X17268114Y-12136367D01*
X17296686Y-12136367D01*
X17315733Y-12145890D01*
X17325257Y-12155414D01*
X17334781Y-12174462D01*
X17334781Y-12222081D01*
X17325257Y-12241128D01*
X17315733Y-12250652D01*
X17296686Y-12260176D01*
X17239543Y-12260176D01*
X17220495Y-12250652D01*
X17210971Y-12241128D01*
X17420495Y-12241128D02*
X17430019Y-12250652D01*
X17420495Y-12260176D01*
X17410971Y-12250652D01*
X17420495Y-12241128D01*
X17420495Y-12260176D01*
X17506210Y-12079224D02*
X17515733Y-12069700D01*
X17534781Y-12060176D01*
X17582400Y-12060176D01*
X17601448Y-12069700D01*
X17610971Y-12079224D01*
X17620495Y-12098271D01*
X17620495Y-12117319D01*
X17610971Y-12145890D01*
X17496686Y-12260176D01*
X17620495Y-12260176D01*
X17744305Y-12060176D02*
X17763352Y-12060176D01*
X17782400Y-12069700D01*
X17791924Y-12079224D01*
X17801448Y-12098271D01*
X17810971Y-12136367D01*
X17810971Y-12183986D01*
X17801448Y-12222081D01*
X17791924Y-12241128D01*
X17782400Y-12250652D01*
X17763352Y-12260176D01*
X17744305Y-12260176D01*
X17725257Y-12250652D01*
X17715733Y-12241128D01*
X17706210Y-12222081D01*
X17696686Y-12183986D01*
X17696686Y-12136367D01*
X17706210Y-12098271D01*
X17715733Y-12079224D01*
X17725257Y-12069700D01*
X17744305Y-12060176D01*
X17934781Y-12060176D02*
X17953829Y-12060176D01*
X17972876Y-12069700D01*
X17982400Y-12079224D01*
X17991924Y-12098271D01*
X18001448Y-12136367D01*
X18001448Y-12183986D01*
X17991924Y-12222081D01*
X17982400Y-12241128D01*
X17972876Y-12250652D01*
X17953829Y-12260176D01*
X17934781Y-12260176D01*
X17915733Y-12250652D01*
X17906210Y-12241128D01*
X17896686Y-12222081D01*
X17887162Y-12183986D01*
X17887162Y-12136367D01*
X17896686Y-12098271D01*
X17906210Y-12079224D01*
X17915733Y-12069700D01*
X17934781Y-12060176D01*
X18087162Y-12260176D02*
X18087162Y-12126843D01*
X18087162Y-12145890D02*
X18096686Y-12136367D01*
X18115733Y-12126843D01*
X18144305Y-12126843D01*
X18163352Y-12136367D01*
X18172876Y-12155414D01*
X18172876Y-12260176D01*
X18172876Y-12155414D02*
X18182400Y-12136367D01*
X18201448Y-12126843D01*
X18230019Y-12126843D01*
X18249067Y-12136367D01*
X18258590Y-12155414D01*
X18258590Y-12260176D01*
X18353829Y-12260176D02*
X18353829Y-12126843D01*
X18353829Y-12145890D02*
X18363352Y-12136367D01*
X18382400Y-12126843D01*
X18410971Y-12126843D01*
X18430019Y-12136367D01*
X18439543Y-12155414D01*
X18439543Y-12260176D01*
X18439543Y-12155414D02*
X18449067Y-12136367D01*
X18468114Y-12126843D01*
X18496686Y-12126843D01*
X18515733Y-12136367D01*
X18525257Y-12155414D01*
X18525257Y-12260176D01*
X18915733Y-12050652D02*
X18744305Y-12307795D01*
X19172876Y-12060176D02*
X19191924Y-12060176D01*
X19210971Y-12069700D01*
X19220495Y-12079224D01*
X19230019Y-12098271D01*
X19239543Y-12136367D01*
X19239543Y-12183986D01*
X19230019Y-12222081D01*
X19220495Y-12241128D01*
X19210971Y-12250652D01*
X19191924Y-12260176D01*
X19172876Y-12260176D01*
X19153829Y-12250652D01*
X19144305Y-12241128D01*
X19134781Y-12222081D01*
X19125257Y-12183986D01*
X19125257Y-12136367D01*
X19134781Y-12098271D01*
X19144305Y-12079224D01*
X19153829Y-12069700D01*
X19172876Y-12060176D01*
X19325257Y-12241128D02*
X19334781Y-12250652D01*
X19325257Y-12260176D01*
X19315733Y-12250652D01*
X19325257Y-12241128D01*
X19325257Y-12260176D01*
X19525257Y-12260176D02*
X19410971Y-12260176D01*
X19468114Y-12260176D02*
X19468114Y-12060176D01*
X19449067Y-12088748D01*
X19430019Y-12107795D01*
X19410971Y-12117319D01*
X19601448Y-12079224D02*
X19610971Y-12069700D01*
X19630019Y-12060176D01*
X19677638Y-12060176D01*
X19696686Y-12069700D01*
X19706210Y-12079224D01*
X19715733Y-12098271D01*
X19715733Y-12117319D01*
X19706210Y-12145890D01*
X19591924Y-12260176D01*
X19715733Y-12260176D01*
X19887162Y-12060176D02*
X19849067Y-12060176D01*
X19830019Y-12069700D01*
X19820495Y-12079224D01*
X19801448Y-12107795D01*
X19791924Y-12145890D01*
X19791924Y-12222081D01*
X19801448Y-12241128D01*
X19810971Y-12250652D01*
X19830019Y-12260176D01*
X19868114Y-12260176D01*
X19887162Y-12250652D01*
X19896686Y-12241128D01*
X19906210Y-12222081D01*
X19906210Y-12174462D01*
X19896686Y-12155414D01*
X19887162Y-12145890D01*
X19868114Y-12136367D01*
X19830019Y-12136367D01*
X19810971Y-12145890D01*
X19801448Y-12155414D01*
X19791924Y-12174462D01*
X20030019Y-12060176D02*
X20049067Y-12060176D01*
X20068114Y-12069700D01*
X20077638Y-12079224D01*
X20087162Y-12098271D01*
X20096686Y-12136367D01*
X20096686Y-12183986D01*
X20087162Y-12222081D01*
X20077638Y-12241128D01*
X20068114Y-12250652D01*
X20049067Y-12260176D01*
X20030019Y-12260176D01*
X20010971Y-12250652D01*
X20001448Y-12241128D01*
X19991924Y-12222081D01*
X19982400Y-12183986D01*
X19982400Y-12136367D01*
X19991924Y-12098271D01*
X20001448Y-12079224D01*
X20010971Y-12069700D01*
X20030019Y-12060176D01*
X20172876Y-12060176D02*
X20172876Y-12098271D01*
X20249067Y-12060176D02*
X20249067Y-12098271D01*
X20544305Y-12336367D02*
X20534781Y-12326843D01*
X20515733Y-12298271D01*
X20506210Y-12279224D01*
X20496686Y-12250652D01*
X20487162Y-12203033D01*
X20487162Y-12164938D01*
X20496686Y-12117319D01*
X20506210Y-12088748D01*
X20515733Y-12069700D01*
X20534781Y-12041128D01*
X20544305Y-12031605D01*
X20630019Y-12260176D02*
X20668114Y-12260176D01*
X20687162Y-12250652D01*
X20696686Y-12241128D01*
X20715733Y-12212557D01*
X20725257Y-12174462D01*
X20725257Y-12098271D01*
X20715733Y-12079224D01*
X20706210Y-12069700D01*
X20687162Y-12060176D01*
X20649067Y-12060176D01*
X20630019Y-12069700D01*
X20620495Y-12079224D01*
X20610971Y-12098271D01*
X20610971Y-12145890D01*
X20620495Y-12164938D01*
X20630019Y-12174462D01*
X20649067Y-12183986D01*
X20687162Y-12183986D01*
X20706210Y-12174462D01*
X20715733Y-12164938D01*
X20725257Y-12145890D01*
X20963352Y-12260176D02*
X20963352Y-12060176D01*
X21049067Y-12260176D02*
X21049067Y-12155414D01*
X21039543Y-12136367D01*
X21020495Y-12126843D01*
X20991924Y-12126843D01*
X20972876Y-12136367D01*
X20963352Y-12145890D01*
X21172876Y-12260176D02*
X21153829Y-12250652D01*
X21144305Y-12241128D01*
X21134781Y-12222081D01*
X21134781Y-12164938D01*
X21144305Y-12145890D01*
X21153829Y-12136367D01*
X21172876Y-12126843D01*
X21201448Y-12126843D01*
X21220495Y-12136367D01*
X21230019Y-12145890D01*
X21239543Y-12164938D01*
X21239543Y-12222081D01*
X21230019Y-12241128D01*
X21220495Y-12250652D01*
X21201448Y-12260176D01*
X21172876Y-12260176D01*
X21353829Y-12260176D02*
X21334781Y-12250652D01*
X21325257Y-12231605D01*
X21325257Y-12060176D01*
X21506210Y-12250652D02*
X21487162Y-12260176D01*
X21449067Y-12260176D01*
X21430019Y-12250652D01*
X21420495Y-12231605D01*
X21420495Y-12155414D01*
X21430019Y-12136367D01*
X21449067Y-12126843D01*
X21487162Y-12126843D01*
X21506210Y-12136367D01*
X21515733Y-12155414D01*
X21515733Y-12174462D01*
X21420495Y-12193509D01*
X21591924Y-12250652D02*
X21610971Y-12260176D01*
X21649067Y-12260176D01*
X21668114Y-12250652D01*
X21677638Y-12231605D01*
X21677638Y-12222081D01*
X21668114Y-12203033D01*
X21649067Y-12193509D01*
X21620495Y-12193509D01*
X21601448Y-12183986D01*
X21591924Y-12164938D01*
X21591924Y-12155414D01*
X21601448Y-12136367D01*
X21620495Y-12126843D01*
X21649067Y-12126843D01*
X21668114Y-12136367D01*
X21744305Y-12336367D02*
X21753829Y-12326843D01*
X21772876Y-12298271D01*
X21782400Y-12279224D01*
X21791924Y-12250652D01*
X21801448Y-12203033D01*
X21801448Y-12164938D01*
X21791924Y-12117319D01*
X21782400Y-12088748D01*
X21772876Y-12069700D01*
X21753829Y-12041128D01*
X21744305Y-12031605D01*
X22106210Y-12336367D02*
X22096686Y-12326843D01*
X22077638Y-12298271D01*
X22068114Y-12279224D01*
X22058590Y-12250652D01*
X22049067Y-12203033D01*
X22049067Y-12164938D01*
X22058590Y-12117319D01*
X22068114Y-12088748D01*
X22077638Y-12069700D01*
X22096686Y-12041128D01*
X22106210Y-12031605D01*
X22182400Y-12126843D02*
X22182400Y-12260176D01*
X22182400Y-12145890D02*
X22191924Y-12136367D01*
X22210971Y-12126843D01*
X22239543Y-12126843D01*
X22258590Y-12136367D01*
X22268114Y-12155414D01*
X22268114Y-12260176D01*
X22391924Y-12260176D02*
X22372876Y-12250652D01*
X22363352Y-12241128D01*
X22353829Y-12222081D01*
X22353829Y-12164938D01*
X22363352Y-12145890D01*
X22372876Y-12136367D01*
X22391924Y-12126843D01*
X22420495Y-12126843D01*
X22439543Y-12136367D01*
X22449067Y-12145890D01*
X22458590Y-12164938D01*
X22458590Y-12222081D01*
X22449067Y-12241128D01*
X22439543Y-12250652D01*
X22420495Y-12260176D01*
X22391924Y-12260176D01*
X22515733Y-12126843D02*
X22591924Y-12126843D01*
X22544305Y-12060176D02*
X22544305Y-12231605D01*
X22553828Y-12250652D01*
X22572876Y-12260176D01*
X22591924Y-12260176D01*
X22810971Y-12126843D02*
X22810971Y-12326843D01*
X22810971Y-12136367D02*
X22830019Y-12126843D01*
X22868114Y-12126843D01*
X22887162Y-12136367D01*
X22896686Y-12145890D01*
X22906209Y-12164938D01*
X22906209Y-12222081D01*
X22896686Y-12241128D01*
X22887162Y-12250652D01*
X22868114Y-12260176D01*
X22830019Y-12260176D01*
X22810971Y-12250652D01*
X23020495Y-12260176D02*
X23001448Y-12250652D01*
X22991924Y-12231605D01*
X22991924Y-12060176D01*
X23182400Y-12260176D02*
X23182400Y-12155414D01*
X23172876Y-12136367D01*
X23153828Y-12126843D01*
X23115733Y-12126843D01*
X23096686Y-12136367D01*
X23182400Y-12250652D02*
X23163352Y-12260176D01*
X23115733Y-12260176D01*
X23096686Y-12250652D01*
X23087162Y-12231605D01*
X23087162Y-12212557D01*
X23096686Y-12193509D01*
X23115733Y-12183986D01*
X23163352Y-12183986D01*
X23182400Y-12174462D01*
X23249067Y-12126843D02*
X23325257Y-12126843D01*
X23277638Y-12060176D02*
X23277638Y-12231605D01*
X23287162Y-12250652D01*
X23306209Y-12260176D01*
X23325257Y-12260176D01*
X23468114Y-12250652D02*
X23449067Y-12260176D01*
X23410971Y-12260176D01*
X23391924Y-12250652D01*
X23382400Y-12231605D01*
X23382400Y-12155414D01*
X23391924Y-12136367D01*
X23410971Y-12126843D01*
X23449067Y-12126843D01*
X23468114Y-12136367D01*
X23477638Y-12155414D01*
X23477638Y-12174462D01*
X23382400Y-12193509D01*
X23649067Y-12260176D02*
X23649067Y-12060176D01*
X23649067Y-12250652D02*
X23630019Y-12260176D01*
X23591924Y-12260176D01*
X23572876Y-12250652D01*
X23563352Y-12241128D01*
X23553828Y-12222081D01*
X23553828Y-12164938D01*
X23563352Y-12145890D01*
X23572876Y-12136367D01*
X23591924Y-12126843D01*
X23630019Y-12126843D01*
X23649067Y-12136367D01*
X23725257Y-12336367D02*
X23734781Y-12326843D01*
X23753828Y-12298271D01*
X23763352Y-12279224D01*
X23772876Y-12250652D01*
X23782400Y-12203033D01*
X23782400Y-12164938D01*
X23772876Y-12117319D01*
X23763352Y-12088748D01*
X23753828Y-12069700D01*
X23734781Y-12041128D01*
X23725257Y-12031605D01*
X16872400Y-12389700D02*
X16872400Y-12589700D01*
X16772400Y-12489700D02*
X16972400Y-12489700D01*
X17315733Y-12446843D02*
X17315733Y-12580176D01*
X17268114Y-12370652D02*
X17220495Y-12513509D01*
X17344305Y-12513509D01*
X17420495Y-12561128D02*
X17430019Y-12570652D01*
X17420495Y-12580176D01*
X17410971Y-12570652D01*
X17420495Y-12561128D01*
X17420495Y-12580176D01*
X17496686Y-12380176D02*
X17620495Y-12380176D01*
X17553829Y-12456367D01*
X17582400Y-12456367D01*
X17601448Y-12465890D01*
X17610971Y-12475414D01*
X17620495Y-12494462D01*
X17620495Y-12542081D01*
X17610971Y-12561128D01*
X17601448Y-12570652D01*
X17582400Y-12580176D01*
X17525257Y-12580176D01*
X17506210Y-12570652D01*
X17496686Y-12561128D01*
X17744305Y-12380176D02*
X17763352Y-12380176D01*
X17782400Y-12389700D01*
X17791924Y-12399224D01*
X17801448Y-12418271D01*
X17810971Y-12456367D01*
X17810971Y-12503986D01*
X17801448Y-12542081D01*
X17791924Y-12561128D01*
X17782400Y-12570652D01*
X17763352Y-12580176D01*
X17744305Y-12580176D01*
X17725257Y-12570652D01*
X17715733Y-12561128D01*
X17706210Y-12542081D01*
X17696686Y-12503986D01*
X17696686Y-12456367D01*
X17706210Y-12418271D01*
X17715733Y-12399224D01*
X17725257Y-12389700D01*
X17744305Y-12380176D01*
X17934781Y-12380176D02*
X17953829Y-12380176D01*
X17972876Y-12389700D01*
X17982400Y-12399224D01*
X17991924Y-12418271D01*
X18001448Y-12456367D01*
X18001448Y-12503986D01*
X17991924Y-12542081D01*
X17982400Y-12561128D01*
X17972876Y-12570652D01*
X17953829Y-12580176D01*
X17934781Y-12580176D01*
X17915733Y-12570652D01*
X17906210Y-12561128D01*
X17896686Y-12542081D01*
X17887162Y-12503986D01*
X17887162Y-12456367D01*
X17896686Y-12418271D01*
X17906210Y-12399224D01*
X17915733Y-12389700D01*
X17934781Y-12380176D01*
X18087162Y-12580176D02*
X18087162Y-12446843D01*
X18087162Y-12465890D02*
X18096686Y-12456367D01*
X18115733Y-12446843D01*
X18144305Y-12446843D01*
X18163352Y-12456367D01*
X18172876Y-12475414D01*
X18172876Y-12580176D01*
X18172876Y-12475414D02*
X18182400Y-12456367D01*
X18201448Y-12446843D01*
X18230019Y-12446843D01*
X18249067Y-12456367D01*
X18258590Y-12475414D01*
X18258590Y-12580176D01*
X18353829Y-12580176D02*
X18353829Y-12446843D01*
X18353829Y-12465890D02*
X18363352Y-12456367D01*
X18382400Y-12446843D01*
X18410971Y-12446843D01*
X18430019Y-12456367D01*
X18439543Y-12475414D01*
X18439543Y-12580176D01*
X18439543Y-12475414D02*
X18449067Y-12456367D01*
X18468114Y-12446843D01*
X18496686Y-12446843D01*
X18515733Y-12456367D01*
X18525257Y-12475414D01*
X18525257Y-12580176D01*
X18915733Y-12370652D02*
X18744305Y-12627795D01*
X19172876Y-12380176D02*
X19191924Y-12380176D01*
X19210971Y-12389700D01*
X19220495Y-12399224D01*
X19230019Y-12418271D01*
X19239543Y-12456367D01*
X19239543Y-12503986D01*
X19230019Y-12542081D01*
X19220495Y-12561128D01*
X19210971Y-12570652D01*
X19191924Y-12580176D01*
X19172876Y-12580176D01*
X19153829Y-12570652D01*
X19144305Y-12561128D01*
X19134781Y-12542081D01*
X19125257Y-12503986D01*
X19125257Y-12456367D01*
X19134781Y-12418271D01*
X19144305Y-12399224D01*
X19153829Y-12389700D01*
X19172876Y-12380176D01*
X19325257Y-12561128D02*
X19334781Y-12570652D01*
X19325257Y-12580176D01*
X19315733Y-12570652D01*
X19325257Y-12561128D01*
X19325257Y-12580176D01*
X19525257Y-12580176D02*
X19410971Y-12580176D01*
X19468114Y-12580176D02*
X19468114Y-12380176D01*
X19449067Y-12408748D01*
X19430019Y-12427795D01*
X19410971Y-12437319D01*
X19696686Y-12380176D02*
X19658590Y-12380176D01*
X19639543Y-12389700D01*
X19630019Y-12399224D01*
X19610971Y-12427795D01*
X19601448Y-12465890D01*
X19601448Y-12542081D01*
X19610971Y-12561128D01*
X19620495Y-12570652D01*
X19639543Y-12580176D01*
X19677638Y-12580176D01*
X19696686Y-12570652D01*
X19706210Y-12561128D01*
X19715733Y-12542081D01*
X19715733Y-12494462D01*
X19706210Y-12475414D01*
X19696686Y-12465890D01*
X19677638Y-12456367D01*
X19639543Y-12456367D01*
X19620495Y-12465890D01*
X19610971Y-12475414D01*
X19601448Y-12494462D01*
X19810971Y-12580176D02*
X19849067Y-12580176D01*
X19868114Y-12570652D01*
X19877638Y-12561128D01*
X19896686Y-12532557D01*
X19906210Y-12494462D01*
X19906210Y-12418271D01*
X19896686Y-12399224D01*
X19887162Y-12389700D01*
X19868114Y-12380176D01*
X19830019Y-12380176D01*
X19810971Y-12389700D01*
X19801448Y-12399224D01*
X19791924Y-12418271D01*
X19791924Y-12465890D01*
X19801448Y-12484938D01*
X19810971Y-12494462D01*
X19830019Y-12503986D01*
X19868114Y-12503986D01*
X19887162Y-12494462D01*
X19896686Y-12484938D01*
X19906210Y-12465890D01*
X19972876Y-12380176D02*
X20096686Y-12380176D01*
X20030019Y-12456367D01*
X20058590Y-12456367D01*
X20077638Y-12465890D01*
X20087162Y-12475414D01*
X20096686Y-12494462D01*
X20096686Y-12542081D01*
X20087162Y-12561128D01*
X20077638Y-12570652D01*
X20058590Y-12580176D01*
X20001448Y-12580176D01*
X19982400Y-12570652D01*
X19972876Y-12561128D01*
X20172876Y-12380176D02*
X20172876Y-12418271D01*
X20249067Y-12380176D02*
X20249067Y-12418271D01*
X20544305Y-12656367D02*
X20534781Y-12646843D01*
X20515733Y-12618271D01*
X20506210Y-12599224D01*
X20496686Y-12570652D01*
X20487162Y-12523033D01*
X20487162Y-12484938D01*
X20496686Y-12437319D01*
X20506210Y-12408748D01*
X20515733Y-12389700D01*
X20534781Y-12361128D01*
X20544305Y-12351605D01*
X20610971Y-12399224D02*
X20620495Y-12389700D01*
X20639543Y-12380176D01*
X20687162Y-12380176D01*
X20706210Y-12389700D01*
X20715733Y-12399224D01*
X20725257Y-12418271D01*
X20725257Y-12437319D01*
X20715733Y-12465890D01*
X20601448Y-12580176D01*
X20725257Y-12580176D01*
X20963352Y-12580176D02*
X20963352Y-12380176D01*
X21049067Y-12580176D02*
X21049067Y-12475414D01*
X21039543Y-12456367D01*
X21020495Y-12446843D01*
X20991924Y-12446843D01*
X20972876Y-12456367D01*
X20963352Y-12465890D01*
X21172876Y-12580176D02*
X21153829Y-12570652D01*
X21144305Y-12561128D01*
X21134781Y-12542081D01*
X21134781Y-12484938D01*
X21144305Y-12465890D01*
X21153829Y-12456367D01*
X21172876Y-12446843D01*
X21201448Y-12446843D01*
X21220495Y-12456367D01*
X21230019Y-12465890D01*
X21239543Y-12484938D01*
X21239543Y-12542081D01*
X21230019Y-12561128D01*
X21220495Y-12570652D01*
X21201448Y-12580176D01*
X21172876Y-12580176D01*
X21353829Y-12580176D02*
X21334781Y-12570652D01*
X21325257Y-12551605D01*
X21325257Y-12380176D01*
X21506210Y-12570652D02*
X21487162Y-12580176D01*
X21449067Y-12580176D01*
X21430019Y-12570652D01*
X21420495Y-12551605D01*
X21420495Y-12475414D01*
X21430019Y-12456367D01*
X21449067Y-12446843D01*
X21487162Y-12446843D01*
X21506210Y-12456367D01*
X21515733Y-12475414D01*
X21515733Y-12494462D01*
X21420495Y-12513509D01*
X21591924Y-12570652D02*
X21610971Y-12580176D01*
X21649067Y-12580176D01*
X21668114Y-12570652D01*
X21677638Y-12551605D01*
X21677638Y-12542081D01*
X21668114Y-12523033D01*
X21649067Y-12513509D01*
X21620495Y-12513509D01*
X21601448Y-12503986D01*
X21591924Y-12484938D01*
X21591924Y-12475414D01*
X21601448Y-12456367D01*
X21620495Y-12446843D01*
X21649067Y-12446843D01*
X21668114Y-12456367D01*
X21744305Y-12656367D02*
X21753829Y-12646843D01*
X21772876Y-12618271D01*
X21782400Y-12599224D01*
X21791924Y-12570652D01*
X21801448Y-12523033D01*
X21801448Y-12484938D01*
X21791924Y-12437319D01*
X21782400Y-12408748D01*
X21772876Y-12389700D01*
X21753829Y-12361128D01*
X21744305Y-12351605D01*
X22106210Y-12656367D02*
X22096686Y-12646843D01*
X22077638Y-12618271D01*
X22068114Y-12599224D01*
X22058590Y-12570652D01*
X22049067Y-12523033D01*
X22049067Y-12484938D01*
X22058590Y-12437319D01*
X22068114Y-12408748D01*
X22077638Y-12389700D01*
X22096686Y-12361128D01*
X22106210Y-12351605D01*
X22182400Y-12446843D02*
X22182400Y-12580176D01*
X22182400Y-12465890D02*
X22191924Y-12456367D01*
X22210971Y-12446843D01*
X22239543Y-12446843D01*
X22258590Y-12456367D01*
X22268114Y-12475414D01*
X22268114Y-12580176D01*
X22391924Y-12580176D02*
X22372876Y-12570652D01*
X22363352Y-12561128D01*
X22353829Y-12542081D01*
X22353829Y-12484938D01*
X22363352Y-12465890D01*
X22372876Y-12456367D01*
X22391924Y-12446843D01*
X22420495Y-12446843D01*
X22439543Y-12456367D01*
X22449067Y-12465890D01*
X22458590Y-12484938D01*
X22458590Y-12542081D01*
X22449067Y-12561128D01*
X22439543Y-12570652D01*
X22420495Y-12580176D01*
X22391924Y-12580176D01*
X22515733Y-12446843D02*
X22591924Y-12446843D01*
X22544305Y-12380176D02*
X22544305Y-12551605D01*
X22553828Y-12570652D01*
X22572876Y-12580176D01*
X22591924Y-12580176D01*
X22810971Y-12446843D02*
X22810971Y-12646843D01*
X22810971Y-12456367D02*
X22830019Y-12446843D01*
X22868114Y-12446843D01*
X22887162Y-12456367D01*
X22896686Y-12465890D01*
X22906209Y-12484938D01*
X22906209Y-12542081D01*
X22896686Y-12561128D01*
X22887162Y-12570652D01*
X22868114Y-12580176D01*
X22830019Y-12580176D01*
X22810971Y-12570652D01*
X23020495Y-12580176D02*
X23001448Y-12570652D01*
X22991924Y-12551605D01*
X22991924Y-12380176D01*
X23182400Y-12580176D02*
X23182400Y-12475414D01*
X23172876Y-12456367D01*
X23153828Y-12446843D01*
X23115733Y-12446843D01*
X23096686Y-12456367D01*
X23182400Y-12570652D02*
X23163352Y-12580176D01*
X23115733Y-12580176D01*
X23096686Y-12570652D01*
X23087162Y-12551605D01*
X23087162Y-12532557D01*
X23096686Y-12513509D01*
X23115733Y-12503986D01*
X23163352Y-12503986D01*
X23182400Y-12494462D01*
X23249067Y-12446843D02*
X23325257Y-12446843D01*
X23277638Y-12380176D02*
X23277638Y-12551605D01*
X23287162Y-12570652D01*
X23306209Y-12580176D01*
X23325257Y-12580176D01*
X23468114Y-12570652D02*
X23449067Y-12580176D01*
X23410971Y-12580176D01*
X23391924Y-12570652D01*
X23382400Y-12551605D01*
X23382400Y-12475414D01*
X23391924Y-12456367D01*
X23410971Y-12446843D01*
X23449067Y-12446843D01*
X23468114Y-12456367D01*
X23477638Y-12475414D01*
X23477638Y-12494462D01*
X23382400Y-12513509D01*
X23649067Y-12580176D02*
X23649067Y-12380176D01*
X23649067Y-12570652D02*
X23630019Y-12580176D01*
X23591924Y-12580176D01*
X23572876Y-12570652D01*
X23563352Y-12561128D01*
X23553828Y-12542081D01*
X23553828Y-12484938D01*
X23563352Y-12465890D01*
X23572876Y-12456367D01*
X23591924Y-12446843D01*
X23630019Y-12446843D01*
X23649067Y-12456367D01*
X23725257Y-12656367D02*
X23734781Y-12646843D01*
X23753828Y-12618271D01*
X23763352Y-12599224D01*
X23772876Y-12570652D01*
X23782400Y-12523033D01*
X23782400Y-12484938D01*
X23772876Y-12437319D01*
X23763352Y-12408748D01*
X23753828Y-12389700D01*
X23734781Y-12361128D01*
X23725257Y-12351605D01*
M02*
