%TF.GenerationSoftware,KiCad,Pcbnew,6.0.11+dfsg-1~bpo11+1*%
%TF.CreationDate,2025-04-06T19:31:29+02:00*%
%TF.ProjectId,v4d2_pico,76346432-5f70-4696-936f-2e6b69636164,rev?*%
%TF.SameCoordinates,Original*%
%TF.FileFunction,Legend,Bot*%
%TF.FilePolarity,Positive*%
%FSLAX46Y46*%
G04 Gerber Fmt 4.6, Leading zero omitted, Abs format (unit mm)*
G04 Created by KiCad (PCBNEW 6.0.11+dfsg-1~bpo11+1) date 2025-04-06 19:31:29*
%MOMM*%
%LPD*%
G01*
G04 APERTURE LIST*
G04 Aperture macros list*
%AMRoundRect*
0 Rectangle with rounded corners*
0 $1 Rounding radius*
0 $2 $3 $4 $5 $6 $7 $8 $9 X,Y pos of 4 corners*
0 Add a 4 corners polygon primitive as box body*
4,1,4,$2,$3,$4,$5,$6,$7,$8,$9,$2,$3,0*
0 Add four circle primitives for the rounded corners*
1,1,$1+$1,$2,$3*
1,1,$1+$1,$4,$5*
1,1,$1+$1,$6,$7*
1,1,$1+$1,$8,$9*
0 Add four rect primitives between the rounded corners*
20,1,$1+$1,$2,$3,$4,$5,0*
20,1,$1+$1,$4,$5,$6,$7,0*
20,1,$1+$1,$6,$7,$8,$9,0*
20,1,$1+$1,$8,$9,$2,$3,0*%
G04 Aperture macros list end*
%ADD10C,0.150000*%
%ADD11C,1.150000*%
%ADD12C,0.200000*%
%ADD13C,0.120000*%
%ADD14R,1.600000X1.600000*%
%ADD15C,1.600000*%
%ADD16R,2.500000X2.500000*%
%ADD17RoundRect,0.250000X0.350000X0.625000X-0.350000X0.625000X-0.350000X-0.625000X0.350000X-0.625000X0*%
%ADD18O,1.200000X1.750000*%
%ADD19RoundRect,0.250000X-0.350000X-0.625000X0.350000X-0.625000X0.350000X0.625000X-0.350000X0.625000X0*%
%ADD20C,3.200000*%
%ADD21O,1.600000X1.600000*%
%ADD22O,1.700000X1.700000*%
%ADD23R,1.700000X1.700000*%
%ADD24RoundRect,0.250000X-0.600000X-0.750000X0.600000X-0.750000X0.600000X0.750000X-0.600000X0.750000X0*%
%ADD25O,1.700000X2.000000*%
%ADD26R,1.500000X1.500000*%
%ADD27O,1.500000X1.500000*%
%ADD28RoundRect,0.250000X0.750000X-0.600000X0.750000X0.600000X-0.750000X0.600000X-0.750000X-0.600000X0*%
%ADD29O,2.000000X1.700000*%
%ADD30C,1.700000*%
%ADD31C,1.400000*%
%ADD32C,2.000000*%
%ADD33C,1.524000*%
%ADD34O,1.524000X2.000000*%
%ADD35O,2.000000X1.524000*%
%ADD36C,4.300000*%
%ADD37R,1.560000X1.560000*%
%ADD38C,1.560000*%
%ADD39R,1.800000X1.100000*%
%ADD40RoundRect,0.275000X-0.625000X0.275000X-0.625000X-0.275000X0.625000X-0.275000X0.625000X0.275000X0*%
%ADD41R,1.200000X1.200000*%
%ADD42C,1.200000*%
%ADD43RoundRect,0.250000X0.600000X0.750000X-0.600000X0.750000X-0.600000X-0.750000X0.600000X-0.750000X0*%
G04 APERTURE END LIST*
D10*
X186459285Y-76398380D02*
X186459285Y-75398380D01*
X186459285Y-75874571D02*
X185887857Y-75874571D01*
X185887857Y-76398380D02*
X185887857Y-75398380D01*
X185030714Y-76350761D02*
X185125952Y-76398380D01*
X185316428Y-76398380D01*
X185411666Y-76350761D01*
X185459285Y-76255523D01*
X185459285Y-75874571D01*
X185411666Y-75779333D01*
X185316428Y-75731714D01*
X185125952Y-75731714D01*
X185030714Y-75779333D01*
X184983095Y-75874571D01*
X184983095Y-75969809D01*
X185459285Y-76065047D01*
X184411666Y-76398380D02*
X184506904Y-76350761D01*
X184554523Y-76255523D01*
X184554523Y-75398380D01*
X183887857Y-76398380D02*
X183983095Y-76350761D01*
X184030714Y-76255523D01*
X184030714Y-75398380D01*
X183364047Y-76398380D02*
X183459285Y-76350761D01*
X183506904Y-76303142D01*
X183554523Y-76207904D01*
X183554523Y-75922190D01*
X183506904Y-75826952D01*
X183459285Y-75779333D01*
X183364047Y-75731714D01*
X183221190Y-75731714D01*
X183125952Y-75779333D01*
X183078333Y-75826952D01*
X183030714Y-75922190D01*
X183030714Y-76207904D01*
X183078333Y-76303142D01*
X183125952Y-76350761D01*
X183221190Y-76398380D01*
X183364047Y-76398380D01*
X181983095Y-75731714D02*
X181602142Y-75731714D01*
X181840238Y-75398380D02*
X181840238Y-76255523D01*
X181792619Y-76350761D01*
X181697380Y-76398380D01*
X181602142Y-76398380D01*
X181268809Y-76398380D02*
X181268809Y-75398380D01*
X180840238Y-76398380D02*
X180840238Y-75874571D01*
X180887857Y-75779333D01*
X180983095Y-75731714D01*
X181125952Y-75731714D01*
X181221190Y-75779333D01*
X181268809Y-75826952D01*
X179983095Y-76350761D02*
X180078333Y-76398380D01*
X180268809Y-76398380D01*
X180364047Y-76350761D01*
X180411666Y-76255523D01*
X180411666Y-75874571D01*
X180364047Y-75779333D01*
X180268809Y-75731714D01*
X180078333Y-75731714D01*
X179983095Y-75779333D01*
X179935476Y-75874571D01*
X179935476Y-75969809D01*
X180411666Y-76065047D01*
X179506904Y-76398380D02*
X179506904Y-75731714D01*
X179506904Y-75922190D02*
X179459285Y-75826952D01*
X179411666Y-75779333D01*
X179316428Y-75731714D01*
X179221190Y-75731714D01*
X178506904Y-76350761D02*
X178602142Y-76398380D01*
X178792619Y-76398380D01*
X178887857Y-76350761D01*
X178935476Y-76255523D01*
X178935476Y-75874571D01*
X178887857Y-75779333D01*
X178792619Y-75731714D01*
X178602142Y-75731714D01*
X178506904Y-75779333D01*
X178459285Y-75874571D01*
X178459285Y-75969809D01*
X178935476Y-76065047D01*
X178030714Y-76303142D02*
X177983095Y-76350761D01*
X178030714Y-76398380D01*
X178078333Y-76350761D01*
X178030714Y-76303142D01*
X178030714Y-76398380D01*
X178030714Y-76017428D02*
X178078333Y-75446000D01*
X178030714Y-75398380D01*
X177983095Y-75446000D01*
X178030714Y-76017428D01*
X178030714Y-75398380D01*
X208176619Y-70724380D02*
X208176619Y-69724380D01*
X207605190Y-70724380D01*
X207605190Y-69724380D01*
X206748047Y-70676761D02*
X206843285Y-70724380D01*
X207033761Y-70724380D01*
X207129000Y-70676761D01*
X207176619Y-70581523D01*
X207176619Y-70200571D01*
X207129000Y-70105333D01*
X207033761Y-70057714D01*
X206843285Y-70057714D01*
X206748047Y-70105333D01*
X206700428Y-70200571D01*
X206700428Y-70295809D01*
X207176619Y-70391047D01*
X205843285Y-70676761D02*
X205938523Y-70724380D01*
X206129000Y-70724380D01*
X206224238Y-70676761D01*
X206271857Y-70629142D01*
X206319476Y-70533904D01*
X206319476Y-70248190D01*
X206271857Y-70152952D01*
X206224238Y-70105333D01*
X206129000Y-70057714D01*
X205938523Y-70057714D01*
X205843285Y-70105333D01*
X205414714Y-70724380D02*
X205414714Y-69724380D01*
X205319476Y-70343428D02*
X205033761Y-70724380D01*
X205033761Y-70057714D02*
X205414714Y-70438666D01*
X209890904Y-71858190D02*
X209890904Y-72334380D01*
X210224238Y-71334380D02*
X209890904Y-71858190D01*
X209557571Y-71334380D01*
X209224238Y-72239142D02*
X209176619Y-72286761D01*
X209224238Y-72334380D01*
X209271857Y-72286761D01*
X209224238Y-72239142D01*
X209224238Y-72334380D01*
X209224238Y-71715333D02*
X209176619Y-71762952D01*
X209224238Y-71810571D01*
X209271857Y-71762952D01*
X209224238Y-71715333D01*
X209224238Y-71810571D01*
X208557571Y-71334380D02*
X208367095Y-71334380D01*
X208271857Y-71382000D01*
X208176619Y-71477238D01*
X208129000Y-71667714D01*
X208129000Y-72001047D01*
X208176619Y-72191523D01*
X208271857Y-72286761D01*
X208367095Y-72334380D01*
X208557571Y-72334380D01*
X208652809Y-72286761D01*
X208748047Y-72191523D01*
X208795666Y-72001047D01*
X208795666Y-71667714D01*
X208748047Y-71477238D01*
X208652809Y-71382000D01*
X208557571Y-71334380D01*
X206605190Y-71810571D02*
X206462333Y-71858190D01*
X206414714Y-71905809D01*
X206367095Y-72001047D01*
X206367095Y-72143904D01*
X206414714Y-72239142D01*
X206462333Y-72286761D01*
X206557571Y-72334380D01*
X206938523Y-72334380D01*
X206938523Y-71334380D01*
X206605190Y-71334380D01*
X206509952Y-71382000D01*
X206462333Y-71429619D01*
X206414714Y-71524857D01*
X206414714Y-71620095D01*
X206462333Y-71715333D01*
X206509952Y-71762952D01*
X206605190Y-71810571D01*
X206938523Y-71810571D01*
X205938523Y-72334380D02*
X205938523Y-71334380D01*
X205367095Y-72334380D02*
X205795666Y-71762952D01*
X205367095Y-71334380D02*
X205938523Y-71905809D01*
X204938523Y-72239142D02*
X204890904Y-72286761D01*
X204938523Y-72334380D01*
X204986142Y-72286761D01*
X204938523Y-72239142D01*
X204938523Y-72334380D01*
X204938523Y-71715333D02*
X204890904Y-71762952D01*
X204938523Y-71810571D01*
X204986142Y-71762952D01*
X204938523Y-71715333D01*
X204938523Y-71810571D01*
X204129000Y-71810571D02*
X203986142Y-71858190D01*
X203938523Y-71905809D01*
X203890904Y-72001047D01*
X203890904Y-72143904D01*
X203938523Y-72239142D01*
X203986142Y-72286761D01*
X204081380Y-72334380D01*
X204462333Y-72334380D01*
X204462333Y-71334380D01*
X204129000Y-71334380D01*
X204033761Y-71382000D01*
X203986142Y-71429619D01*
X203938523Y-71524857D01*
X203938523Y-71620095D01*
X203986142Y-71715333D01*
X204033761Y-71762952D01*
X204129000Y-71810571D01*
X204462333Y-71810571D01*
X207748047Y-73944380D02*
X208081380Y-73468190D01*
X208319476Y-73944380D02*
X208319476Y-72944380D01*
X207938523Y-72944380D01*
X207843285Y-72992000D01*
X207795666Y-73039619D01*
X207748047Y-73134857D01*
X207748047Y-73277714D01*
X207795666Y-73372952D01*
X207843285Y-73420571D01*
X207938523Y-73468190D01*
X208319476Y-73468190D01*
X207319476Y-73849142D02*
X207271857Y-73896761D01*
X207319476Y-73944380D01*
X207367095Y-73896761D01*
X207319476Y-73849142D01*
X207319476Y-73944380D01*
X207319476Y-73325333D02*
X207271857Y-73372952D01*
X207319476Y-73420571D01*
X207367095Y-73372952D01*
X207319476Y-73325333D01*
X207319476Y-73420571D01*
X206938523Y-72944380D02*
X206319476Y-72944380D01*
X206652809Y-73325333D01*
X206509952Y-73325333D01*
X206414714Y-73372952D01*
X206367095Y-73420571D01*
X206319476Y-73515809D01*
X206319476Y-73753904D01*
X206367095Y-73849142D01*
X206414714Y-73896761D01*
X206509952Y-73944380D01*
X206795666Y-73944380D01*
X206890904Y-73896761D01*
X206938523Y-73849142D01*
X205890904Y-73849142D02*
X205843285Y-73896761D01*
X205890904Y-73944380D01*
X205938523Y-73896761D01*
X205890904Y-73849142D01*
X205890904Y-73944380D01*
X205509952Y-72944380D02*
X204890904Y-72944380D01*
X205224238Y-73325333D01*
X205081380Y-73325333D01*
X204986142Y-73372952D01*
X204938523Y-73420571D01*
X204890904Y-73515809D01*
X204890904Y-73753904D01*
X204938523Y-73849142D01*
X204986142Y-73896761D01*
X205081380Y-73944380D01*
X205367095Y-73944380D01*
X205462333Y-73896761D01*
X205509952Y-73849142D01*
D11*
X230424714Y-79456304D02*
X226996142Y-79456304D01*
X228710428Y-84456304D02*
X228710428Y-79456304D01*
X224996142Y-81837257D02*
X222996142Y-81837257D01*
X222139000Y-84456304D02*
X224996142Y-84456304D01*
X224996142Y-79456304D01*
X222139000Y-79456304D01*
X219853285Y-84218209D02*
X218996142Y-84456304D01*
X217567571Y-84456304D01*
X216996142Y-84218209D01*
X216710428Y-83980114D01*
X216424714Y-83503923D01*
X216424714Y-83027733D01*
X216710428Y-82551542D01*
X216996142Y-82313447D01*
X217567571Y-82075352D01*
X218710428Y-81837257D01*
X219281857Y-81599161D01*
X219567571Y-81361066D01*
X219853285Y-80884876D01*
X219853285Y-80408685D01*
X219567571Y-79932495D01*
X219281857Y-79694400D01*
X218710428Y-79456304D01*
X217281857Y-79456304D01*
X216424714Y-79694400D01*
D12*
X245939857Y-22640857D02*
X245939857Y-21440857D01*
X245654142Y-21440857D01*
X245482714Y-21498000D01*
X245368428Y-21612285D01*
X245311285Y-21726571D01*
X245254142Y-21955142D01*
X245254142Y-22126571D01*
X245311285Y-22355142D01*
X245368428Y-22469428D01*
X245482714Y-22583714D01*
X245654142Y-22640857D01*
X245939857Y-22640857D01*
X244282714Y-22583714D02*
X244397000Y-22640857D01*
X244625571Y-22640857D01*
X244739857Y-22583714D01*
X244797000Y-22469428D01*
X244797000Y-22012285D01*
X244739857Y-21898000D01*
X244625571Y-21840857D01*
X244397000Y-21840857D01*
X244282714Y-21898000D01*
X244225571Y-22012285D01*
X244225571Y-22126571D01*
X244797000Y-22240857D01*
X243768428Y-22583714D02*
X243654142Y-22640857D01*
X243425571Y-22640857D01*
X243311285Y-22583714D01*
X243254142Y-22469428D01*
X243254142Y-22412285D01*
X243311285Y-22298000D01*
X243425571Y-22240857D01*
X243597000Y-22240857D01*
X243711285Y-22183714D01*
X243768428Y-22069428D01*
X243768428Y-22012285D01*
X243711285Y-21898000D01*
X243597000Y-21840857D01*
X243425571Y-21840857D01*
X243311285Y-21898000D01*
X242739857Y-22640857D02*
X242739857Y-21840857D01*
X242739857Y-21440857D02*
X242797000Y-21498000D01*
X242739857Y-21555142D01*
X242682714Y-21498000D01*
X242739857Y-21440857D01*
X242739857Y-21555142D01*
X241654142Y-21840857D02*
X241654142Y-22812285D01*
X241711285Y-22926571D01*
X241768428Y-22983714D01*
X241882714Y-23040857D01*
X242054142Y-23040857D01*
X242168428Y-22983714D01*
X241654142Y-22583714D02*
X241768428Y-22640857D01*
X241997000Y-22640857D01*
X242111285Y-22583714D01*
X242168428Y-22526571D01*
X242225571Y-22412285D01*
X242225571Y-22069428D01*
X242168428Y-21955142D01*
X242111285Y-21898000D01*
X241997000Y-21840857D01*
X241768428Y-21840857D01*
X241654142Y-21898000D01*
X241082714Y-21840857D02*
X241082714Y-22640857D01*
X241082714Y-21955142D02*
X241025571Y-21898000D01*
X240911285Y-21840857D01*
X240739857Y-21840857D01*
X240625571Y-21898000D01*
X240568428Y-22012285D01*
X240568428Y-22640857D01*
X239539857Y-22583714D02*
X239654142Y-22640857D01*
X239882714Y-22640857D01*
X239997000Y-22583714D01*
X240054142Y-22469428D01*
X240054142Y-22012285D01*
X239997000Y-21898000D01*
X239882714Y-21840857D01*
X239654142Y-21840857D01*
X239539857Y-21898000D01*
X239482714Y-22012285D01*
X239482714Y-22126571D01*
X240054142Y-22240857D01*
X238454142Y-22640857D02*
X238454142Y-21440857D01*
X238454142Y-22583714D02*
X238568428Y-22640857D01*
X238797000Y-22640857D01*
X238911285Y-22583714D01*
X238968428Y-22526571D01*
X239025571Y-22412285D01*
X239025571Y-22069428D01*
X238968428Y-21955142D01*
X238911285Y-21898000D01*
X238797000Y-21840857D01*
X238568428Y-21840857D01*
X238454142Y-21898000D01*
X236454142Y-22640857D02*
X236454142Y-22012285D01*
X236511285Y-21898000D01*
X236625571Y-21840857D01*
X236854142Y-21840857D01*
X236968428Y-21898000D01*
X236454142Y-22583714D02*
X236568428Y-22640857D01*
X236854142Y-22640857D01*
X236968428Y-22583714D01*
X237025571Y-22469428D01*
X237025571Y-22355142D01*
X236968428Y-22240857D01*
X236854142Y-22183714D01*
X236568428Y-22183714D01*
X236454142Y-22126571D01*
X235882714Y-21840857D02*
X235882714Y-22640857D01*
X235882714Y-21955142D02*
X235825571Y-21898000D01*
X235711285Y-21840857D01*
X235539857Y-21840857D01*
X235425571Y-21898000D01*
X235368428Y-22012285D01*
X235368428Y-22640857D01*
X234282714Y-22640857D02*
X234282714Y-21440857D01*
X234282714Y-22583714D02*
X234397000Y-22640857D01*
X234625571Y-22640857D01*
X234739857Y-22583714D01*
X234797000Y-22526571D01*
X234854142Y-22412285D01*
X234854142Y-22069428D01*
X234797000Y-21955142D01*
X234739857Y-21898000D01*
X234625571Y-21840857D01*
X234397000Y-21840857D01*
X234282714Y-21898000D01*
X232282714Y-22640857D02*
X232282714Y-22012285D01*
X232339857Y-21898000D01*
X232454142Y-21840857D01*
X232682714Y-21840857D01*
X232797000Y-21898000D01*
X232282714Y-22583714D02*
X232397000Y-22640857D01*
X232682714Y-22640857D01*
X232797000Y-22583714D01*
X232854142Y-22469428D01*
X232854142Y-22355142D01*
X232797000Y-22240857D01*
X232682714Y-22183714D01*
X232397000Y-22183714D01*
X232282714Y-22126571D01*
X231768428Y-22583714D02*
X231654142Y-22640857D01*
X231425571Y-22640857D01*
X231311285Y-22583714D01*
X231254142Y-22469428D01*
X231254142Y-22412285D01*
X231311285Y-22298000D01*
X231425571Y-22240857D01*
X231597000Y-22240857D01*
X231711285Y-22183714D01*
X231768428Y-22069428D01*
X231768428Y-22012285D01*
X231711285Y-21898000D01*
X231597000Y-21840857D01*
X231425571Y-21840857D01*
X231311285Y-21898000D01*
X230797000Y-22583714D02*
X230682714Y-22640857D01*
X230454142Y-22640857D01*
X230339857Y-22583714D01*
X230282714Y-22469428D01*
X230282714Y-22412285D01*
X230339857Y-22298000D01*
X230454142Y-22240857D01*
X230625571Y-22240857D01*
X230739857Y-22183714D01*
X230797000Y-22069428D01*
X230797000Y-22012285D01*
X230739857Y-21898000D01*
X230625571Y-21840857D01*
X230454142Y-21840857D01*
X230339857Y-21898000D01*
X229311285Y-22583714D02*
X229425571Y-22640857D01*
X229654142Y-22640857D01*
X229768428Y-22583714D01*
X229825571Y-22469428D01*
X229825571Y-22012285D01*
X229768428Y-21898000D01*
X229654142Y-21840857D01*
X229425571Y-21840857D01*
X229311285Y-21898000D01*
X229254142Y-22012285D01*
X229254142Y-22126571D01*
X229825571Y-22240857D01*
X228739857Y-22640857D02*
X228739857Y-21840857D01*
X228739857Y-21955142D02*
X228682714Y-21898000D01*
X228568428Y-21840857D01*
X228397000Y-21840857D01*
X228282714Y-21898000D01*
X228225571Y-22012285D01*
X228225571Y-22640857D01*
X228225571Y-22012285D02*
X228168428Y-21898000D01*
X228054142Y-21840857D01*
X227882714Y-21840857D01*
X227768428Y-21898000D01*
X227711285Y-22012285D01*
X227711285Y-22640857D01*
X227139857Y-22640857D02*
X227139857Y-21440857D01*
X227139857Y-21898000D02*
X227025571Y-21840857D01*
X226797000Y-21840857D01*
X226682714Y-21898000D01*
X226625571Y-21955142D01*
X226568428Y-22069428D01*
X226568428Y-22412285D01*
X226625571Y-22526571D01*
X226682714Y-22583714D01*
X226797000Y-22640857D01*
X227025571Y-22640857D01*
X227139857Y-22583714D01*
X225882714Y-22640857D02*
X225997000Y-22583714D01*
X226054142Y-22469428D01*
X226054142Y-21440857D01*
X224968428Y-22583714D02*
X225082714Y-22640857D01*
X225311285Y-22640857D01*
X225425571Y-22583714D01*
X225482714Y-22469428D01*
X225482714Y-22012285D01*
X225425571Y-21898000D01*
X225311285Y-21840857D01*
X225082714Y-21840857D01*
X224968428Y-21898000D01*
X224911285Y-22012285D01*
X224911285Y-22126571D01*
X225482714Y-22240857D01*
X223882714Y-22640857D02*
X223882714Y-21440857D01*
X223882714Y-22583714D02*
X223997000Y-22640857D01*
X224225571Y-22640857D01*
X224339857Y-22583714D01*
X224397000Y-22526571D01*
X224454142Y-22412285D01*
X224454142Y-22069428D01*
X224397000Y-21955142D01*
X224339857Y-21898000D01*
X224225571Y-21840857D01*
X223997000Y-21840857D01*
X223882714Y-21898000D01*
X222397000Y-22640857D02*
X222397000Y-21840857D01*
X222397000Y-21440857D02*
X222454142Y-21498000D01*
X222397000Y-21555142D01*
X222339857Y-21498000D01*
X222397000Y-21440857D01*
X222397000Y-21555142D01*
X221825571Y-21840857D02*
X221825571Y-22640857D01*
X221825571Y-21955142D02*
X221768428Y-21898000D01*
X221654142Y-21840857D01*
X221482714Y-21840857D01*
X221368428Y-21898000D01*
X221311285Y-22012285D01*
X221311285Y-22640857D01*
X219825571Y-22640857D02*
X219825571Y-21440857D01*
X219139857Y-22640857D01*
X219139857Y-21440857D01*
X218397000Y-22640857D02*
X218511285Y-22583714D01*
X218568428Y-22526571D01*
X218625571Y-22412285D01*
X218625571Y-22069428D01*
X218568428Y-21955142D01*
X218511285Y-21898000D01*
X218397000Y-21840857D01*
X218225571Y-21840857D01*
X218111285Y-21898000D01*
X218054142Y-21955142D01*
X217997000Y-22069428D01*
X217997000Y-22412285D01*
X218054142Y-22526571D01*
X218111285Y-22583714D01*
X218225571Y-22640857D01*
X218397000Y-22640857D01*
X217482714Y-22640857D02*
X217482714Y-21840857D01*
X217482714Y-22069428D02*
X217425571Y-21955142D01*
X217368428Y-21898000D01*
X217254142Y-21840857D01*
X217139857Y-21840857D01*
X216854142Y-21840857D02*
X216625571Y-22640857D01*
X216397000Y-22069428D01*
X216168428Y-22640857D01*
X215939857Y-21840857D01*
X214968428Y-22640857D02*
X214968428Y-22012285D01*
X215025571Y-21898000D01*
X215139857Y-21840857D01*
X215368428Y-21840857D01*
X215482714Y-21898000D01*
X214968428Y-22583714D02*
X215082714Y-22640857D01*
X215368428Y-22640857D01*
X215482714Y-22583714D01*
X215539857Y-22469428D01*
X215539857Y-22355142D01*
X215482714Y-22240857D01*
X215368428Y-22183714D01*
X215082714Y-22183714D01*
X214968428Y-22126571D01*
X214511285Y-21840857D02*
X214225571Y-22640857D01*
X213939857Y-21840857D02*
X214225571Y-22640857D01*
X214339857Y-22926571D01*
X214397000Y-22983714D01*
X214511285Y-23040857D01*
D10*
X211534333Y-72858380D02*
X211534333Y-73572666D01*
X211581952Y-73715523D01*
X211677190Y-73810761D01*
X211820047Y-73858380D01*
X211915285Y-73858380D01*
X210629571Y-72858380D02*
X210820047Y-72858380D01*
X210915285Y-72906000D01*
X210962904Y-72953619D01*
X211058142Y-73096476D01*
X211105761Y-73286952D01*
X211105761Y-73667904D01*
X211058142Y-73763142D01*
X211010523Y-73810761D01*
X210915285Y-73858380D01*
X210724809Y-73858380D01*
X210629571Y-73810761D01*
X210581952Y-73763142D01*
X210534333Y-73667904D01*
X210534333Y-73429809D01*
X210581952Y-73334571D01*
X210629571Y-73286952D01*
X210724809Y-73239333D01*
X210915285Y-73239333D01*
X211010523Y-73286952D01*
X211058142Y-73334571D01*
X211105761Y-73429809D01*
X252448333Y-92726380D02*
X252448333Y-93440666D01*
X252495952Y-93583523D01*
X252591190Y-93678761D01*
X252734047Y-93726380D01*
X252829285Y-93726380D01*
X251495952Y-92726380D02*
X251972142Y-92726380D01*
X252019761Y-93202571D01*
X251972142Y-93154952D01*
X251876904Y-93107333D01*
X251638809Y-93107333D01*
X251543571Y-93154952D01*
X251495952Y-93202571D01*
X251448333Y-93297809D01*
X251448333Y-93535904D01*
X251495952Y-93631142D01*
X251543571Y-93678761D01*
X251638809Y-93726380D01*
X251876904Y-93726380D01*
X251972142Y-93678761D01*
X252019761Y-93631142D01*
X250253380Y-93146571D02*
X250110523Y-93194190D01*
X250062904Y-93241809D01*
X250015285Y-93337047D01*
X250015285Y-93479904D01*
X250062904Y-93575142D01*
X250110523Y-93622761D01*
X250205761Y-93670380D01*
X250586714Y-93670380D01*
X250586714Y-92670380D01*
X250253380Y-92670380D01*
X250158142Y-92718000D01*
X250110523Y-92765619D01*
X250062904Y-92860857D01*
X250062904Y-92956095D01*
X250110523Y-93051333D01*
X250158142Y-93098952D01*
X250253380Y-93146571D01*
X250586714Y-93146571D01*
X249158142Y-93670380D02*
X249158142Y-93146571D01*
X249205761Y-93051333D01*
X249301000Y-93003714D01*
X249491476Y-93003714D01*
X249586714Y-93051333D01*
X249158142Y-93622761D02*
X249253380Y-93670380D01*
X249491476Y-93670380D01*
X249586714Y-93622761D01*
X249634333Y-93527523D01*
X249634333Y-93432285D01*
X249586714Y-93337047D01*
X249491476Y-93289428D01*
X249253380Y-93289428D01*
X249158142Y-93241809D01*
X248824809Y-93003714D02*
X248443857Y-93003714D01*
X248681952Y-92670380D02*
X248681952Y-93527523D01*
X248634333Y-93622761D01*
X248539095Y-93670380D01*
X248443857Y-93670380D01*
X248253380Y-93003714D02*
X247872428Y-93003714D01*
X248110523Y-92670380D02*
X248110523Y-93527523D01*
X248062904Y-93622761D01*
X247967666Y-93670380D01*
X247872428Y-93670380D01*
D13*
X206745000Y-78844000D02*
X206745000Y-78344000D01*
X209145000Y-75344000D02*
X211095000Y-75344000D01*
X206545000Y-78344000D02*
X206545000Y-78844000D01*
X206745000Y-78344000D02*
X206545000Y-78344000D01*
X209945000Y-74734000D02*
X209945000Y-74534000D01*
X208745000Y-78844000D02*
X208745000Y-78344000D01*
X211705000Y-74734000D02*
X211705000Y-79454000D01*
X204645000Y-78844000D02*
X204645000Y-78344000D01*
X211095000Y-78844000D02*
X202195000Y-78844000D01*
X211705000Y-79454000D02*
X201585000Y-79454000D01*
X209145000Y-74734000D02*
X209145000Y-75344000D01*
X201585000Y-79454000D02*
X201585000Y-74734000D01*
X201585000Y-76044000D02*
X202195000Y-76044000D01*
X212005000Y-74434000D02*
X212005000Y-75684000D01*
X208745000Y-78344000D02*
X208545000Y-78344000D01*
X210245000Y-74534000D02*
X210245000Y-74734000D01*
X210755000Y-74434000D02*
X212005000Y-74434000D01*
X209945000Y-74634000D02*
X210245000Y-74634000D01*
X209945000Y-74534000D02*
X210245000Y-74534000D01*
X204745000Y-78344000D02*
X204545000Y-78344000D01*
X208545000Y-78344000D02*
X208545000Y-78844000D01*
X208645000Y-78844000D02*
X208645000Y-78344000D01*
X202195000Y-75344000D02*
X204145000Y-75344000D01*
X201585000Y-74734000D02*
X211705000Y-74734000D01*
X201585000Y-77344000D02*
X202195000Y-77344000D01*
X211095000Y-75344000D02*
X211095000Y-78844000D01*
X202195000Y-78844000D02*
X202195000Y-75344000D01*
X204545000Y-78344000D02*
X204545000Y-78844000D01*
X211705000Y-77344000D02*
X211095000Y-77344000D01*
X211705000Y-76044000D02*
X211095000Y-76044000D01*
X206645000Y-78844000D02*
X206645000Y-78344000D01*
X204145000Y-75344000D02*
X204145000Y-74734000D01*
X204745000Y-78844000D02*
X204745000Y-78344000D01*
X253615000Y-99974000D02*
X253615000Y-105474000D01*
X248305000Y-94364000D02*
X249725000Y-94364000D01*
X253115000Y-99974000D02*
X253615000Y-99974000D01*
X252115000Y-106084000D02*
X255925000Y-106084000D01*
X249725000Y-98864000D02*
X252115000Y-98864000D01*
X254505000Y-94364000D02*
X254505000Y-98864000D01*
X253065000Y-94674000D02*
X253365000Y-95274000D01*
X254505000Y-98864000D02*
X252115000Y-98864000D01*
X253665000Y-94674000D02*
X253065000Y-94674000D01*
X250615000Y-99974000D02*
X251115000Y-99974000D01*
X250615000Y-105474000D02*
X250615000Y-99974000D01*
X253615000Y-105474000D02*
X253115000Y-105474000D01*
X249725000Y-94364000D02*
X249725000Y-98864000D01*
X253365000Y-95274000D02*
X253665000Y-94674000D01*
X255925000Y-94364000D02*
X254505000Y-94364000D01*
X251115000Y-105474000D02*
X250615000Y-105474000D01*
X251115000Y-99974000D02*
X251115000Y-105474000D01*
X253115000Y-105474000D02*
X253115000Y-99974000D01*
X255925000Y-106084000D02*
X255925000Y-94364000D01*
X252115000Y-106084000D02*
X248305000Y-106084000D01*
X248305000Y-106084000D02*
X248305000Y-94364000D01*
G36*
X222162711Y-42241084D02*
G01*
X222201446Y-42267850D01*
X222246494Y-42318481D01*
X222265034Y-42343214D01*
X222360885Y-42464223D01*
X222486342Y-42614517D01*
X222636872Y-42789118D01*
X222807940Y-42983047D01*
X222995015Y-43191327D01*
X223193563Y-43408977D01*
X223399049Y-43631021D01*
X223606942Y-43852479D01*
X223812708Y-44068372D01*
X224011814Y-44273723D01*
X224199725Y-44463553D01*
X224348418Y-44610829D01*
X224911476Y-45148438D01*
X225465548Y-45645540D01*
X226009704Y-46101526D01*
X226543018Y-46515789D01*
X227064561Y-46887720D01*
X227573405Y-47216710D01*
X228068622Y-47502153D01*
X228549285Y-47743438D01*
X229014464Y-47939959D01*
X229463233Y-48091107D01*
X229894663Y-48196273D01*
X229913652Y-48199897D01*
X230192416Y-48241892D01*
X230513079Y-48272018D01*
X230869499Y-48290552D01*
X231255532Y-48297771D01*
X231665037Y-48293951D01*
X232091870Y-48279369D01*
X232529890Y-48254300D01*
X232972954Y-48219021D01*
X233414920Y-48173808D01*
X233849644Y-48118938D01*
X234270985Y-48054686D01*
X234672800Y-47981330D01*
X234892431Y-47935815D01*
X235467060Y-47799407D01*
X236003952Y-47645727D01*
X236501589Y-47475430D01*
X236958452Y-47289171D01*
X237373023Y-47087604D01*
X237743784Y-46871383D01*
X238069216Y-46641162D01*
X238347800Y-46397597D01*
X238363953Y-46381760D01*
X238428072Y-46316823D01*
X238455297Y-46275897D01*
X238442728Y-46249933D01*
X238387464Y-46229883D01*
X238286604Y-46206698D01*
X238252824Y-46196299D01*
X238236531Y-46178463D01*
X238260291Y-46161683D01*
X238318125Y-46149148D01*
X238404050Y-46144050D01*
X238408459Y-46144042D01*
X238479902Y-46147475D01*
X238514056Y-46160875D01*
X238522800Y-46188710D01*
X238522932Y-46192403D01*
X238537736Y-46220361D01*
X238583641Y-46242689D01*
X238670019Y-46264189D01*
X238746262Y-46280479D01*
X239096089Y-46366597D01*
X239473746Y-46475839D01*
X239868262Y-46604144D01*
X240268665Y-46747450D01*
X240663985Y-46901697D01*
X241043250Y-47062822D01*
X241395488Y-47226764D01*
X241709728Y-47389461D01*
X242087093Y-47613881D01*
X242467035Y-47874591D01*
X242844737Y-48169958D01*
X243223292Y-48502705D01*
X243605792Y-48875553D01*
X243995332Y-49291225D01*
X244395004Y-49752441D01*
X244454841Y-49824611D01*
X244570704Y-49967456D01*
X244692478Y-50120999D01*
X244816458Y-50280255D01*
X244938936Y-50440239D01*
X245056208Y-50595966D01*
X245164565Y-50742453D01*
X245260303Y-50874714D01*
X245339715Y-50987765D01*
X245399094Y-51076621D01*
X245434735Y-51136297D01*
X245442930Y-51161810D01*
X245437701Y-51161459D01*
X245400941Y-51142005D01*
X245338068Y-51101082D01*
X245258870Y-51044906D01*
X245121397Y-50945568D01*
X244911300Y-50799133D01*
X244700156Y-50657779D01*
X244494748Y-50525741D01*
X244301859Y-50407254D01*
X244128272Y-50306552D01*
X243980770Y-50227870D01*
X243866136Y-50175442D01*
X243740421Y-50130858D01*
X243543545Y-50073579D01*
X243320288Y-50019640D01*
X243083942Y-49972188D01*
X242847800Y-49934370D01*
X242769921Y-49925641D01*
X242655536Y-49916093D01*
X242516805Y-49906686D01*
X242361153Y-49897714D01*
X242196006Y-49889471D01*
X242028788Y-49882252D01*
X241866924Y-49876350D01*
X241717840Y-49872061D01*
X241588960Y-49869678D01*
X241487710Y-49869495D01*
X241421515Y-49871807D01*
X241397800Y-49876909D01*
X241397933Y-49877749D01*
X241407867Y-49909232D01*
X241431772Y-49979537D01*
X241467093Y-50081293D01*
X241511272Y-50207127D01*
X241561752Y-50349665D01*
X241799143Y-51040986D01*
X242086132Y-51949155D01*
X242346097Y-52858861D01*
X242577591Y-53764009D01*
X242779170Y-54658500D01*
X242949387Y-55536237D01*
X243086797Y-56391125D01*
X243189955Y-57217066D01*
X243202905Y-57364816D01*
X243216042Y-57585366D01*
X243225961Y-57838771D01*
X243232662Y-58115829D01*
X243236146Y-58407342D01*
X243236416Y-58704108D01*
X243233472Y-58996929D01*
X243227315Y-59276603D01*
X243217947Y-59533932D01*
X243205368Y-59759714D01*
X243189581Y-59944751D01*
X243154787Y-60248461D01*
X243045909Y-61019211D01*
X242908561Y-61769094D01*
X242739463Y-62514802D01*
X242535332Y-63273027D01*
X242526727Y-63302721D01*
X242463637Y-63516954D01*
X242398649Y-63731057D01*
X242330301Y-63949288D01*
X242257128Y-64175904D01*
X242177668Y-64415161D01*
X242090458Y-64671317D01*
X241994034Y-64948627D01*
X241886933Y-65251350D01*
X241767692Y-65583742D01*
X241634848Y-65950060D01*
X241486937Y-66354560D01*
X241322497Y-66801500D01*
X241200013Y-67133778D01*
X241076134Y-67470411D01*
X240966334Y-67769594D01*
X240868819Y-68036344D01*
X240781793Y-68275680D01*
X240703462Y-68492621D01*
X240632028Y-68692183D01*
X240565699Y-68879386D01*
X240502677Y-69059248D01*
X240441168Y-69236787D01*
X240379377Y-69417022D01*
X240315509Y-69604970D01*
X240247767Y-69805650D01*
X240237352Y-69836509D01*
X240049325Y-70368868D01*
X239851375Y-70881488D01*
X239639278Y-71383571D01*
X239408809Y-71884318D01*
X239155741Y-72392931D01*
X238875851Y-72918613D01*
X238564911Y-73470564D01*
X238367763Y-73805923D01*
X238039520Y-74341642D01*
X237682739Y-74899741D01*
X237302344Y-75473196D01*
X236903259Y-76054981D01*
X236490405Y-76638071D01*
X236068708Y-77215442D01*
X235643089Y-77780067D01*
X235218473Y-78324923D01*
X234799783Y-78842983D01*
X234725426Y-78932063D01*
X234662235Y-79005645D01*
X234617258Y-79055652D01*
X234597166Y-79074461D01*
X234595090Y-79070041D01*
X234588005Y-79027252D01*
X234578289Y-78944765D01*
X234566680Y-78829697D01*
X234553917Y-78689164D01*
X234540736Y-78530283D01*
X234526740Y-78360191D01*
X234472467Y-77781677D01*
X234405912Y-77171707D01*
X234328753Y-76542851D01*
X234242669Y-75907682D01*
X234149340Y-75278771D01*
X234050444Y-74668689D01*
X233947661Y-74090009D01*
X233907731Y-73877757D01*
X233835528Y-73505057D01*
X233763695Y-73150334D01*
X233690325Y-72805367D01*
X233613515Y-72461936D01*
X233531359Y-72111822D01*
X233441953Y-71746803D01*
X233343392Y-71358660D01*
X233233772Y-70939172D01*
X233111187Y-70480120D01*
X233052202Y-70252076D01*
X232957503Y-69846422D01*
X232865143Y-69400343D01*
X232775018Y-68913040D01*
X232687026Y-68383709D01*
X232601064Y-67811552D01*
X232517030Y-67195766D01*
X232434822Y-66535550D01*
X232354336Y-65830104D01*
X232275471Y-65078626D01*
X232198123Y-64280315D01*
X232122190Y-63434371D01*
X232047571Y-62539992D01*
X231974161Y-61596376D01*
X231931124Y-61014098D01*
X231881642Y-60316995D01*
X231834249Y-59616992D01*
X231788712Y-58909805D01*
X231744797Y-58191147D01*
X231702270Y-57456732D01*
X231660897Y-56702273D01*
X231620444Y-55923485D01*
X231580677Y-55116080D01*
X231541361Y-54275774D01*
X231502264Y-53398279D01*
X231463151Y-52479310D01*
X231423788Y-51514580D01*
X231419089Y-51400373D01*
X231412204Y-51244170D01*
X231405753Y-51110231D01*
X231400096Y-51005493D01*
X231395589Y-50936894D01*
X231392593Y-50911372D01*
X231386700Y-50914857D01*
X231347984Y-50943918D01*
X231276658Y-50999692D01*
X231176777Y-51078941D01*
X231052396Y-51178428D01*
X230907570Y-51294916D01*
X230746353Y-51425167D01*
X230572800Y-51565943D01*
X230508365Y-51618195D01*
X230330387Y-51761275D01*
X230167941Y-51890040D01*
X230024859Y-52001560D01*
X229904973Y-52092900D01*
X229812114Y-52161130D01*
X229750112Y-52203315D01*
X229722800Y-52216525D01*
X229709199Y-52209840D01*
X229656099Y-52179172D01*
X229568155Y-52126297D01*
X229449883Y-52053996D01*
X229305801Y-51965049D01*
X229140427Y-51862238D01*
X228958279Y-51748345D01*
X228763874Y-51626151D01*
X228634070Y-51544504D01*
X228449333Y-51428850D01*
X228280807Y-51323987D01*
X228132830Y-51232579D01*
X228009741Y-51157291D01*
X227915879Y-51100785D01*
X227855583Y-51065725D01*
X227833192Y-51054776D01*
X227827290Y-51074393D01*
X227808161Y-51140719D01*
X227776183Y-51252566D01*
X227731751Y-51408542D01*
X227675260Y-51607252D01*
X227607103Y-51847302D01*
X227527676Y-52127297D01*
X227437372Y-52445844D01*
X227336586Y-52801549D01*
X227225712Y-53193018D01*
X227105145Y-53618856D01*
X226975279Y-54077670D01*
X226836508Y-54568064D01*
X226689228Y-55088647D01*
X226533832Y-55638022D01*
X226370714Y-56214796D01*
X226200270Y-56817576D01*
X226022893Y-57444966D01*
X225838978Y-58095574D01*
X225648920Y-58768004D01*
X225453112Y-59460862D01*
X225251950Y-60172756D01*
X225045827Y-60902290D01*
X224835138Y-61648070D01*
X224620277Y-62408703D01*
X224401639Y-63182794D01*
X224179618Y-63968949D01*
X223980540Y-64673798D01*
X223761486Y-65449125D01*
X223546128Y-66211108D01*
X223334863Y-66958354D01*
X223128085Y-67689469D01*
X222926191Y-68403061D01*
X222729576Y-69097738D01*
X222538636Y-69772105D01*
X222353765Y-70424771D01*
X222175360Y-71054343D01*
X222003816Y-71659427D01*
X221839528Y-72238630D01*
X221682893Y-72790561D01*
X221534306Y-73313825D01*
X221394161Y-73807030D01*
X221262856Y-74268784D01*
X221140784Y-74697692D01*
X221028343Y-75092363D01*
X220925927Y-75451404D01*
X220833932Y-75773421D01*
X220752753Y-76057022D01*
X220682787Y-76300814D01*
X220624428Y-76503404D01*
X220578072Y-76663398D01*
X220544115Y-76779406D01*
X220522951Y-76850032D01*
X220514978Y-76873885D01*
X220490569Y-76859526D01*
X220436245Y-76810448D01*
X220357329Y-76730595D01*
X220257584Y-76624216D01*
X220140774Y-76495559D01*
X220010664Y-76348875D01*
X219871016Y-76188411D01*
X219725596Y-76018416D01*
X219578167Y-75843139D01*
X219432492Y-75666829D01*
X219292337Y-75493736D01*
X219134946Y-75294633D01*
X218700578Y-74719081D01*
X218277962Y-74121222D01*
X217870338Y-73506732D01*
X217480945Y-72881286D01*
X217113024Y-72250560D01*
X216769814Y-71620230D01*
X216454556Y-70995971D01*
X216170489Y-70383459D01*
X215920854Y-69788369D01*
X215708889Y-69216376D01*
X215579788Y-68824408D01*
X215406479Y-68234323D01*
X215253451Y-67627567D01*
X215119724Y-66998932D01*
X215004320Y-66343207D01*
X214906258Y-65655184D01*
X214824559Y-64929651D01*
X214758242Y-64161401D01*
X214756007Y-64130336D01*
X214744332Y-63930259D01*
X214733926Y-63688044D01*
X214724851Y-63410383D01*
X214717170Y-63103966D01*
X214710944Y-62775484D01*
X214706236Y-62431630D01*
X214703109Y-62079093D01*
X214701623Y-61724565D01*
X214701842Y-61374737D01*
X214703828Y-61036301D01*
X214707642Y-60715947D01*
X214713348Y-60420366D01*
X214721007Y-60156250D01*
X214725120Y-60040705D01*
X214739078Y-59666919D01*
X214753855Y-59296699D01*
X214769219Y-58934689D01*
X214784936Y-58585537D01*
X214800771Y-58253888D01*
X214816491Y-57944388D01*
X214831863Y-57661684D01*
X214846653Y-57410422D01*
X214860626Y-57195247D01*
X214873550Y-57020806D01*
X214885191Y-56891746D01*
X214906030Y-56702064D01*
X214989589Y-56080342D01*
X215097924Y-55450980D01*
X215232635Y-54806109D01*
X215395324Y-54137855D01*
X215587592Y-53438347D01*
X215601178Y-53392090D01*
X215643572Y-53252841D01*
X215698569Y-53077347D01*
X215764609Y-52870265D01*
X215840134Y-52636255D01*
X215923587Y-52379974D01*
X216013409Y-52106080D01*
X216108041Y-51819232D01*
X216205926Y-51524087D01*
X216305504Y-51225304D01*
X216405218Y-50927540D01*
X216503509Y-50635454D01*
X216598819Y-50353704D01*
X216689589Y-50086948D01*
X216774262Y-49839844D01*
X216851279Y-49617050D01*
X216919081Y-49423225D01*
X216976110Y-49263025D01*
X217020809Y-49141111D01*
X217051618Y-49062139D01*
X217178555Y-48773497D01*
X217377300Y-48364941D01*
X217603096Y-47941497D01*
X217849902Y-47513543D01*
X218111677Y-47091454D01*
X218382381Y-46685607D01*
X218655971Y-46306378D01*
X218715585Y-46225380D01*
X218780601Y-46129306D01*
X218814017Y-46067112D01*
X218814865Y-46040420D01*
X218806389Y-46036780D01*
X218751382Y-46019729D01*
X218657695Y-45994719D01*
X218532991Y-45963525D01*
X218384934Y-45927921D01*
X218221187Y-45889680D01*
X218049412Y-45850577D01*
X217877273Y-45812386D01*
X217712433Y-45776882D01*
X217562554Y-45745837D01*
X217435300Y-45721027D01*
X217152371Y-45671697D01*
X216740007Y-45613808D01*
X216362777Y-45579472D01*
X216015497Y-45568131D01*
X215914473Y-45569173D01*
X215714995Y-45579214D01*
X215527798Y-45601919D01*
X215343862Y-45639743D01*
X215154166Y-45695141D01*
X214949688Y-45770569D01*
X214721406Y-45868479D01*
X214460300Y-45991329D01*
X214404112Y-46018734D01*
X214123754Y-46160246D01*
X213853703Y-46305512D01*
X213577459Y-46463642D01*
X213278524Y-46643743D01*
X213275577Y-46645553D01*
X213175900Y-46705210D01*
X213092572Y-46752184D01*
X213034235Y-46781797D01*
X213009534Y-46789369D01*
X213009287Y-46789063D01*
X213020964Y-46764388D01*
X213063364Y-46710255D01*
X213131539Y-46631857D01*
X213220537Y-46534389D01*
X213325409Y-46423042D01*
X213441205Y-46303009D01*
X213562975Y-46179483D01*
X213685768Y-46057657D01*
X213804634Y-45942724D01*
X213914625Y-45839877D01*
X213984744Y-45776002D01*
X214354241Y-45449789D01*
X214700607Y-45162626D01*
X215027244Y-44911996D01*
X215337554Y-44695383D01*
X215634939Y-44510270D01*
X215922800Y-44354140D01*
X215995260Y-44318285D01*
X216146043Y-44246860D01*
X216302246Y-44177565D01*
X216468164Y-44108913D01*
X216648088Y-44039412D01*
X216846311Y-43967572D01*
X217067125Y-43891905D01*
X217314823Y-43810920D01*
X217593697Y-43723128D01*
X217908040Y-43627038D01*
X218262143Y-43521161D01*
X218660300Y-43404006D01*
X218718810Y-43386884D01*
X219156608Y-43257798D01*
X219551844Y-43139313D01*
X219909709Y-43029720D01*
X220235396Y-42927306D01*
X220534094Y-42830362D01*
X220810995Y-42737177D01*
X221071291Y-42646038D01*
X221320173Y-42555237D01*
X221562832Y-42463061D01*
X221804460Y-42367800D01*
X221837157Y-42354756D01*
X221953005Y-42309663D01*
X222051099Y-42273171D01*
X222121935Y-42248738D01*
X222156008Y-42239825D01*
X222162711Y-42241084D01*
G37*
G36*
X245063310Y-41933024D02*
G01*
X245269530Y-42003947D01*
X245455806Y-42063231D01*
X245625552Y-42112165D01*
X245782183Y-42152039D01*
X245839726Y-42164553D01*
X245968841Y-42188807D01*
X246129544Y-42215867D01*
X246310509Y-42244098D01*
X246500409Y-42271865D01*
X246687915Y-42297532D01*
X246861701Y-42319464D01*
X247010438Y-42336025D01*
X247122800Y-42345581D01*
X247133551Y-42346296D01*
X247205383Y-42356623D01*
X247234199Y-42374792D01*
X247218923Y-42401754D01*
X247158481Y-42438462D01*
X247051798Y-42485866D01*
X246897800Y-42544920D01*
X246471349Y-42700670D01*
X245903622Y-42906524D01*
X245373917Y-43096766D01*
X244883170Y-43271073D01*
X244432319Y-43429122D01*
X244022300Y-43570592D01*
X243654051Y-43695160D01*
X243328507Y-43802503D01*
X243046606Y-43892299D01*
X242809285Y-43964226D01*
X242617480Y-44017961D01*
X242370193Y-44082928D01*
X241975920Y-44185260D01*
X241597421Y-44281967D01*
X241237646Y-44372358D01*
X240899545Y-44455743D01*
X240586068Y-44531431D01*
X240300165Y-44598733D01*
X240044786Y-44656956D01*
X239822882Y-44705411D01*
X239637401Y-44743408D01*
X239491294Y-44770255D01*
X239387511Y-44785262D01*
X239329003Y-44787738D01*
X239291575Y-44787964D01*
X239258695Y-44805429D01*
X239223459Y-44849599D01*
X239176037Y-44929590D01*
X239034190Y-45152161D01*
X238834916Y-45404334D01*
X238602509Y-45646840D01*
X238437853Y-45795089D01*
X238181236Y-45992954D01*
X237908832Y-46162345D01*
X237612392Y-46307646D01*
X237283663Y-46433238D01*
X236914395Y-46543505D01*
X236734135Y-46588898D01*
X236409326Y-46658505D01*
X236066612Y-46716235D01*
X235695450Y-46763763D01*
X235285300Y-46802768D01*
X235166974Y-46810235D01*
X234901927Y-46815089D01*
X234616276Y-46807136D01*
X234327483Y-46787394D01*
X234053004Y-46756883D01*
X233810300Y-46716623D01*
X233731627Y-46700057D01*
X233440176Y-46625299D01*
X233180678Y-46533460D01*
X232946884Y-46420031D01*
X232732543Y-46280506D01*
X232531404Y-46110376D01*
X232337215Y-45905134D01*
X232143727Y-45660272D01*
X231944688Y-45371283D01*
X231912459Y-45320837D01*
X231803195Y-45137623D01*
X231685763Y-44925260D01*
X231567051Y-44697239D01*
X231453946Y-44467047D01*
X231353337Y-44248175D01*
X231272112Y-44054110D01*
X231230230Y-43949856D01*
X231189330Y-43853845D01*
X231156848Y-43783727D01*
X231137416Y-43749964D01*
X231106885Y-43731028D01*
X231029780Y-43700800D01*
X230915644Y-43664742D01*
X230771238Y-43624501D01*
X230603324Y-43581722D01*
X230418665Y-43538050D01*
X230224020Y-43495133D01*
X230026154Y-43454615D01*
X229831827Y-43418144D01*
X229647800Y-43387364D01*
X229637923Y-43385838D01*
X229515848Y-43368193D01*
X229401586Y-43354676D01*
X229285506Y-43344761D01*
X229157971Y-43337921D01*
X229009348Y-43333628D01*
X228830002Y-43331354D01*
X228610300Y-43330573D01*
X228323718Y-43331937D01*
X228075497Y-43337265D01*
X227858198Y-43347546D01*
X227662296Y-43363771D01*
X227478263Y-43386927D01*
X227296574Y-43418003D01*
X227107702Y-43457989D01*
X226902121Y-43507872D01*
X226876204Y-43512533D01*
X226865050Y-43504542D01*
X226871381Y-43475754D01*
X226896983Y-43418262D01*
X226943644Y-43324158D01*
X227008708Y-43192496D01*
X227123475Y-42945039D01*
X227219057Y-42712546D01*
X227299238Y-42483638D01*
X229357836Y-42483638D01*
X229360564Y-42575891D01*
X229395572Y-42678485D01*
X229454106Y-42772579D01*
X229527350Y-42839655D01*
X229612431Y-42877819D01*
X229732391Y-42892746D01*
X229848023Y-42869257D01*
X229950465Y-42812726D01*
X230030850Y-42728526D01*
X230080314Y-42622031D01*
X230089993Y-42498613D01*
X230087283Y-42476951D01*
X230048885Y-42355256D01*
X229980195Y-42263769D01*
X229889626Y-42202663D01*
X229785589Y-42172108D01*
X229676497Y-42172278D01*
X229570763Y-42203343D01*
X229476800Y-42265477D01*
X229403020Y-42358852D01*
X229357836Y-42483638D01*
X227299238Y-42483638D01*
X227299802Y-42482028D01*
X227370057Y-42240494D01*
X227434170Y-41974955D01*
X227496489Y-41672421D01*
X227524899Y-41523161D01*
X227533343Y-41476062D01*
X228223625Y-41476062D01*
X228242396Y-41594688D01*
X228302611Y-41702201D01*
X228403822Y-41789517D01*
X228413943Y-41795454D01*
X228531766Y-41835123D01*
X228655812Y-41829953D01*
X228745871Y-41794016D01*
X233653177Y-41794016D01*
X233653436Y-41969640D01*
X233671821Y-42122490D01*
X233689881Y-42196818D01*
X233775935Y-42418165D01*
X233825991Y-42498613D01*
X233902819Y-42622087D01*
X234064239Y-42802321D01*
X234253901Y-42952607D01*
X234465513Y-43066682D01*
X234692781Y-43138285D01*
X234748369Y-43148589D01*
X234999471Y-43165257D01*
X235245034Y-43133791D01*
X235479990Y-43055755D01*
X235699269Y-42932715D01*
X235897800Y-42766235D01*
X236010898Y-42640219D01*
X236136466Y-42450894D01*
X236219255Y-42247038D01*
X236261890Y-42021549D01*
X236266996Y-41767326D01*
X236266560Y-41758632D01*
X236229707Y-41504040D01*
X236149206Y-41270719D01*
X236028082Y-41062128D01*
X235869356Y-40881724D01*
X235676053Y-40732966D01*
X235451193Y-40619310D01*
X235197800Y-40544215D01*
X235013710Y-40521562D01*
X234778716Y-40534262D01*
X234550275Y-40590552D01*
X234334458Y-40686907D01*
X234137342Y-40819802D01*
X233964998Y-40985713D01*
X233823502Y-41181113D01*
X233718927Y-41402479D01*
X233701592Y-41457631D01*
X233693644Y-41497179D01*
X233669682Y-41616414D01*
X233653177Y-41794016D01*
X228745871Y-41794016D01*
X228776111Y-41781949D01*
X228882696Y-41693119D01*
X228890042Y-41684094D01*
X228927628Y-41602267D01*
X228944319Y-41497179D01*
X228938762Y-41388740D01*
X228909606Y-41296860D01*
X228894744Y-41272046D01*
X228812155Y-41186036D01*
X228706130Y-41130978D01*
X228589307Y-41109647D01*
X228474324Y-41124816D01*
X228373821Y-41179259D01*
X228312196Y-41241812D01*
X228246742Y-41355409D01*
X228223625Y-41476062D01*
X227533343Y-41476062D01*
X227574513Y-41246428D01*
X227612714Y-41005481D01*
X227640531Y-40791860D01*
X227658993Y-40597100D01*
X227669132Y-40412739D01*
X227671975Y-40230316D01*
X227671150Y-39900022D01*
X227453225Y-39795425D01*
X227401391Y-39770074D01*
X227017554Y-39552480D01*
X226649299Y-39291691D01*
X226301724Y-38992900D01*
X225979930Y-38661300D01*
X225689017Y-38302083D01*
X225434084Y-37920444D01*
X225220232Y-37521574D01*
X225202925Y-37484340D01*
X225094172Y-37224640D01*
X224987776Y-36928717D01*
X224887269Y-36608472D01*
X224796179Y-36275805D01*
X224718037Y-35942618D01*
X224702691Y-35862530D01*
X228016084Y-35862530D01*
X228019665Y-36032218D01*
X228037679Y-36196374D01*
X228069522Y-36335817D01*
X228149279Y-36527259D01*
X228279270Y-36730813D01*
X228443232Y-36909513D01*
X228634266Y-37057161D01*
X228845476Y-37167562D01*
X229069963Y-37234518D01*
X229098818Y-37239653D01*
X229355402Y-37258316D01*
X229605111Y-37228973D01*
X229842700Y-37153235D01*
X230062926Y-37032714D01*
X230260544Y-36869017D01*
X230366720Y-36750151D01*
X230499296Y-36548461D01*
X230588843Y-36335657D01*
X230637375Y-36116503D01*
X230646908Y-35895761D01*
X230619458Y-35678193D01*
X230557040Y-35468563D01*
X230461669Y-35271632D01*
X230335361Y-35092164D01*
X230180131Y-34934922D01*
X229997994Y-34804668D01*
X229790967Y-34706164D01*
X229561064Y-34644174D01*
X229310300Y-34623461D01*
X229075582Y-34645635D01*
X228839071Y-34713278D01*
X228622477Y-34822837D01*
X228430367Y-34970747D01*
X228267312Y-35153447D01*
X228137880Y-35367372D01*
X228046640Y-35608960D01*
X228027540Y-35706491D01*
X228016084Y-35862530D01*
X224702691Y-35862530D01*
X224656375Y-35620810D01*
X224645901Y-35549774D01*
X224628175Y-35376333D01*
X224615841Y-35176623D01*
X224608906Y-34961504D01*
X224607377Y-34741836D01*
X224611260Y-34528479D01*
X224620561Y-34332294D01*
X224635287Y-34164141D01*
X224655443Y-34034880D01*
X224680517Y-33925232D01*
X224787404Y-33558982D01*
X224928350Y-33207083D01*
X225106865Y-32862526D01*
X225326458Y-32518305D01*
X225590638Y-32167411D01*
X225687880Y-32049178D01*
X226027609Y-31671936D01*
X226374574Y-31342317D01*
X226731121Y-31058578D01*
X227099596Y-30818976D01*
X227482347Y-30621767D01*
X227881721Y-30465208D01*
X227976421Y-30435027D01*
X228151296Y-30385793D01*
X228329074Y-30342758D01*
X228497266Y-30308603D01*
X228643384Y-30286013D01*
X228754937Y-30277668D01*
X228778987Y-30277122D01*
X228846198Y-30270511D01*
X228885300Y-30258900D01*
X228887665Y-30255251D01*
X228895546Y-30211415D01*
X228902175Y-30122682D01*
X228907376Y-29993082D01*
X228910974Y-29826648D01*
X228912793Y-29627411D01*
X228913300Y-29550126D01*
X228925596Y-29084674D01*
X228954275Y-28656869D01*
X229000299Y-28258060D01*
X229064631Y-27879597D01*
X229148234Y-27512830D01*
X229169581Y-27431274D01*
X229210880Y-27283702D01*
X229254071Y-27146212D01*
X229302085Y-27012152D01*
X229357855Y-26874869D01*
X229424311Y-26727709D01*
X229504384Y-26564019D01*
X229601007Y-26377145D01*
X229717110Y-26160434D01*
X229855625Y-25907233D01*
X229898298Y-25829859D01*
X230007816Y-25632166D01*
X230127096Y-25417921D01*
X230253698Y-25191426D01*
X230385184Y-24956985D01*
X230519112Y-24718901D01*
X230653045Y-24481476D01*
X230784541Y-24249013D01*
X230911162Y-24025816D01*
X231030468Y-23816187D01*
X231140019Y-23624430D01*
X231237376Y-23454848D01*
X231320098Y-23311743D01*
X231385748Y-23199419D01*
X231431885Y-23122178D01*
X231456069Y-23084324D01*
X231462060Y-23076501D01*
X231471743Y-23067087D01*
X231480122Y-23067397D01*
X231487585Y-23081457D01*
X231494520Y-23113293D01*
X231501314Y-23166930D01*
X231508355Y-23246395D01*
X231516030Y-23355714D01*
X231524729Y-23498912D01*
X231534837Y-23680015D01*
X231546744Y-23903050D01*
X231560837Y-24172041D01*
X231579489Y-24510832D01*
X231616832Y-25102848D01*
X231659006Y-25675067D01*
X231705630Y-26224132D01*
X231756322Y-26746681D01*
X231810700Y-27239357D01*
X231868384Y-27698799D01*
X231928993Y-28121650D01*
X231992144Y-28504548D01*
X232057456Y-28844135D01*
X232124548Y-29137052D01*
X232149021Y-29231847D01*
X232175953Y-29328994D01*
X232204659Y-29422137D01*
X232238153Y-29519600D01*
X232279449Y-29629704D01*
X232331562Y-29760771D01*
X232397508Y-29921125D01*
X232480301Y-30119087D01*
X232581033Y-30371823D01*
X232697415Y-30692389D01*
X232814336Y-31042150D01*
X232928470Y-31410338D01*
X233036492Y-31786181D01*
X233135078Y-32158910D01*
X233220901Y-32517756D01*
X233231397Y-32564272D01*
X233259586Y-32687629D01*
X233283803Y-32791396D01*
X233301751Y-32865818D01*
X233311136Y-32901140D01*
X233323899Y-32896704D01*
X233365335Y-32859448D01*
X233431572Y-32790908D01*
X233518795Y-32695186D01*
X233623192Y-32576385D01*
X233740950Y-32438610D01*
X234159320Y-31943039D01*
X234189947Y-32080250D01*
X234207252Y-32160155D01*
X234249335Y-32370878D01*
X234293495Y-32611538D01*
X234337949Y-32870867D01*
X234380911Y-33137595D01*
X234420599Y-33400449D01*
X234455229Y-33648162D01*
X234483017Y-33869463D01*
X234502180Y-34053080D01*
X234511588Y-34174739D01*
X234518203Y-34322780D01*
X234518596Y-34475093D01*
X234512739Y-34646802D01*
X234500600Y-34853035D01*
X234496921Y-34906593D01*
X234472231Y-35219024D01*
X234440912Y-35555113D01*
X234405045Y-35895761D01*
X234404586Y-35900123D01*
X234364874Y-36239317D01*
X234323398Y-36557957D01*
X234281780Y-36841307D01*
X234265007Y-36950307D01*
X234246894Y-37075719D01*
X234233693Y-37176630D01*
X234226472Y-37244745D01*
X234226302Y-37271770D01*
X234241543Y-37274104D01*
X234301096Y-37278554D01*
X234399740Y-37284274D01*
X234531232Y-37291009D01*
X234689330Y-37298503D01*
X234867791Y-37306501D01*
X235060373Y-37314747D01*
X235260834Y-37322987D01*
X235462931Y-37330964D01*
X235660422Y-37338425D01*
X235847064Y-37345113D01*
X236016616Y-37350773D01*
X236162834Y-37355151D01*
X236279476Y-37357990D01*
X236360300Y-37359035D01*
X236363695Y-37359037D01*
X236493314Y-37357005D01*
X236640556Y-37351700D01*
X236774203Y-37344238D01*
X236963326Y-37342753D01*
X237215209Y-37366339D01*
X237508298Y-37416542D01*
X237842061Y-37493251D01*
X238215966Y-37596358D01*
X238629480Y-37725752D01*
X238766959Y-37771779D01*
X238960096Y-37839740D01*
X239149261Y-37910902D01*
X239342483Y-37988630D01*
X239547792Y-38076289D01*
X239773219Y-38177241D01*
X240026792Y-38294850D01*
X240316542Y-38432480D01*
X240409790Y-38477167D01*
X240627239Y-38581556D01*
X240804981Y-38667308D01*
X240946976Y-38736482D01*
X241057187Y-38791137D01*
X241139574Y-38833330D01*
X241198099Y-38865121D01*
X241236723Y-38888568D01*
X241259407Y-38905730D01*
X241270112Y-38918665D01*
X241272800Y-38929432D01*
X241267966Y-38937678D01*
X241240734Y-38947288D01*
X241184797Y-38954204D01*
X241094833Y-38958792D01*
X240965525Y-38961416D01*
X240791550Y-38962441D01*
X240690809Y-38962945D01*
X240442340Y-38967288D01*
X240222213Y-38975733D01*
X240034031Y-38987942D01*
X239881397Y-39003575D01*
X239767912Y-39022293D01*
X239697179Y-39043758D01*
X239672800Y-39067632D01*
X239673909Y-39072427D01*
X239699672Y-39110693D01*
X239754688Y-39174213D01*
X239832463Y-39256541D01*
X239926497Y-39351233D01*
X240030295Y-39451845D01*
X240137360Y-39551933D01*
X240241194Y-39645053D01*
X240335300Y-39724760D01*
X240665874Y-39975854D01*
X241024628Y-40208114D01*
X241405891Y-40413920D01*
X241822800Y-40601009D01*
X241830516Y-40604182D01*
X241923712Y-40642919D01*
X242055014Y-40698004D01*
X242217341Y-40766443D01*
X242403613Y-40845240D01*
X242606751Y-40931402D01*
X242819673Y-41021935D01*
X243035300Y-41113842D01*
X243215966Y-41190777D01*
X243613550Y-41358641D01*
X243970705Y-41507121D01*
X244290844Y-41637509D01*
X244577381Y-41751095D01*
X244619806Y-41767326D01*
X244833732Y-41849170D01*
X245063310Y-41933024D01*
G37*
%LPC*%
D14*
X217975000Y-68326000D03*
D15*
X220475000Y-68326000D03*
X246293000Y-60198000D03*
X248793000Y-60198000D03*
D16*
X222377000Y-100838000D03*
X227605000Y-96774000D03*
X234569000Y-100838000D03*
X234569000Y-108966000D03*
X222377000Y-108966000D03*
X223901000Y-104902000D03*
X223541000Y-96774000D03*
X230505000Y-100838000D03*
X214249000Y-108966000D03*
X235733000Y-96774000D03*
X232029000Y-104902000D03*
X236093000Y-104902000D03*
X214249000Y-100838000D03*
X231669000Y-96774000D03*
X226441000Y-100838000D03*
X218313000Y-108966000D03*
X211709000Y-104902000D03*
X230505000Y-108966000D03*
X227965000Y-104902000D03*
X215773000Y-104902000D03*
X218313000Y-100838000D03*
X226441000Y-108966000D03*
X219837000Y-104902000D03*
X206121000Y-33274000D03*
X209677000Y-33274000D03*
X213233000Y-33274000D03*
D14*
X242189000Y-95886700D03*
D15*
X242189000Y-92386700D03*
D17*
X226885000Y-62780000D03*
D18*
X224885000Y-62780000D03*
X222885000Y-62780000D03*
X220885000Y-62780000D03*
X218885000Y-62780000D03*
D19*
X225933000Y-73914000D03*
D18*
X227933000Y-73914000D03*
X229933000Y-73914000D03*
X231933000Y-73914000D03*
X233933000Y-73914000D03*
X235933000Y-73914000D03*
X237933000Y-73914000D03*
D19*
X205613000Y-61722000D03*
D18*
X207613000Y-61722000D03*
X209613000Y-61722000D03*
D16*
X244729000Y-29210000D03*
X244729000Y-32766000D03*
X248285000Y-29210000D03*
X248285000Y-32766000D03*
X241173000Y-32766000D03*
X251841000Y-32766000D03*
D20*
X249472000Y-21399500D03*
X210534000Y-21399500D03*
D15*
X234061000Y-68072000D03*
D21*
X234061000Y-60452000D03*
D15*
X213635000Y-91542000D03*
D21*
X213635000Y-83922000D03*
D15*
X214757000Y-68072000D03*
D21*
X214757000Y-60452000D03*
D22*
X253635000Y-38100000D03*
X251095000Y-38100000D03*
D23*
X248555000Y-38100000D03*
D22*
X246015000Y-38100000D03*
X243475000Y-38100000D03*
X240935000Y-38100000D03*
X238395000Y-38100000D03*
D23*
X235855000Y-38100000D03*
D22*
X233315000Y-38100000D03*
X230775000Y-38100000D03*
X228235000Y-38100000D03*
X225695000Y-38100000D03*
D23*
X223155000Y-38100000D03*
D22*
X220615000Y-38100000D03*
X218075000Y-38100000D03*
X215535000Y-38100000D03*
X212995000Y-38100000D03*
D23*
X210455000Y-38100000D03*
D22*
X207915000Y-38100000D03*
X205375000Y-38100000D03*
X205375000Y-55880000D03*
X207915000Y-55880000D03*
D23*
X210455000Y-55880000D03*
D22*
X212995000Y-55880000D03*
X215535000Y-55880000D03*
X218075000Y-55880000D03*
X220615000Y-55880000D03*
D23*
X223155000Y-55880000D03*
D22*
X225695000Y-55880000D03*
X228235000Y-55880000D03*
X230775000Y-55880000D03*
X233315000Y-55880000D03*
D23*
X235855000Y-55880000D03*
D22*
X238395000Y-55880000D03*
X240935000Y-55880000D03*
X243475000Y-55880000D03*
X246015000Y-55880000D03*
D23*
X248555000Y-55880000D03*
D22*
X251095000Y-55880000D03*
X253635000Y-55880000D03*
X205605000Y-44450000D03*
D23*
X205605000Y-46990000D03*
D22*
X205605000Y-49530000D03*
D20*
X172343000Y-101878000D03*
D14*
X213497000Y-73162000D03*
D21*
X213497000Y-75702000D03*
X213497000Y-78242000D03*
X213497000Y-80782000D03*
X221117000Y-80782000D03*
X221117000Y-78242000D03*
X221117000Y-75702000D03*
X221117000Y-73162000D03*
D20*
X207137000Y-86614000D03*
D14*
X231003000Y-26934000D03*
D21*
X228463000Y-26934000D03*
X225923000Y-26934000D03*
X223383000Y-26934000D03*
X223383000Y-34554000D03*
X225923000Y-34554000D03*
X228463000Y-34554000D03*
X231003000Y-34554000D03*
D24*
X206121000Y-92710000D03*
D25*
X208621000Y-92710000D03*
D15*
X178649000Y-44296000D03*
X176149000Y-44296000D03*
X238633000Y-86868000D03*
D21*
X238633000Y-79248000D03*
D19*
X240665000Y-101854000D03*
D18*
X242665000Y-101854000D03*
X244665000Y-101854000D03*
D14*
X227721000Y-79766000D03*
D21*
X227721000Y-82306000D03*
X227721000Y-84846000D03*
X227721000Y-87386000D03*
X235341000Y-87386000D03*
X235341000Y-84846000D03*
X235341000Y-82306000D03*
X235341000Y-79766000D03*
D20*
X184969000Y-54638000D03*
D26*
X224917000Y-79751000D03*
D27*
X224917000Y-87371000D03*
D19*
X178245000Y-100838000D03*
D18*
X180245000Y-100838000D03*
X182245000Y-100838000D03*
X184245000Y-100838000D03*
X186245000Y-100838000D03*
D16*
X196977000Y-36322000D03*
D28*
X190373000Y-44450000D03*
D29*
X190373000Y-41950000D03*
D16*
X172593000Y-43942000D03*
D20*
X253111000Y-90170000D03*
D30*
X185195000Y-90186000D03*
D31*
X185195000Y-92336000D03*
D30*
X179295000Y-90186000D03*
D32*
X175895000Y-89796000D03*
X188595000Y-89796000D03*
D30*
X179295000Y-94486000D03*
D32*
X188595000Y-94876000D03*
D31*
X179295000Y-92336000D03*
D32*
X175895000Y-94876000D03*
D30*
X185195000Y-94486000D03*
D33*
X176245000Y-69446000D03*
X188245000Y-81446000D03*
D34*
X180245000Y-84046000D03*
X182245000Y-84046000D03*
X184245000Y-84046000D03*
D35*
X173645000Y-73446000D03*
X173645000Y-75446000D03*
X173645000Y-77446000D03*
D36*
X196469000Y-24638000D03*
D15*
X225231000Y-90678000D03*
D21*
X232731000Y-90678000D03*
D20*
X192343000Y-101878000D03*
D15*
X242189000Y-86868000D03*
D21*
X242189000Y-79248000D03*
D23*
X178619000Y-36816000D03*
D22*
X181159000Y-36816000D03*
X183699000Y-36816000D03*
X186239000Y-36816000D03*
X188779000Y-36816000D03*
X191319000Y-36816000D03*
D37*
X181229000Y-40894000D03*
D38*
X183729000Y-45894000D03*
X186229000Y-40894000D03*
D15*
X178415000Y-41248000D03*
X175915000Y-41248000D03*
D20*
X192343000Y-64262000D03*
D15*
X231013000Y-68072000D03*
D21*
X231013000Y-60452000D03*
D39*
X217675000Y-94032000D03*
D40*
X219745000Y-95302000D03*
X217675000Y-96572000D03*
D20*
X172343000Y-64262000D03*
D24*
X251099000Y-76454000D03*
D25*
X253599000Y-76454000D03*
D36*
X173469000Y-24638000D03*
D41*
X224917000Y-67463000D03*
D42*
X224917000Y-69463000D03*
D19*
X174117000Y-49530000D03*
D18*
X176117000Y-49530000D03*
X178117000Y-49530000D03*
X180117000Y-49530000D03*
D17*
X209645000Y-76544000D03*
D18*
X207645000Y-76544000D03*
X205645000Y-76544000D03*
X203645000Y-76544000D03*
D43*
X253365000Y-96774000D03*
D25*
X250865000Y-96774000D03*
M02*
