M48
; DRILL file {KiCad 6.0.11+dfsg-1~bpo11+1} date dim. 06 avril 2025 19:31:20
; FORMAT={-:-/ absolute / metric / decimal}
; #@! TF.CreationDate,2025-04-06T19:31:20+02:00
; #@! TF.GenerationSoftware,Kicad,Pcbnew,6.0.11+dfsg-1~bpo11+1
; #@! TF.FileFunction,Plated,1,2,PTH
FMAT,2
METRIC
; #@! TA.AperFunction,Plated,PTH,ViaDrill
T1C0.400
; #@! TA.AperFunction,Plated,PTH,ComponentDrill
T2C0.600
; #@! TA.AperFunction,Plated,PTH,ComponentDrill
T3C0.750
; #@! TA.AperFunction,Plated,PTH,ComponentDrill
T4C0.800
; #@! TA.AperFunction,Plated,PTH,ComponentDrill
T5C0.850
; #@! TA.AperFunction,Plated,PTH,ComponentDrill
T6C1.000
; #@! TA.AperFunction,Plated,PTH,ComponentDrill
T7C1.020
; #@! TA.AperFunction,Plated,PTH,ComponentDrill
T8C1.200
%
G90
G05
T1
X203.364Y-59.414
X203.46Y-80.056
X203.559Y-32.72
X204.645Y-79.158
X205.204Y-65.533
X206.3Y-31.011
X207.117Y-40.851
X207.297Y-57.647
X208.485Y-42.274
X210.418Y-70.337
X210.776Y-98.686
X211.228Y-83.12
X211.892Y-80.013
X213.552Y-62.979
X214.973Y-92.281
X216.543Y-52.12
X217.205Y-86.154
X217.711Y-52.943
X219.064Y-90.812
X219.805Y-51.834
X220.875Y-65.78
X221.483Y-94.302
X221.518Y-51.385
X222.208Y-93.125
X223.715Y-86.64
X224.344Y-52.342
X225.207Y-94.332
X225.55Y-51.994
X227.009Y-90.216
X228.433Y-53.78
X229.505Y-54.587
X231.135Y-64.246
X231.299Y-45.251
X231.312Y-50.553
X231.379Y-54.088
X232.206Y-39.654
X232.586Y-64.246
X233.374Y-69.645
X233.924Y-76.027
X234.129Y-41.31
X234.49Y-54.415
X234.592Y-71.319
X235.129Y-64.166
X235.393Y-35.95
X235.721Y-52.238
X235.946Y-54.139
X236.313Y-72.073
X236.449Y-77.609
X236.611Y-88.122
X236.84Y-40.89
X236.985Y-101.059
X237.57Y-102.548
X237.644Y-71.307
X238.19Y-40.616
X238.19Y-51.8
X238.928Y-53.361
X239.024Y-66.942
X239.954Y-36.292
X240.613Y-30.769
X241.095Y-53.585
X241.241Y-52.207
X241.661Y-71.1
X241.769Y-72.943
X242.149Y-58.024
X242.329Y-52.145
X242.375Y-82.842
X242.701Y-53.175
X242.87Y-29.522
X242.93Y-98.563
X243.234Y-62.229
X244.864Y-104.547
X245.112Y-57.542
X245.112Y-64.385
X245.2Y-54.134
X246.617Y-68.581
X246.624Y-67.158
X247.088Y-50.29
X247.1Y-62.52
X247.366Y-52.477
X247.493Y-48.931
X247.964Y-40.01
X248.376Y-73.382
X249.816Y-63.132
X249.942Y-98.842
X251.003Y-72.761
X252.966Y-53.211
X253.239Y-54.284
X253.873Y-60.452
T2
X224.917Y-67.463
X224.917Y-69.463
T3
X174.117Y-49.53
X176.117Y-49.53
X178.117Y-49.53
X178.245Y-100.838
X180.117Y-49.53
X180.245Y-100.838
X182.245Y-100.838
X184.245Y-100.838
X186.245Y-100.838
X203.645Y-76.544
X205.613Y-61.722
X205.645Y-76.544
X207.613Y-61.722
X207.645Y-76.544
X209.613Y-61.722
X209.645Y-76.544
X218.075Y-94.032
X218.075Y-96.572
X218.885Y-62.78
X219.345Y-95.302
X220.885Y-62.78
X222.885Y-62.78
X224.885Y-62.78
X224.917Y-79.751
X224.917Y-87.371
X225.933Y-73.914
X226.885Y-62.78
X227.933Y-73.914
X229.933Y-73.914
X231.933Y-73.914
X233.933Y-73.914
X235.933Y-73.914
X237.933Y-73.914
X240.665Y-101.854
X242.665Y-101.854
X244.665Y-101.854
T4
X175.915Y-41.248
X176.149Y-44.296
X178.415Y-41.248
X178.649Y-44.296
X213.497Y-73.162
X213.497Y-75.702
X213.497Y-78.242
X213.497Y-80.782
X213.635Y-83.922
X213.635Y-91.542
X214.757Y-60.452
X214.757Y-68.072
X217.975Y-68.326
X220.475Y-68.326
X221.117Y-73.162
X221.117Y-75.702
X221.117Y-78.242
X221.117Y-80.782
X223.383Y-26.934
X223.383Y-34.554
X225.231Y-90.678
X225.923Y-26.934
X225.923Y-34.554
X227.721Y-79.766
X227.721Y-82.306
X227.721Y-84.846
X227.721Y-87.386
X228.463Y-26.934
X228.463Y-34.554
X231.003Y-26.934
X231.003Y-34.554
X231.013Y-60.452
X231.013Y-68.072
X232.731Y-90.678
X234.061Y-60.452
X234.061Y-68.072
X235.341Y-79.766
X235.341Y-82.306
X235.341Y-84.846
X235.341Y-87.386
X238.633Y-79.248
X238.633Y-86.868
X242.189Y-79.248
X242.189Y-86.868
X242.189Y-92.387
X242.189Y-95.887
X246.293Y-60.198
X248.793Y-60.198
T5
X179.295Y-90.186
X179.295Y-92.336
X179.295Y-94.486
X185.195Y-90.186
X185.195Y-92.336
X185.195Y-94.486
T6
X173.645Y-73.446
X173.645Y-75.446
X173.645Y-77.446
X178.619Y-36.816
X180.245Y-84.046
X181.159Y-36.816
X181.229Y-40.894
X182.245Y-84.046
X183.699Y-36.816
X183.729Y-45.894
X184.245Y-84.046
X186.229Y-40.894
X186.239Y-36.816
X188.779Y-36.816
X190.373Y-41.95
X190.373Y-44.45
X191.319Y-36.816
X206.121Y-92.71
X208.621Y-92.71
X250.865Y-96.774
X251.099Y-76.454
X253.365Y-96.774
X253.599Y-76.454
T7
X205.375Y-38.1
X205.375Y-55.88
X205.605Y-44.45
X205.605Y-46.99
X205.605Y-49.53
X207.915Y-38.1
X207.915Y-55.88
X210.455Y-38.1
X210.455Y-55.88
X212.995Y-38.1
X212.995Y-55.88
X215.535Y-38.1
X215.535Y-55.88
X218.075Y-38.1
X218.075Y-55.88
X220.615Y-38.1
X220.615Y-55.88
X223.155Y-38.1
X223.155Y-55.88
X225.695Y-38.1
X225.695Y-55.88
X228.235Y-38.1
X228.235Y-55.88
X230.775Y-38.1
X230.775Y-55.88
X233.315Y-38.1
X233.315Y-55.88
X235.855Y-38.1
X235.855Y-55.88
X238.395Y-38.1
X238.395Y-55.88
X240.935Y-38.1
X240.935Y-55.88
X243.475Y-38.1
X243.475Y-55.88
X246.015Y-38.1
X246.015Y-55.88
X248.555Y-38.1
X248.555Y-55.88
X251.095Y-38.1
X251.095Y-55.88
X253.635Y-38.1
X253.635Y-55.88
T8
X172.593Y-43.942
X175.895Y-89.796
X175.895Y-94.876
X188.595Y-89.796
X188.595Y-94.876
X196.977Y-36.322
X206.121Y-33.274
X209.677Y-33.274
X211.709Y-104.902
X213.233Y-33.274
X214.249Y-100.838
X214.249Y-108.966
X215.773Y-104.902
X218.313Y-100.838
X218.313Y-108.966
X219.837Y-104.902
X222.377Y-100.838
X222.377Y-108.966
X223.541Y-96.774
X223.901Y-104.902
X226.441Y-100.838
X226.441Y-108.966
X227.605Y-96.774
X227.965Y-104.902
X230.505Y-100.838
X230.505Y-108.966
X231.669Y-96.774
X232.029Y-104.902
X234.569Y-100.838
X234.569Y-108.966
X235.733Y-96.774
X236.093Y-104.902
X241.173Y-32.766
X244.729Y-29.21
X244.729Y-32.766
X248.285Y-29.21
X248.285Y-32.766
X251.841Y-32.766
T0
M30
