%TF.GenerationSoftware,KiCad,Pcbnew,6.0.11+dfsg-1~bpo11+1*%
%TF.CreationDate,2025-04-06T19:31:29+02:00*%
%TF.ProjectId,v4d2_pico,76346432-5f70-4696-936f-2e6b69636164,rev?*%
%TF.SameCoordinates,Original*%
%TF.FileFunction,Paste,Top*%
%TF.FilePolarity,Positive*%
%FSLAX46Y46*%
G04 Gerber Fmt 4.6, Leading zero omitted, Abs format (unit mm)*
G04 Created by KiCad (PCBNEW 6.0.11+dfsg-1~bpo11+1) date 2025-04-06 19:31:29*
%MOMM*%
%LPD*%
G01*
G04 APERTURE LIST*
G04 Aperture macros list*
%AMRoundRect*
0 Rectangle with rounded corners*
0 $1 Rounding radius*
0 $2 $3 $4 $5 $6 $7 $8 $9 X,Y pos of 4 corners*
0 Add a 4 corners polygon primitive as box body*
4,1,4,$2,$3,$4,$5,$6,$7,$8,$9,$2,$3,0*
0 Add four circle primitives for the rounded corners*
1,1,$1+$1,$2,$3*
1,1,$1+$1,$4,$5*
1,1,$1+$1,$6,$7*
1,1,$1+$1,$8,$9*
0 Add four rect primitives between the rounded corners*
20,1,$1+$1,$2,$3,$4,$5,0*
20,1,$1+$1,$4,$5,$6,$7,0*
20,1,$1+$1,$6,$7,$8,$9,0*
20,1,$1+$1,$8,$9,$2,$3,0*%
G04 Aperture macros list end*
%ADD10RoundRect,0.150000X-0.825000X-0.150000X0.825000X-0.150000X0.825000X0.150000X-0.825000X0.150000X0*%
%ADD11RoundRect,0.150000X0.825000X0.150000X-0.825000X0.150000X-0.825000X-0.150000X0.825000X-0.150000X0*%
%ADD12RoundRect,0.250000X-0.400000X-0.625000X0.400000X-0.625000X0.400000X0.625000X-0.400000X0.625000X0*%
%ADD13RoundRect,0.250000X0.400000X0.625000X-0.400000X0.625000X-0.400000X-0.625000X0.400000X-0.625000X0*%
%ADD14RoundRect,0.500000X-1.000000X-0.500000X1.000000X-0.500000X1.000000X0.500000X-1.000000X0.500000X0*%
%ADD15RoundRect,0.425000X-0.725000X-0.425000X0.725000X-0.425000X0.725000X0.425000X-0.725000X0.425000X0*%
%ADD16RoundRect,0.300000X-0.850000X-0.300000X0.850000X-0.300000X0.850000X0.300000X-0.850000X0.300000X0*%
%ADD17RoundRect,0.250000X-0.625000X0.400000X-0.625000X-0.400000X0.625000X-0.400000X0.625000X0.400000X0*%
G04 APERTURE END LIST*
D10*
X238190000Y-41910000D03*
X238190000Y-43180000D03*
X238190000Y-44450000D03*
X238190000Y-45720000D03*
X238190000Y-46990000D03*
X238190000Y-48260000D03*
X238190000Y-49530000D03*
X238190000Y-50800000D03*
X243140000Y-50800000D03*
X243140000Y-49530000D03*
X243140000Y-48260000D03*
X243140000Y-46990000D03*
X243140000Y-45720000D03*
X243140000Y-44450000D03*
X243140000Y-43180000D03*
X243140000Y-41910000D03*
X219394000Y-42037000D03*
X219394000Y-43307000D03*
X219394000Y-44577000D03*
X219394000Y-45847000D03*
X219394000Y-47117000D03*
X219394000Y-48387000D03*
X219394000Y-49657000D03*
X219394000Y-50927000D03*
X224344000Y-50927000D03*
X224344000Y-49657000D03*
X224344000Y-48387000D03*
X224344000Y-47117000D03*
X224344000Y-45847000D03*
X224344000Y-44577000D03*
X224344000Y-43307000D03*
X224344000Y-42037000D03*
D11*
X248220000Y-72317000D03*
X248220000Y-71047000D03*
X248220000Y-69777000D03*
X248220000Y-68507000D03*
X248220000Y-67237000D03*
X248220000Y-65967000D03*
X248220000Y-64697000D03*
X248220000Y-63427000D03*
X243270000Y-63427000D03*
X243270000Y-64697000D03*
X243270000Y-65967000D03*
X243270000Y-67237000D03*
X243270000Y-68507000D03*
X243270000Y-69777000D03*
X243270000Y-71047000D03*
X243270000Y-72317000D03*
D12*
X245784000Y-47498000D03*
X248884000Y-47498000D03*
X245784000Y-42418000D03*
X248884000Y-42418000D03*
D13*
X235676000Y-45339000D03*
X232576000Y-45339000D03*
X235702000Y-50419000D03*
X232602000Y-50419000D03*
D12*
X226949000Y-47934000D03*
X230049000Y-47934000D03*
X226923000Y-42710000D03*
X230023000Y-42710000D03*
D13*
X216815000Y-45466000D03*
X213715000Y-45466000D03*
X216789000Y-50546000D03*
X213689000Y-50546000D03*
X240411000Y-64262000D03*
X237311000Y-64262000D03*
X240411000Y-69342000D03*
X237311000Y-69342000D03*
D12*
X251079000Y-68072000D03*
X254179000Y-68072000D03*
X251079000Y-62992000D03*
X254179000Y-62992000D03*
X245784000Y-50038000D03*
X248884000Y-50038000D03*
X245784000Y-44958000D03*
X248884000Y-44958000D03*
D13*
X235676000Y-42799000D03*
X232576000Y-42799000D03*
X235650000Y-47879000D03*
X232550000Y-47879000D03*
D12*
X226923000Y-50546000D03*
X230023000Y-50546000D03*
X226923000Y-45322000D03*
X230023000Y-45322000D03*
D13*
X216815000Y-42926000D03*
X213715000Y-42926000D03*
X216789000Y-48006000D03*
X213689000Y-48006000D03*
X240411000Y-61722000D03*
X237311000Y-61722000D03*
X240411000Y-66802000D03*
X237311000Y-66802000D03*
D12*
X251079000Y-70612000D03*
X254179000Y-70612000D03*
X251079000Y-65532000D03*
X254179000Y-65532000D03*
D14*
X173863000Y-89796000D03*
X190627000Y-89796000D03*
D15*
X186817000Y-90186000D03*
X177673000Y-90186000D03*
D16*
X186817000Y-92336000D03*
D15*
X177673000Y-94486000D03*
D14*
X190627000Y-94876000D03*
D15*
X186817000Y-94486000D03*
D14*
X173863000Y-94876000D03*
D16*
X177673000Y-92336000D03*
D17*
X246253000Y-75412000D03*
X246253000Y-78512000D03*
D13*
X237155000Y-30988000D03*
X234055000Y-30988000D03*
D12*
X234035000Y-33770000D03*
X237135000Y-33770000D03*
M02*
