%TF.GenerationSoftware,KiCad,Pcbnew,6.0.11+dfsg-1~bpo11+1*%
%TF.CreationDate,2025-04-06T19:31:29+02:00*%
%TF.ProjectId,v4d2_pico,76346432-5f70-4696-936f-2e6b69636164,rev?*%
%TF.SameCoordinates,Original*%
%TF.FileFunction,Soldermask,Top*%
%TF.FilePolarity,Negative*%
%FSLAX46Y46*%
G04 Gerber Fmt 4.6, Leading zero omitted, Abs format (unit mm)*
G04 Created by KiCad (PCBNEW 6.0.11+dfsg-1~bpo11+1) date 2025-04-06 19:31:29*
%MOMM*%
%LPD*%
G01*
G04 APERTURE LIST*
G04 Aperture macros list*
%AMRoundRect*
0 Rectangle with rounded corners*
0 $1 Rounding radius*
0 $2 $3 $4 $5 $6 $7 $8 $9 X,Y pos of 4 corners*
0 Add a 4 corners polygon primitive as box body*
4,1,4,$2,$3,$4,$5,$6,$7,$8,$9,$2,$3,0*
0 Add four circle primitives for the rounded corners*
1,1,$1+$1,$2,$3*
1,1,$1+$1,$4,$5*
1,1,$1+$1,$6,$7*
1,1,$1+$1,$8,$9*
0 Add four rect primitives between the rounded corners*
20,1,$1+$1,$2,$3,$4,$5,0*
20,1,$1+$1,$4,$5,$6,$7,0*
20,1,$1+$1,$6,$7,$8,$9,0*
20,1,$1+$1,$8,$9,$2,$3,0*%
G04 Aperture macros list end*
%ADD10R,1.600000X1.600000*%
%ADD11C,1.600000*%
%ADD12R,2.500000X2.500000*%
%ADD13RoundRect,0.150000X-0.825000X-0.150000X0.825000X-0.150000X0.825000X0.150000X-0.825000X0.150000X0*%
%ADD14RoundRect,0.150000X0.825000X0.150000X-0.825000X0.150000X-0.825000X-0.150000X0.825000X-0.150000X0*%
%ADD15RoundRect,0.250000X0.350000X0.625000X-0.350000X0.625000X-0.350000X-0.625000X0.350000X-0.625000X0*%
%ADD16O,1.200000X1.750000*%
%ADD17RoundRect,0.250000X-0.350000X-0.625000X0.350000X-0.625000X0.350000X0.625000X-0.350000X0.625000X0*%
%ADD18C,3.200000*%
%ADD19RoundRect,0.250000X-0.400000X-0.625000X0.400000X-0.625000X0.400000X0.625000X-0.400000X0.625000X0*%
%ADD20RoundRect,0.250000X0.400000X0.625000X-0.400000X0.625000X-0.400000X-0.625000X0.400000X-0.625000X0*%
%ADD21O,1.600000X1.600000*%
%ADD22O,1.700000X1.700000*%
%ADD23R,1.700000X1.700000*%
%ADD24RoundRect,0.250000X-0.600000X-0.750000X0.600000X-0.750000X0.600000X0.750000X-0.600000X0.750000X0*%
%ADD25O,1.700000X2.000000*%
%ADD26R,1.500000X1.500000*%
%ADD27O,1.500000X1.500000*%
%ADD28RoundRect,0.250000X0.750000X-0.600000X0.750000X0.600000X-0.750000X0.600000X-0.750000X-0.600000X0*%
%ADD29O,2.000000X1.700000*%
%ADD30RoundRect,0.500000X-1.000000X-0.500000X1.000000X-0.500000X1.000000X0.500000X-1.000000X0.500000X0*%
%ADD31C,1.700000*%
%ADD32C,1.400000*%
%ADD33RoundRect,0.425000X-0.725000X-0.425000X0.725000X-0.425000X0.725000X0.425000X-0.725000X0.425000X0*%
%ADD34C,2.000000*%
%ADD35RoundRect,0.300000X-0.850000X-0.300000X0.850000X-0.300000X0.850000X0.300000X-0.850000X0.300000X0*%
%ADD36RoundRect,0.250000X-0.625000X0.400000X-0.625000X-0.400000X0.625000X-0.400000X0.625000X0.400000X0*%
%ADD37C,1.524000*%
%ADD38O,1.524000X2.000000*%
%ADD39O,2.000000X1.524000*%
%ADD40C,4.300000*%
%ADD41R,1.560000X1.560000*%
%ADD42C,1.560000*%
%ADD43R,1.800000X1.100000*%
%ADD44RoundRect,0.275000X-0.625000X0.275000X-0.625000X-0.275000X0.625000X-0.275000X0.625000X0.275000X0*%
%ADD45R,1.200000X1.200000*%
%ADD46C,1.200000*%
%ADD47RoundRect,0.250000X0.600000X0.750000X-0.600000X0.750000X-0.600000X-0.750000X0.600000X-0.750000X0*%
G04 APERTURE END LIST*
D10*
X217975000Y-68326000D03*
D11*
X220475000Y-68326000D03*
X246293000Y-60198000D03*
X248793000Y-60198000D03*
D12*
X222377000Y-100838000D03*
X227605000Y-96774000D03*
X234569000Y-100838000D03*
X234569000Y-108966000D03*
X222377000Y-108966000D03*
X223901000Y-104902000D03*
X223541000Y-96774000D03*
X230505000Y-100838000D03*
X214249000Y-108966000D03*
X235733000Y-96774000D03*
X232029000Y-104902000D03*
X236093000Y-104902000D03*
X214249000Y-100838000D03*
X231669000Y-96774000D03*
X226441000Y-100838000D03*
X218313000Y-108966000D03*
X211709000Y-104902000D03*
X230505000Y-108966000D03*
X227965000Y-104902000D03*
X215773000Y-104902000D03*
X218313000Y-100838000D03*
X226441000Y-108966000D03*
X219837000Y-104902000D03*
X206121000Y-33274000D03*
X209677000Y-33274000D03*
X213233000Y-33274000D03*
D13*
X238190000Y-41910000D03*
X238190000Y-43180000D03*
X238190000Y-44450000D03*
X238190000Y-45720000D03*
X238190000Y-46990000D03*
X238190000Y-48260000D03*
X238190000Y-49530000D03*
X238190000Y-50800000D03*
X243140000Y-50800000D03*
X243140000Y-49530000D03*
X243140000Y-48260000D03*
X243140000Y-46990000D03*
X243140000Y-45720000D03*
X243140000Y-44450000D03*
X243140000Y-43180000D03*
X243140000Y-41910000D03*
X219394000Y-42037000D03*
X219394000Y-43307000D03*
X219394000Y-44577000D03*
X219394000Y-45847000D03*
X219394000Y-47117000D03*
X219394000Y-48387000D03*
X219394000Y-49657000D03*
X219394000Y-50927000D03*
X224344000Y-50927000D03*
X224344000Y-49657000D03*
X224344000Y-48387000D03*
X224344000Y-47117000D03*
X224344000Y-45847000D03*
X224344000Y-44577000D03*
X224344000Y-43307000D03*
X224344000Y-42037000D03*
D14*
X248220000Y-72317000D03*
X248220000Y-71047000D03*
X248220000Y-69777000D03*
X248220000Y-68507000D03*
X248220000Y-67237000D03*
X248220000Y-65967000D03*
X248220000Y-64697000D03*
X248220000Y-63427000D03*
X243270000Y-63427000D03*
X243270000Y-64697000D03*
X243270000Y-65967000D03*
X243270000Y-67237000D03*
X243270000Y-68507000D03*
X243270000Y-69777000D03*
X243270000Y-71047000D03*
X243270000Y-72317000D03*
D10*
X242189000Y-95886700D03*
D11*
X242189000Y-92386700D03*
D15*
X226885000Y-62780000D03*
D16*
X224885000Y-62780000D03*
X222885000Y-62780000D03*
X220885000Y-62780000D03*
X218885000Y-62780000D03*
D17*
X225933000Y-73914000D03*
D16*
X227933000Y-73914000D03*
X229933000Y-73914000D03*
X231933000Y-73914000D03*
X233933000Y-73914000D03*
X235933000Y-73914000D03*
X237933000Y-73914000D03*
D17*
X205613000Y-61722000D03*
D16*
X207613000Y-61722000D03*
X209613000Y-61722000D03*
D12*
X244729000Y-29210000D03*
X244729000Y-32766000D03*
X248285000Y-29210000D03*
X248285000Y-32766000D03*
X241173000Y-32766000D03*
X251841000Y-32766000D03*
D18*
X249472000Y-21399500D03*
X210534000Y-21399500D03*
D19*
X245784000Y-47498000D03*
X248884000Y-47498000D03*
X245784000Y-42418000D03*
X248884000Y-42418000D03*
D20*
X235676000Y-45339000D03*
X232576000Y-45339000D03*
X235702000Y-50419000D03*
X232602000Y-50419000D03*
D19*
X226949000Y-47934000D03*
X230049000Y-47934000D03*
X226923000Y-42710000D03*
X230023000Y-42710000D03*
D20*
X216815000Y-45466000D03*
X213715000Y-45466000D03*
X216789000Y-50546000D03*
X213689000Y-50546000D03*
X240411000Y-64262000D03*
X237311000Y-64262000D03*
X240411000Y-69342000D03*
X237311000Y-69342000D03*
D19*
X251079000Y-68072000D03*
X254179000Y-68072000D03*
X251079000Y-62992000D03*
X254179000Y-62992000D03*
X245784000Y-50038000D03*
X248884000Y-50038000D03*
X245784000Y-44958000D03*
X248884000Y-44958000D03*
D20*
X235676000Y-42799000D03*
X232576000Y-42799000D03*
X235650000Y-47879000D03*
X232550000Y-47879000D03*
D19*
X226923000Y-50546000D03*
X230023000Y-50546000D03*
X226923000Y-45322000D03*
X230023000Y-45322000D03*
D20*
X216815000Y-42926000D03*
X213715000Y-42926000D03*
X216789000Y-48006000D03*
X213689000Y-48006000D03*
X240411000Y-61722000D03*
X237311000Y-61722000D03*
X240411000Y-66802000D03*
X237311000Y-66802000D03*
D19*
X251079000Y-70612000D03*
X254179000Y-70612000D03*
X251079000Y-65532000D03*
X254179000Y-65532000D03*
D11*
X234061000Y-68072000D03*
D21*
X234061000Y-60452000D03*
D11*
X213635000Y-91542000D03*
D21*
X213635000Y-83922000D03*
D11*
X214757000Y-68072000D03*
D21*
X214757000Y-60452000D03*
D22*
X253635000Y-38100000D03*
X251095000Y-38100000D03*
D23*
X248555000Y-38100000D03*
D22*
X246015000Y-38100000D03*
X243475000Y-38100000D03*
X240935000Y-38100000D03*
X238395000Y-38100000D03*
D23*
X235855000Y-38100000D03*
D22*
X233315000Y-38100000D03*
X230775000Y-38100000D03*
X228235000Y-38100000D03*
X225695000Y-38100000D03*
D23*
X223155000Y-38100000D03*
D22*
X220615000Y-38100000D03*
X218075000Y-38100000D03*
X215535000Y-38100000D03*
X212995000Y-38100000D03*
D23*
X210455000Y-38100000D03*
D22*
X207915000Y-38100000D03*
X205375000Y-38100000D03*
X205375000Y-55880000D03*
X207915000Y-55880000D03*
D23*
X210455000Y-55880000D03*
D22*
X212995000Y-55880000D03*
X215535000Y-55880000D03*
X218075000Y-55880000D03*
X220615000Y-55880000D03*
D23*
X223155000Y-55880000D03*
D22*
X225695000Y-55880000D03*
X228235000Y-55880000D03*
X230775000Y-55880000D03*
X233315000Y-55880000D03*
D23*
X235855000Y-55880000D03*
D22*
X238395000Y-55880000D03*
X240935000Y-55880000D03*
X243475000Y-55880000D03*
X246015000Y-55880000D03*
D23*
X248555000Y-55880000D03*
D22*
X251095000Y-55880000D03*
X253635000Y-55880000D03*
X205605000Y-44450000D03*
D23*
X205605000Y-46990000D03*
D22*
X205605000Y-49530000D03*
D18*
X172343000Y-101878000D03*
D10*
X213497000Y-73162000D03*
D21*
X213497000Y-75702000D03*
X213497000Y-78242000D03*
X213497000Y-80782000D03*
X221117000Y-80782000D03*
X221117000Y-78242000D03*
X221117000Y-75702000D03*
X221117000Y-73162000D03*
D18*
X207137000Y-86614000D03*
D10*
X231003000Y-26934000D03*
D21*
X228463000Y-26934000D03*
X225923000Y-26934000D03*
X223383000Y-26934000D03*
X223383000Y-34554000D03*
X225923000Y-34554000D03*
X228463000Y-34554000D03*
X231003000Y-34554000D03*
D24*
X206121000Y-92710000D03*
D25*
X208621000Y-92710000D03*
D11*
X178649000Y-44296000D03*
X176149000Y-44296000D03*
X238633000Y-86868000D03*
D21*
X238633000Y-79248000D03*
D17*
X240665000Y-101854000D03*
D16*
X242665000Y-101854000D03*
X244665000Y-101854000D03*
D10*
X227721000Y-79766000D03*
D21*
X227721000Y-82306000D03*
X227721000Y-84846000D03*
X227721000Y-87386000D03*
X235341000Y-87386000D03*
X235341000Y-84846000D03*
X235341000Y-82306000D03*
X235341000Y-79766000D03*
D18*
X184969000Y-54638000D03*
D26*
X224917000Y-79751000D03*
D27*
X224917000Y-87371000D03*
D17*
X178245000Y-100838000D03*
D16*
X180245000Y-100838000D03*
X182245000Y-100838000D03*
X184245000Y-100838000D03*
X186245000Y-100838000D03*
D12*
X196977000Y-36322000D03*
D28*
X190373000Y-44450000D03*
D29*
X190373000Y-41950000D03*
D12*
X172593000Y-43942000D03*
D18*
X253111000Y-90170000D03*
D30*
X173863000Y-89796000D03*
D31*
X185195000Y-90186000D03*
D32*
X185195000Y-92336000D03*
D30*
X190627000Y-89796000D03*
D33*
X186817000Y-90186000D03*
D31*
X179295000Y-90186000D03*
D34*
X175895000Y-89796000D03*
D33*
X177673000Y-90186000D03*
D34*
X188595000Y-89796000D03*
D35*
X186817000Y-92336000D03*
D31*
X179295000Y-94486000D03*
D34*
X188595000Y-94876000D03*
D33*
X177673000Y-94486000D03*
D30*
X190627000Y-94876000D03*
D32*
X179295000Y-92336000D03*
D33*
X186817000Y-94486000D03*
D34*
X175895000Y-94876000D03*
D30*
X173863000Y-94876000D03*
D35*
X177673000Y-92336000D03*
D31*
X185195000Y-94486000D03*
D36*
X246253000Y-75412000D03*
X246253000Y-78512000D03*
D37*
X176245000Y-69446000D03*
X188245000Y-81446000D03*
D38*
X180245000Y-84046000D03*
X182245000Y-84046000D03*
X184245000Y-84046000D03*
D39*
X173645000Y-73446000D03*
X173645000Y-75446000D03*
X173645000Y-77446000D03*
D20*
X237155000Y-30988000D03*
X234055000Y-30988000D03*
D40*
X196469000Y-24638000D03*
D11*
X225231000Y-90678000D03*
D21*
X232731000Y-90678000D03*
D18*
X192343000Y-101878000D03*
D11*
X242189000Y-86868000D03*
D21*
X242189000Y-79248000D03*
D23*
X178619000Y-36816000D03*
D22*
X181159000Y-36816000D03*
X183699000Y-36816000D03*
X186239000Y-36816000D03*
X188779000Y-36816000D03*
X191319000Y-36816000D03*
D41*
X181229000Y-40894000D03*
D42*
X183729000Y-45894000D03*
X186229000Y-40894000D03*
D11*
X178415000Y-41248000D03*
X175915000Y-41248000D03*
D19*
X234035000Y-33770000D03*
X237135000Y-33770000D03*
D18*
X192343000Y-64262000D03*
D11*
X231013000Y-68072000D03*
D21*
X231013000Y-60452000D03*
D43*
X217675000Y-94032000D03*
D44*
X219745000Y-95302000D03*
X217675000Y-96572000D03*
D18*
X172343000Y-64262000D03*
D24*
X251099000Y-76454000D03*
D25*
X253599000Y-76454000D03*
D40*
X173469000Y-24638000D03*
D45*
X224917000Y-67463000D03*
D46*
X224917000Y-69463000D03*
D17*
X174117000Y-49530000D03*
D16*
X176117000Y-49530000D03*
X178117000Y-49530000D03*
X180117000Y-49530000D03*
D15*
X209645000Y-76544000D03*
D16*
X207645000Y-76544000D03*
X205645000Y-76544000D03*
X203645000Y-76544000D03*
D47*
X253365000Y-96774000D03*
D25*
X250865000Y-96774000D03*
M02*
