M48
; DRILL file {KiCad 6.0.11+dfsg-1~bpo11+1} date mar. 08 avril 2025 22:30:39
; FORMAT={-:-/ absolute / metric / decimal}
; #@! TF.CreationDate,2025-04-08T22:30:39+02:00
; #@! TF.GenerationSoftware,Kicad,Pcbnew,6.0.11+dfsg-1~bpo11+1
; #@! TF.FileFunction,Plated,1,2,PTH
FMAT,2
METRIC
; #@! TA.AperFunction,Plated,PTH,ViaDrill
T1C0.400
; #@! TA.AperFunction,Plated,PTH,ComponentDrill
T2C0.600
; #@! TA.AperFunction,Plated,PTH,ComponentDrill
T3C0.750
; #@! TA.AperFunction,Plated,PTH,ComponentDrill
T4C0.800
; #@! TA.AperFunction,Plated,PTH,ComponentDrill
T5C0.850
; #@! TA.AperFunction,Plated,PTH,ComponentDrill
T6C1.000
; #@! TA.AperFunction,Plated,PTH,ComponentDrill
T7C1.020
; #@! TA.AperFunction,Plated,PTH,ComponentDrill
T8C1.200
%
G90
G05
T1
X208.557Y-42.393
X210.464Y-99.857
X210.945Y-101.994
X211.655Y-50.824
X212.086Y-81.016
X212.21Y-64.661
X212.232Y-57.813
X213.1Y-67.444
X214.502Y-89.668
X214.633Y-54.563
X215.655Y-96.819
X215.949Y-62.485
X216.71Y-39.557
X216.738Y-110.838
X217.156Y-91.198
X217.606Y-52.617
X217.962Y-64.996
X218.075Y-32.668
X219.219Y-36.413
X219.888Y-98.976
X221.558Y-70.473
X222.549Y-45.347
X222.986Y-80.101
X223.193Y-57.865
X223.799Y-90.881
X223.842Y-81.095
X223.868Y-72.915
X224.468Y-52.824
X225.599Y-51.721
X226.863Y-70.917
X227.456Y-57.943
X228.903Y-66.526
X230.169Y-64.82
X232.14Y-41.298
X234.061Y-105.899
X234.319Y-43.505
X236.797Y-40.915
X237.583Y-58.009
X238.19Y-40.658
X238.518Y-72.439
X239.703Y-74.894
X239.924Y-43.857
X240.221Y-46.146
X240.284Y-42.482
X240.427Y-35.902
X240.8Y-51.819
X241.525Y-49.392
X242.096Y-61.713
X242.216Y-105.632
X242.44Y-100.079
X242.721Y-51.704
X243.569Y-78.076
X243.8Y-105.392
X244.756Y-78.512
X244.818Y-63.997
X245.419Y-52.809
X245.481Y-68.518
X245.56Y-71.228
X245.685Y-58.536
X249.812Y-69.841
X249.911Y-53.487
X251.682Y-53.666
X252.091Y-73.186
X252.337Y-62.992
X253.565Y-58.268
X254.762Y-59.309
T2
X224.917Y-67.463
X224.917Y-69.463
T3
X174.117Y-49.53
X176.117Y-49.53
X178.117Y-49.53
X178.245Y-100.838
X180.117Y-49.53
X180.245Y-100.838
X182.245Y-100.838
X184.245Y-100.838
X186.245Y-100.838
X203.645Y-76.544
X205.613Y-61.722
X205.645Y-76.544
X207.613Y-61.722
X207.645Y-76.544
X209.613Y-61.722
X209.645Y-76.544
X218.075Y-94.032
X218.075Y-96.572
X218.885Y-62.78
X219.345Y-95.302
X220.885Y-62.78
X222.885Y-62.78
X224.885Y-62.78
X224.917Y-79.751
X224.917Y-87.371
X225.933Y-73.914
X226.885Y-62.78
X227.933Y-73.914
X229.933Y-73.914
X231.933Y-73.914
X233.933Y-73.914
X235.933Y-73.914
X237.933Y-73.914
X240.665Y-101.854
X242.665Y-101.854
X244.665Y-101.854
T4
X175.915Y-41.248
X176.149Y-44.296
X178.415Y-41.248
X178.649Y-44.296
X213.487Y-87.757
X213.497Y-73.162
X213.497Y-75.702
X213.497Y-78.242
X213.497Y-80.782
X213.614Y-84.074
X214.757Y-60.452
X214.757Y-68.072
X217.975Y-68.326
X220.475Y-68.326
X221.107Y-87.757
X221.114Y-84.074
X221.117Y-73.162
X221.117Y-75.702
X221.117Y-78.242
X221.117Y-80.782
X223.383Y-26.934
X223.383Y-34.554
X225.231Y-90.678
X225.923Y-26.934
X225.923Y-34.554
X227.721Y-79.766
X227.721Y-82.306
X227.721Y-84.846
X227.721Y-87.386
X228.463Y-26.934
X228.463Y-34.554
X231.003Y-26.934
X231.003Y-34.554
X231.013Y-60.452
X231.013Y-68.072
X232.731Y-90.678
X234.061Y-60.452
X234.061Y-68.072
X235.341Y-79.766
X235.341Y-82.306
X235.341Y-84.846
X235.341Y-87.386
X238.633Y-79.248
X238.633Y-86.868
X242.189Y-79.248
X242.189Y-86.868
X242.189Y-92.387
X242.189Y-95.887
X246.293Y-60.198
X248.793Y-60.198
T5
X179.295Y-90.186
X179.295Y-92.336
X179.295Y-94.486
X185.195Y-90.186
X185.195Y-92.336
X185.195Y-94.486
T6
X173.645Y-73.446
X173.645Y-75.446
X173.645Y-77.446
X178.619Y-36.816
X180.245Y-84.046
X181.159Y-36.816
X181.229Y-40.894
X182.245Y-84.046
X183.699Y-36.816
X183.729Y-45.894
X184.245Y-84.046
X186.229Y-40.894
X186.239Y-36.816
X188.779Y-36.816
X190.373Y-41.95
X190.373Y-44.45
X191.319Y-36.816
X206.121Y-92.71
X208.621Y-92.71
X250.865Y-96.774
X251.099Y-76.454
X253.365Y-96.774
X253.599Y-76.454
T7
X205.375Y-38.1
X205.375Y-55.88
X205.605Y-44.45
X205.605Y-46.99
X205.605Y-49.53
X207.915Y-38.1
X207.915Y-55.88
X210.455Y-38.1
X210.455Y-55.88
X212.995Y-38.1
X212.995Y-55.88
X215.535Y-38.1
X215.535Y-55.88
X218.075Y-38.1
X218.075Y-55.88
X220.615Y-38.1
X220.615Y-55.88
X223.155Y-38.1
X223.155Y-55.88
X225.695Y-38.1
X225.695Y-55.88
X228.235Y-38.1
X228.235Y-55.88
X230.775Y-38.1
X230.775Y-55.88
X233.315Y-38.1
X233.315Y-55.88
X235.855Y-38.1
X235.855Y-55.88
X238.395Y-38.1
X238.395Y-55.88
X240.935Y-38.1
X240.935Y-55.88
X243.475Y-38.1
X243.475Y-55.88
X246.015Y-38.1
X246.015Y-55.88
X248.555Y-38.1
X248.555Y-55.88
X251.095Y-38.1
X251.095Y-55.88
X253.635Y-38.1
X253.635Y-55.88
T8
X172.593Y-43.942
X175.895Y-89.796
X175.895Y-94.876
X188.595Y-89.796
X188.595Y-94.876
X196.977Y-36.322
X206.121Y-33.274
X209.677Y-33.274
X211.709Y-104.902
X213.233Y-33.274
X214.249Y-100.838
X214.249Y-108.966
X215.773Y-104.902
X218.313Y-100.838
X218.313Y-108.966
X219.837Y-104.902
X222.377Y-100.838
X222.377Y-108.966
X223.541Y-96.774
X223.901Y-104.902
X226.441Y-100.838
X226.441Y-108.966
X227.605Y-96.774
X227.965Y-104.902
X230.505Y-100.838
X230.505Y-108.966
X231.669Y-96.774
X232.029Y-104.902
X234.569Y-100.838
X234.569Y-108.966
X235.733Y-96.774
X236.093Y-104.902
X241.173Y-32.766
X244.729Y-29.21
X244.729Y-32.766
X248.285Y-29.21
X248.285Y-32.766
X251.841Y-32.766
T0
M30
