%TF.GenerationSoftware,KiCad,Pcbnew,6.0.11+dfsg-1~bpo11+1*%
%TF.CreationDate,2023-11-13T20:24:25+01:00*%
%TF.ProjectId,v4_pico,76345f70-6963-46f2-9e6b-696361645f70,rev?*%
%TF.SameCoordinates,Original*%
%TF.FileFunction,Drillmap*%
%TF.FilePolarity,Positive*%
%FSLAX45Y45*%
G04 Gerber Fmt 4.5, Leading zero omitted, Abs format (unit mm)*
G04 Created by KiCad (PCBNEW 6.0.11+dfsg-1~bpo11+1) date 2023-11-13 20:24:25*
%MOMM*%
%LPD*%
G01*
G04 APERTURE LIST*
%ADD10C,0.150000*%
%ADD11C,0.200000*%
%ADD12C,0.320000*%
%ADD13C,0.430000*%
G04 APERTURE END LIST*
D10*
X18199100Y-5943600D02*
X18910300Y-5943600D01*
X24332200Y-11165570D02*
X21233400Y-11163030D01*
X21233400Y-11163030D02*
X20256500Y-9728200D01*
X17005300Y-6223000D02*
X19443700Y-6223000D01*
X19443700Y-6223000D02*
X19443700Y-10388600D01*
X19443700Y-10388600D02*
X17005300Y-10388600D01*
X17005300Y-10388600D02*
X17005300Y-6223000D01*
X20078700Y-2387600D02*
X19469100Y-1727200D01*
X25679400Y-1651000D02*
X25679400Y-9867900D01*
X16929100Y-2438400D02*
X16929100Y-4978400D01*
X20256500Y-1651000D02*
X20256500Y-1752600D01*
X25679400Y-9867900D02*
X24332200Y-11165570D01*
X16929100Y-4978400D02*
X18199100Y-5943600D01*
X19469100Y-1727200D02*
X17538700Y-1727200D01*
X20256500Y-1651000D02*
X25679400Y-1651000D01*
X20078700Y-2387600D02*
X20078700Y-3632200D01*
X18910300Y-5943600D02*
X20078700Y-3632200D01*
X17538700Y-1727200D02*
X16929100Y-2438400D01*
X20256500Y-1752600D02*
X20256500Y-9728200D01*
D11*
D10*
X17549500Y-6869600D02*
X17699500Y-7019600D01*
X17699500Y-6869600D02*
X17549500Y-7019600D01*
X18749500Y-8069600D02*
X18899500Y-8219600D01*
X18899500Y-8069600D02*
X18749500Y-8219600D01*
D12*
X17394300Y-6426200D02*
G75*
G03*
X17394300Y-6426200I-160000J0D01*
G01*
X17394300Y-10187800D02*
G75*
G03*
X17394300Y-10187800I-160000J0D01*
G01*
X18656900Y-5463800D02*
G75*
G03*
X18656900Y-5463800I-160000J0D01*
G01*
X19394300Y-6426200D02*
G75*
G03*
X19394300Y-6426200I-160000J0D01*
G01*
X19394300Y-10187800D02*
G75*
G03*
X19394300Y-10187800I-160000J0D01*
G01*
X20873700Y-8661400D02*
G75*
G03*
X20873700Y-8661400I-160000J0D01*
G01*
X21213400Y-2139950D02*
G75*
G03*
X21213400Y-2139950I-160000J0D01*
G01*
X25107200Y-2139950D02*
G75*
G03*
X25107200Y-2139950I-160000J0D01*
G01*
X25471100Y-9017000D02*
G75*
G03*
X25471100Y-9017000I-160000J0D01*
G01*
D13*
X17346900Y-2248800D02*
X17346900Y-2678800D01*
X17131900Y-2463800D02*
X17561900Y-2463800D01*
X19646900Y-2248800D02*
X19646900Y-2678800D01*
X19431900Y-2463800D02*
X19861900Y-2463800D01*
D11*
X17179219Y-11483546D02*
X17179219Y-11283546D01*
X17226838Y-11283546D01*
X17255410Y-11293070D01*
X17274457Y-11312118D01*
X17283981Y-11331165D01*
X17293505Y-11369260D01*
X17293505Y-11397832D01*
X17283981Y-11435927D01*
X17274457Y-11454975D01*
X17255410Y-11474022D01*
X17226838Y-11483546D01*
X17179219Y-11483546D01*
X17379219Y-11483546D02*
X17379219Y-11350213D01*
X17379219Y-11388308D02*
X17388743Y-11369260D01*
X17398267Y-11359737D01*
X17417314Y-11350213D01*
X17436362Y-11350213D01*
X17503029Y-11483546D02*
X17503029Y-11350213D01*
X17503029Y-11283546D02*
X17493505Y-11293070D01*
X17503029Y-11302594D01*
X17512552Y-11293070D01*
X17503029Y-11283546D01*
X17503029Y-11302594D01*
X17626838Y-11483546D02*
X17607790Y-11474022D01*
X17598267Y-11454975D01*
X17598267Y-11283546D01*
X17731600Y-11483546D02*
X17712552Y-11474022D01*
X17703029Y-11454975D01*
X17703029Y-11283546D01*
X17960171Y-11483546D02*
X17960171Y-11283546D01*
X18026838Y-11426403D01*
X18093505Y-11283546D01*
X18093505Y-11483546D01*
X18274457Y-11483546D02*
X18274457Y-11378784D01*
X18264933Y-11359737D01*
X18245886Y-11350213D01*
X18207790Y-11350213D01*
X18188743Y-11359737D01*
X18274457Y-11474022D02*
X18255410Y-11483546D01*
X18207790Y-11483546D01*
X18188743Y-11474022D01*
X18179219Y-11454975D01*
X18179219Y-11435927D01*
X18188743Y-11416879D01*
X18207790Y-11407356D01*
X18255410Y-11407356D01*
X18274457Y-11397832D01*
X18369695Y-11350213D02*
X18369695Y-11550213D01*
X18369695Y-11359737D02*
X18388743Y-11350213D01*
X18426838Y-11350213D01*
X18445886Y-11359737D01*
X18455410Y-11369260D01*
X18464933Y-11388308D01*
X18464933Y-11445451D01*
X18455410Y-11464498D01*
X18445886Y-11474022D01*
X18426838Y-11483546D01*
X18388743Y-11483546D01*
X18369695Y-11474022D01*
X18550648Y-11464498D02*
X18560171Y-11474022D01*
X18550648Y-11483546D01*
X18541124Y-11474022D01*
X18550648Y-11464498D01*
X18550648Y-11483546D01*
X18550648Y-11359737D02*
X18560171Y-11369260D01*
X18550648Y-11378784D01*
X18541124Y-11369260D01*
X18550648Y-11359737D01*
X18550648Y-11378784D01*
D10*
X16771600Y-11738070D02*
X16921600Y-11888070D01*
X16921600Y-11738070D02*
X16771600Y-11888070D01*
D11*
X17283981Y-11903546D02*
X17169695Y-11903546D01*
X17226838Y-11903546D02*
X17226838Y-11703546D01*
X17207790Y-11732118D01*
X17188743Y-11751165D01*
X17169695Y-11760689D01*
X17369695Y-11884498D02*
X17379219Y-11894022D01*
X17369695Y-11903546D01*
X17360171Y-11894022D01*
X17369695Y-11884498D01*
X17369695Y-11903546D01*
X17560171Y-11703546D02*
X17464933Y-11703546D01*
X17455410Y-11798784D01*
X17464933Y-11789260D01*
X17483981Y-11779737D01*
X17531600Y-11779737D01*
X17550648Y-11789260D01*
X17560171Y-11798784D01*
X17569695Y-11817832D01*
X17569695Y-11865451D01*
X17560171Y-11884498D01*
X17550648Y-11894022D01*
X17531600Y-11903546D01*
X17483981Y-11903546D01*
X17464933Y-11894022D01*
X17455410Y-11884498D01*
X17693505Y-11703546D02*
X17712552Y-11703546D01*
X17731600Y-11713070D01*
X17741124Y-11722594D01*
X17750648Y-11741641D01*
X17760171Y-11779737D01*
X17760171Y-11827356D01*
X17750648Y-11865451D01*
X17741124Y-11884498D01*
X17731600Y-11894022D01*
X17712552Y-11903546D01*
X17693505Y-11903546D01*
X17674457Y-11894022D01*
X17664933Y-11884498D01*
X17655410Y-11865451D01*
X17645886Y-11827356D01*
X17645886Y-11779737D01*
X17655410Y-11741641D01*
X17664933Y-11722594D01*
X17674457Y-11713070D01*
X17693505Y-11703546D01*
X17883981Y-11703546D02*
X17903029Y-11703546D01*
X17922076Y-11713070D01*
X17931600Y-11722594D01*
X17941124Y-11741641D01*
X17950648Y-11779737D01*
X17950648Y-11827356D01*
X17941124Y-11865451D01*
X17931600Y-11884498D01*
X17922076Y-11894022D01*
X17903029Y-11903546D01*
X17883981Y-11903546D01*
X17864933Y-11894022D01*
X17855410Y-11884498D01*
X17845886Y-11865451D01*
X17836362Y-11827356D01*
X17836362Y-11779737D01*
X17845886Y-11741641D01*
X17855410Y-11722594D01*
X17864933Y-11713070D01*
X17883981Y-11703546D01*
X18036362Y-11903546D02*
X18036362Y-11770213D01*
X18036362Y-11789260D02*
X18045886Y-11779737D01*
X18064933Y-11770213D01*
X18093505Y-11770213D01*
X18112552Y-11779737D01*
X18122076Y-11798784D01*
X18122076Y-11903546D01*
X18122076Y-11798784D02*
X18131600Y-11779737D01*
X18150648Y-11770213D01*
X18179219Y-11770213D01*
X18198267Y-11779737D01*
X18207790Y-11798784D01*
X18207790Y-11903546D01*
X18303029Y-11903546D02*
X18303029Y-11770213D01*
X18303029Y-11789260D02*
X18312552Y-11779737D01*
X18331600Y-11770213D01*
X18360171Y-11770213D01*
X18379219Y-11779737D01*
X18388743Y-11798784D01*
X18388743Y-11903546D01*
X18388743Y-11798784D02*
X18398267Y-11779737D01*
X18417314Y-11770213D01*
X18445886Y-11770213D01*
X18464933Y-11779737D01*
X18474457Y-11798784D01*
X18474457Y-11903546D01*
X18864933Y-11694022D02*
X18693505Y-11951165D01*
X19122076Y-11703546D02*
X19141124Y-11703546D01*
X19160171Y-11713070D01*
X19169695Y-11722594D01*
X19179219Y-11741641D01*
X19188743Y-11779737D01*
X19188743Y-11827356D01*
X19179219Y-11865451D01*
X19169695Y-11884498D01*
X19160171Y-11894022D01*
X19141124Y-11903546D01*
X19122076Y-11903546D01*
X19103029Y-11894022D01*
X19093505Y-11884498D01*
X19083981Y-11865451D01*
X19074457Y-11827356D01*
X19074457Y-11779737D01*
X19083981Y-11741641D01*
X19093505Y-11722594D01*
X19103029Y-11713070D01*
X19122076Y-11703546D01*
X19274457Y-11884498D02*
X19283981Y-11894022D01*
X19274457Y-11903546D01*
X19264933Y-11894022D01*
X19274457Y-11884498D01*
X19274457Y-11903546D01*
X19407790Y-11703546D02*
X19426838Y-11703546D01*
X19445886Y-11713070D01*
X19455410Y-11722594D01*
X19464933Y-11741641D01*
X19474457Y-11779737D01*
X19474457Y-11827356D01*
X19464933Y-11865451D01*
X19455410Y-11884498D01*
X19445886Y-11894022D01*
X19426838Y-11903546D01*
X19407790Y-11903546D01*
X19388743Y-11894022D01*
X19379219Y-11884498D01*
X19369695Y-11865451D01*
X19360171Y-11827356D01*
X19360171Y-11779737D01*
X19369695Y-11741641D01*
X19379219Y-11722594D01*
X19388743Y-11713070D01*
X19407790Y-11703546D01*
X19655410Y-11703546D02*
X19560171Y-11703546D01*
X19550648Y-11798784D01*
X19560171Y-11789260D01*
X19579219Y-11779737D01*
X19626838Y-11779737D01*
X19645886Y-11789260D01*
X19655410Y-11798784D01*
X19664933Y-11817832D01*
X19664933Y-11865451D01*
X19655410Y-11884498D01*
X19645886Y-11894022D01*
X19626838Y-11903546D01*
X19579219Y-11903546D01*
X19560171Y-11894022D01*
X19550648Y-11884498D01*
X19760171Y-11903546D02*
X19798267Y-11903546D01*
X19817314Y-11894022D01*
X19826838Y-11884498D01*
X19845886Y-11855927D01*
X19855410Y-11817832D01*
X19855410Y-11741641D01*
X19845886Y-11722594D01*
X19836362Y-11713070D01*
X19817314Y-11703546D01*
X19779219Y-11703546D01*
X19760171Y-11713070D01*
X19750648Y-11722594D01*
X19741124Y-11741641D01*
X19741124Y-11789260D01*
X19750648Y-11808308D01*
X19760171Y-11817832D01*
X19779219Y-11827356D01*
X19817314Y-11827356D01*
X19836362Y-11817832D01*
X19845886Y-11808308D01*
X19855410Y-11789260D01*
X20045886Y-11903546D02*
X19931600Y-11903546D01*
X19988743Y-11903546D02*
X19988743Y-11703546D01*
X19969695Y-11732118D01*
X19950648Y-11751165D01*
X19931600Y-11760689D01*
X20122076Y-11703546D02*
X20122076Y-11741641D01*
X20198267Y-11703546D02*
X20198267Y-11741641D01*
X20493505Y-11979737D02*
X20483981Y-11970213D01*
X20464933Y-11941641D01*
X20455410Y-11922594D01*
X20445886Y-11894022D01*
X20436362Y-11846403D01*
X20436362Y-11808308D01*
X20445886Y-11760689D01*
X20455410Y-11732118D01*
X20464933Y-11713070D01*
X20483981Y-11684498D01*
X20493505Y-11674975D01*
X20560171Y-11722594D02*
X20569695Y-11713070D01*
X20588743Y-11703546D01*
X20636362Y-11703546D01*
X20655410Y-11713070D01*
X20664933Y-11722594D01*
X20674457Y-11741641D01*
X20674457Y-11760689D01*
X20664933Y-11789260D01*
X20550648Y-11903546D01*
X20674457Y-11903546D01*
X20912552Y-11903546D02*
X20912552Y-11703546D01*
X20998267Y-11903546D02*
X20998267Y-11798784D01*
X20988743Y-11779737D01*
X20969695Y-11770213D01*
X20941124Y-11770213D01*
X20922076Y-11779737D01*
X20912552Y-11789260D01*
X21122076Y-11903546D02*
X21103029Y-11894022D01*
X21093505Y-11884498D01*
X21083981Y-11865451D01*
X21083981Y-11808308D01*
X21093505Y-11789260D01*
X21103029Y-11779737D01*
X21122076Y-11770213D01*
X21150648Y-11770213D01*
X21169695Y-11779737D01*
X21179219Y-11789260D01*
X21188743Y-11808308D01*
X21188743Y-11865451D01*
X21179219Y-11884498D01*
X21169695Y-11894022D01*
X21150648Y-11903546D01*
X21122076Y-11903546D01*
X21303029Y-11903546D02*
X21283981Y-11894022D01*
X21274457Y-11874975D01*
X21274457Y-11703546D01*
X21455410Y-11894022D02*
X21436362Y-11903546D01*
X21398267Y-11903546D01*
X21379219Y-11894022D01*
X21369695Y-11874975D01*
X21369695Y-11798784D01*
X21379219Y-11779737D01*
X21398267Y-11770213D01*
X21436362Y-11770213D01*
X21455410Y-11779737D01*
X21464933Y-11798784D01*
X21464933Y-11817832D01*
X21369695Y-11836879D01*
X21541124Y-11894022D02*
X21560171Y-11903546D01*
X21598267Y-11903546D01*
X21617314Y-11894022D01*
X21626838Y-11874975D01*
X21626838Y-11865451D01*
X21617314Y-11846403D01*
X21598267Y-11836879D01*
X21569695Y-11836879D01*
X21550648Y-11827356D01*
X21541124Y-11808308D01*
X21541124Y-11798784D01*
X21550648Y-11779737D01*
X21569695Y-11770213D01*
X21598267Y-11770213D01*
X21617314Y-11779737D01*
X21693505Y-11979737D02*
X21703029Y-11970213D01*
X21722076Y-11941641D01*
X21731600Y-11922594D01*
X21741124Y-11894022D01*
X21750648Y-11846403D01*
X21750648Y-11808308D01*
X21741124Y-11760689D01*
X21731600Y-11732118D01*
X21722076Y-11713070D01*
X21703029Y-11684498D01*
X21693505Y-11674975D01*
X22055410Y-11979737D02*
X22045886Y-11970213D01*
X22026838Y-11941641D01*
X22017314Y-11922594D01*
X22007790Y-11894022D01*
X21998267Y-11846403D01*
X21998267Y-11808308D01*
X22007790Y-11760689D01*
X22017314Y-11732118D01*
X22026838Y-11713070D01*
X22045886Y-11684498D01*
X22055410Y-11674975D01*
X22131600Y-11770213D02*
X22131600Y-11903546D01*
X22131600Y-11789260D02*
X22141124Y-11779737D01*
X22160171Y-11770213D01*
X22188743Y-11770213D01*
X22207790Y-11779737D01*
X22217314Y-11798784D01*
X22217314Y-11903546D01*
X22341124Y-11903546D02*
X22322076Y-11894022D01*
X22312552Y-11884498D01*
X22303029Y-11865451D01*
X22303029Y-11808308D01*
X22312552Y-11789260D01*
X22322076Y-11779737D01*
X22341124Y-11770213D01*
X22369695Y-11770213D01*
X22388743Y-11779737D01*
X22398267Y-11789260D01*
X22407790Y-11808308D01*
X22407790Y-11865451D01*
X22398267Y-11884498D01*
X22388743Y-11894022D01*
X22369695Y-11903546D01*
X22341124Y-11903546D01*
X22464933Y-11770213D02*
X22541124Y-11770213D01*
X22493505Y-11703546D02*
X22493505Y-11874975D01*
X22503028Y-11894022D01*
X22522076Y-11903546D01*
X22541124Y-11903546D01*
X22760171Y-11770213D02*
X22760171Y-11970213D01*
X22760171Y-11779737D02*
X22779219Y-11770213D01*
X22817314Y-11770213D01*
X22836362Y-11779737D01*
X22845886Y-11789260D01*
X22855409Y-11808308D01*
X22855409Y-11865451D01*
X22845886Y-11884498D01*
X22836362Y-11894022D01*
X22817314Y-11903546D01*
X22779219Y-11903546D01*
X22760171Y-11894022D01*
X22969695Y-11903546D02*
X22950648Y-11894022D01*
X22941124Y-11874975D01*
X22941124Y-11703546D01*
X23131600Y-11903546D02*
X23131600Y-11798784D01*
X23122076Y-11779737D01*
X23103028Y-11770213D01*
X23064933Y-11770213D01*
X23045886Y-11779737D01*
X23131600Y-11894022D02*
X23112552Y-11903546D01*
X23064933Y-11903546D01*
X23045886Y-11894022D01*
X23036362Y-11874975D01*
X23036362Y-11855927D01*
X23045886Y-11836879D01*
X23064933Y-11827356D01*
X23112552Y-11827356D01*
X23131600Y-11817832D01*
X23198267Y-11770213D02*
X23274457Y-11770213D01*
X23226838Y-11703546D02*
X23226838Y-11874975D01*
X23236362Y-11894022D01*
X23255409Y-11903546D01*
X23274457Y-11903546D01*
X23417314Y-11894022D02*
X23398267Y-11903546D01*
X23360171Y-11903546D01*
X23341124Y-11894022D01*
X23331600Y-11874975D01*
X23331600Y-11798784D01*
X23341124Y-11779737D01*
X23360171Y-11770213D01*
X23398267Y-11770213D01*
X23417314Y-11779737D01*
X23426838Y-11798784D01*
X23426838Y-11817832D01*
X23331600Y-11836879D01*
X23598267Y-11903546D02*
X23598267Y-11703546D01*
X23598267Y-11894022D02*
X23579219Y-11903546D01*
X23541124Y-11903546D01*
X23522076Y-11894022D01*
X23512552Y-11884498D01*
X23503028Y-11865451D01*
X23503028Y-11808308D01*
X23512552Y-11789260D01*
X23522076Y-11779737D01*
X23541124Y-11770213D01*
X23579219Y-11770213D01*
X23598267Y-11779737D01*
X23674457Y-11979737D02*
X23683981Y-11970213D01*
X23703028Y-11941641D01*
X23712552Y-11922594D01*
X23722076Y-11894022D01*
X23731600Y-11846403D01*
X23731600Y-11808308D01*
X23722076Y-11760689D01*
X23712552Y-11732118D01*
X23703028Y-11713070D01*
X23683981Y-11684498D01*
X23674457Y-11674975D01*
X16921600Y-12083070D02*
G75*
G03*
X16921600Y-12083070I-100000J0D01*
G01*
X17160171Y-11973546D02*
X17283981Y-11973546D01*
X17217314Y-12049737D01*
X17245886Y-12049737D01*
X17264933Y-12059260D01*
X17274457Y-12068784D01*
X17283981Y-12087832D01*
X17283981Y-12135451D01*
X17274457Y-12154498D01*
X17264933Y-12164022D01*
X17245886Y-12173546D01*
X17188743Y-12173546D01*
X17169695Y-12164022D01*
X17160171Y-12154498D01*
X17369695Y-12154498D02*
X17379219Y-12164022D01*
X17369695Y-12173546D01*
X17360171Y-12164022D01*
X17369695Y-12154498D01*
X17369695Y-12173546D01*
X17455410Y-11992594D02*
X17464933Y-11983070D01*
X17483981Y-11973546D01*
X17531600Y-11973546D01*
X17550648Y-11983070D01*
X17560171Y-11992594D01*
X17569695Y-12011641D01*
X17569695Y-12030689D01*
X17560171Y-12059260D01*
X17445886Y-12173546D01*
X17569695Y-12173546D01*
X17693505Y-11973546D02*
X17712552Y-11973546D01*
X17731600Y-11983070D01*
X17741124Y-11992594D01*
X17750648Y-12011641D01*
X17760171Y-12049737D01*
X17760171Y-12097356D01*
X17750648Y-12135451D01*
X17741124Y-12154498D01*
X17731600Y-12164022D01*
X17712552Y-12173546D01*
X17693505Y-12173546D01*
X17674457Y-12164022D01*
X17664933Y-12154498D01*
X17655410Y-12135451D01*
X17645886Y-12097356D01*
X17645886Y-12049737D01*
X17655410Y-12011641D01*
X17664933Y-11992594D01*
X17674457Y-11983070D01*
X17693505Y-11973546D01*
X17883981Y-11973546D02*
X17903029Y-11973546D01*
X17922076Y-11983070D01*
X17931600Y-11992594D01*
X17941124Y-12011641D01*
X17950648Y-12049737D01*
X17950648Y-12097356D01*
X17941124Y-12135451D01*
X17931600Y-12154498D01*
X17922076Y-12164022D01*
X17903029Y-12173546D01*
X17883981Y-12173546D01*
X17864933Y-12164022D01*
X17855410Y-12154498D01*
X17845886Y-12135451D01*
X17836362Y-12097356D01*
X17836362Y-12049737D01*
X17845886Y-12011641D01*
X17855410Y-11992594D01*
X17864933Y-11983070D01*
X17883981Y-11973546D01*
X18036362Y-12173546D02*
X18036362Y-12040213D01*
X18036362Y-12059260D02*
X18045886Y-12049737D01*
X18064933Y-12040213D01*
X18093505Y-12040213D01*
X18112552Y-12049737D01*
X18122076Y-12068784D01*
X18122076Y-12173546D01*
X18122076Y-12068784D02*
X18131600Y-12049737D01*
X18150648Y-12040213D01*
X18179219Y-12040213D01*
X18198267Y-12049737D01*
X18207790Y-12068784D01*
X18207790Y-12173546D01*
X18303029Y-12173546D02*
X18303029Y-12040213D01*
X18303029Y-12059260D02*
X18312552Y-12049737D01*
X18331600Y-12040213D01*
X18360171Y-12040213D01*
X18379219Y-12049737D01*
X18388743Y-12068784D01*
X18388743Y-12173546D01*
X18388743Y-12068784D02*
X18398267Y-12049737D01*
X18417314Y-12040213D01*
X18445886Y-12040213D01*
X18464933Y-12049737D01*
X18474457Y-12068784D01*
X18474457Y-12173546D01*
X18864933Y-11964022D02*
X18693505Y-12221165D01*
X19122076Y-11973546D02*
X19141124Y-11973546D01*
X19160171Y-11983070D01*
X19169695Y-11992594D01*
X19179219Y-12011641D01*
X19188743Y-12049737D01*
X19188743Y-12097356D01*
X19179219Y-12135451D01*
X19169695Y-12154498D01*
X19160171Y-12164022D01*
X19141124Y-12173546D01*
X19122076Y-12173546D01*
X19103029Y-12164022D01*
X19093505Y-12154498D01*
X19083981Y-12135451D01*
X19074457Y-12097356D01*
X19074457Y-12049737D01*
X19083981Y-12011641D01*
X19093505Y-11992594D01*
X19103029Y-11983070D01*
X19122076Y-11973546D01*
X19274457Y-12154498D02*
X19283981Y-12164022D01*
X19274457Y-12173546D01*
X19264933Y-12164022D01*
X19274457Y-12154498D01*
X19274457Y-12173546D01*
X19474457Y-12173546D02*
X19360171Y-12173546D01*
X19417314Y-12173546D02*
X19417314Y-11973546D01*
X19398267Y-12002118D01*
X19379219Y-12021165D01*
X19360171Y-12030689D01*
X19550648Y-11992594D02*
X19560171Y-11983070D01*
X19579219Y-11973546D01*
X19626838Y-11973546D01*
X19645886Y-11983070D01*
X19655410Y-11992594D01*
X19664933Y-12011641D01*
X19664933Y-12030689D01*
X19655410Y-12059260D01*
X19541124Y-12173546D01*
X19664933Y-12173546D01*
X19836362Y-11973546D02*
X19798267Y-11973546D01*
X19779219Y-11983070D01*
X19769695Y-11992594D01*
X19750648Y-12021165D01*
X19741124Y-12059260D01*
X19741124Y-12135451D01*
X19750648Y-12154498D01*
X19760171Y-12164022D01*
X19779219Y-12173546D01*
X19817314Y-12173546D01*
X19836362Y-12164022D01*
X19845886Y-12154498D01*
X19855410Y-12135451D01*
X19855410Y-12087832D01*
X19845886Y-12068784D01*
X19836362Y-12059260D01*
X19817314Y-12049737D01*
X19779219Y-12049737D01*
X19760171Y-12059260D01*
X19750648Y-12068784D01*
X19741124Y-12087832D01*
X19979219Y-11973546D02*
X19998267Y-11973546D01*
X20017314Y-11983070D01*
X20026838Y-11992594D01*
X20036362Y-12011641D01*
X20045886Y-12049737D01*
X20045886Y-12097356D01*
X20036362Y-12135451D01*
X20026838Y-12154498D01*
X20017314Y-12164022D01*
X19998267Y-12173546D01*
X19979219Y-12173546D01*
X19960171Y-12164022D01*
X19950648Y-12154498D01*
X19941124Y-12135451D01*
X19931600Y-12097356D01*
X19931600Y-12049737D01*
X19941124Y-12011641D01*
X19950648Y-11992594D01*
X19960171Y-11983070D01*
X19979219Y-11973546D01*
X20122076Y-11973546D02*
X20122076Y-12011641D01*
X20198267Y-11973546D02*
X20198267Y-12011641D01*
X20493505Y-12249737D02*
X20483981Y-12240213D01*
X20464933Y-12211641D01*
X20455410Y-12192594D01*
X20445886Y-12164022D01*
X20436362Y-12116403D01*
X20436362Y-12078308D01*
X20445886Y-12030689D01*
X20455410Y-12002118D01*
X20464933Y-11983070D01*
X20483981Y-11954498D01*
X20493505Y-11944975D01*
X20579219Y-12173546D02*
X20617314Y-12173546D01*
X20636362Y-12164022D01*
X20645886Y-12154498D01*
X20664933Y-12125927D01*
X20674457Y-12087832D01*
X20674457Y-12011641D01*
X20664933Y-11992594D01*
X20655410Y-11983070D01*
X20636362Y-11973546D01*
X20598267Y-11973546D01*
X20579219Y-11983070D01*
X20569695Y-11992594D01*
X20560171Y-12011641D01*
X20560171Y-12059260D01*
X20569695Y-12078308D01*
X20579219Y-12087832D01*
X20598267Y-12097356D01*
X20636362Y-12097356D01*
X20655410Y-12087832D01*
X20664933Y-12078308D01*
X20674457Y-12059260D01*
X20912552Y-12173546D02*
X20912552Y-11973546D01*
X20998267Y-12173546D02*
X20998267Y-12068784D01*
X20988743Y-12049737D01*
X20969695Y-12040213D01*
X20941124Y-12040213D01*
X20922076Y-12049737D01*
X20912552Y-12059260D01*
X21122076Y-12173546D02*
X21103029Y-12164022D01*
X21093505Y-12154498D01*
X21083981Y-12135451D01*
X21083981Y-12078308D01*
X21093505Y-12059260D01*
X21103029Y-12049737D01*
X21122076Y-12040213D01*
X21150648Y-12040213D01*
X21169695Y-12049737D01*
X21179219Y-12059260D01*
X21188743Y-12078308D01*
X21188743Y-12135451D01*
X21179219Y-12154498D01*
X21169695Y-12164022D01*
X21150648Y-12173546D01*
X21122076Y-12173546D01*
X21303029Y-12173546D02*
X21283981Y-12164022D01*
X21274457Y-12144975D01*
X21274457Y-11973546D01*
X21455410Y-12164022D02*
X21436362Y-12173546D01*
X21398267Y-12173546D01*
X21379219Y-12164022D01*
X21369695Y-12144975D01*
X21369695Y-12068784D01*
X21379219Y-12049737D01*
X21398267Y-12040213D01*
X21436362Y-12040213D01*
X21455410Y-12049737D01*
X21464933Y-12068784D01*
X21464933Y-12087832D01*
X21369695Y-12106879D01*
X21541124Y-12164022D02*
X21560171Y-12173546D01*
X21598267Y-12173546D01*
X21617314Y-12164022D01*
X21626838Y-12144975D01*
X21626838Y-12135451D01*
X21617314Y-12116403D01*
X21598267Y-12106879D01*
X21569695Y-12106879D01*
X21550648Y-12097356D01*
X21541124Y-12078308D01*
X21541124Y-12068784D01*
X21550648Y-12049737D01*
X21569695Y-12040213D01*
X21598267Y-12040213D01*
X21617314Y-12049737D01*
X21693505Y-12249737D02*
X21703029Y-12240213D01*
X21722076Y-12211641D01*
X21731600Y-12192594D01*
X21741124Y-12164022D01*
X21750648Y-12116403D01*
X21750648Y-12078308D01*
X21741124Y-12030689D01*
X21731600Y-12002118D01*
X21722076Y-11983070D01*
X21703029Y-11954498D01*
X21693505Y-11944975D01*
X22055410Y-12249737D02*
X22045886Y-12240213D01*
X22026838Y-12211641D01*
X22017314Y-12192594D01*
X22007790Y-12164022D01*
X21998267Y-12116403D01*
X21998267Y-12078308D01*
X22007790Y-12030689D01*
X22017314Y-12002118D01*
X22026838Y-11983070D01*
X22045886Y-11954498D01*
X22055410Y-11944975D01*
X22131600Y-12040213D02*
X22131600Y-12173546D01*
X22131600Y-12059260D02*
X22141124Y-12049737D01*
X22160171Y-12040213D01*
X22188743Y-12040213D01*
X22207790Y-12049737D01*
X22217314Y-12068784D01*
X22217314Y-12173546D01*
X22341124Y-12173546D02*
X22322076Y-12164022D01*
X22312552Y-12154498D01*
X22303029Y-12135451D01*
X22303029Y-12078308D01*
X22312552Y-12059260D01*
X22322076Y-12049737D01*
X22341124Y-12040213D01*
X22369695Y-12040213D01*
X22388743Y-12049737D01*
X22398267Y-12059260D01*
X22407790Y-12078308D01*
X22407790Y-12135451D01*
X22398267Y-12154498D01*
X22388743Y-12164022D01*
X22369695Y-12173546D01*
X22341124Y-12173546D01*
X22464933Y-12040213D02*
X22541124Y-12040213D01*
X22493505Y-11973546D02*
X22493505Y-12144975D01*
X22503028Y-12164022D01*
X22522076Y-12173546D01*
X22541124Y-12173546D01*
X22760171Y-12040213D02*
X22760171Y-12240213D01*
X22760171Y-12049737D02*
X22779219Y-12040213D01*
X22817314Y-12040213D01*
X22836362Y-12049737D01*
X22845886Y-12059260D01*
X22855409Y-12078308D01*
X22855409Y-12135451D01*
X22845886Y-12154498D01*
X22836362Y-12164022D01*
X22817314Y-12173546D01*
X22779219Y-12173546D01*
X22760171Y-12164022D01*
X22969695Y-12173546D02*
X22950648Y-12164022D01*
X22941124Y-12144975D01*
X22941124Y-11973546D01*
X23131600Y-12173546D02*
X23131600Y-12068784D01*
X23122076Y-12049737D01*
X23103028Y-12040213D01*
X23064933Y-12040213D01*
X23045886Y-12049737D01*
X23131600Y-12164022D02*
X23112552Y-12173546D01*
X23064933Y-12173546D01*
X23045886Y-12164022D01*
X23036362Y-12144975D01*
X23036362Y-12125927D01*
X23045886Y-12106879D01*
X23064933Y-12097356D01*
X23112552Y-12097356D01*
X23131600Y-12087832D01*
X23198267Y-12040213D02*
X23274457Y-12040213D01*
X23226838Y-11973546D02*
X23226838Y-12144975D01*
X23236362Y-12164022D01*
X23255409Y-12173546D01*
X23274457Y-12173546D01*
X23417314Y-12164022D02*
X23398267Y-12173546D01*
X23360171Y-12173546D01*
X23341124Y-12164022D01*
X23331600Y-12144975D01*
X23331600Y-12068784D01*
X23341124Y-12049737D01*
X23360171Y-12040213D01*
X23398267Y-12040213D01*
X23417314Y-12049737D01*
X23426838Y-12068784D01*
X23426838Y-12087832D01*
X23331600Y-12106879D01*
X23598267Y-12173546D02*
X23598267Y-11973546D01*
X23598267Y-12164022D02*
X23579219Y-12173546D01*
X23541124Y-12173546D01*
X23522076Y-12164022D01*
X23512552Y-12154498D01*
X23503028Y-12135451D01*
X23503028Y-12078308D01*
X23512552Y-12059260D01*
X23522076Y-12049737D01*
X23541124Y-12040213D01*
X23579219Y-12040213D01*
X23598267Y-12049737D01*
X23674457Y-12249737D02*
X23683981Y-12240213D01*
X23703028Y-12211641D01*
X23712552Y-12192594D01*
X23722076Y-12164022D01*
X23731600Y-12116403D01*
X23731600Y-12078308D01*
X23722076Y-12030689D01*
X23712552Y-12002118D01*
X23703028Y-11983070D01*
X23683981Y-11954498D01*
X23674457Y-11944975D01*
X16821600Y-12303070D02*
X16821600Y-12503070D01*
X16721600Y-12403070D02*
X16921600Y-12403070D01*
X17264933Y-12360213D02*
X17264933Y-12493546D01*
X17217314Y-12284022D02*
X17169695Y-12426879D01*
X17293505Y-12426879D01*
X17369695Y-12474498D02*
X17379219Y-12484022D01*
X17369695Y-12493546D01*
X17360171Y-12484022D01*
X17369695Y-12474498D01*
X17369695Y-12493546D01*
X17445886Y-12293546D02*
X17569695Y-12293546D01*
X17503029Y-12369737D01*
X17531600Y-12369737D01*
X17550648Y-12379260D01*
X17560171Y-12388784D01*
X17569695Y-12407832D01*
X17569695Y-12455451D01*
X17560171Y-12474498D01*
X17550648Y-12484022D01*
X17531600Y-12493546D01*
X17474457Y-12493546D01*
X17455410Y-12484022D01*
X17445886Y-12474498D01*
X17693505Y-12293546D02*
X17712552Y-12293546D01*
X17731600Y-12303070D01*
X17741124Y-12312594D01*
X17750648Y-12331641D01*
X17760171Y-12369737D01*
X17760171Y-12417356D01*
X17750648Y-12455451D01*
X17741124Y-12474498D01*
X17731600Y-12484022D01*
X17712552Y-12493546D01*
X17693505Y-12493546D01*
X17674457Y-12484022D01*
X17664933Y-12474498D01*
X17655410Y-12455451D01*
X17645886Y-12417356D01*
X17645886Y-12369737D01*
X17655410Y-12331641D01*
X17664933Y-12312594D01*
X17674457Y-12303070D01*
X17693505Y-12293546D01*
X17883981Y-12293546D02*
X17903029Y-12293546D01*
X17922076Y-12303070D01*
X17931600Y-12312594D01*
X17941124Y-12331641D01*
X17950648Y-12369737D01*
X17950648Y-12417356D01*
X17941124Y-12455451D01*
X17931600Y-12474498D01*
X17922076Y-12484022D01*
X17903029Y-12493546D01*
X17883981Y-12493546D01*
X17864933Y-12484022D01*
X17855410Y-12474498D01*
X17845886Y-12455451D01*
X17836362Y-12417356D01*
X17836362Y-12369737D01*
X17845886Y-12331641D01*
X17855410Y-12312594D01*
X17864933Y-12303070D01*
X17883981Y-12293546D01*
X18036362Y-12493546D02*
X18036362Y-12360213D01*
X18036362Y-12379260D02*
X18045886Y-12369737D01*
X18064933Y-12360213D01*
X18093505Y-12360213D01*
X18112552Y-12369737D01*
X18122076Y-12388784D01*
X18122076Y-12493546D01*
X18122076Y-12388784D02*
X18131600Y-12369737D01*
X18150648Y-12360213D01*
X18179219Y-12360213D01*
X18198267Y-12369737D01*
X18207790Y-12388784D01*
X18207790Y-12493546D01*
X18303029Y-12493546D02*
X18303029Y-12360213D01*
X18303029Y-12379260D02*
X18312552Y-12369737D01*
X18331600Y-12360213D01*
X18360171Y-12360213D01*
X18379219Y-12369737D01*
X18388743Y-12388784D01*
X18388743Y-12493546D01*
X18388743Y-12388784D02*
X18398267Y-12369737D01*
X18417314Y-12360213D01*
X18445886Y-12360213D01*
X18464933Y-12369737D01*
X18474457Y-12388784D01*
X18474457Y-12493546D01*
X18864933Y-12284022D02*
X18693505Y-12541165D01*
X19122076Y-12293546D02*
X19141124Y-12293546D01*
X19160171Y-12303070D01*
X19169695Y-12312594D01*
X19179219Y-12331641D01*
X19188743Y-12369737D01*
X19188743Y-12417356D01*
X19179219Y-12455451D01*
X19169695Y-12474498D01*
X19160171Y-12484022D01*
X19141124Y-12493546D01*
X19122076Y-12493546D01*
X19103029Y-12484022D01*
X19093505Y-12474498D01*
X19083981Y-12455451D01*
X19074457Y-12417356D01*
X19074457Y-12369737D01*
X19083981Y-12331641D01*
X19093505Y-12312594D01*
X19103029Y-12303070D01*
X19122076Y-12293546D01*
X19274457Y-12474498D02*
X19283981Y-12484022D01*
X19274457Y-12493546D01*
X19264933Y-12484022D01*
X19274457Y-12474498D01*
X19274457Y-12493546D01*
X19474457Y-12493546D02*
X19360171Y-12493546D01*
X19417314Y-12493546D02*
X19417314Y-12293546D01*
X19398267Y-12322118D01*
X19379219Y-12341165D01*
X19360171Y-12350689D01*
X19645886Y-12293546D02*
X19607790Y-12293546D01*
X19588743Y-12303070D01*
X19579219Y-12312594D01*
X19560171Y-12341165D01*
X19550648Y-12379260D01*
X19550648Y-12455451D01*
X19560171Y-12474498D01*
X19569695Y-12484022D01*
X19588743Y-12493546D01*
X19626838Y-12493546D01*
X19645886Y-12484022D01*
X19655410Y-12474498D01*
X19664933Y-12455451D01*
X19664933Y-12407832D01*
X19655410Y-12388784D01*
X19645886Y-12379260D01*
X19626838Y-12369737D01*
X19588743Y-12369737D01*
X19569695Y-12379260D01*
X19560171Y-12388784D01*
X19550648Y-12407832D01*
X19760171Y-12493546D02*
X19798267Y-12493546D01*
X19817314Y-12484022D01*
X19826838Y-12474498D01*
X19845886Y-12445927D01*
X19855410Y-12407832D01*
X19855410Y-12331641D01*
X19845886Y-12312594D01*
X19836362Y-12303070D01*
X19817314Y-12293546D01*
X19779219Y-12293546D01*
X19760171Y-12303070D01*
X19750648Y-12312594D01*
X19741124Y-12331641D01*
X19741124Y-12379260D01*
X19750648Y-12398308D01*
X19760171Y-12407832D01*
X19779219Y-12417356D01*
X19817314Y-12417356D01*
X19836362Y-12407832D01*
X19845886Y-12398308D01*
X19855410Y-12379260D01*
X19922076Y-12293546D02*
X20045886Y-12293546D01*
X19979219Y-12369737D01*
X20007790Y-12369737D01*
X20026838Y-12379260D01*
X20036362Y-12388784D01*
X20045886Y-12407832D01*
X20045886Y-12455451D01*
X20036362Y-12474498D01*
X20026838Y-12484022D01*
X20007790Y-12493546D01*
X19950648Y-12493546D01*
X19931600Y-12484022D01*
X19922076Y-12474498D01*
X20122076Y-12293546D02*
X20122076Y-12331641D01*
X20198267Y-12293546D02*
X20198267Y-12331641D01*
X20493505Y-12569737D02*
X20483981Y-12560213D01*
X20464933Y-12531641D01*
X20455410Y-12512594D01*
X20445886Y-12484022D01*
X20436362Y-12436403D01*
X20436362Y-12398308D01*
X20445886Y-12350689D01*
X20455410Y-12322118D01*
X20464933Y-12303070D01*
X20483981Y-12274498D01*
X20493505Y-12264975D01*
X20560171Y-12312594D02*
X20569695Y-12303070D01*
X20588743Y-12293546D01*
X20636362Y-12293546D01*
X20655410Y-12303070D01*
X20664933Y-12312594D01*
X20674457Y-12331641D01*
X20674457Y-12350689D01*
X20664933Y-12379260D01*
X20550648Y-12493546D01*
X20674457Y-12493546D01*
X20912552Y-12493546D02*
X20912552Y-12293546D01*
X20998267Y-12493546D02*
X20998267Y-12388784D01*
X20988743Y-12369737D01*
X20969695Y-12360213D01*
X20941124Y-12360213D01*
X20922076Y-12369737D01*
X20912552Y-12379260D01*
X21122076Y-12493546D02*
X21103029Y-12484022D01*
X21093505Y-12474498D01*
X21083981Y-12455451D01*
X21083981Y-12398308D01*
X21093505Y-12379260D01*
X21103029Y-12369737D01*
X21122076Y-12360213D01*
X21150648Y-12360213D01*
X21169695Y-12369737D01*
X21179219Y-12379260D01*
X21188743Y-12398308D01*
X21188743Y-12455451D01*
X21179219Y-12474498D01*
X21169695Y-12484022D01*
X21150648Y-12493546D01*
X21122076Y-12493546D01*
X21303029Y-12493546D02*
X21283981Y-12484022D01*
X21274457Y-12464975D01*
X21274457Y-12293546D01*
X21455410Y-12484022D02*
X21436362Y-12493546D01*
X21398267Y-12493546D01*
X21379219Y-12484022D01*
X21369695Y-12464975D01*
X21369695Y-12388784D01*
X21379219Y-12369737D01*
X21398267Y-12360213D01*
X21436362Y-12360213D01*
X21455410Y-12369737D01*
X21464933Y-12388784D01*
X21464933Y-12407832D01*
X21369695Y-12426879D01*
X21541124Y-12484022D02*
X21560171Y-12493546D01*
X21598267Y-12493546D01*
X21617314Y-12484022D01*
X21626838Y-12464975D01*
X21626838Y-12455451D01*
X21617314Y-12436403D01*
X21598267Y-12426879D01*
X21569695Y-12426879D01*
X21550648Y-12417356D01*
X21541124Y-12398308D01*
X21541124Y-12388784D01*
X21550648Y-12369737D01*
X21569695Y-12360213D01*
X21598267Y-12360213D01*
X21617314Y-12369737D01*
X21693505Y-12569737D02*
X21703029Y-12560213D01*
X21722076Y-12531641D01*
X21731600Y-12512594D01*
X21741124Y-12484022D01*
X21750648Y-12436403D01*
X21750648Y-12398308D01*
X21741124Y-12350689D01*
X21731600Y-12322118D01*
X21722076Y-12303070D01*
X21703029Y-12274498D01*
X21693505Y-12264975D01*
X22055410Y-12569737D02*
X22045886Y-12560213D01*
X22026838Y-12531641D01*
X22017314Y-12512594D01*
X22007790Y-12484022D01*
X21998267Y-12436403D01*
X21998267Y-12398308D01*
X22007790Y-12350689D01*
X22017314Y-12322118D01*
X22026838Y-12303070D01*
X22045886Y-12274498D01*
X22055410Y-12264975D01*
X22131600Y-12360213D02*
X22131600Y-12493546D01*
X22131600Y-12379260D02*
X22141124Y-12369737D01*
X22160171Y-12360213D01*
X22188743Y-12360213D01*
X22207790Y-12369737D01*
X22217314Y-12388784D01*
X22217314Y-12493546D01*
X22341124Y-12493546D02*
X22322076Y-12484022D01*
X22312552Y-12474498D01*
X22303029Y-12455451D01*
X22303029Y-12398308D01*
X22312552Y-12379260D01*
X22322076Y-12369737D01*
X22341124Y-12360213D01*
X22369695Y-12360213D01*
X22388743Y-12369737D01*
X22398267Y-12379260D01*
X22407790Y-12398308D01*
X22407790Y-12455451D01*
X22398267Y-12474498D01*
X22388743Y-12484022D01*
X22369695Y-12493546D01*
X22341124Y-12493546D01*
X22464933Y-12360213D02*
X22541124Y-12360213D01*
X22493505Y-12293546D02*
X22493505Y-12464975D01*
X22503028Y-12484022D01*
X22522076Y-12493546D01*
X22541124Y-12493546D01*
X22760171Y-12360213D02*
X22760171Y-12560213D01*
X22760171Y-12369737D02*
X22779219Y-12360213D01*
X22817314Y-12360213D01*
X22836362Y-12369737D01*
X22845886Y-12379260D01*
X22855409Y-12398308D01*
X22855409Y-12455451D01*
X22845886Y-12474498D01*
X22836362Y-12484022D01*
X22817314Y-12493546D01*
X22779219Y-12493546D01*
X22760171Y-12484022D01*
X22969695Y-12493546D02*
X22950648Y-12484022D01*
X22941124Y-12464975D01*
X22941124Y-12293546D01*
X23131600Y-12493546D02*
X23131600Y-12388784D01*
X23122076Y-12369737D01*
X23103028Y-12360213D01*
X23064933Y-12360213D01*
X23045886Y-12369737D01*
X23131600Y-12484022D02*
X23112552Y-12493546D01*
X23064933Y-12493546D01*
X23045886Y-12484022D01*
X23036362Y-12464975D01*
X23036362Y-12445927D01*
X23045886Y-12426879D01*
X23064933Y-12417356D01*
X23112552Y-12417356D01*
X23131600Y-12407832D01*
X23198267Y-12360213D02*
X23274457Y-12360213D01*
X23226838Y-12293546D02*
X23226838Y-12464975D01*
X23236362Y-12484022D01*
X23255409Y-12493546D01*
X23274457Y-12493546D01*
X23417314Y-12484022D02*
X23398267Y-12493546D01*
X23360171Y-12493546D01*
X23341124Y-12484022D01*
X23331600Y-12464975D01*
X23331600Y-12388784D01*
X23341124Y-12369737D01*
X23360171Y-12360213D01*
X23398267Y-12360213D01*
X23417314Y-12369737D01*
X23426838Y-12388784D01*
X23426838Y-12407832D01*
X23331600Y-12426879D01*
X23598267Y-12493546D02*
X23598267Y-12293546D01*
X23598267Y-12484022D02*
X23579219Y-12493546D01*
X23541124Y-12493546D01*
X23522076Y-12484022D01*
X23512552Y-12474498D01*
X23503028Y-12455451D01*
X23503028Y-12398308D01*
X23512552Y-12379260D01*
X23522076Y-12369737D01*
X23541124Y-12360213D01*
X23579219Y-12360213D01*
X23598267Y-12369737D01*
X23674457Y-12569737D02*
X23683981Y-12560213D01*
X23703028Y-12531641D01*
X23712552Y-12512594D01*
X23722076Y-12484022D01*
X23731600Y-12436403D01*
X23731600Y-12398308D01*
X23722076Y-12350689D01*
X23712552Y-12322118D01*
X23703028Y-12303070D01*
X23683981Y-12274498D01*
X23674457Y-12264975D01*
M02*
