%TF.GenerationSoftware,KiCad,Pcbnew,6.0.11+dfsg-1~bpo11+1*%
%TF.CreationDate,2023-11-13T20:24:00+01:00*%
%TF.ProjectId,v4_pico,76345f70-6963-46f2-9e6b-696361645f70,rev?*%
%TF.SameCoordinates,Original*%
%TF.FileFunction,Soldermask,Bot*%
%TF.FilePolarity,Negative*%
%FSLAX46Y46*%
G04 Gerber Fmt 4.6, Leading zero omitted, Abs format (unit mm)*
G04 Created by KiCad (PCBNEW 6.0.11+dfsg-1~bpo11+1) date 2023-11-13 20:24:00*
%MOMM*%
%LPD*%
G01*
G04 APERTURE LIST*
G04 Aperture macros list*
%AMRoundRect*
0 Rectangle with rounded corners*
0 $1 Rounding radius*
0 $2 $3 $4 $5 $6 $7 $8 $9 X,Y pos of 4 corners*
0 Add a 4 corners polygon primitive as box body*
4,1,4,$2,$3,$4,$5,$6,$7,$8,$9,$2,$3,0*
0 Add four circle primitives for the rounded corners*
1,1,$1+$1,$2,$3*
1,1,$1+$1,$4,$5*
1,1,$1+$1,$6,$7*
1,1,$1+$1,$8,$9*
0 Add four rect primitives between the rounded corners*
20,1,$1+$1,$2,$3,$4,$5,0*
20,1,$1+$1,$4,$5,$6,$7,0*
20,1,$1+$1,$6,$7,$8,$9,0*
20,1,$1+$1,$8,$9,$2,$3,0*%
G04 Aperture macros list end*
%ADD10R,1.600000X1.600000*%
%ADD11C,1.600000*%
%ADD12R,2.500000X2.500000*%
%ADD13RoundRect,0.250000X0.350000X0.625000X-0.350000X0.625000X-0.350000X-0.625000X0.350000X-0.625000X0*%
%ADD14O,1.200000X1.750000*%
%ADD15RoundRect,0.250000X-0.350000X-0.625000X0.350000X-0.625000X0.350000X0.625000X-0.350000X0.625000X0*%
%ADD16C,3.200000*%
%ADD17O,1.600000X1.600000*%
%ADD18O,1.700000X1.700000*%
%ADD19R,1.700000X1.700000*%
%ADD20RoundRect,0.250000X-0.600000X-0.750000X0.600000X-0.750000X0.600000X0.750000X-0.600000X0.750000X0*%
%ADD21O,1.700000X2.000000*%
%ADD22R,1.500000X1.500000*%
%ADD23O,1.500000X1.500000*%
%ADD24C,1.700000*%
%ADD25C,1.400000*%
%ADD26C,2.000000*%
%ADD27C,1.524000*%
%ADD28O,1.524000X2.000000*%
%ADD29O,2.000000X1.524000*%
%ADD30C,4.300000*%
%ADD31R,1.800000X1.100000*%
%ADD32RoundRect,0.275000X-0.625000X0.275000X-0.625000X-0.275000X0.625000X-0.275000X0.625000X0.275000X0*%
%ADD33R,1.200000X1.200000*%
%ADD34C,1.200000*%
%ADD35RoundRect,0.250000X0.600000X0.750000X-0.600000X0.750000X-0.600000X-0.750000X0.600000X-0.750000X0*%
G04 APERTURE END LIST*
D10*
X217975000Y-68326000D03*
D11*
X220475000Y-68326000D03*
X246293000Y-60198000D03*
X248793000Y-60198000D03*
D12*
X222377000Y-100838000D03*
X227605000Y-96774000D03*
X234569000Y-100838000D03*
X234569000Y-108966000D03*
X222377000Y-108966000D03*
X223901000Y-104902000D03*
X223541000Y-96774000D03*
X230505000Y-100838000D03*
X214249000Y-108966000D03*
X235733000Y-96774000D03*
X232029000Y-104902000D03*
X236093000Y-104902000D03*
X214249000Y-100838000D03*
X231669000Y-96774000D03*
X226441000Y-100838000D03*
X218313000Y-108966000D03*
X211709000Y-104902000D03*
X230505000Y-108966000D03*
X227965000Y-104902000D03*
X215773000Y-104902000D03*
X218313000Y-100838000D03*
X226441000Y-108966000D03*
X219837000Y-104902000D03*
X206121000Y-33274000D03*
X209677000Y-33274000D03*
X213233000Y-33274000D03*
D10*
X242189000Y-95886700D03*
D11*
X242189000Y-92386700D03*
D13*
X226885000Y-62780000D03*
D14*
X224885000Y-62780000D03*
X222885000Y-62780000D03*
X220885000Y-62780000D03*
X218885000Y-62780000D03*
D15*
X225933000Y-73914000D03*
D14*
X227933000Y-73914000D03*
X229933000Y-73914000D03*
X231933000Y-73914000D03*
X233933000Y-73914000D03*
X235933000Y-73914000D03*
X237933000Y-73914000D03*
D15*
X205613000Y-61722000D03*
D14*
X207613000Y-61722000D03*
X209613000Y-61722000D03*
D12*
X244729000Y-29210000D03*
X244729000Y-32766000D03*
X248285000Y-29210000D03*
X248285000Y-32766000D03*
X237617000Y-32766000D03*
X251841000Y-32766000D03*
D16*
X249472000Y-21399500D03*
X210534000Y-21399500D03*
D11*
X234061000Y-68072000D03*
D17*
X234061000Y-60452000D03*
D11*
X213635000Y-91542000D03*
D17*
X213635000Y-83922000D03*
D11*
X214757000Y-68072000D03*
D17*
X214757000Y-60452000D03*
D11*
X224155000Y-33274000D03*
D17*
X216535000Y-33274000D03*
D11*
X234315000Y-33274000D03*
D17*
X226695000Y-33274000D03*
D18*
X253635000Y-38100000D03*
X251095000Y-38100000D03*
D19*
X248555000Y-38100000D03*
D18*
X246015000Y-38100000D03*
X243475000Y-38100000D03*
X240935000Y-38100000D03*
X238395000Y-38100000D03*
D19*
X235855000Y-38100000D03*
D18*
X233315000Y-38100000D03*
X230775000Y-38100000D03*
X228235000Y-38100000D03*
X225695000Y-38100000D03*
D19*
X223155000Y-38100000D03*
D18*
X220615000Y-38100000D03*
X218075000Y-38100000D03*
X215535000Y-38100000D03*
X212995000Y-38100000D03*
D19*
X210455000Y-38100000D03*
D18*
X207915000Y-38100000D03*
X205375000Y-38100000D03*
X205375000Y-55880000D03*
X207915000Y-55880000D03*
D19*
X210455000Y-55880000D03*
D18*
X212995000Y-55880000D03*
X215535000Y-55880000D03*
X218075000Y-55880000D03*
X220615000Y-55880000D03*
D19*
X223155000Y-55880000D03*
D18*
X225695000Y-55880000D03*
X228235000Y-55880000D03*
X230775000Y-55880000D03*
X233315000Y-55880000D03*
D19*
X235855000Y-55880000D03*
D18*
X238395000Y-55880000D03*
X240935000Y-55880000D03*
X243475000Y-55880000D03*
X246015000Y-55880000D03*
D19*
X248555000Y-55880000D03*
D18*
X251095000Y-55880000D03*
X253635000Y-55880000D03*
X205605000Y-44450000D03*
D19*
X205605000Y-46990000D03*
D18*
X205605000Y-49530000D03*
D16*
X172343000Y-101878000D03*
D10*
X213497000Y-73162000D03*
D17*
X213497000Y-75702000D03*
X213497000Y-78242000D03*
X213497000Y-80782000D03*
X221117000Y-80782000D03*
X221117000Y-78242000D03*
X221117000Y-75702000D03*
X221117000Y-73162000D03*
D16*
X207137000Y-86614000D03*
D20*
X206121000Y-92710000D03*
D21*
X208621000Y-92710000D03*
D11*
X183996000Y-44296000D03*
X181496000Y-44296000D03*
X238633000Y-86868000D03*
D17*
X238633000Y-79248000D03*
D10*
X219329000Y-86447600D03*
D11*
X219329000Y-88947600D03*
D15*
X240665000Y-101854000D03*
D14*
X242665000Y-101854000D03*
X244665000Y-101854000D03*
D10*
X227721000Y-79766000D03*
D17*
X227721000Y-82306000D03*
X227721000Y-84846000D03*
X227721000Y-87386000D03*
X235341000Y-87386000D03*
X235341000Y-84846000D03*
X235341000Y-82306000D03*
X235341000Y-79766000D03*
D16*
X184969000Y-54638000D03*
D22*
X224917000Y-79751000D03*
D23*
X224917000Y-87371000D03*
D15*
X178245000Y-100838000D03*
D14*
X180245000Y-100838000D03*
X182245000Y-100838000D03*
X184245000Y-100838000D03*
X186245000Y-100838000D03*
D12*
X192398000Y-43788000D03*
X178174000Y-43788000D03*
D16*
X253111000Y-90170000D03*
D24*
X185195000Y-90186000D03*
D25*
X185195000Y-92336000D03*
D24*
X179295000Y-90186000D03*
D26*
X175895000Y-89796000D03*
X188595000Y-89796000D03*
D24*
X179295000Y-94486000D03*
D26*
X188595000Y-94876000D03*
D25*
X179295000Y-92336000D03*
D26*
X175895000Y-94876000D03*
D24*
X185195000Y-94486000D03*
D11*
X246253000Y-75184000D03*
D17*
X246253000Y-82804000D03*
D27*
X176245000Y-69446000D03*
X188245000Y-81446000D03*
D28*
X180245000Y-84046000D03*
X182245000Y-84046000D03*
X184245000Y-84046000D03*
D29*
X173645000Y-73446000D03*
X173645000Y-75446000D03*
X173645000Y-77446000D03*
D30*
X196469000Y-24638000D03*
D11*
X225231000Y-90678000D03*
D17*
X232731000Y-90678000D03*
D16*
X192343000Y-101878000D03*
D11*
X242189000Y-86868000D03*
D17*
X242189000Y-79248000D03*
D19*
X178619000Y-36816000D03*
D18*
X181159000Y-36816000D03*
X183699000Y-36816000D03*
X186239000Y-36816000D03*
X188779000Y-36816000D03*
X191319000Y-36816000D03*
D11*
X183762000Y-41248000D03*
X181262000Y-41248000D03*
D16*
X192343000Y-64262000D03*
D11*
X231013000Y-68072000D03*
D17*
X231013000Y-60452000D03*
D31*
X217675000Y-94032000D03*
D32*
X219745000Y-95302000D03*
X217675000Y-96572000D03*
D16*
X172343000Y-64262000D03*
D20*
X251099000Y-76454000D03*
D21*
X253599000Y-76454000D03*
D30*
X173469000Y-24638000D03*
D33*
X224917000Y-67463000D03*
D34*
X224917000Y-69463000D03*
D13*
X179705000Y-49784000D03*
D14*
X177705000Y-49784000D03*
X175705000Y-49784000D03*
D13*
X209645000Y-76544000D03*
D14*
X207645000Y-76544000D03*
X205645000Y-76544000D03*
D35*
X253365000Y-96774000D03*
D21*
X250865000Y-96774000D03*
M02*
