M48
; DRILL file {KiCad 6.0.11+dfsg-1~bpo11+1} date lun. 13 nov. 2023 20:24:23
; FORMAT={-:-/ absolute / metric / decimal}
; #@! TF.CreationDate,2023-11-13T20:24:23+01:00
; #@! TF.GenerationSoftware,Kicad,Pcbnew,6.0.11+dfsg-1~bpo11+1
; #@! TF.FileFunction,Plated,1,2,PTH
FMAT,2
METRIC
; #@! TA.AperFunction,Plated,PTH,ViaDrill
T1C0.400
; #@! TA.AperFunction,Plated,PTH,ComponentDrill
T2C0.600
; #@! TA.AperFunction,Plated,PTH,ComponentDrill
T3C0.750
; #@! TA.AperFunction,Plated,PTH,ComponentDrill
T4C0.800
; #@! TA.AperFunction,Plated,PTH,ComponentDrill
T5C0.850
; #@! TA.AperFunction,Plated,PTH,ComponentDrill
T6C1.000
; #@! TA.AperFunction,Plated,PTH,ComponentDrill
T7C1.020
; #@! TA.AperFunction,Plated,PTH,ComponentDrill
T8C1.200
%
G90
G05
T1
X210.826Y-60.97
X212.32Y-95.989
X212.372Y-57.442
X212.65Y-41.308
X212.65Y-53.412
X215.172Y-73.095
X215.76Y-52.214
X216.846Y-53.285
X217.386Y-34.918
X218.012Y-102.696
X219.81Y-59.844
X220.338Y-54.401
X221.044Y-48.684
X221.51Y-41.705
X223.243Y-73.777
X223.706Y-68.294
X224.742Y-53.084
X224.829Y-71.751
X225.51Y-70.993
X225.693Y-52.276
X226.21Y-53.519
X228.808Y-102.491
X228.954Y-81.554
X229.315Y-94.263
X230.066Y-76.425
X230.392Y-78.888
X231.013Y-66.137
X232.138Y-37.041
X234.061Y-52.698
X235.001Y-53.173
X235.189Y-71.429
X236.378Y-93.755
X236.412Y-76.034
X238.436Y-60.597
X238.633Y-81.115
X239.089Y-66.935
X239.171Y-53.148
X239.657Y-54.395
X239.788Y-46.176
X240.006Y-48.585
X240.225Y-90.434
X240.746Y-49.896
X241.027Y-48.444
X241.557Y-47.203
X241.806Y-51.973
X243.287Y-35.369
X243.475Y-58.666
X243.997Y-62.081
X244.624Y-53.8
X244.822Y-74.794
X245.054Y-88.809
X245.087Y-64.78
X245.722Y-91.479
X245.904Y-52.343
X246.96Y-92.585
X247.064Y-42.516
X247.348Y-54.133
X247.355Y-52.403
X247.74Y-91.072
X249.781Y-98.646
X249.812Y-67.344
X249.918Y-58.731
X252.784Y-53.392
X254.127Y-35.306
X254.165Y-61.501
X254.569Y-60.376
T2
X224.917Y-67.463
X224.917Y-69.463
T3
X175.705Y-49.784
X177.705Y-49.784
X178.245Y-100.838
X179.705Y-49.784
X180.245Y-100.838
X182.245Y-100.838
X184.245Y-100.838
X186.245Y-100.838
X205.613Y-61.722
X205.645Y-76.544
X207.613Y-61.722
X207.645Y-76.544
X209.613Y-61.722
X209.645Y-76.544
X218.075Y-94.032
X218.075Y-96.572
X218.885Y-62.78
X219.345Y-95.302
X220.885Y-62.78
X222.885Y-62.78
X224.885Y-62.78
X224.917Y-79.751
X224.917Y-87.371
X225.933Y-73.914
X226.885Y-62.78
X227.933Y-73.914
X229.933Y-73.914
X231.933Y-73.914
X233.933Y-73.914
X235.933Y-73.914
X237.933Y-73.914
X240.665Y-101.854
X242.665Y-101.854
X244.665Y-101.854
T4
X181.262Y-41.248
X181.496Y-44.296
X183.762Y-41.248
X183.996Y-44.296
X213.497Y-73.162
X213.497Y-75.702
X213.497Y-78.242
X213.497Y-80.782
X213.635Y-83.922
X213.635Y-91.542
X214.757Y-60.452
X214.757Y-68.072
X216.535Y-33.274
X217.975Y-68.326
X219.329Y-86.448
X219.329Y-88.948
X220.475Y-68.326
X221.117Y-73.162
X221.117Y-75.702
X221.117Y-78.242
X221.117Y-80.782
X224.155Y-33.274
X225.231Y-90.678
X226.695Y-33.274
X227.721Y-79.766
X227.721Y-82.306
X227.721Y-84.846
X227.721Y-87.386
X231.013Y-60.452
X231.013Y-68.072
X232.731Y-90.678
X234.061Y-60.452
X234.061Y-68.072
X234.315Y-33.274
X235.341Y-79.766
X235.341Y-82.306
X235.341Y-84.846
X235.341Y-87.386
X238.633Y-79.248
X238.633Y-86.868
X242.189Y-79.248
X242.189Y-86.868
X242.189Y-92.387
X242.189Y-95.887
X246.253Y-75.184
X246.253Y-82.804
X246.293Y-60.198
X248.793Y-60.198
T5
X179.295Y-90.186
X179.295Y-92.336
X179.295Y-94.486
X185.195Y-90.186
X185.195Y-92.336
X185.195Y-94.486
T6
X173.645Y-73.446
X173.645Y-75.446
X173.645Y-77.446
X178.619Y-36.816
X180.245Y-84.046
X181.159Y-36.816
X182.245Y-84.046
X183.699Y-36.816
X184.245Y-84.046
X186.239Y-36.816
X188.779Y-36.816
X191.319Y-36.816
X206.121Y-92.71
X208.621Y-92.71
X250.865Y-96.774
X251.099Y-76.454
X253.365Y-96.774
X253.599Y-76.454
T7
X205.375Y-38.1
X205.375Y-55.88
X205.605Y-44.45
X205.605Y-46.99
X205.605Y-49.53
X207.915Y-38.1
X207.915Y-55.88
X210.455Y-38.1
X210.455Y-55.88
X212.995Y-38.1
X212.995Y-55.88
X215.535Y-38.1
X215.535Y-55.88
X218.075Y-38.1
X218.075Y-55.88
X220.615Y-38.1
X220.615Y-55.88
X223.155Y-38.1
X223.155Y-55.88
X225.695Y-38.1
X225.695Y-55.88
X228.235Y-38.1
X228.235Y-55.88
X230.775Y-38.1
X230.775Y-55.88
X233.315Y-38.1
X233.315Y-55.88
X235.855Y-38.1
X235.855Y-55.88
X238.395Y-38.1
X238.395Y-55.88
X240.935Y-38.1
X240.935Y-55.88
X243.475Y-38.1
X243.475Y-55.88
X246.015Y-38.1
X246.015Y-55.88
X248.555Y-38.1
X248.555Y-55.88
X251.095Y-38.1
X251.095Y-55.88
X253.635Y-38.1
X253.635Y-55.88
T8
X175.895Y-89.796
X175.895Y-94.876
X178.174Y-43.788
X188.595Y-89.796
X188.595Y-94.876
X192.398Y-43.788
X206.121Y-33.274
X209.677Y-33.274
X211.709Y-104.902
X213.233Y-33.274
X214.249Y-100.838
X214.249Y-108.966
X215.773Y-104.902
X218.313Y-100.838
X218.313Y-108.966
X219.837Y-104.902
X222.377Y-100.838
X222.377Y-108.966
X223.541Y-96.774
X223.901Y-104.902
X226.441Y-100.838
X226.441Y-108.966
X227.605Y-96.774
X227.965Y-104.902
X230.505Y-100.838
X230.505Y-108.966
X231.669Y-96.774
X232.029Y-104.902
X234.569Y-100.838
X234.569Y-108.966
X235.733Y-96.774
X236.093Y-104.902
X237.617Y-32.766
X244.729Y-29.21
X244.729Y-32.766
X248.285Y-29.21
X248.285Y-32.766
X251.841Y-32.766
T0
M30
